<svg version="1.2" xmlns="http://www.w3.org/2000/svg" viewBox="0 0 70 59" width="70" height="59">
	<title>مادر</title>
	<defs>
		<linearGradient id="g1" x2="1" gradientUnits="userSpaceOnUse" gradientTransform="matrix(59.67,0,0,17.153,-0.16,12.26)">
			<stop offset="0" stop-color="#f720e5"/>
			<stop offset="1" stop-color="#5e147d"/>
		</linearGradient>
		<linearGradient id="g2" x2="1" gradientUnits="userSpaceOnUse" gradientTransform="matrix(28.16,0,0,45.697,40.23,25.98)">
			<stop offset="0" stop-color="#f720e5"/>
			<stop offset="1" stop-color="#5e147d"/>
		</linearGradient>
		<linearGradient id="g3" x2="1" gradientUnits="userSpaceOnUse" gradientTransform="matrix(-21.9,-41.51,40.274,-21.248,50.11,57.58)">
			<stop offset="0" stop-color="#5e147d"/>
			<stop offset="1" stop-color="#f720e5"/>
		</linearGradient>
		<linearGradient id="g4" x2="1" gradientUnits="userSpaceOnUse" gradientTransform="matrix(52.11,0,0,14.99,25.94,-49)">
			<stop offset="0" stop-color="#f720e5"/>
			<stop offset="1" stop-color="#5e147d"/>
		</linearGradient>
		<linearGradient id="g5" x2="1" gradientUnits="userSpaceOnUse" gradientTransform="matrix(24.6,0,0,39.912,61.21,-37.01)">
			<stop offset="0" stop-color="#f720e5"/>
			<stop offset="1" stop-color="#5e147d"/>
		</linearGradient>
		<linearGradient id="g6" x2="1" gradientUnits="userSpaceOnUse" gradientTransform="matrix(-19.13,-36.25,35.164,-18.557,69.84,-9.42)">
			<stop offset="0" stop-color="#5e147d"/>
			<stop offset="1" stop-color="#f720e5"/>
		</linearGradient>
	</defs>
	<style>
		.s0 { fill: url(#g1) } 
		.s1 { fill: url(#g2) } 
		.s2 { fill: url(#g3) } 
		.s3 { fill: #414042 } 
		.s4 { fill: url(#g4) } 
		.s5 { fill: url(#g5) } 
		.s6 { fill: url(#g6) } 
	</style>
	<g>
		<g>
			<path class="s0" d="m20.3 8.1c-5.5 1-13.4 1.9-20.5-1.5 1 1.2 2.9 3.3 5.8 5.2 4 2.7 10.9 5.5 20.8 3.8 5.3-1 7.9 0.1 10.4 1.2 1.5 0.7 3 1.3 5.1 1.4 1.6 0 3.2-0.7 4.9-1.4 1.7-0.7 3.5-1.5 5.4-1.5 2 0 4.1 0.9 6.3 3.7q0.6 0.8 1 1.8 0-0.1-0.1-0.3-0.1-0.5-0.2-0.9 0-0.2-0.1-0.3-0.1-0.4-0.2-0.7 0-0.1-0.1-0.2-0.1-0.3-0.2-0.7 0 0-0.1-0.1-0.1-0.4-0.3-0.8 0 0 0 0-0.2-0.5-0.5-0.9 0 0 0 0c-2-3.8-5.4-7-9.3-9.2q-0.4-0.3-0.9-0.5 0 0 0 0-0.5-0.2-0.9-0.5 0 0-0.1 0-0.4-0.2-0.8-0.4-0.1 0-0.2 0-0.4-0.2-0.8-0.3-0.1-0.1-0.2-0.1-0.4-0.1-0.8-0.2-0.1-0.1-0.3-0.1-0.3-0.1-0.7-0.2-0.1-0.1-0.3-0.1-0.3-0.1-0.7-0.2-0.2 0-0.3 0-0.4-0.1-0.7-0.2-0.2 0-0.4 0-0.3-0.1-0.6-0.1-0.2 0-0.4 0-0.3-0.1-0.6-0.1-0.2 0-0.5 0-0.2 0-0.5 0-0.3 0-0.5 0-0.3 0-0.5 0-0.3 0-0.5 0-0.3 0-0.6 0-0.2 0.1-0.4 0.1-0.3 0-0.6 0c-1.7 0.5-3.5 1.1-5.3 1.7-2.8 1-5.8 2-9 2.6z"/>
			<path class="s1" d="m43.5 47.7c9.7-5.5 15.9-13.1 17.2-20.9q0.5-3.3-0.2-6.4c-1.1-5-4.5-9.8-9.3-13.1-3.4-2.3-7.2-3.7-11-4.1 2.7-0.1 5.7 0.2 8.2 0.9 11.7 3.1 19.6 13.6 20 25.2 0.2 6.3-2.6 12.5-7.8 16.2-3.8 2.8-9.4 4.7-17.1 2.2z"/>
			<path class="s2" d="m51 49.7c-2.8 0-5.4-0.6-7.5-1.3q-0.5-0.2-0.9-0.4c-8.1-2.9-14.9-9.3-17.1-13.8-3.6-7.4 0.3-12.9 3.7-14.6 1.3-0.7 2.6-0.9 3.7-0.9-0.8-0.2-1.8-0.4-2.9-0.4q-0.2 0-0.5 0c-7.2 0.5-11.7 6.2-12.9 11.8-2.4 10.9 6 18.5 6.1 18.6 0.1 0.2 11 11.1 26 6.8 9.5-2.7 14.5-9 17-13.8-4.4 6.1-9.8 7.9-14.7 7.9z"/>
		</g>
		<g>
			<path class="s3" d="m66.1 62.8h-10.4l1.3 4.4h1.4c-0.8 1.3-1.2 2.8-1.3 4.4 0 2.8-2.3 5-5 5-2.8 0-5.1-2.2-5.1-5v-11.5l-4.3 2.7v8.8c0 5.2 4.2 9.4 9.4 9.4 2.8 0 5.4-1.3 7.1-3.3 1.7 1.9 4.2 3.2 6.9 3.2 5 0 9.1-4.1 9.1-9 0-5-4.1-9.1-9.1-9.1zm0 13.8c-2.5 0-4.6-2.1-4.6-4.7 0-2.6 2.1-4.7 4.6-4.7 2.6 0 4.7 2.1 4.7 4.7 0 2.6-2.1 4.7-4.7 4.7z"/>
			<path class="s3" d="m31.5 62.8h-9.2v4.4h9.2c2.6 0 4.7 2.1 4.7 4.6 0 2.6-2.1 4.7-4.7 4.7h-9.2l-2.6 4.4h11.8c5 0 9-4.1 9-9.1 0-4.9-4-9-9-9z"/>
			<path class="s3" d="m15.8 71.8c0 2.6-2.1 4.7-4.6 4.7h-4.5l-2.5 4.4h6.9c5 0 9.1-4.1 9.1-9.1v-9l-4.4 1.9v7.1z"/>
		</g>
		<g>
			<path class="s3" d="m12.7 90v-1.6l0.8-0.2v1.8c0 0.4 0.3 0.7 0.6 0.7h1.9c0.3 0 0.6-0.3 0.6-0.7v-0.4h-2.1v-1.4c0-0.8 0.7-1.5 1.5-1.5h1.4v0.8h-1.4c-0.4 0-0.7 0.3-0.7 0.7v0.7h2.1v1.1c0 0.8-0.6 1.5-1.4 1.5h-1.9c-0.8 0-1.4-0.7-1.4-1.5z"/>
			<path class="s3" d="m17.8 90.6l0.6-0.4v-3.2l0.8-0.2v1.4c0 0.3 0.3 0.6 0.7 0.6l0.1 0.4-0.1 0.4c-0.3 0-0.5-0.1-0.7-0.3v1.3l-1 0.6-0.4-0.6z"/>
			<path class="s3" d="m19.7 89.2l0.2-0.4h1.2l0.1 0.4-0.1 0.4h-1.2c0 0-0.2-0.4-0.2-0.4z"/>
			<path class="s3" d="m21 89.2l0.1-0.4h1.2l0.2 0.4-0.2 0.4h-1.2c0 0-0.1-0.4-0.1-0.4z"/>
			<path class="s3" d="m22.2 89.2l0.1-0.4h4.5c0.3 0 0.6-0.3 0.6-0.6 0-0.4-0.3-0.7-0.6-0.7h-4.1v-0.8l2.8-1.7 0.4 0.6-1.8 1.1h2.7c0.8 0 1.4 0.7 1.4 1.4 0 0.4 0.3 0.7 0.7 0.7l0.1 0.4-0.1 0.4c-0.4 0-0.8-0.2-1.1-0.5-0.2 0.3-0.6 0.5-1 0.5h-4.4l-0.2-0.4zm2.8-4.8l0.2 0.3-1.4 0.8-0.2-0.3z"/>
			<path class="s3" d="m28.9 89.6l-0.2-0.4 0.2-0.3c0.3 0 0.7-0.3 0.7-0.7v-1.1h0.7v1.2c0 0.3 0.3 0.6 0.6 0.6 0.3 0 0.5-0.3 0.5-0.6v-1.2h0.8v1.2c0 0.3 0.2 0.6 0.5 0.6 0.3 0 0.6-0.3 0.6-0.6v-1.3l0.7-0.1v1.4c0 0.7-0.5 1.3-1.3 1.3-0.3 0-0.7-0.2-0.9-0.4-0.2 0.3-0.6 0.4-0.9 0.4-0.4 0-0.8-0.2-1-0.4-0.2 0.3-0.6 0.4-1 0.4zm2.1-4h1v-0.7l0.6 0.3v1.1h-1.6c0 0 0-0.7 0-0.7z"/>
			<path class="s3" d="m34.6 88.8h1.6v-0.6c0-0.4-0.3-0.7-0.7-0.7h-0.7v-0.8h0.7c0.8 0 1.4 0.7 1.4 1.5v1.4h-2.3v-0.8z"/>
			<path class="s3" d="m37.2 90.6l0.6-0.4v-3.2l0.7-0.2v1.4c0 0.3 0.4 0.6 0.7 0.6l0.2 0.4-0.2 0.4c-0.2 0-0.5-0.1-0.7-0.3v1.3l-0.9 0.6-0.4-0.6z"/>
			<path class="s3" d="m39.1 89.2l0.1-0.4h4.5c0.3 0 0.6-0.3 0.6-0.6 0-0.4-0.3-0.7-0.6-0.7h-4.1v-0.8l2.8-1.7 0.4 0.6-1.8 1.1h2.7c0.8 0 1.4 0.7 1.4 1.4 0 0.8-0.6 1.5-1.4 1.5h-4.5l-0.1-0.4zm2.8-4.8l0.2 0.3-1.5 0.8-0.1-0.2z"/>
			<path class="s3" d="m46.5 90.3c0-0.7 0.5-1.3 1.2-1.4l-0.5-1.2v-1h1.9c0.4 0 0.7 0.2 0.9 0.5 0.1 0.3 0.1 0.7-0.1 1l-0.5 0.6h1l0.1 0.4-0.1 0.4h-2.5c-0.3 0-0.7 0.3-0.7 0.7 0 0.4 0.4 0.7 0.7 0.7h2l-0.2 0.7h-1.8c-0.8 0-1.4-0.7-1.4-1.4zm2-1.5l0.8-1c0.1-0.1 0-0.4-0.2-0.4h-1.1v0.2l0.5 1.2z"/>
			<path class="s3" d="m50.2 89.2l0.2-0.4h1.2l0.1 0.4-0.1 0.4h-1.2c0 0-0.2-0.4-0.2-0.4z"/>
			<path class="s3" d="m51.5 89.2l0.1-0.4h1.2l0.2 0.4-0.2 0.4h-1.2c0 0-0.1-0.4-0.1-0.4z"/>
			<path class="s3" d="m52.8 89.6l-0.1-0.4 0.1-0.3c0.4 0 0.7-0.3 0.7-0.7v-1.5h1.4c0.8 0 1.5 0.7 1.5 1.5 0 0.4 0.3 0.7 0.7 0.7l0.1 0.3-0.1 0.4c-0.4 0-0.8-0.2-1.1-0.5-0.2 0.3-0.6 0.5-1 0.5-0.5 0-0.9-0.2-1.1-0.5-0.3 0.3-0.6 0.5-1.1 0.5zm2.2-0.8c0.3 0.1 0.6-0.3 0.6-0.6 0-0.4-0.3-0.7-0.6-0.7h-0.7v0.7c0 0.3 0.3 0.7 0.7 0.7z"/>
			<path class="s3" d="m57.1 89.6l-0.2-0.4 0.2-0.3c0.3 0 0.6-0.3 0.6-0.7v-1.2l0.8-0.2v1.4c0 0.4 0.3 0.7 0.7 0.7l0.1 0.3-0.1 0.4c-0.4 0-0.8-0.2-1.1-0.5-0.2 0.3-0.6 0.5-1 0.5zm-0.1-4.2h1.6v0.7h-1.6z"/>
			<path class="s3" d="m59.1 89.2l0.1-0.4h2.6v-0.6c0-0.4-0.3-0.7-0.7-0.7h-1.4l0.2-0.8h1.2c0.8 0 1.5 0.7 1.5 1.5v0.6h0.4l0.1 0.4-0.1 0.4h-3.8l-0.1-0.4zm1.5 1.1h0.7v0.6h-0.7z"/>
			<path class="s3" d="m63 89.6l-0.2-0.4 0.2-0.3c0.3 0 0.6-0.3 0.6-0.7v-1.5h1.5c0.8 0 1.4 0.7 1.4 1.5 0 0.8-0.6 1.4-1.4 1.4-0.4 0-0.8-0.2-1.1-0.5-0.2 0.3-0.6 0.5-1 0.5h-0.1zm2.2-0.7c0.4 0 0.7-0.4 0.7-0.7 0-0.4-0.3-0.7-0.7-0.7h-0.7v0.7c0 0.4 0.3 0.7 0.7 0.7z"/>
		</g>
	</g>
	<g>
		<g>
			<path class="s4" d="m43.8-52.6c-4.8 0.9-11.7 1.6-17.9-1.3 0.9 1.1 2.5 2.9 5 4.5 3.6 2.3 9.6 4.8 18.2 3.3 4.7-0.8 6.9 0.1 9.1 1.1 1.4 0.5 2.7 1.1 4.5 1.2 1.4 0 2.8-0.6 4.3-1.2 1.5-0.7 3-1.4 4.7-1.4 1.7 0 3.6 0.8 5.5 3.3q0.5 0.7 0.8 1.6 0-0.1 0-0.3-0.1-0.4-0.2-0.8-0.1-0.1-0.1-0.3-0.1-0.3-0.2-0.5 0-0.1 0-0.2-0.1-0.3-0.3-0.6 0-0.1 0-0.1-0.2-0.4-0.3-0.7 0 0 0 0-0.2-0.4-0.4-0.8 0 0 0 0c-1.8-3.3-4.7-6.1-8.1-8q-0.4-0.3-0.8-0.5-0.1 0-0.1 0-0.3-0.2-0.7-0.4-0.1 0-0.1 0-0.4-0.2-0.8-0.3 0 0-0.1-0.1-0.4-0.1-0.7-0.2-0.1-0.1-0.2-0.1-0.3-0.1-0.7-0.2-0.1 0-0.2-0.1-0.3-0.1-0.6-0.2-0.2 0-0.3 0-0.3-0.1-0.6-0.2-0.1 0-0.3 0-0.3-0.1-0.6-0.1-0.1-0.1-0.3-0.1-0.3 0-0.5-0.1-0.2 0-0.4 0-0.3 0-0.5-0.1-0.2 0-0.4 0-0.3 0-0.5 0-0.2 0-0.4 0-0.3 0-0.5 0-0.2 0-0.4 0-0.2 0-0.5 0.1-0.2 0-0.4 0-0.2 0-0.4 0.1c-1.6 0.4-3.1 0.9-4.7 1.4-2.5 0.9-5.1 1.8-7.9 2.3z"/>
			<path class="s5" d="m64-18.1c8.5-4.8 14-11.4 15-18.2q0.5-2.9-0.1-5.6c-1-4.3-3.9-8.5-8.1-11.4-3-2-6.3-3.3-9.6-3.6 2.4-0.1 4.9 0.2 7.1 0.8 10.3 2.7 17.2 11.9 17.5 22 0.2 5.5-2.2 10.9-6.8 14.2-3.3 2.4-8.2 4-15 1.8z"/>
			<path class="s6" d="m70.6-16.3c-2.4 0-4.7-0.6-6.6-1.2q-0.4-0.1-0.7-0.2c-7.1-2.6-13-8.2-14.9-12.1-3.2-6.5 0.3-11.3 3.2-12.8 1.2-0.6 2.3-0.8 3.2-0.8-0.7-0.2-1.5-0.3-2.5-0.3q-0.2 0-0.5 0c-6.2 0.4-10.1 5.4-11.2 10.3-2.1 9.5 5.2 16.2 5.3 16.3 0.1 0.1 9.6 9.6 22.7 5.9 8.3-2.4 12.7-7.9 14.8-12.1-3.8 5.4-8.5 7-12.8 7z"/>
		</g>
		<g>
			<path class="s3" d="m148.1-40.6h-10.5l1.4 4.4h1.4c-0.8 1.3-1.3 2.8-1.3 4.4 0 2.8-2.3 5-5.1 5-2.7 0-5-2.2-5-5v-11.5l-4.4 2.7v8.8c0 5.2 4.2 9.4 9.4 9.4 2.9 0 5.4-1.3 7.2-3.3 1.6 2 4.1 3.2 6.9 3.2 5 0 9-4 9-9 0-5-4-9.1-9-9.1zm0 13.8c-2.6 0-4.7-2.1-4.7-4.7 0-2.6 2.1-4.7 4.7-4.7 2.6 0 4.7 2.1 4.7 4.7 0 2.6-2.1 4.7-4.7 4.7z"/>
			<path class="s3" d="m113.5-40.6h-9.2v4.4h9.2c2.5 0 4.6 2.1 4.6 4.6 0 2.6-2.1 4.7-4.6 4.7h-9.2l-2.6 4.4h11.8c5 0 9-4.1 9-9.1 0-4.9-4.1-9-9-9z"/>
			<path class="s3" d="m97.8-31.5c0 2.5-2.1 4.6-4.7 4.6h-4.4l-2.6 4.4h7c5 0 9-4.1 9-9v-9.1l-4.3 1.9c0 0 0 7.2 0 7.2z"/>
		</g>
		<g>
			<path class="s3" d="m94.6-13.4v-1.6l0.8-0.1v1.7c0 0.4 0.3 0.7 0.7 0.7h1.8c0.4 0 0.7-0.3 0.7-0.7v-0.4h-2.1v-1.4c0-0.8 0.6-1.5 1.4-1.5h1.5v0.8h-1.5c-0.3 0-0.7 0.3-0.7 0.7v0.7h2.2v1.1c0 0.8-0.7 1.5-1.5 1.5h-1.8c-0.8 0-1.5-0.7-1.5-1.5z"/>
			<path class="s3" d="m99.8-12.8l0.6-0.4v-3.2l0.8-0.2v1.4c0 0.4 0.3 0.7 0.6 0.7l0.2 0.3-0.2 0.4c-0.2 0-0.4-0.1-0.6-0.3v1.3l-1 0.6-0.4-0.6z"/>
			<path class="s3" d="m101.7-14.1l0.1-0.4h1.2l0.2 0.4-0.2 0.3h-1.2c0 0-0.1-0.3-0.1-0.3z"/>
			<path class="s3" d="m102.9-14.1l0.1-0.4h1.3l0.1 0.4-0.1 0.3h-1.3c0 0-0.1-0.3-0.1-0.3z"/>
			<path class="s3" d="m104.1-14.1l0.2-0.4h4.4c0.4 0 0.7-0.3 0.7-0.7 0-0.4-0.3-0.7-0.7-0.7h-4.1v-0.8l2.8-1.6 0.4 0.6-1.8 1h2.7c0.8 0 1.5 0.7 1.5 1.5 0 0.3 0.3 0.6 0.6 0.6l0.2 0.4-0.2 0.4c-0.4 0-0.8-0.2-1-0.5-0.3 0.3-0.7 0.5-1.1 0.5h-4.4l-0.1-0.4zm2.8-4.8l0.2 0.3-1.5 0.8-0.1-0.2z"/>
			<path class="s3" d="m110.8-13.8l-0.1-0.4 0.1-0.3c0.4 0 0.7-0.3 0.7-0.7v-1.1h0.8v1.2c0 0.3 0.2 0.6 0.5 0.6 0.3 0 0.6-0.3 0.6-0.6v-1.2h0.7v1.2c0 0.3 0.3 0.6 0.6 0.6 0.3 0 0.5-0.3 0.5-0.6v-1.3l0.8-0.1v1.4c0 0.8-0.6 1.3-1.3 1.3-0.4 0-0.7-0.2-1-0.4-0.2 0.3-0.5 0.4-0.9 0.4-0.4 0-0.7-0.2-0.9-0.4-0.3 0.3-0.7 0.4-1.1 0.4zm2.2-4h0.9v-0.6l0.7 0.2v1.1h-1.6v-0.7z"/>
			<path class="s3" d="m116.6-14.5h1.5v-0.7c0-0.4-0.3-0.7-0.7-0.7h-0.7v-0.8h0.7c0.9 0 1.5 0.7 1.5 1.5v1.4h-2.3v-0.7z"/>
			<path class="s3" d="m119.1-12.8l0.6-0.4v-3.2l0.8-0.2v1.4c0 0.4 0.3 0.7 0.7 0.7l0.1 0.3-0.1 0.4c-0.3 0-0.5-0.1-0.7-0.3v1.3l-1 0.6-0.4-0.6z"/>
			<path class="s3" d="m121-14.1l0.2-0.4h4.4c0.4 0 0.7-0.3 0.7-0.7 0-0.4-0.3-0.7-0.7-0.7h-4.1v-0.8l2.8-1.6 0.4 0.6-1.8 1h2.7c0.8 0 1.5 0.7 1.5 1.5 0 0.8-0.7 1.4-1.5 1.4h-4.4l-0.2-0.4zm2.9-4.8l0.1 0.3-1.4 0.9-0.2-0.3z"/>
			<path class="s3" d="m128.4-13.1c0-0.7 0.6-1.3 1.3-1.4l-0.6-1.2v-1h2c0.3 0 0.6 0.2 0.8 0.5 0.2 0.3 0.2 0.7 0 1l-0.6 0.7h1l0.1 0.3-0.1 0.4h-2.4c-0.4 0-0.7 0.3-0.7 0.7 0 0.4 0.3 0.7 0.7 0.7h2l-0.2 0.8h-1.8c-0.9 0-1.5-0.7-1.5-1.5zm2.1-1.5l0.7-1c0.1-0.1 0-0.3-0.2-0.3h-1.1v0.1l0.6 1.2z"/>
			<path class="s3" d="m132.2-14.1l0.1-0.4h1.2l0.2 0.4-0.2 0.3h-1.2c0 0-0.1-0.3-0.1-0.3z"/>
			<path class="s3" d="m133.4-14.1l0.1-0.4h1.3l0.1 0.4-0.1 0.3h-1.3c0 0-0.1-0.3-0.1-0.3z"/>
			<path class="s3" d="m134.8-13.8l-0.2-0.4 0.2-0.3c0.3 0 0.6-0.3 0.6-0.7v-1.5h1.5c0.8 0 1.4 0.7 1.4 1.5 0 0.4 0.3 0.7 0.7 0.7l0.1 0.3-0.1 0.4c-0.4 0-0.8-0.2-1-0.4-0.3 0.2-0.7 0.4-1.1 0.4-0.4 0-0.8-0.2-1.1-0.5-0.2 0.3-0.6 0.5-1 0.5zm2.1-0.7c0.4 0 0.7-0.3 0.7-0.7 0-0.4-0.3-0.7-0.7-0.7h-0.7v0.7c0 0.4 0.3 0.7 0.7 0.7z"/>
			<path class="s3" d="m139-13.8l-0.1-0.4 0.1-0.3c0.4 0 0.7-0.3 0.7-0.7v-1.2l0.7-0.2v1.4c0 0.4 0.4 0.7 0.7 0.7l0.2 0.3-0.2 0.4c-0.4 0-0.8-0.2-1-0.5-0.3 0.3-0.7 0.5-1.1 0.5zm-0.1-4.1h1.7v0.6h-1.7z"/>
			<path class="s3" d="m141-14.1l0.1-0.4h2.6v-0.7c0-0.4-0.3-0.7-0.6-0.7h-1.4l0.2-0.8h1.1c0.8 0 1.5 0.7 1.5 1.5v0.7h0.4l0.1 0.3-0.1 0.4h-3.8l-0.1-0.4zm1.5 1.1h0.7v0.7h-0.7z"/>
			<path class="s3" d="m144.9-13.8l-0.1-0.4 0.1-0.3c0.4 0 0.7-0.3 0.7-0.7v-1.5h1.4c0.8 0 1.5 0.7 1.5 1.5 0 0.8-0.7 1.4-1.5 1.4-0.4 0-0.8-0.2-1-0.5-0.3 0.3-0.7 0.5-1.1 0.5zm2.1-0.7c0.4 0 0.7-0.3 0.7-0.7 0-0.4-0.3-0.7-0.7-0.7h-0.6v0.7c0 0.4 0.3 0.7 0.6 0.7z"/>
		</g>
	</g>
</svg>