<?xml version="1.0" encoding="UTF-8"?>
<svg id="Layer_1" data-name="Layer 1" xmlns="http://www.w3.org/2000/svg" viewBox="0 0 180 180">
  <defs>
    <style>
      .cls-1 {
        fill: #00adee;
      }

      .cls-1, .cls-2 {
        stroke-width: 0px;
      }

      .cls-3 {
        stroke: #0071ba;
        stroke-miterlimit: 10;
        stroke-width: .36px;
      }

      .cls-3, .cls-2 {
        fill: #0071ba;
      }
    </style>
  </defs>
  <g>
    <g>
      <path class="cls-2" d="M91.17,99.48c-.93-2.55-1.67-3.85-2.87-3.91-.45-.02-1.14-.06-1.8,1.07-1.18,2.01-3.95,10.88-10.23,27.23l-3.6,9.72v.11c0,1.09.66,1.75,2,2h.22c.43,0,.93-.22,1.49-.65l11.92-31.45h.11l10.88,28.5c.52,2.4,1.41,3.6,2.64,3.6h.11c1.33-.23,2-.86,2-1.91v-.31c-.07-.52-4.37-11.86-12.87-34"/>
      <path class="cls-2" d="M64.33,118.46c0,7.7,3.4,14.17,10.2,19.42,4.24,2.86,8.75,4.3,13.52,4.3h.8c7.53,0,13.89-3.34,19.08-10.03,2.98-4.3,4.47-8.97,4.47-14.03,0-8.68-3.97-15.56-11.92-20.64-3.93-2.25-7.96-3.37-12.09-3.37-7.95,0-14.53,3.45-19.76,10.36-2.86,4.13-4.3,8.79-4.3,13.99M88.38,90.33c9.38,0,17.23,4.34,23.53,13.03,2.84,4.94,4.26,9.91,4.26,14.93,0,9.28-4.2,16.99-12.6,23.15-4.76,3.02-9.73,4.54-14.93,4.54h-.58c-9.56,0-17.37-4.45-23.42-13.34-2.74-4.5-4.11-9.37-4.11-14.62,0-8.86,3.9-16.33,11.71-22.41,5.07-3.51,10.44-5.27,16.13-5.27"/>
    </g>
    <g>
      <path class="cls-3" d="M60.12,168.86c0,1.62-.46,2.95-1.39,3.99-.96,1.07-2.24,1.61-3.85,1.61h-3.2c-1.43,0-2.62-.54-3.59-1.63-.94-1.05-1.41-2.29-1.41-3.73v-3.33c0-.56.46-1.02,1.02-1.02h0c.56,0,1.02.46,1.02,1.02v3.56c0,.88.34,1.62,1.03,2.21.66.56,1.43.85,2.33.85h2.68c.9,0,1.68-.28,2.32-.86.64-.57.97-1.3.97-2.2v-5.65c0-.56.46-1.02,1.02-1.02h.05c.56,0,1.02.46,1.02,1.02v5.18ZM54.24,162.2c0,.39-.14.73-.42,1-.28.28-.62.42-1.02.42-1.03,0-1.55-.47-1.55-1.42,0-.83.49-1.25,1.48-1.25s1.51.42,1.51,1.25Z"/>
      <path class="cls-3" d="M67.14,169.2c-1.76,0-2.99-.34-3.71-1.02-.48-.44-.72-1.16-.72-2.16v-8.79c0-.57.47-1.04,1.04-1.04h0c.57,0,1.04.47,1.04,1.04v7.88c0,.96.16,1.55.49,1.77.2.13.82.21,1.86.24v2.08Z"/>
      <path class="cls-3" d="M80.95,169.2c-.86,0-6.22-.03-6.63-.1-.35-.15-.71-.38-1.07-.71-.66.54-1.32.81-1.98.81h-4.48v-2.07h3.86c.58,0,.98-.12,1.2-.35.22-.24.33-.65.33-1.24v-1.82c0-.58.47-1.05,1.05-1.05h0c.58,0,1.05.47,1.05,1.05v1.82c0,.69.16,1.14.48,1.36.25.16,5.46.24,6.2.24v2.07ZM71.63,159.23c0,.36-.13.66-.38.89-.26.23-.56.35-.91.35-.98,0-1.47-.41-1.47-1.24,0-.77.44-1.16,1.33-1.16.96,0,1.43.39,1.43,1.16ZM75.61,159.23c0,.36-.13.66-.38.89-.25.23-.56.35-.91.35-.98,0-1.47-.41-1.47-1.24,0-.77.44-1.16,1.33-1.16.96,0,1.43.39,1.43,1.16Z"/>
      <path class="cls-3" d="M87.99,166.37c0,1.89-1.06,2.83-3.18,2.83h-6.49v-2.07h6.49c.55,0,.82-.32.82-.97,0-.3-.09-.54-.27-.72l-4.95-5.21c-.29-.31-.48-.7-.55-1.12h0c-.15-.98.42-1.92,1.34-2.26l4.84-1.76c.62-.22,1.28.17,1.38.82h0c.07.48-.2.95-.66,1.13l-3.4,1.27c-.58.22-.76.95-.35,1.41l3.41,3.81c.3.34.68.89,1.15,1.64.26.42.39.82.39,1.2Z"/>
      <path class="cls-3" d="M108.19,168.86c0,1.62-.46,2.95-1.39,3.99-.96,1.07-2.25,1.61-3.85,1.61h-3.2c-1.42,0-2.62-.54-3.59-1.63-.94-1.05-1.41-2.29-1.41-3.73v-3.33c0-.56.46-1.02,1.02-1.02h0c.56,0,1.02.46,1.02,1.02v3.56c0,.88.34,1.62,1.03,2.21.66.56,1.43.85,2.32.85h2.68c.9,0,1.67-.28,2.32-.86.64-.57.97-1.3.97-2.2v-5.65c0-.56.46-1.02,1.02-1.02h.05c.56,0,1.02.46,1.02,1.02v5.18ZM102.31,162.2c0,.39-.14.73-.42,1s-.62.42-1.02.42c-1.03,0-1.55-.47-1.55-1.42,0-.83.49-1.25,1.48-1.25s1.51.42,1.51,1.25Z"/>
      <path class="cls-3" d="M112.65,169.2h0c-.56,0-1.02-.46-1.02-1.02v-11.3c0-.56.46-1.02,1.02-1.02h0c.56,0,1.02.46,1.02,1.02v11.3c0,.56-.46,1.02-1.02,1.02Z"/>
      <path class="cls-3" d="M125.01,169.46c0,1.39-.52,2.56-1.56,3.53s-2.26,1.46-3.66,1.46h-1.78c-.52,0-.96-.39-1.03-.9h0c-.08-.62.4-1.17,1.03-1.17h1.45c.99,0,1.8-.28,2.45-.86.4-.36.69-.79.86-1.3s-.21-1.01-.74-1.04c-1.27-.07-2.23-.29-2.87-.67-1.05-.62-1.57-1.73-1.57-3.33,0-1.74.41-2.96,1.23-3.67.51-.43,1.36-.65,2.54-.65,1.58,0,2.63.66,3.17,1.99.32.82.48,2.16.48,4v2.61ZM121.38,167.04c.82.11,1.55-.52,1.55-1.34v-.73c0-1.36-.54-2.04-1.63-2.04-.66,0-1.11.22-1.34.67-.16.32-.24.86-.24,1.61,0,.88.35,1.44,1.05,1.69.15.05.35.1.61.13Z"/>
      <path class="cls-3" d="M134.11,153.72c0,.55-.45,1-1,1h-4.21c-.23,0-.63.03-1.21.1-.32.04-.56.12-.7.23-.09.07-.2.21-.32.4-.26.42-.77.61-1.24.43h0c-.57-.23-.81-.92-.5-1.45.29-.5.56-.85.81-1.04.47-.37,1.38-.6,2.73-.7.41-.03,1.4-.05,2.97-.05.41,0,.98,0,1.7.02.55,0,.99.46.99,1v.05ZM130.26,169.2h0c-.56,0-1.02-.46-1.02-1.02v-11.3c0-.56.46-1.02,1.02-1.02h0c.56,0,1.02.46,1.02,1.02v11.3c0,.56-.46,1.02-1.02,1.02Z"/>
    </g>
  </g>
  <g>
    <g>
      <path class="cls-2" d="M93.33,13.78c-.84-2.3-1.5-3.48-2.59-3.53-.41-.02-1.03-.06-1.62.96-1.06,1.82-3.57,9.81-9.23,24.57l-3.25,8.78v.1c0,.98.6,1.58,1.8,1.8h.2c.39,0,.84-.19,1.34-.58l10.75-28.38h.1l9.81,25.72c.47,2.16,1.27,3.25,2.38,3.25h.1c1.2-.2,1.8-.78,1.8-1.72v-.28c-.07-.47-3.94-10.7-11.62-30.69"/>
      <path class="cls-2" d="M69.1,30.91c0,6.95,3.07,12.79,9.2,17.53,3.83,2.58,7.89,3.88,12.2,3.88h.72c6.79,0,12.53-3.02,17.22-9.05,2.69-3.88,4.03-8.1,4.03-12.66,0-7.83-3.59-14.04-10.76-18.63-3.55-2.03-7.19-3.04-10.91-3.04-7.17,0-13.12,3.12-17.83,9.35-2.59,3.73-3.88,7.93-3.88,12.62M90.81,5.53c8.47,0,15.55,3.92,21.24,11.76,2.57,4.46,3.85,8.95,3.85,13.47,0,8.37-3.79,15.34-11.37,20.89-4.29,2.73-8.78,4.09-13.47,4.09h-.52c-8.63,0-15.67-4.01-21.13-12.04-2.47-4.06-3.71-8.46-3.71-13.19,0-8,3.52-14.74,10.57-20.22,4.57-3.17,9.42-4.76,14.55-4.76"/>
    </g>
    <g>
      <g>
        <path class="cls-1" d="M37.76,69.81c-.21-.87-.52-1.3-.96-1.3-.19,0-.39.12-.6.36-.18.6-1.32,3.63-3.41,9.08l-1.2,3.24v.04c0,.36.22.58.67.67h.07c.14,0,.31-.07.5-.22l3.97-10.48h.04l1.51,3.97,2.12,5.53c.17.8.47,1.2.88,1.2h.04c.44-.08.67-.29.67-.64v-.1c-.02-.17-1.46-3.95-4.29-11.33Z"/>
        <path class="cls-1" d="M42.05,68.38c.39,0,.71.5.96,1.49l3.48,9.24h.03l3.91-10.44c.19-.19.38-.28.57-.28h.04c.36,0,.59.24.67.71l-4.48,12.07c-.11.47-.34.71-.71.71h-.03c-.42,0-.75-.46-.96-1.39-2.82-7.43-4.22-11.22-4.22-11.36v-.07c0-.37.25-.6.75-.67Z"/>
        <path class="cls-1" d="M56.65,69.81c-.21-.87-.52-1.3-.96-1.3-.19,0-.39.12-.6.36-.18.6-1.32,3.63-3.41,9.08l-1.2,3.24v.04c0,.36.22.58.67.67h.07c.14,0,.31-.07.5-.22l3.97-10.48h.04l3.63,9.5c.17.8.47,1.2.88,1.2h.04c.44-.08.67-.29.67-.64v-.1c-.02-.17-1.46-3.95-4.29-11.33Z"/>
        <path class="cls-1" d="M62.6,68.48h.14c.3,0,.56.23.78.7.35.39,2.91,3.68,7.69,9.85.05,0,.07.03.07.1l.03.04h.04s0-10.05,0-10.05c.08-.42.29-.64.64-.64h.1c.35,0,.56.22.64.67v12.04c0,.39-.25.62-.74.7-.27,0-.68-.41-1.24-1.24l-7.37-9.41v9.98c0,.35-.22.56-.67.64h-.03c-.36,0-.59-.23-.67-.7v-11.89c.06-.52.26-.78.6-.78Z"/>
        <path class="cls-1" d="M82.77,68.43c1.39,0,2.69.42,3.9,1.27.09.18.14.32.14.42v.07c0,.4-.25.62-.74.67h-.04s-1.24-.64-1.24-.64c-.82-.26-1.5-.39-2.02-.39-1.68,0-3.13.77-4.36,2.3-.61,1.03-.92,2.03-.92,3.01,0,1.97.92,3.53,2.76,4.67.82.42,1.63.64,2.45.64h.1c1.04,0,2.09-.33,3.15-.99h.22c.42.09.64.31.64.64v.1c0,.5-.79.98-2.37,1.45-.49.14-1.01.22-1.56.22h-.18c-2.22,0-4.07-1.03-5.56-3.08-.71-1.19-1.06-2.4-1.06-3.64,0-2.33,1.06-4.23,3.18-5.7,1.14-.69,2.3-1.03,3.5-1.03Z"/>
        <path class="cls-1" d="M95.34,68.44c2.27,0,4.16,1.05,5.69,3.15.69,1.19,1.03,2.4,1.03,3.61,0,2.24-1.01,4.11-3.04,5.59-1.15.73-2.35,1.1-3.61,1.1h-.14c-2.31,0-4.2-1.07-5.66-3.22-.66-1.09-.99-2.26-.99-3.53,0-2.14.94-3.95,2.83-5.41,1.22-.85,2.52-1.27,3.9-1.27ZM89.99,75.23c0,1.71.76,3.15,2.27,4.32.94.64,1.95.96,3.01.96h.18c1.67,0,3.09-.74,4.24-2.23.66-.96.99-2,.99-3.12,0-1.93-.88-3.46-2.65-4.59-.87-.5-1.77-.75-2.69-.75-1.77,0-3.23.77-4.39,2.3-.64.92-.96,1.95-.96,3.11Z"/>
        <path class="cls-1" d="M103.17,68.43h20.6c.42.08.64.29.64.64v.14c0,.34-.26.54-.78.6h-3.91s0,11.44,0,11.44v.22c0,.38-.31.69-.69.69h0c-.38,0-.69-.31-.69-.69v-.29s0-11.36,0-11.36h-10.1s0,11.44,0,11.44c0,.35-.22.56-.67.64h-.03c-.36,0-.59-.24-.67-.71v-11.36s-3.59,0-3.59,0c-.47-.09-.71-.33-.71-.7.1-.45.3-.67.6-.67Z"/>
        <path class="cls-1" d="M131.04,68.44c2.27,0,4.16,1.05,5.69,3.15.69,1.19,1.03,2.4,1.03,3.61,0,2.24-1.01,4.11-3.04,5.59-1.15.73-2.35,1.1-3.61,1.1h-.14c-2.31,0-4.2-1.07-5.66-3.22-.66-1.09-.99-2.26-.99-3.53,0-2.14.94-3.95,2.83-5.41,1.22-.85,2.52-1.27,3.9-1.27ZM125.69,75.23c0,1.71.76,3.15,2.27,4.32.94.64,1.95.96,3.01.96h.18c1.67,0,3.09-.74,4.24-2.23.66-.96.99-2,.99-3.12,0-1.93-.88-3.46-2.65-4.59-.87-.5-1.77-.75-2.69-.75-1.77,0-3.23.77-4.39,2.3-.64.92-.96,1.95-.96,3.11Z"/>
        <path class="cls-1" d="M139.86,68.48h.14c.3,0,.56.23.78.7.35.39,2.91,3.68,7.69,9.85.05,0,.07.03.07.1l.03.04h.04v-10.05c.08-.42.29-.64.64-.64h.1c.35,0,.56.22.64.67v12.04c0,.39-.25.62-.74.7-.27,0-.68-.41-1.24-1.24l-7.37-9.41v9.98c0,.35-.22.56-.67.64h-.03c-.36,0-.59-.23-.67-.7v-11.89c.06-.52.26-.78.6-.78Z"/>
      </g>
      <rect class="cls-1" x="33.94" y="75.75" width="5.44" height="1.08"/>
      <rect class="cls-1" x="52.77" y="75.75" width="5.44" height="1.08"/>
    </g>
  </g>
</svg>