<?xml version="1.0" encoding="UTF-8"?>
<svg id="Isolation_Mode" data-name="Isolation Mode" xmlns="http://www.w3.org/2000/svg" viewBox="0 0 180 180">
  <defs>
    <style>
      .cls-1 {
        fill: #fff;
      }

      .cls-1, .cls-2 {
        stroke-width: 0px;
      }

      .cls-2 {
        fill: #900;
      }
    </style>
  </defs>
  <rect class="cls-2" x="42.5" y="46.39" width="90.59" height="90.59" rx="6.56" ry="6.56"/>
  <g>
    <path class="cls-1" d="M55.31,102.1c.52.43,1.1.91,1.75,1.43.64.52,1.05.78,1.23.78.3,0,.7-.24,1.21-.72.78-.75,1.4-1.56,1.86-2.44s.8-1.68,1.01-2.4c.21-.72.25-1.37.13-1.97-.12-.75-.4-1.39-.83-1.93-.43-.54-1.05-1.11-1.84-1.72-.79-.61-1.46-1.14-1.99-1.59-.93,1.52-1.61,2.67-2.04,3.45-.43.78-.95,1.84-1.54,3.18-.18.42-.46,1.03-.85,1.84,0,.24.19.54.56.9.37.36.82.75,1.34,1.19Z"/>
    <path class="cls-1" d="M76.07,81.7c-.3,0-.66.45-1.1,1.34-.43.9-.98,2.34-1.64,4.32-.66,1.99-1.05,3.8-1.16,5.44,0,.57,0,1.52.02,2.84s.02,2.43.02,3.29c0,2.27-.27,4.09-.81,5.46-1.4,3.94-3.88,7.09-7.43,9.45-3.58,2.06-7.32,3.09-11.2,3.09-3.16-.12-5.71-.93-7.64-2.42-1.93-1.49-2.95-3.67-3.07-6.54.06-3.82,1.42-8.36,4.08-13.62.18-.54.19-1.07.04-1.59-.15-.52-.61-.07-1.39,1.37-4.03,7.14-6.03,13.75-6,19.84.12,3.85,1.21,6.86,3.27,9.03,2.06,2.16,4.85,3.32,8.38,3.47,6.78-.06,12.59-3.36,17.42-9.9,4.9-6.75,7.61-14.81,8.15-24.19.06-3.58.12-6.03.18-7.35.06-1.31.1-2.2.13-2.67.03-.46-.06-.69-.27-.69Z"/>
    <path class="cls-1" d="M87.35,74.98c-.21-.09-.45.07-.72.49-.33.66-.69,1.41-1.1,2.26-.4.85-.78,1.75-1.14,2.71s-.68,1.93-.96,2.91c-.28.99-.49,1.94-.6,2.87-.21,1.58-.28,3.87-.22,6.88.06,3,.04,5.32-.05,6.96-.09,1.64-.31,3.34-.67,5.08-.36,1.75-.54,2.65-.54,2.71-.06.24,0,.41.18.52.18.1.43,0,.76-.29.27-.3.62-.78,1.05-1.43.43-.66,1.02-1.98,1.77-3.96.75-1.99,1.24-4.26,1.48-6.83.15-1.19.24-2.66.27-4.39.03-1.73.07-3.67.13-5.82,0-.51.02-1.28.07-2.33.05-1.05.1-2.11.16-3.2.06-1.09.13-2.07.2-2.96.07-.88.14-1.44.2-1.68.03-.24-.06-.4-.27-.49Z"/>
    <path class="cls-1" d="M103.16,99.21c.57-1.31,1.15-2.39,1.75-3.22.18-.24.55-.58,1.12-1.03.57-.42,2.15-1.25,4.75-2.51,1.85-.93,3.52-4.05,5.02-9.36.21-1.01.18-1.57-.09-1.66-.27-.03-.73.54-1.39,1.7-.66,1.19-1.2,1.97-1.61,2.33-.45.39-1.22.85-2.33,1.39-1.25.66-2.14,1.12-2.64,1.39-1.34.87-2.33,1.72-2.96,2.55-.63.81-1.55,2.57-2.78,5.28-1.19,2.72-1.9,4.21-2.1,4.48-.66.9-1.85,1.97-3.58,3.22.09-.06-.64.43-2.2,1.48-2,1.25-3.39,2.17-4.16,2.75s-1.28.96-1.52,1.14c-.66.48-.96.85-.9,1.12.21.45.7.63,1.48.54.9,0,2.13-.16,3.72-.49,1.52-.27,2.75-.58,3.67-.94,1.94-.87,3.4-2.33,4.39-4.39.6-1.34,1.39-3.27,2.37-5.78Z"/>
    <path class="cls-1" d="M126.15,74.98c-.21-.09-.45.07-.72.49-.33.66-.69,1.41-1.1,2.26-.4.85-.78,1.75-1.14,2.71-.36.96-.68,1.93-.96,2.91s-.48,1.94-.6,2.87c-.21,1.58-.28,3.87-.22,6.88.06,3,.05,5.32-.05,6.96-.09,1.64-.31,3.34-.67,5.08-.36,1.75-.54,2.65-.54,2.71-.06.24,0,.41.18.52.18.1.43,0,.76-.29.27-.3.62-.78,1.05-1.43.43-.66,1.02-1.98,1.77-3.96.75-1.99,1.24-4.26,1.48-6.83.15-1.19.24-2.66.27-4.39.03-1.73.07-3.67.13-5.82,0-.51.02-1.28.07-2.33s.1-2.11.16-3.2c.06-1.09.13-2.07.2-2.96s.14-1.44.2-1.68c.03-.24-.06-.4-.27-.49Z"/>
    <path class="cls-1" d="M139.38,55.9c-.21,0-.47.1-.78.29-.31.19-.93.6-1.86,1.23-.93.63-1.94,1.18-3.05,1.66-1.88.81-3.93,1.21-6.14,1.21-1.28,0-2.54-.1-3.76-.31-2.51-.48-4.02-.72-4.52-.72-1.52,0-3.33.67-5.42,2.02-1.82,1.16-3.45,2.61-4.88,4.34-.66.75-1.19,1.48-1.59,2.2-.4.72-.53,1.18-.38,1.39.27.18.66.05,1.19-.38.52-.43,1.09-.86,1.7-1.28.61-.42,1.36-.76,2.24-1.03.88-.27,1.9-.32,3.05-.16,1.15.16,2.12.37,2.91.6.79.24,1.71.4,2.75.49,2.6.09,4.76-.16,6.49-.76,1.73-.6,3.69-1.6,5.87-3,1.4-.93,2.62-1.95,3.65-3.07s1.81-2.17,2.35-3.16c.27-.42.41-.78.43-1.1.02-.31-.07-.47-.25-.47Z"/>
    <path class="cls-1" d="M112.25,113.9c-.24,0-.72.61-1.46,1.84-.73,1.22-1.4,2.33-1.99,3.31-.51-.72-1.25-1.54-2.22-2.49-.97-.94-1.71-1.31-2.22-1.1-.27,0-1.02,1.15-2.24,3.45-1.22,2.3-1.84,3.64-1.84,4.03,0,.18.44.63,1.32,1.34s1.53,1.25,1.95,1.61c.45.39.79.58,1.03.58.95,0,2.24-1.63,3.85-4.88.66.48,1.42,1.15,2.28,2.02s1.46,1.3,1.79,1.3c.51,0,1.3-.76,2.37-2.28,1.1-1.55,1.66-2.9,1.66-4.03-.06-.96-.6-1.98-1.63-3.07-1.03-1.09-1.92-1.63-2.66-1.63Z"/>
  </g>
</svg>