<?xml version="1.0" encoding="UTF-8"?>
<svg id="Layer_1" data-name="Layer 1" xmlns="http://www.w3.org/2000/svg" xmlns:xlink="http://www.w3.org/1999/xlink" viewBox="0 0 180 180">
  <defs>
    <style>
      .cls-1 {
        fill: #606161;
      }

      .cls-1, .cls-2, .cls-3, .cls-4, .cls-5, .cls-6, .cls-7 {
        stroke-width: 0px;
      }

      .cls-2 {
        fill: url(#radial-gradient-2);
      }

      .cls-3 {
        fill: url(#radial-gradient-5);
      }

      .cls-4 {
        fill: url(#radial-gradient);
      }

      .cls-5 {
        fill: url(#radial-gradient-6);
      }

      .cls-6 {
        fill: url(#radial-gradient-3);
      }

      .cls-7 {
        fill: url(#radial-gradient-4);
      }
    </style>
    <radialGradient id="radial-gradient" cx="51.96" cy="136.49" fx="51.96" fy="136.49" r="34.02" gradientUnits="userSpaceOnUse">
      <stop offset="0" stop-color="#8c5ba4"/>
      <stop offset=".05" stop-color="#87509f"/>
      <stop offset=".16" stop-color="#803f97"/>
      <stop offset=".29" stop-color="#7b3392"/>
      <stop offset=".48" stop-color="#782c8f"/>
      <stop offset=".99" stop-color="#782b8f"/>
    </radialGradient>
    <radialGradient id="radial-gradient-2" cx="52.16" cy="135.1" fx="52.16" fy="135.1" r="28.41" gradientUnits="userSpaceOnUse">
      <stop offset="0" stop-color="#f8ee9d"/>
      <stop offset=".45" stop-color="#f7ec9b"/>
      <stop offset=".62" stop-color="#f3e694"/>
      <stop offset=".73" stop-color="#eddb88"/>
      <stop offset=".83" stop-color="#e5cb77"/>
      <stop offset=".91" stop-color="#dab761"/>
      <stop offset=".98" stop-color="#cd9f47"/>
      <stop offset="1" stop-color="#c9963d"/>
    </radialGradient>
    <radialGradient id="radial-gradient-3" cx="52.28" cy="137.46" fx="52.28" fy="137.46" r="23.81" xlink:href="#radial-gradient-2"/>
    <radialGradient id="radial-gradient-4" cx="140.14" cy="41.45" fx="140.14" fy="41.45" r="34.02" xlink:href="#radial-gradient"/>
    <radialGradient id="radial-gradient-5" cx="140.34" cy="40.07" fx="140.34" fy="40.07" r="28.41" xlink:href="#radial-gradient-2"/>
    <radialGradient id="radial-gradient-6" cx="140.46" cy="42.43" fx="140.46" fy="42.43" r="23.81" xlink:href="#radial-gradient-2"/>
  </defs>
  <g>
    <g>
      <path class="cls-1" d="M100.43,125.69h10.86v-.04c.05-.56.07-1.04.07-1.43,0-3.22-1.2-4.86-3.58-4.86-1.43,0-2.77.77-3.97,2.29l.16-4.88h-1.58v7.27h-4.08c.03-.16.05-.35.05-.56v-6.72h-1.57v5.69c0,.61-.13,1.04-.38,1.28-.19.19-.48.29-.87.3l-1.7-6.27v-.03h-1.7l1.72,6.3h-2.08v1.63h8.66ZM103.68,124.05c.47-.96,1.06-1.74,1.75-2.32.72-.61,1.47-.92,2.21-.92.64,0,1.15.26,1.52.77.37.51.55,1.2.55,2.07v.4h-6.04Z"/>
      <path class="cls-1" d="M118.7,124.43v-5.04h-1.61v5.27c0,1.28-.61,1.9-1.87,1.9h-.04v1.39h.04c2.3,0,3.47-1.18,3.47-3.52Z"/>
      <rect class="cls-1" x="120.03" y="116.77" width="1.59" height="8.92"/>
      <path class="cls-1" d="M126.07,124.43v-5.04h-1.61v5.27c0,1.28-.61,1.9-1.87,1.9h-.04v1.39h.04c2.3,0,3.47-1.18,3.47-3.52Z"/>
      <rect class="cls-1" x="124.48" y="116.61" width="1.58" height="1.6"/>
      <rect class="cls-1" x="133.32" y="127.07" width="1.57" height="1.61"/>
      <path class="cls-1" d="M133.3,119.39v3.25c0,.48-.04.81-.11.97-.14.29-.45.43-.93.43h-1.68c-.56,0-.95-.08-1.15-.23-.28-.2-.43-.63-.43-1.29v-5.76h-1.59v6.37c0,.76.19,1.37.56,1.81.4.48.98.72,1.73.72h2.89c1.54,0,2.32-.85,2.32-2.52v-3.77h-1.59Z"/>
      <rect class="cls-1" x="97.17" y="132.31" width="1.36" height="1.39"/>
      <rect class="cls-1" x="94.93" y="132.31" width="1.36" height="1.39"/>
      <path class="cls-1" d="M95.57,139.07h4.29c1.24,0,1.87-.65,1.87-1.93v-3.51h-1.37v2.6c0,.59-.16.99-.48,1.2-.21.14-.62.22-1.22.22h-3.24c-.71,0-1.25-.13-1.6-.37-.44-.3-.66-.83-.66-1.59v-2.06h-1.39v2.06c0,2.24,1.28,3.38,3.79,3.38Z"/>
      <rect class="cls-1" x="102.43" y="131.36" width="1.39" height="7.71"/>
      <path class="cls-1" d="M114.25,134.76c-.43-.42-1.01-.63-1.72-.63s-1.29.21-1.72.63c-.43.42-.65,1-.65,1.7,0,.32.1.72.29,1.19h-3.23v-4.02h-1.4v4.55c0,1.1-.53,1.63-1.61,1.63h-.04v1.21h.04c1.71,0,2.7-.66,2.92-1.96h10.22v-.03c.08-.45.12-.93.12-1.41,0-1.48-.37-2.75-1.1-3.77-.73-1.03-1.74-1.68-3.01-1.93h-.04s-.17,1.33-.17,1.33h.03c.84.18,1.54.66,2.08,1.45.54.77.82,1.67.82,2.66,0,.12,0,.21,0,.28h-1.47c.19-.48.29-.88.29-1.19,0-.71-.22-1.28-.66-1.71ZM113.58,136.46c0,.82-.34,1.22-1.05,1.22s-1.05-.4-1.05-1.22.34-1.21,1.05-1.21,1.05.39,1.05,1.21Z"/>
      <rect class="cls-1" x="118.17" y="131.36" width="1.39" height="7.71"/>
      <path class="cls-1" d="M133.2,134.29c-.63-.44-1.4-.66-2.29-.66-.53,0-1.06.11-1.58.34-.46.2-.89.48-1.27.84l-.02.02.02.03c.31.46.52.81.64,1.03l.03.05.04-.04c.28-.31.63-.56,1.05-.73.35-.15.68-.22.98-.22.86,0,1.53.3,2,.89.4.5.6,1.11.61,1.82h-8.06v-1.33c0-.78-.24-1.43-.7-1.93-.46-.51-1.07-.76-1.79-.76-.77,0-1.41.25-1.91.74-.51.5-.77,1.15-.77,1.92s.26,1.45.77,1.99c.51.53,1.13.8,1.86.8h1.21c-.19.56-.6.83-1.26.83h-.04v1.11h.04c1.54,0,2.42-.65,2.61-1.94h9.56v-.86c0-1.85-.57-3.17-1.69-3.92ZM123.93,137.65h-1.13c-.34,0-.63-.14-.87-.42-.24-.28-.36-.62-.36-1.02,0-.87.41-1.3,1.24-1.3.67,0,1.04.38,1.12,1.16v1.58Z"/>
      <rect class="cls-1" x="130.2" y="140.27" width="1.37" height="1.4"/>
      <path class="cls-1" d="M94.82,154.86c0,2.03-1.01,3.07-3.01,3.07h-.04v2.17h.04c3.68,0,5.54-1.89,5.54-5.61v-8.04h-2.53v8.42Z"/>
      <path class="cls-1" d="M105.35,146.8c-.51-.18-.96-.28-1.33-.31-.17,0-.44-.02-.8-.03-.43,0-.92-.01-1.48-.01h-.04v2.31h.04c.88,0,1.63.07,2.21.2,2.18.47,3.29,2.13,3.3,4.94h-7.93v2.57h10.49v-2.53c-.02-3.75-1.52-6.16-4.46-7.14Z"/>
      <path class="cls-1" d="M129.93,148.15c-1.45,0-2.66.48-3.59,1.43-.93.94-1.4,2.17-1.4,3.64,0,.13.02.33.05.6v.07s-2.38,0-2.38,0h-5.57c-.91,0-1.53-.12-1.86-.37-.46-.33-.69-1.03-.69-2.08v-9.2h-2.51v10.18c0,1.21.3,2.18.89,2.88.63.76,1.56,1.15,2.75,1.15h10.33c.94,1.29,2.28,1.95,3.98,1.95,1.45,0,2.66-.49,3.58-1.46.91-.94,1.37-2.17,1.37-3.64s-.46-2.69-1.37-3.66c-.93-1-2.14-1.5-3.58-1.5ZM128.2,151.21c.43-.51,1-.77,1.67-.77s1.29.28,1.75.82c.45.54.68,1.23.68,2.05,0,1.85-.75,2.74-2.29,2.74-.71,0-1.31-.27-1.77-.81-.46-.54-.69-1.23-.69-2.04s.22-1.48.65-2Z"/>
    </g>
    <g>
      <path class="cls-4" d="M84.19,136.36c0-.05,0-.11,0-.16-.22-17.5-14.47-31.61-32.02-31.61,0,0-.02,0-.03,0-.33,0-1.92,0-3.59.15-2.67.25-4.44.72-4.44.72-5.57,1.52-10.89,3.92-17.02,5.05-7.47,1.38-17.16,2.14-25.44-2.52,0,0,7.04,11.31,22.77,12.6h.02c-1.54,2.66-2.7,5.55-3.43,8.62,0,0,0,0,0,0-.12.51-.23,1.02-.32,1.54,0,0,0,0,0,0-.1.51-.18,1.03-.25,1.56h0c-.07.53-.13,1.06-.17,1.59,0,0,0,0,0,.01-.04.53-.08,1.06-.09,1.6,0,0,0,0,0,.01,0,.18-.01.35-.01.53,0,0,0,0,0,0,0,.18,0,.36,0,.54,0,17.69,14.34,32.03,32.03,32.03h0c17.69,0,32.03-14.34,32.03-32.03h0c0-.08,0-.17,0-.25ZM81.25,143.29l-8.54,9.71-1.82,2.66-1.84,2.67-1.84,2.66-1.85,2.66-.12.17h-.21s-6.47-.39-6.47-.39l-6.44-.4-3.21.19-3.23.19-6.47.38h-.2s-.12-.15-.12-.15l-7.39-10.62-4.29-4.82-4.3-4.84-.08-.09.03-.11,1.88-6.2,1.86-6.2.53-3.19.53-3.2.52-3.2.51-3.2v-.08s.08-.03.08-.03l2.99-1.24,2.99-1.25,5.95-2.5,2.8-1.6,2.81-1.6,2.82-1.6,2.82-1.59.16-.09.16.09,2.83,1.58,2.82,1.59,2.82,1.6,2.8,1.6,11.91,5.04.06.03v.06s.5,3.2.5,3.2l.5,3.2.51,3.2.52,3.2.92,3.1.93,3.1.94,3.1.95,3.1.02.06-.05.05Z"/>
      <path class="cls-2" d="M79.28,137.01l-.9-3.11-.91-3.11-.53-3.2-.54-3.19-.55-3.19-.55-3.13-12-4.72h-.01s-.02-.01-.02-.01l-2.84-1.56-2.84-1.56-2.83-1.57-2.66-1.49-2.67,1.49-2.83,1.57-2.84,1.56-2.84,1.56h-.02s-.01.01-.01.01l-6.02,2.38-3.01,1.2-2.94,1.17-.53,3.12-.53,3.19-.53,3.2-.52,3.2h0s0,.01,0,.01l-1.79,6.22-1.74,6.12,4.31,4.68,4.38,4.77h.01s.01.03.01.03l7.37,10.41,6.26-.4,3.23-.21,3.23-.2h.02s.02,0,.02,0l6.46.4,6.25.4,1.75-2.47,1.88-2.64,1.88-2.64,1.89-2.63v-.02s.02-.01.02-.01l8.76-9.45-.86-3.05-.89-3.11ZM76.7,130.84l-2.88,10.43-.4,2.67c-.13.89-.27,1.79-.41,2.68l-.42,2.68-.43,2.68-.03.21-.2.08-5.01,2.07-4.99,2.04-2.34,1.31-2.37,1.32-4.74,2.64-.18.1-.18-.1-9.43-5.32-4.98-2.08-5-2.09-.11-.04-.02-.11-.84-5.36-.42-2.68-.43-2.67-.76-2.59-.77-2.6-.77-2.6-.78-2.6-.02-.07.05-.06,1.8-2.03,1.79-2.03,3.57-4.06,1.52-2.23,1.53-2.24,1.54-2.23c.51-.74,1.03-1.48,1.55-2.22l.11-.15h.19s2.71.17,2.71.17l2.71.17,2.7.18,2.69.19,10.81-.52h.06s.03.05.03.05l1.53,2.24,1.54,2.23,1.55,2.22,1.56,2.22,1.82,2,1.83,2,1.84,1.99,1.84,1.98.04.05-.02.07Z"/>
      <path class="cls-6" d="M72.9,126.82l-1.81-2.02-1.81-2.01-1.56-2.22-1.57-2.21-1.58-2.2-1.55-2.15-10.75.84h-.01s-.02,0-.02,0l-2.71-.14-2.71-.14-2.71-.15-2.52-.15c-.48.69-.96,1.38-1.45,2.06l-1.57,2.21-1.57,2.21-1.58,2.2v.02s-.02,0-.02,0l-3.68,3.98-1.84,1.99-1.78,1.94.73,2.53.76,2.6.77,2.6.77,2.6h0s0,.01,0,.01l.46,2.67.46,2.67.92,5.23,4.94,1.95,5.04,2h.02s.02.02.02.02l9.31,5.14,4.54-2.57,2.36-1.33,2.36-1.33h.02s.02-.02.02-.02l5.02-2.05,4.83-1.96.41-2.46.46-2.67c.15-.89.31-1.78.46-2.67l.47-2.67v-.02s0-.01,0-.01l3.19-10.3-1.75-1.98-1.8-2.03ZM70.47,140.25c-.24,1.2-.6,2.37-1.08,3.49-.05.14-.12.28-.19.42l-.19.41c-.06.14-.14.27-.21.41l-.21.4-.05.1-.06.1-.12.2-.23.39c-.16.26-.33.51-.5.76-.69,1-1.49,1.93-2.36,2.77-.88.84-1.83,1.59-2.85,2.24-.26.16-.51.32-.77.47l-.4.22-.2.11-.1.05-.1.05-.41.2c-.14.06-.27.14-.41.19l-.41.18c-.14.06-.27.12-.42.17-2.24.89-4.64,1.33-7.03,1.33-2.4,0-4.79-.45-7.03-1.34-.14-.05-.28-.11-.42-.17l-.41-.18c-.14-.06-.27-.13-.41-.19l-.41-.2-.1-.05-.1-.05-.2-.11-.4-.22c-.26-.15-.52-.31-.77-.47-1.02-.65-1.97-1.4-2.85-2.24-.87-.84-1.67-1.77-2.35-2.77-.17-.25-.34-.51-.5-.76l-.23-.39-.12-.2-.06-.1-.05-.1-.21-.4c-.07-.14-.15-.27-.21-.41l-.19-.41c-.06-.14-.13-.27-.18-.42-.94-2.25-1.42-4.69-1.39-7.12.01-1.22.15-2.43.4-3.62.25-1.19.63-2.35,1.11-3.46.48-1.11,1.07-2.17,1.75-3.17.68-1,1.46-1.92,2.31-2.77,1.71-1.7,3.75-3.06,5.97-4l.42-.17c.14-.05.28-.12.42-.16l.43-.15c.14-.05.28-.1.43-.14l.43-.13c.15-.04.29-.09.44-.12l.44-.11.22-.05.11-.03.11-.02c1.18-.25,2.39-.38,3.6-.4,2.42-.03,4.85.4,7.11,1.32,2.26.91,4.33,2.28,6.06,3.99.87.86,1.65,1.8,2.33,2.81.68,1.01,1.27,2.09,1.74,3.22.47,1.13.83,2.3,1.07,3.5.24,1.2.36,2.42.36,3.64,0,1.22-.13,2.44-.37,3.64Z"/>
    </g>
  </g>
  <g>
    <g>
      <path class="cls-1" d="M121.74,92.18h15.76v-.05c.07-.81.1-1.51.1-2.07,0-4.68-1.75-7.05-5.2-7.05-2.08,0-4.02,1.12-5.76,3.32l.23-7.07h-2.29v10.55h-5.92c.04-.24.07-.51.07-.81v-9.74h-2.27v8.26c0,.88-.18,1.51-.55,1.86-.27.28-.7.42-1.27.43l-2.47-9.1v-.04h-2.47l2.5,9.15h-3.02v2.37h12.56ZM126.44,89.81c.68-1.39,1.53-2.52,2.54-3.36,1.05-.89,2.13-1.34,3.21-1.34.93,0,1.68.37,2.21,1.11.53.74.8,1.75.8,3v.58h-8.76Z"/>
      <path class="cls-1" d="M148.24,90.36v-7.31h-2.33v7.65c0,1.86-.89,2.76-2.71,2.76h-.06v2.01h.06c3.34,0,5.04-1.72,5.04-5.11Z"/>
      <rect class="cls-1" x="150.17" y="79.24" width="2.31" height="12.94"/>
      <path class="cls-1" d="M158.94,90.36v-7.31h-2.33v7.65c0,1.86-.89,2.76-2.71,2.76h-.06v2.01h.06c3.34,0,5.04-1.72,5.04-5.11Z"/>
      <rect class="cls-1" x="156.63" y="79.01" width="2.29" height="2.32"/>
      <rect class="cls-1" x="169.45" y="94.19" width="2.27" height="2.33"/>
      <path class="cls-1" d="M169.43,83.05v4.72c0,.69-.05,1.17-.16,1.41-.2.42-.66.63-1.36.63h-2.44c-.82,0-1.38-.11-1.67-.33-.41-.29-.62-.92-.62-1.87v-8.36h-2.31v9.25c0,1.1.27,1.98.81,2.62.58.7,1.42,1.05,2.51,1.05h4.19c2.24,0,3.37-1.23,3.37-3.65v-5.48h-2.31Z"/>
      <rect class="cls-1" x="142.19" y="100.03" width="1.07" height="1.09"/>
      <rect class="cls-1" x="140.43" y="100.03" width="1.07" height="1.09"/>
      <path class="cls-1" d="M140.93,105.33h3.36c.97,0,1.46-.51,1.46-1.51v-2.75h-1.08v2.04c0,.46-.13.78-.38.94-.17.11-.49.17-.95.17h-2.53c-.55,0-.98-.1-1.25-.29-.34-.23-.52-.65-.52-1.24v-1.61h-1.09v1.61c0,1.76,1,2.65,2.97,2.65Z"/>
      <rect class="cls-1" x="146.31" y="99.29" width="1.09" height="6.04"/>
      <path class="cls-1" d="M155.57,101.95c-.34-.33-.79-.49-1.34-.49s-1.01.17-1.35.5c-.34.33-.51.78-.51,1.33,0,.25.08.56.22.93h-2.53v-3.15h-1.09v3.57c0,.86-.41,1.28-1.26,1.28h-.03v.95h.03c1.34,0,2.11-.52,2.28-1.53h8.01v-.02c.06-.35.1-.73.1-1.11,0-1.16-.29-2.15-.86-2.95-.57-.8-1.37-1.31-2.35-1.51h-.03s-.13,1.04-.13,1.04h.03c.65.14,1.2.52,1.63,1.13.43.61.64,1.31.64,2.08,0,.09,0,.17,0,.22h-1.15c.15-.37.22-.69.22-.93,0-.56-.17-1.01-.52-1.34ZM155.04,103.28c0,.65-.27.96-.82.96s-.82-.31-.82-.96.27-.95.82-.95.82.31.82.95Z"/>
      <rect class="cls-1" x="158.64" y="99.29" width="1.09" height="6.04"/>
      <path class="cls-1" d="M170.42,101.58c-.5-.34-1.1-.52-1.79-.52-.42,0-.83.09-1.24.26-.36.16-.7.38-1,.66l-.02.02v.02c.25.36.42.64.51.81l.02.04.03-.03c.22-.25.5-.44.82-.58.28-.12.53-.17.77-.17.67,0,1.2.23,1.57.69.31.39.47.87.48,1.42h-6.32v-1.05c0-.61-.19-1.12-.55-1.52-.36-.4-.84-.6-1.4-.6-.6,0-1.11.19-1.5.58-.4.39-.61.9-.61,1.51s.2,1.13.6,1.56c.4.42.89.63,1.46.63h.95c-.15.44-.47.65-.99.65h-.03v.87h.03c1.21,0,1.9-.51,2.05-1.52h7.49v-.68c0-1.45-.45-2.49-1.33-3.07ZM163.15,104.22h-.88c-.27,0-.5-.11-.68-.33-.19-.22-.28-.49-.28-.8,0-.69.32-1.02.97-1.02.53,0,.81.3.87.91v1.24Z"/>
      <rect class="cls-1" x="168.06" y="106.27" width="1.08" height="1.09"/>
      <path class="cls-1" d="M111.08,104.28c0,1.27-.64,1.92-1.89,1.92h-.02v1.36h.02c2.3,0,3.47-1.18,3.47-3.52v-5.04h-1.58v5.27Z"/>
      <path class="cls-1" d="M117.68,99.23c-.32-.11-.6-.18-.83-.2-.11,0-.27-.01-.5-.02-.27,0-.58,0-.93,0h-.02v1.45h.02c.55,0,1.02.04,1.38.13,1.37.29,2.06,1.34,2.07,3.1h-4.97v1.61h6.57v-1.59c-.01-2.35-.95-3.86-2.79-4.48Z"/>
      <path class="cls-1" d="M133.08,100.08c-.91,0-1.67.3-2.25.9-.58.59-.88,1.36-.88,2.28,0,.08.01.21.03.37v.05s-1.49,0-1.49,0h-3.49c-.57,0-.96-.08-1.17-.23-.29-.2-.43-.64-.43-1.3v-5.76h-1.57v6.38c0,.76.19,1.37.56,1.81.4.48.98.72,1.72.72h6.47c.59.81,1.43,1.22,2.49,1.22.91,0,1.67-.31,2.24-.91.57-.59.86-1.36.86-2.28s-.29-1.69-.86-2.3c-.58-.62-1.34-.94-2.24-.94ZM132,102c.27-.32.62-.48,1.05-.48s.81.17,1.09.51c.28.34.42.77.42,1.29,0,1.16-.47,1.72-1.44,1.72-.45,0-.82-.17-1.11-.51-.29-.34-.43-.77-.43-1.28s.14-.93.41-1.25Z"/>
    </g>
    <g>
      <path class="cls-7" d="M172.37,41.32c0-.05,0-.11,0-.16-.22-17.5-14.47-31.61-32.02-31.61,0,0-.02,0-.03,0-.33,0-1.92,0-3.59.15-2.67.25-4.44.72-4.44.72-5.57,1.52-10.89,3.92-17.02,5.05-7.47,1.38-17.16,2.14-25.44-2.52,0,0,7.04,11.31,22.77,12.6h.02c-1.54,2.66-2.7,5.55-3.43,8.62,0,0,0,0,0,0-.12.51-.23,1.02-.32,1.54,0,0,0,0,0,0-.1.51-.18,1.03-.25,1.56h0c-.07.53-.13,1.06-.17,1.59,0,0,0,0,0,.01-.04.53-.08,1.06-.09,1.6,0,0,0,0,0,.01,0,.18-.01.35-.01.53,0,0,0,0,0,0,0,.18,0,.36,0,.54,0,17.69,14.34,32.03,32.03,32.03h0c17.69,0,32.03-14.34,32.03-32.03h0c0-.08,0-.17,0-.25ZM169.43,48.25l-8.54,9.71-1.82,2.66-1.84,2.67-1.84,2.66-1.85,2.66-.12.17h-.21s-6.47-.39-6.47-.39l-6.44-.4-3.21.19-3.23.19-6.47.38h-.2s-.12-.15-.12-.15l-7.39-10.62-4.29-4.82-4.3-4.84-.08-.09.03-.11,1.88-6.2,1.86-6.2.53-3.19.53-3.2.52-3.2.51-3.2v-.08s.08-.03.08-.03l2.99-1.24,2.99-1.25,5.95-2.5,2.8-1.6,2.81-1.6,2.82-1.6,2.82-1.59.16-.09.16.09,2.83,1.58,2.82,1.59,2.82,1.6,2.8,1.6,11.91,5.04.06.03v.06s.5,3.2.5,3.2l.5,3.2.51,3.2.52,3.2.92,3.1.93,3.1.94,3.1.95,3.1.02.06-.05.05Z"/>
      <path class="cls-3" d="M167.46,41.97l-.9-3.11-.91-3.11-.53-3.2-.54-3.19-.55-3.19-.55-3.13-12-4.72h-.01s-.02-.01-.02-.01l-2.84-1.56-2.84-1.56-2.83-1.57-2.66-1.49-2.67,1.49-2.83,1.57-2.84,1.56-2.84,1.56h-.02s-.01.01-.01.01l-6.02,2.38-3.01,1.2-2.94,1.17-.53,3.12-.53,3.19-.53,3.2-.52,3.2h0s0,.01,0,.01l-1.79,6.22-1.74,6.12,4.31,4.68,4.38,4.77h.01s.01.03.01.03l7.37,10.41,6.26-.4,3.23-.21,3.23-.2h.02s.02,0,.02,0l6.46.4,6.25.4,1.75-2.47,1.88-2.64,1.88-2.64,1.89-2.63v-.02s.02-.01.02-.01l8.76-9.45-.86-3.05-.89-3.11ZM164.88,35.8l-2.88,10.43-.4,2.67c-.13.89-.27,1.79-.41,2.68l-.42,2.68-.43,2.68-.03.21-.2.08-5.01,2.07-4.99,2.04-2.34,1.31-2.37,1.32-4.74,2.64-.18.1-.18-.1-9.43-5.32-4.98-2.08-5-2.09-.11-.04-.02-.11-.84-5.36-.42-2.68-.43-2.67-.76-2.59-.77-2.6-.77-2.6-.78-2.6-.02-.07.05-.06,1.8-2.03,1.79-2.03,3.57-4.06,1.52-2.23,1.53-2.24,1.54-2.23c.51-.74,1.03-1.48,1.55-2.22l.11-.15h.19s2.71.17,2.71.17l2.71.17,2.7.18,2.69.19,10.81-.52h.06s.03.05.03.05l1.53,2.24,1.54,2.23,1.55,2.22,1.56,2.22,1.82,2,1.83,2,1.84,1.99,1.84,1.98.04.05-.02.07Z"/>
      <path class="cls-5" d="M161.08,31.79l-1.81-2.02-1.81-2.01-1.56-2.22-1.57-2.21-1.58-2.2-1.55-2.15-10.75.84h-.01s-.02,0-.02,0l-2.71-.14-2.71-.14-2.71-.15-2.52-.15c-.48.69-.96,1.38-1.45,2.06l-1.57,2.21-1.57,2.21-1.58,2.2v.02s-.02,0-.02,0l-3.68,3.98-1.84,1.99-1.78,1.94.73,2.53.76,2.6.77,2.6.77,2.6h0s0,.01,0,.01l.46,2.67.46,2.67.92,5.23,4.94,1.95,5.04,2h.02s.02.02.02.02l9.31,5.14,4.54-2.57,2.36-1.33,2.36-1.33h.02s.02-.02.02-.02l5.02-2.05,4.83-1.96.41-2.46.46-2.67c.15-.89.31-1.78.46-2.67l.47-2.67v-.02s0-.01,0-.01l3.19-10.3-1.75-1.98-1.8-2.03ZM158.65,45.21c-.24,1.2-.6,2.37-1.08,3.49-.05.14-.12.28-.19.42l-.19.41c-.06.14-.14.27-.21.41l-.21.4-.05.1-.06.1-.12.2-.23.39c-.16.26-.33.51-.5.76-.69,1-1.49,1.93-2.36,2.77-.88.84-1.83,1.59-2.85,2.24-.26.16-.51.32-.77.47l-.4.22-.2.11-.1.05-.1.05-.41.2c-.14.06-.27.14-.41.19l-.41.18c-.14.06-.27.12-.42.17-2.24.89-4.64,1.33-7.03,1.33-2.4,0-4.79-.45-7.03-1.34-.14-.05-.28-.11-.42-.17l-.41-.18c-.14-.06-.27-.13-.41-.19l-.41-.2-.1-.05-.1-.05-.2-.11-.4-.22c-.26-.15-.52-.31-.77-.47-1.02-.65-1.97-1.4-2.85-2.24-.87-.84-1.67-1.77-2.35-2.77-.17-.25-.34-.51-.5-.76l-.23-.39-.12-.2-.06-.1-.05-.1-.21-.4c-.07-.14-.15-.27-.21-.41l-.19-.41c-.06-.14-.13-.27-.18-.42-.94-2.25-1.42-4.69-1.39-7.12.01-1.22.15-2.43.4-3.62.25-1.19.63-2.35,1.11-3.46.48-1.11,1.07-2.17,1.75-3.17.68-1,1.46-1.92,2.31-2.77,1.71-1.7,3.75-3.06,5.97-4l.42-.17c.14-.05.28-.12.42-.16l.43-.15c.14-.05.28-.1.43-.14l.43-.13c.15-.04.29-.09.44-.12l.44-.11.22-.05.11-.03.11-.02c1.18-.25,2.39-.38,3.6-.4,2.42-.03,4.85.4,7.11,1.32,2.26.91,4.33,2.28,6.06,3.99.87.86,1.65,1.8,2.33,2.81.68,1.01,1.27,2.09,1.74,3.22.47,1.13.83,2.3,1.07,3.5.24,1.2.36,2.42.36,3.64,0,1.22-.13,2.44-.37,3.64Z"/>
    </g>
  </g>
</svg>