<?xml version="1.0" encoding="UTF-8"?>
<svg id="Isolation_Mode" data-name="Isolation Mode" xmlns="http://www.w3.org/2000/svg" xmlns:xlink="http://www.w3.org/1999/xlink" viewBox="0 0 180 180">
  <defs>
    <style>
      .cls-1 {
        fill: url(#linear-gradient);
      }

      .cls-1, .cls-2, .cls-3, .cls-4, .cls-5 {
        stroke-width: 0px;
      }

      .cls-2 {
        fill: #2d2d2d;
      }

      .cls-3 {
        fill: url(#linear-gradient-2);
      }

      .cls-4 {
        fill: #d37c71;
      }

      .cls-5 {
        fill: url(#linear-gradient-3);
      }
    </style>
    <linearGradient id="linear-gradient" x1="27.92" y1="49.84" x2="130.82" y2="49.84" gradientTransform="translate(2.45 21.89)" gradientUnits="userSpaceOnUse">
      <stop offset=".15" stop-color="#f7e1c4"/>
      <stop offset=".17" stop-color="#f4dbbf"/>
      <stop offset=".31" stop-color="#e8bda8"/>
      <stop offset=".45" stop-color="#dfa695"/>
      <stop offset=".6" stop-color="#d99689"/>
      <stop offset=".77" stop-color="#d58d81"/>
      <stop offset=".99" stop-color="#d48a7f"/>
    </linearGradient>
    <linearGradient id="linear-gradient-2" x1="53.74" y1="30.87" x2="85.33" y2="30.87" xlink:href="#linear-gradient"/>
    <linearGradient id="linear-gradient-3" x1="56.72" y1="47.48" x2="70.05" y2="47.48" xlink:href="#linear-gradient"/>
  </defs>
  <path class="cls-2" d="M126.13,143.46l-1.73,4.7h1.01l.32-.98h1.7l.32.98h1.02l-1.75-4.7h-.89ZM125.95,146.45l.62-1.88.62,1.88h-1.24Z"/>
  <polygon class="cls-2" points="130.79 143.46 129.85 143.46 129.85 148.16 132.85 148.16 132.85 147.43 130.79 147.43 130.79 143.46"/>
  <polygon class="cls-2" points="134.07 148.16 137.22 148.16 137.22 147.43 135.01 147.43 135.01 146.11 136.91 146.11 136.91 145.39 135.01 145.39 135.01 144.19 137.23 144.19 137.23 143.46 134.07 143.46 134.07 148.16"/>
  <rect class="cls-2" x="131.86" y="128.82" width="1.68" height="1.64"/>
  <rect class="cls-2" x="135.32" y="138.71" width="1.68" height="1.64"/>
  <polygon class="cls-2" points="47 146.96 45.78 143.46 44.53 143.46 44.53 148.16 45.48 148.16 45.48 147.12 45.38 144.6 46.69 148.16 47.31 148.16 48.61 144.6 48.53 147.12 48.53 148.16 49.47 148.16 49.47 143.46 48.22 143.46 47 146.96"/>
  <path class="cls-2" d="M52.3,143.46l-1.73,4.7h1.01l.32-.98h1.7l.32.98h1.02l-1.75-4.7h-.89ZM52.13,146.45l.62-1.88.62,1.88h-1.24Z"/>
  <path class="cls-2" d="M58.56,143.73c-.32-.18-.68-.27-1.06-.27h-1.47v4.7h1.5c.41,0,.77-.1,1.09-.29.32-.19.57-.45.75-.79.18-.34.27-.71.27-1.13v-.29c0-.45-.1-.84-.29-1.18-.19-.33-.45-.59-.78-.77ZM58.68,145.96c0,.49-.11.85-.33,1.1-.22.25-.5.37-.84.37h-.54v-3.24h.53c.4,0,.69.15.89.41.19.27.29.62.29,1.06v.29Z"/>
  <path class="cls-2" d="M62.29,143.46l-1.73,4.7h1.01l.32-.98h1.7l.32.98h1.02l-1.75-4.7h-.89ZM62.12,146.45l.62-1.88.62,1.88h-1.24Z"/>
  <path class="cls-2" d="M69.53,144.87c0-.45-.15-.79-.46-1.04-.31-.25-.73-.37-1.28-.37h-1.78v4.7h.94v-1.73h.82l.91,1.73h1.01v-.05l-1.03-1.92c.58-.24.88-.69.88-1.33ZM68.38,145.49c-.13.13-.32.2-.57.2h-.86v-1.5h.83c.26,0,.45.07.59.2.14.13.21.32.21.55s-.07.41-.2.54Z"/>
  <path class="cls-4" d="M74.75,144.52c.18-.26.43-.39.76-.39.28,0,.49.06.65.2.15.13.25.34.29.62h.91c-.06-.51-.25-.9-.56-1.16s-.76-.39-1.32-.39c-.42,0-.78.1-1.08.31s-.52.48-.66.82-.21.71-.21,1.11v.5c0,.44.09.81.26,1.13s.41.56.71.73.65.25,1.04.25.75-.06,1.08-.17c.33-.12.58-.27.74-.46v-1.87h-1.86v.66h.92v.86c-.08.08-.19.14-.33.19-.14.04-.3.07-.48.07-.37,0-.65-.13-.84-.38-.19-.26-.28-.63-.28-1.12v-.38c0-.47.09-.83.27-1.09Z"/>
  <path class="cls-4" d="M81.69,143.67c-.3-.19-.66-.28-1.05-.28s-.77.1-1.07.29c-.3.2-.53.47-.69.81-.16.34-.24.74-.24,1.17v.34c0,.43.08.82.25,1.15.17.33.4.59.71.78.3.19.65.28,1.05.28s.75-.09,1.05-.28c.3-.19.53-.45.7-.8s.25-.74.25-1.19v-.32c0-.45-.08-.84-.25-1.18s-.4-.6-.71-.79ZM81.68,145.97c0,.48-.09.85-.27,1.12-.18.26-.44.39-.76.39s-.6-.13-.78-.4-.28-.64-.28-1.13v-.41c0-.45.09-.8.28-1.04s.44-.36.76-.36.59.13.78.39c.18.26.27.63.27,1.12v.31Z"/>
  <polygon class="cls-4" points="84.93 143.46 83.99 143.46 83.99 148.16 86.99 148.16 86.99 147.43 84.93 147.43 84.93 143.46"/>
  <path class="cls-4" d="M90.73,143.73c-.32-.18-.68-.27-1.06-.27h-1.47v4.7h1.5c.41,0,.77-.1,1.09-.29.32-.19.57-.45.75-.79.18-.34.27-.71.27-1.13v-.29c0-.45-.1-.84-.29-1.18-.19-.33-.45-.59-.78-.77ZM90.85,145.96c0,.49-.11.85-.33,1.1-.22.25-.5.37-.84.37h-.54v-3.24h.53c.4,0,.69.15.88.41.19.27.29.62.29,1.06v.29Z"/>
  <polygon class="cls-2" points="98.23 146.23 98.13 146.7 98.02 146.23 97.34 143.46 96.54 143.46 95.87 146.23 95.75 146.7 95.66 146.23 95.09 143.46 94.15 143.46 95.2 148.16 96.18 148.16 96.81 145.67 96.94 145.14 97.08 145.67 97.7 148.16 98.69 148.16 99.74 143.46 98.8 143.46 98.23 146.23"/>
  <polygon class="cls-2" points="103.8 145.39 101.87 145.39 101.87 143.46 100.93 143.46 100.93 148.16 101.87 148.16 101.87 146.13 103.8 146.13 103.8 148.16 104.74 148.16 104.74 143.46 103.8 143.46 103.8 145.39"/>
  <path class="cls-2" d="M109.14,143.67c-.3-.19-.66-.28-1.05-.28s-.77.1-1.07.29c-.3.2-.53.47-.69.81-.16.34-.24.74-.24,1.17v.34c0,.43.08.82.25,1.15s.4.59.71.78c.3.19.65.28,1.05.28s.75-.09,1.05-.28c.3-.19.53-.45.7-.8.17-.34.25-.74.25-1.19v-.32c0-.45-.08-.84-.25-1.18-.17-.34-.4-.6-.71-.79ZM109.13,145.97c0,.48-.09.85-.27,1.12-.18.26-.44.39-.76.39s-.6-.13-.78-.4c-.18-.27-.28-.64-.28-1.13v-.41c0-.45.09-.8.28-1.04.19-.24.44-.36.76-.36s.59.13.78.39c.18.26.27.63.27,1.12v.31Z"/>
  <polygon class="cls-2" points="112.38 143.46 111.44 143.46 111.44 148.16 114.44 148.16 114.44 147.43 112.38 147.43 112.38 143.46"/>
  <polygon class="cls-2" points="115.66 148.16 118.81 148.16 118.81 147.43 116.6 147.43 116.6 146.11 118.5 146.11 118.5 145.39 116.6 145.39 116.6 144.19 118.82 144.19 118.82 143.46 115.66 143.46 115.66 148.16"/>
  <path class="cls-2" d="M122.78,145.78c-.11-.07-.22-.12-.35-.17-.13-.05-.28-.1-.46-.17-.21-.07-.38-.13-.5-.18s-.23-.11-.32-.18c-.15-.11-.23-.24-.23-.4s.07-.3.22-.41c.15-.11.34-.16.58-.16s.44.07.59.2c.15.13.22.31.22.53h.93c0-.28-.07-.53-.22-.75-.15-.22-.35-.39-.61-.51-.26-.12-.56-.19-.89-.19-.32,0-.61.05-.88.15-.27.1-.48.25-.64.44-.16.19-.24.43-.24.7,0,.5.29.9.86,1.17.11.06.25.12.39.17.15.05.24.08.27.09.22.08.38.14.5.19s.23.11.32.19c.14.11.21.26.21.45,0,.17-.07.31-.22.41-.14.11-.33.16-.55.16-.65,0-.98-.28-.98-.84h-.95c0,.34.09.63.27.86.18.23.41.41.7.52.29.11.61.17.95.17.37,0,.68-.06.93-.17.26-.11.45-.27.58-.46.13-.2.2-.42.2-.67,0-.49-.23-.87-.7-1.15Z"/>
  <polygon class="cls-2" points="46.34 131.7 44.17 132.25 44.17 138.16 42.95 138.98 44.15 140.78 46.34 139.31 46.34 131.7"/>
  <path class="cls-2" d="M52.09,134.58c0-.53-.13-1.02-.39-1.46-.26-.44-.61-.8-1.05-1.06-.44-.26-.93-.39-1.46-.39h-1.7v2.17h1.7c.21,0,.39.07.53.21.14.14.21.32.21.53v.75h-2.51v2.17h4.66v-2.91Z"/>
  <path class="cls-2" d="M62.34,136.03c.26-.45.39-.93.39-1.45s-.13-1.02-.39-1.47c-.26-.45-.61-.8-1.06-1.07-.44-.26-.93-.39-1.46-.39h-2.91v2.93c0,.2-.08.38-.23.53-.15.15-.33.22-.53.22s-.39-.07-.54-.22c-.15-.15-.22-.32-.22-.53v-5.95l-2.17.54v5.41c0,.52.13,1.01.39,1.46s.62.8,1.07,1.06c.44.25.92.38,1.43.39h0s.04,0,.04,0c.34,0,.67-.06.99-.18s.6-.29.85-.5c.25.21.54.38.85.5.31.12.64.18.99.18.53,0,1.02-.13,1.46-.4.44-.27.8-.62,1.06-1.06ZM60.34,135.1c-.15.15-.32.22-.53.22s-.38-.07-.53-.22c-.15-.15-.22-.32-.22-.53v-.76h.75c.21,0,.39.07.53.22.14.15.21.33.21.54s-.07.38-.22.53Z"/>
  <path class="cls-4" d="M74.08,139.58c.26-.45.39-.94.39-1.48v-2.78h-3.66v-.75c0-.2.07-.38.22-.53.15-.15.33-.22.54-.22h2.9v-2.17h-2.9c-.52,0-1.01.13-1.46.39-.45.26-.81.62-1.07,1.06-.27.45-.4.93-.4,1.46v2.91h3.67v.61c0,.21-.07.39-.22.54-.15.15-.32.23-.53.23h-3.54c-.2,0-.38-.08-.53-.23-.15-.15-.22-.33-.22-.54v-3.95l-2.18.53v3.43c0,.53.13,1.02.39,1.48.26.45.62.81,1.07,1.07.45.26.94.39,1.47.39h3.54c.52,0,1.01-.13,1.45-.39.44-.26.8-.62,1.06-1.07Z"/>
  <path class="cls-4" d="M90.89,132.06c-.45-.26-.93-.39-1.46-.39h-3.81v-3.55l-2.15.54v6.67h-.67c-.2,0-.38-.07-.53-.22-.15-.15-.22-.32-.22-.53v-5.96l-2.17.54v5.42c0,.2-.07.38-.22.53-.15.15-.33.22-.54.22h-.75v-6.7l-2.17.62v6.07h-.61v2.17h3.53c.34,0,.67-.06.99-.17.32-.11.6-.28.86-.49.25.2.53.36.84.48s.64.18.98.18h6.63c.53,0,1.02-.13,1.46-.39.45-.26.8-.61,1.06-1.06s.39-.93.39-1.46-.13-1.01-.39-1.46-.62-.8-1.07-1.06ZM89.97,135.1c-.15.15-.33.22-.54.22h-3.81v-1.49h3.81c.21,0,.39.07.54.22s.22.32.22.53-.07.38-.22.53Z"/>
  <path class="cls-2" d="M96.17,140.65c.45.26.94.39,1.47.39h3.54c.52,0,1.01-.13,1.45-.39s.8-.62,1.06-1.07c.26-.45.39-.94.39-1.48v-2.78h-3.66v-.75c0-.2.07-.38.22-.53.15-.15.33-.22.54-.22h2.9v-2.17h-2.9c-.52,0-1.01.13-1.46.39s-.81.62-1.07,1.06-.4.93-.4,1.46v2.91h3.67v.61c0,.21-.07.39-.22.54-.15.15-.32.23-.53.23h-3.54c-.2,0-.38-.08-.53-.23-.15-.15-.22-.33-.22-.54v-3.95l-2.18.53v3.43c0,.53.13,1.02.39,1.48.26.45.62.81,1.06,1.07Z"/>
  <polygon class="cls-2" points="108.09 131.7 105.92 132.25 105.92 138.16 104.69 138.98 105.89 140.78 108.09 139.31 108.09 131.7"/>
  <polygon class="cls-2" points="111.56 128.63 109.38 129.17 109.38 137.49 111.56 137.49 111.56 128.63"/>
  <path class="cls-2" d="M135.87,132.23v2.35c0,.21-.07.39-.22.53-.15.14-.33.21-.54.21h-.81c-.21,0-.39-.07-.54-.22-.15-.15-.22-.32-.22-.53v-2.88l-2.15.53v2.35c0,.2-.08.38-.23.53-.15.15-.33.22-.53.22-.2,0-.38-.07-.52-.22-.14-.15-.21-.32-.21-.53,0-.52-.13-1.01-.4-1.46s-.62-.8-1.07-1.06-.93-.39-1.46-.39h-4.2l2.44-1.4-1.09-1.62-5.33,3.01v2.17h8.18c.21,0,.39.07.53.21s.21.32.21.53-.07.38-.21.53c-.14.15-.32.22-.53.22h-9.67v-.75c0-.53-.13-1.02-.39-1.46s-.61-.8-1.05-1.06-.93-.39-1.46-.39h-1.7v2.17h1.7c.21,0,.39.07.53.21.14.14.21.32.21.53v.75h-2.51v2.17h14.34c.69,0,1.3-.22,1.85-.66.52.43,1.12.65,1.79.66h0s.02,0,.02,0c0,0,0,0,0,0s0,0,0,0h0c.34,0,.67-.06.99-.17.31-.11.6-.28.85-.49.25.2.54.36.85.48.31.12.64.18.99.18h.81c.53,0,1.02-.13,1.47-.39s.8-.62,1.07-1.06c.26-.45.39-.93.39-1.46v-2.88l-2.17.53Z"/>
  <g>
    <path class="cls-1" d="M59.26,21.83c.18,8.11,3.42,15.71,9.17,21.46l31.45,31.45c4.35,4.35,6.92,9.35,7.66,14.86.48,3.63-.37,8.94-3.36,12.62-2.08,2.56-4.89,3.99-8.34,4.24-3.23.23-6.43-.88-8.77-3.04-2.27-2.1-3.54-4.96-3.55-8.04-.03-5.86,3.56-8.55,5.7-9.63,3.44-1.73,7.69-1.75,10.42-.11-.12-.56-.41-1.43-1.14-2.29l-.09-.1.02-.13c.01-.07,1.16-7.12-5.86-11.5-2.63-1.64-5.62-2.14-8.88-1.48l-.15.03-24.1-23.94c.54,8.48,4.13,16.42,10.15,22.44l5.84,5.42-.26.21c-2,1.59-3.77,3.45-5.25,5.53l-.19.27-10.28-9.81.04.67c.4,7.8.61,11.71,6.2,17.54l.11.12-.04.16c-.56,2.18-.84,4.44-.84,6.71,0,5.18,1.47,10.21,4.24,14.54,4.53,7.08,12.29,11.42,20.75,11.6h.11c.17,0,.35,0,.52,0,14.82,0,27.26-11.42,28.44-26.22.06-.7.09-1.29.09-1.84.11-7.7-2.8-14.96-8.21-20.43L59.26,21.83Z"/>
    <path class="cls-3" d="M84.24,67.42c.73-.11,1.45-.17,2.15-.17,1.1,0,2.16.14,3.19.41l-29.98-29.82c1.34,4.58,3.84,8.78,7.26,12.2l17.38,17.38Z"/>
    <path class="cls-5" d="M69.4,76.8c.76-.93,1.57-1.8,2.41-2.59l-12.36-12.29c1.34,4.58,3.84,8.78,7.26,12.2l2.69,2.69Z"/>
  </g>
</svg>