<?xml version="1.0" encoding="UTF-8"?>
<svg id="Isolation_Mode" data-name="Isolation Mode" xmlns="http://www.w3.org/2000/svg" xmlns:xlink="http://www.w3.org/1999/xlink" viewBox="0 0 180 180">
  <defs>
    <style>
      .cls-1 {
        fill: none;
      }

      .cls-1, .cls-2, .cls-3 {
        stroke-width: 0px;
      }

      .cls-2 {
        fill: #231f20;
      }

      .cls-4 {
        clip-path: url(#clippath);
      }

      .cls-3 {
        fill: #fcb813;
      }
    </style>
    <clipPath id="clippath">
      <rect class="cls-1" x="-2.15" y="71.59" width="176.03" height="58.69"/>
    </clipPath>
  </defs>
  <g class="cls-4">
    <path class="cls-3" d="M52.43,105.8c.78.02,1.49.72,1.49,1.49,0,.78-.79,1.54-1.57,1.5-.79-.04-1.44-.75-1.42-1.53.02-.8.71-1.48,1.49-1.46"/>
    <path class="cls-3" d="M53.91,97.02c0,.78-.67,1.47-1.47,1.49-.81.02-1.48-.62-1.51-1.43-.03-.85.66-1.56,1.5-1.54.78.01,1.47.7,1.48,1.48"/>
    <path class="cls-3" d="M56.43,103.67c-.78-.01-1.43-.7-1.43-1.52,0-.83.64-1.46,1.46-1.46.85,0,1.54.71,1.51,1.54-.03.75-.78,1.45-1.54,1.44"/>
    <path class="cls-3" d="M24.61,91.75c-.02.77-.74,1.44-1.54,1.43-.79-.01-1.48-.71-1.48-1.49,0-.8.78-1.54,1.58-1.49.77.05,1.46.79,1.43,1.55"/>
    <path class="cls-3" d="M32.42,90.89c-.79,0-1.47-.66-1.48-1.47-.02-.82.61-1.48,1.42-1.51.85-.02,1.56.66,1.55,1.49,0,.76-.73,1.47-1.49,1.48"/>
    <path class="cls-3" d="M28.92,88.26c0,.75-.72,1.49-1.47,1.51-.76.02-1.48-.67-1.5-1.45-.02-.86.64-1.53,1.5-1.51.83.02,1.47.66,1.48,1.46"/>
    <path class="cls-3" d="M63.21,116.1c0-.83-.67-1.5-1.5-1.5-11.55,0-34.86,0-43.51,0-.51,0-.94.08-.93-.71.01-.76.39-.74.93-.74,3.36.01,6.73.02,10.09,0,1.12,0,1.74-.55,1.76-1.47.01-.96-.63-1.51-1.79-1.52-1.85,0-3.7-.03-5.55.02-.62.02-.94-.21-1.24-.71-1.49-2.51-.98-5.75,1.28-7.84.84-.78.98-.74,1.51.24.25.47-.12.68-.29.97-.92,1.56-.8,3.63.31,5.04,1.15,1.47,3.01,2.05,4.8,1.54,1.03-.29,1.76-1,2.51-1.68,1.15-1.05,2.4-1.35,3.91-.78,2.14.81,4.13,2.04,6.1,3.2-2,0-3.8,0-5.67,0-1.54,0-2.3.51-2.27,1.53.03.99.75,1.47,2.24,1.47h27.32c-.01-.48-.03-.96-.04-1.44-.03-1.02-.64-1.52-1.69-1.55-.44-.01-.87,0-1.42,0,3.07-3.75,3.95-7.74,2.33-12.16-1.47-4-5.62-7.65-10.8-7.3-2.64.18-5.05,1.06-7.36,2.25-.72.37-1.08.28-1.57-.35-1.99-2.55-3.86-5.2-6.25-7.42-2.23-2.07-4.73-3.65-7.85-3.67-4.6-.03-8.19,2.01-10.42,6.03-2.19,3.95-2.02,8.01.36,11.85.64,1.03.76,1.69.14,2.8-1.38,2.51-1.34,5.19-.22,7.97-.84,0-1.55,0-2.25,0-1.3.01-1.84.55-1.85,1.87-.01,1.08,0,2.16,0,3.24,0,1.94.39,2.33,2.32,2.33,9.16,0,33.12,0,45.09,0,.83,0,1.5-.67,1.5-1.5ZM31.37,104.3c-1.08.4-1.85,1.3-2.73,2.01-.68.55-1.33.37-1.91-.15-.6-.55-.51-1.21-.16-1.85.22-.4.61-.56,1.07-.63,1.03-.17,1.58-.69,1.62-1.46.04-.77-.53-1.35-1.61-1.55-.77-.14-1.21-.55-1.32-1.32-.09-.66.19-1.13.77-1.44.66-.35,1.25-.22,1.77.28.92.88,1.9,1.67,3.09,2.13.34.13.37.36.37.65,0,.4,0,.8,0,1.2,0,.18-.02.37,0,.55.12.8-.13,1.28-.96,1.59M43.05,96.92c2.37-1.26,4.74-2.48,7.39-3.06,5.01-1.11,8.56,2.72,9.42,6.06.9,3.48-.42,7.06-3.26,9.29-1.46,1.15-3.06.9-5.15.97-2.82-.03-5.01-1.03-7.53-2.31-2.27-1.16-4.42-2.56-6.82-3.5-1.77-.69-1.7-.7-1.8-2.58-.05-.98.28-1.36,1.21-1.64,2.34-.71,4.39-2.08,6.53-3.22M25.28,85.05c3.01-1.13,5.67-.47,8.09,1.51,2.41,1.97,4.22,4.47,6.13,6.89q1.11,1.42-.47,2.26c-1.19.64-2.39,1.27-3.68,1.69-.48.15-.96.22-1.52.25-1.04,0-1.83-.66-2.57-1.36-.85-.79-1.73-1.44-2.95-1.56-1.8-.18-3.59.66-4.38,2.28-.47.96-1.48,1.02-2.22,1.52-.26.17-.42-.27-.56-.47-3.16-4.63-1.12-11.05,4.13-13.01"/>
    <path class="cls-2" d="M86.11,92.26c-.41-.41-.96-.46-1.34-.46-4.78.02-9.17.02-13.44,0-.22,0-.9,0-1.37.49-.36.38-.41.85-.41,1.15h0v1.91h0c0,.27.05.7.37,1.04.42.45,1.04.45,1.24.44,1.53-.02,3.09-.01,4.59,0,.57,0,1.15,0,1.73,0,.33,0,.65,0,.98,0,.76,0,1.55,0,2.33,0-.01,1.3.05,9.19-.13,11.84-.12,1.81-.85,2.99-2.25,3.6-.99.44-2.09.45-3.1.04-1.01-.41-1.82-1.21-2.28-2.25-.51-1.17-.78-2.09-.86-2.98-.04-.43-.2-.77-.47-1.01-.26-.24-.61-.36-1.03-.36-.2,0-.4,0-.6,0-.67,0-1.35,0-2.03,0-.36,0-.65.08-.88.25-.18.13-.49.44-.5,1.03-.03.99.06,2.97.97,5.09.4.93.91,1.76,1.51,2.46.68.8,1.49,1.44,2.4,1.91.94.48,2.07.84,3.27,1.03.64.1,1.3.15,1.95.15.61,0,1.22-.04,1.8-.13,1.36-.2,2.59-.64,3.66-1.28,1.21-.73,2.18-1.71,2.89-2.91.48-.82.84-1.72,1.08-2.67.22-.88.34-1.83.34-2.82,0-2.49,0-12.41.02-14.19,0-.21.01-.86-.45-1.33"/>
    <polygon class="cls-2" points="122.95 93.12 120.72 93.12 121.05 91.81 122.95 91.81 122.95 93.12"/>
    <path class="cls-2" d="M94.41,93.94h0c0-.57-.06-1.27-.56-1.74-.19-.18-.5-.37-.99-.39h0s-2.1,0-2.1,0h0c-.5,0-1.15.04-1.54.64-.29.45-.29,1.01-.29,1.8,0,2.47.03,18.4,0,20.94,0,.67.06,1.42.58,1.89.2.18.54.39,1.06.39h1.78c.14,0,.29,0,.43,0h.08c.45-.03.78-.14,1.05-.4.44-.42.5-1.04.5-1.53-.02-7.15-.02-14.41,0-21.59"/>
    <path class="cls-2" d="M104.99,97.05h0c.99-.44,2.09-.45,3.1-.04,1.01.41,1.82,1.21,2.28,2.25.51,1.17.78,2.09.86,2.98.04.43.2.77.47,1.01.26.24.61.36,1.03.36.2,0,.39,0,.59,0,.67,0,1.36,0,2.04,0,.36,0,.65-.08.88-.25.18-.13.49-.44.5-1.03.03-.99-.06-2.97-.97-5.09-.4-.93-.91-1.76-1.51-2.46-.68-.8-1.49-1.44-2.4-1.91-.94-.49-2.07-.84-3.27-1.03-1.24-.19-2.54-.2-3.75-.02-1.36.2-2.59.64-3.66,1.28-1.21.73-2.18,1.71-2.89,2.91-.48.82-.84,1.72-1.08,2.67-.22.88-.33,1.83-.34,2.82,0,.55,0,1.46,0,2.24h0v.91s0,.13,0,.13c0,.43,0,.82,0,1.1v.91h0c0,.34,0,.65,0,.95,0,.99.12,1.94.34,2.82.24.95.6,1.85,1.08,2.67.7,1.21,1.68,2.19,2.89,2.91,1.07.64,2.31,1.07,3.66,1.28.59.09,1.19.13,1.8.13.65,0,1.31-.05,1.95-.15,1.2-.19,2.33-.54,3.27-1.03.91-.47,1.71-1.11,2.4-1.91.6-.71,1.11-1.53,1.51-2.46.91-2.11.99-4.09.97-5.09-.02-.58-.32-.89-.5-1.02-.24-.17-.53-.26-.88-.25-.68,0-1.37,0-2.04,0-.19,0-.39,0-.58,0-.42,0-.76.12-1.03.36-.27.24-.43.58-.47,1.01-.08.9-.35,1.81-.86,2.98-.46,1.04-1.27,1.84-2.28,2.25-1,.41-2.1.4-3.1-.04-1.39-.61-2.12-1.79-2.25-3.6-.07-1.02-.11-2.14-.13-3.42.02-1.5.06-3.5.13-4.59.12-1.81.85-2.99,2.25-3.6"/>
    <path class="cls-2" d="M157.43,104.83v-.14s0-.91,0-.91h0c0-.78,0-1.69,0-2.24,0-.99-.12-1.94-.34-2.82-.24-.95-.6-1.85-1.08-2.67-.45-.77-1.02-1.46-1.68-2.04-.62-.54-1.33-.99-2.11-1.35-1.39-.63-3.03-.96-4.73-.94h-.04c-.19,0-.38,0-.57,0h-.3c-1.36.1-2.66.41-3.8.93-.78.36-1.49.81-2.11,1.35-.67.58-1.23,1.27-1.68,2.04-.48.82-.84,1.72-1.08,2.67-.22.88-.33,1.83-.34,2.82,0,.55,0,1.46,0,2.24h0v.91s0,.14,0,.14c0,.43,0,.81,0,1.09v.91h0c0,.34,0,.65,0,.95,0,.99.12,1.94.34,2.82.24.95.6,1.85,1.08,2.67.45.77,1.02,1.46,1.68,2.04.62.54,1.33.99,2.11,1.35,1.14.52,2.44.83,3.8.91h0s.34.02.34.02c.17,0,.34,0,.52,0h.05c.05,0,.11,0,.16,0,1.64,0,3.21-.32,4.56-.94.78-.36,1.49-.81,2.11-1.35.67-.58,1.23-1.27,1.68-2.04.48-.82.84-1.72,1.08-2.67.22-.88.33-1.83.34-2.82,0-.3,0-.61,0-.95h0v-.91c0-.28,0-.66,0-1.09M151.55,108.67c-.12,1.81-.85,2.99-2.25,3.6-.14.06-.27.11-.41.16h0s-1.04.14-1.04.14c-.73.11-1.47,0-2.16-.3-1.39-.61-2.12-1.79-2.25-3.6-.07-1.02-.11-2.14-.13-3.42.02-1.5.06-3.5.13-4.59.12-1.81.85-2.99,2.25-3.6.68-.3,1.43-.4,2.16-.3l1.04.15h0c.14.03.28.08.41.14,1.39.61,2.12,1.79,2.25,3.6.07,1.09.11,3.1.13,4.59-.02,1.28-.06,2.4-.13,3.42"/>
    <path class="cls-2" d="M136.81,95.86c.14-.14.58-.57.56-1.19-.02-.62-.48-.99-.62-1.13-.35-.35-.68-.69-1.07-1.06-.15-.15-.57-.66-1.24-.68-.68-.02-1.16.46-1.31.62-1.32,1.33-7.23,7.43-8.56,8.78,0-2.46,0-4.89,0-7.26,0-.57-.06-1.27-.56-1.74-.22-.2-.6-.43-1.21-.39-.36.03-.74.02-1.13.01-.22,0-.45-.02-.67-.02-.51,0-1.2.02-1.61.65-.29.45-.29,1.01-.29,1.8,0,2.47.03,18.38,0,20.92,0,.67.06,1.42.58,1.89.2.18.54.39,1.06.39,0,0,.01,0,.02,0h0s2.23,0,2.23,0c.44.01.81-.12,1.09-.38.44-.42.5-1.04.5-1.53,0-2.47,0-5.02-.01-7.57,1.58,1.62,7.21,7.47,8.56,8.83.15.16.61.62,1.27.62.01,0,.03,0,.04,0,.67-.02,1.09-.52,1.24-.68.43-.42.71-.69,1.07-1.06.13-.14.6-.51.62-1.13.02-.62-.42-1.05-.56-1.19-.76-.74-7.68-7.99-8.41-8.7.5-.5,7.55-7.97,8.41-8.8"/>
  </g>
</svg>