<?xml version="1.0" encoding="UTF-8"?>
<svg id="Layer_1" data-name="Layer 1" xmlns="http://www.w3.org/2000/svg" viewBox="0 0 180 180">
  <defs>
    <style>
      .cls-1 {
        fill: #00867e;
      }

      .cls-1, .cls-2, .cls-3, .cls-4, .cls-5 {
        stroke-width: 0px;
      }

      .cls-2 {
        fill: #808285;
      }

      .cls-3 {
        fill: #009188;
      }

      .cls-4 {
        fill: #fff;
      }

      .cls-5 {
        fill: #dbba5b;
      }
    </style>
  </defs>
  <g>
    <rect class="cls-3" x="46.57" y="56" width="97.59" height="48.29"/>
    <path class="cls-1" d="M144.37,104.49H46.37v-48.69h98v48.69ZM46.78,104.08h97.19v-47.88H46.78v47.88Z"/>
  </g>
  <g>
    <polygon class="cls-5" points="59.49 100.95 96.96 100.95 95.99 63.41 59.49 81.5 59.49 100.95"/>
    <path class="cls-4" d="M129.37,100.95l.09-18.28-32.29-16.19-.32,34.47h-37.37v-19.45l35.31-17.65v-8.01h2.33v8.01l34.88,17.38-.23,19.73h-2.4ZM62.02,83.06v15.35h32.37l.37-31.87-32.74,16.52Z"/>
  </g>
  <g>
    <path class="cls-3" d="M60.86,113.21c0,1.33-.42,2.43-1.25,3.3-.84.88-1.92,1.31-3.23,1.31s-2.41-.45-3.27-1.35c-.84-.89-1.26-2-1.26-3.32,0-.91.19-1.69.56-2.36h-1.65c-1.65,0-2.47,1.17-2.47,3.51v6.65h-2.24v-7.11c0-1.63.41-2.92,1.22-3.87.84-.98,1.99-1.47,3.45-1.47h5.66c1.31,0,2.39.45,3.24,1.36.83.89,1.24,2.01,1.24,3.35ZM58.56,113.21c0-.76-.21-1.39-.62-1.88-.42-.51-.97-.76-1.65-.76s-1.2.25-1.59.74c-.38.47-.57,1.08-.57,1.82s.22,1.37.65,1.86c.43.52.98.77,1.65.77,1.42,0,2.13-.85,2.13-2.56Z"/>
    <path class="cls-3" d="M74.2,117.63h-2.72c-.3,2.2-1.76,3.3-4.38,3.3v-1.76c1.18,0,1.92-.51,2.23-1.54h-2.15c-1.22,0-2.26-.45-3.12-1.34-.86-.91-1.28-2.02-1.28-3.33s.43-2.39,1.29-3.22c.84-.82,1.91-1.23,3.2-1.23,1.22,0,2.22.42,3,1.27.78.84,1.18,1.92,1.18,3.24v2.33h2.74v2.28ZM69.2,115.35v-2.75c-.14-1.35-.79-2.03-1.96-2.03-1.45,0-2.17.76-2.17,2.27,0,.69.21,1.28.63,1.77.42.49.93.73,1.53.73h1.98Z"/>
    <path class="cls-3" d="M78.15,117.63h-4.44v-2.28h4.44v2.28Z"/>
    <path class="cls-3" d="M77.66,117.63v-2.28h2.95c-.35-.84-.52-1.54-.52-2.09,0-1.18.36-2.13,1.09-2.84.73-.71,1.68-1.06,2.88-1.06s2.15.35,2.87,1.05c.74.71,1.11,1.66,1.11,2.85,0,.55-.17,1.24-.52,2.09h2.65c.01-.12.02-.31.02-.55,0-1.7-.47-3.22-1.4-4.56-.94-1.35-2.13-2.17-3.58-2.47l.26-2.15c2.14.43,3.82,1.52,5.06,3.25,1.23,1.72,1.85,3.84,1.85,6.36,0,.83-.07,1.63-.2,2.39h-14.53ZM85.9,113.26c0-1.41-.62-2.12-1.85-2.12s-1.84.71-1.84,2.12.61,2.15,1.84,2.15,1.85-.72,1.85-2.15Z"/>
    <path class="cls-3" d="M116.9,117.63h-.98c-1.52,0-2.85-.55-3.99-1.65-.83,1.23-2.05,1.84-3.67,1.84-1.33,0-2.42-.45-3.27-1.35-.84-.89-1.26-2-1.26-3.34,0-.89.19-1.68.56-2.34h-1.65c-1.65,0-2.47,1.17-2.47,3.51v6.65h-2.24v-7.11c0-1.63.41-2.93,1.23-3.88.84-.97,2-1.46,3.48-1.46h5.62c2.23,0,3.62.96,4.17,2.89.45,1.55.93,2.6,1.45,3.16.48.53,1.15.79,2.02.79h1v2.28ZM110.45,113.21c0-.76-.21-1.39-.62-1.89-.42-.52-.97-.77-1.65-.77s-1.16.24-1.56.73c-.4.48-.6,1.1-.6,1.84s.22,1.39.65,1.89c.43.51.98.76,1.65.76,1.42,0,2.13-.85,2.13-2.56Z"/>
    <path class="cls-3" d="M120.58,117.63h-4.44v-2.28h4.44v2.28Z"/>
    <path class="cls-3" d="M122.09,122.02h-2.2v-2.24h2.2v2.24ZM125.94,114c0,2.42-1.12,3.63-3.35,3.63h-2.36v-2.28h1.88c.73,0,1.21-.22,1.43-.67.1-.25.16-.74.16-1.45v-4.71h2.24v5.48ZM125.88,122.02h-2.2v-2.24h2.2v2.24Z"/>
    <path class="cls-3" d="M132.46,108.52v7.33c0,3.4-1.68,5.1-5.04,5.1v-1.92c1.86,0,2.79-.95,2.79-2.84v-7.67h2.24Z"/>
    <path class="cls-3" d="M143.86,117.63h-9.53v-2.28h7.26c0-2.63-1.02-4.16-3.05-4.59-.54-.12-1.21-.19-2.03-.19v-2.05c.52,0,.97,0,1.35,0,.33.01.58.02.73.03.33.03.73.12,1.21.28,2.68.9,4.04,3.07,4.06,6.5v2.28Z"/>
  </g>
  <g>
    <path class="cls-2" d="M47.25,125.32c0,.07-.01.17-.03.29l-.22,1.43h-.37l-.24-1.71v-1.78h.86v1.78ZM47.25,128.19h-.86v-.91h.86v.91Z"/>
    <path class="cls-2" d="M54.26,127.38v.81c-.43,0-.74-.04-.93-.13-.18-.08-.35-.25-.52-.5-.11.55-.39.99-.82,1.32-.43.33-.94.49-1.52.49-.69,0-1.27-.24-1.74-.71-.48-.47-.71-1.06-.71-1.76v-.8h.8v.71c0,.55.15.99.45,1.31.3.32.71.48,1.23.48.46,0,.84-.13,1.16-.4.31-.26.47-.57.47-.94,0-.5-.24-.76-.72-.76h-.07s-.04,0-.06,0v-.73h.31c.63,0,1.1.28,1.42.85.27.49.59.74.98.74h.3Z"/>
    <path class="cls-2" d="M55.64,128.19h-1.58v-.81h1.58v.81Z"/>
    <path class="cls-2" d="M56.18,129.75h-.78v-.8h.78v.8ZM57.55,126.9c0,.86-.4,1.29-1.19,1.29h-.84v-.81h.67c.26,0,.43-.08.51-.24.04-.09.06-.26.06-.52v-1.68h.8v1.95ZM57.53,129.75h-.78v-.8h.78v.8Z"/>
    <path class="cls-2" d="M60.38,128.19h-.93c-.39,0-.68-.12-.88-.37-.19-.23-.29-.54-.29-.93v-3.3h.79v2.98c0,.35.08.58.23.69.11.08.31.12.61.12h.47v.81Z"/>
    <path class="cls-2" d="M60.84,129.75h-.78v-.8h.78v.8ZM62.21,126.9c0,.86-.4,1.29-1.19,1.29h-.84v-.81h.67c.26,0,.43-.08.51-.24.04-.09.06-.26.06-.52v-1.68h.8v1.95ZM62.19,129.75h-.78v-.8h.78v.8Z"/>
    <path class="cls-2" d="M65.95,128.09c0,.85-.52,1.28-1.55,1.28v-.63c.49-.01.75-.31.76-.9-.13.24-.39.36-.76.36-.46,0-.83-.15-1.11-.46-.28-.3-.42-.69-.42-1.17s.14-.87.43-1.17c.29-.3.65-.45,1.1-.45s.84.16,1.12.47c.28.3.42.7.42,1.17v1.51ZM65.13,126.6c0-.62-.25-.93-.76-.93-.21,0-.38.09-.51.26-.13.17-.19.38-.19.63s.07.47.21.64c.14.18.32.26.53.26s.39-.09.52-.26c.13-.17.2-.37.2-.61Z"/>
    <path class="cls-2" d="M68.27,124.95v2.61c0,1.21-.6,1.82-1.79,1.82v-.68c.66,0,.99-.34.99-1.01v-2.73h.8Z"/>
    <path class="cls-2" d="M76.5,127.38v.81c-.43,0-.74-.04-.93-.13-.18-.08-.35-.25-.52-.5-.11.55-.39.99-.82,1.32-.43.33-.94.49-1.52.49-.69,0-1.27-.24-1.74-.71-.48-.47-.71-1.06-.71-1.76v-.8h.8v.71c0,.55.15.99.45,1.31.3.32.71.48,1.23.48.46,0,.84-.13,1.16-.4.31-.26.47-.57.47-.94,0-.5-.24-.76-.72-.76h-.07s-.04,0-.06,0v-.73h.31c.63,0,1.1.28,1.42.85.27.49.59.74.98.74h.3Z"/>
    <path class="cls-2" d="M76.94,125.7l1.41-2.11h.95l-.96,1.36h.35c.53,0,.99.13,1.37.39.68.45,1.01,1.23,1.01,2.35v.5h-4.77v-.81h3.92c0-.44-.13-.82-.38-1.14-.3-.36-.71-.54-1.24-.54h-1.65ZM76.76,125.49l-.24-.49.93-1.4h.55l-1.24,1.9Z"/>
    <path class="cls-2" d="M86.36,128.19h-4.63v-.81h2.58c0-.93-.36-1.48-1.08-1.63-.19-.04-.43-.07-.72-.07v-.73c.18,0,.34,0,.48,0,.12,0,.21,0,.26.01.12,0,.26.04.43.1.96.32,1.44,1.09,1.44,2.31h1.24v.81Z"/>
    <path class="cls-2" d="M88.05,126.9c0,.86-.4,1.29-1.2,1.29h-.84v-.81h.68c.26,0,.43-.08.51-.24.04-.09.06-.26.06-.52v-1.68h.8v1.95ZM88.03,124.29h-.78v-.79h.78v.79Z"/>
    <path class="cls-2" d="M90.37,124.95v2.61c0,1.21-.6,1.82-1.79,1.82v-.68c.66,0,.99-.34.99-1.01v-2.73h.8ZM90.36,124.29h-.78v-.79h.78v.79Z"/>
    <path class="cls-2" d="M93.58,128.19h-1.58v-.81h1.58v.81Z"/>
    <path class="cls-2" d="M99.02,128.19h-5.62v-.81h3.92c0-.44-.13-.82-.38-1.14-.3-.36-.71-.54-1.24-.54h-1.65l1.41-2.11h.95l-.96,1.36h.35c.49,0,.93.11,1.31.34.65.4,1,1.09,1.07,2.08h.86v.81Z"/>
    <path class="cls-2" d="M99.52,129.75h-.78v-.8h.78v.8ZM100.89,126.9c0,.86-.4,1.29-1.19,1.29h-.84v-.81h.67c.26,0,.43-.08.51-.24.04-.09.06-.26.06-.52v-1.68h.8v1.95ZM100.87,129.75h-.78v-.8h.78v.8Z"/>
    <path class="cls-2" d="M107.81,126.17v.77c0,.69-.24,1.26-.71,1.73-.48.47-1.06.7-1.74.7h-.05c-.69,0-1.27-.23-1.75-.7-.47-.47-.71-1.05-.71-1.74v-.79h.8v.71c0,.54.15.97.45,1.28.3.32.71.48,1.23.48,1.04,0,1.6-.55,1.68-1.66h-1.89c0-1.56.8-2.34,2.4-2.34v.74c-.76,0-1.25.27-1.48.82h1.76Z"/>
    <path class="cls-2" d="M109.34,128.19h-.79v-4.61h.79v4.61Z"/>
    <path class="cls-2" d="M112.89,128.19h-1.28c-.12.79-.71,1.18-1.74,1.18v-.68c.66,0,.99-.34.99-1.01v-2.73h.8v2.43h1.23v.81Z"/>
    <path class="cls-2" d="M114.63,126.9c0,.86-.4,1.29-1.19,1.29h-.77v-.81h.61c.26,0,.43-.08.5-.24.04-.09.06-.26.06-.52v-1.68h.79v1.95ZM114.63,129.75h-.78v-.8h.78v.8Z"/>
    <path class="cls-2" d="M119.7,128.19h-1.28c-.12.79-.71,1.18-1.74,1.18v-.68c.66,0,.99-.34.99-1.01v-2.73h.8v2.43h1.23v.81ZM118.47,124.29h-.78v-.79h.78v.79Z"/>
    <path class="cls-2" d="M120.17,129.75h-.78v-.8h.78v.8ZM122.71,128.19h-3.29v-.81h.76c.24,0,.4-.08.49-.24.06-.11.08-.29.08-.54v-1.64h.79v1.6c0,.42-.06.69-.18.83h1.34v.81ZM121.52,129.75h-.78v-.8h.78v.8Z"/>
    <path class="cls-2" d="M127.5,128.19h-5.02v-.81h4.16c0-.45-.12-.82-.37-1.14-.29-.36-.7-.54-1.23-.54-.18,0-.38.05-.6.14-.26.11-.47.26-.64.45-.07-.14-.2-.35-.39-.63.23-.22.48-.38.76-.51.31-.13.62-.2.94-.2.53,0,.99.13,1.37.39.68.45,1.01,1.23,1.01,2.35v.5ZM124.83,129.46h-.78v-.8h.78v.8ZM125.52,130.59h-.78v-.8h.78v.8ZM126.18,129.46h-.78v-.8h.78v.8Z"/>
    <path class="cls-2" d="M134.02,128.19h-.86c-.68,0-1.11-.35-1.29-1.06-.25.36-.55.53-.91.53-.45,0-.81-.15-1.08-.46-.26-.31-.4-.71-.4-1.21,0-.53.13-.96.4-1.27.26-.31.62-.46,1.08-.46h1.76s0,2.26,0,2.26c0,.57.27.86.8.86h.51v.81ZM131.88,124.88h-.72c-.6,0-.9.37-.9,1.1,0,.28.07.52.22.72.15.2.34.3.57.3.25,0,.46-.11.61-.32.15-.2.22-.46.22-.77v-1.03Z"/>
    <path class="cls-2" d="M138.48,128.19h-1.02c-.31.41-.74.62-1.29.62s-.97-.21-1.28-.62h-1.09v-.81h.77c0-.05,0-.13,0-.24,0-.48.15-.87.44-1.18.3-.31.69-.46,1.16-.46s.87.16,1.16.48c.29.32.44.72.44,1.19v.21h.71v.81ZM136.94,127.16c0-.25-.06-.47-.19-.65-.15-.2-.35-.29-.61-.29s-.44.1-.58.29c-.12.17-.18.38-.18.63s.07.48.22.66c.15.18.35.28.59.28s.43-.09.57-.27c.12-.17.18-.38.18-.63Z"/>
    <path class="cls-2" d="M138.24,128.19v-.81h1.05c-.12-.3-.18-.55-.18-.74,0-.42.13-.76.39-1.01.26-.25.6-.38,1.02-.38s.76.12,1.02.37c.26.25.39.59.39,1.01,0,.2-.06.44-.18.74h.94s0-.11,0-.2c0-.61-.17-1.15-.5-1.62-.33-.48-.76-.77-1.27-.88l.09-.76c.76.15,1.36.54,1.8,1.16.44.61.66,1.37.66,2.26,0,.3-.02.58-.07.85h-5.17ZM141.17,126.64c0-.5-.22-.75-.66-.75s-.66.25-.66.75.22.76.66.76.66-.25.66-.76Z"/>
  </g>
</svg>