<?xml version="1.0" encoding="UTF-8"?>
<svg id="Isolation_Mode" data-name="Isolation Mode" xmlns="http://www.w3.org/2000/svg" xmlns:xlink="http://www.w3.org/1999/xlink" viewBox="0 0 180 180">
  <defs>
    <style>
      .cls-1 {
        fill: #606060;
      }

      .cls-1, .cls-2, .cls-3, .cls-4, .cls-5 {
        stroke-width: 0px;
      }

      .cls-2 {
        fill: none;
      }

      .cls-6 {
        clip-path: url(#clippath);
      }

      .cls-3 {
        fill: url(#radial-gradient);
      }

      .cls-4 {
        fill: #bcbec0;
      }

      .cls-5 {
        fill: #7700c4;
      }
    </style>
    <clipPath id="clippath">
      <path class="cls-2" d="M30.37,89c0-9.04,7.35-16.39,16.39-16.39s16.39,7.35,16.39,16.39-7.35,16.39-16.39,16.39-16.39-7.35-16.39-16.39M44.11,64.19c-2.05.19-3.43.56-3.44.56-1.67.46-3.28,1-4.98,1.58-2.66.9-5.4,1.84-8.38,2.38-5.13.95-12.6,1.78-19.25-1.55,1.66,2.15,7.18,8.2,17.13,9.02l.36.02-.17.3c-2.18,3.79-3.33,8.08-3.33,12.44,0,13.72,11.16,24.88,24.88,24.88s24.88-11.16,24.88-24.88-11.15-24.86-24.85-24.88h-.1c-.35,0-1.52,0-2.74.12"/>
    </clipPath>
    <radialGradient id="radial-gradient" cx="-205.62" cy="-21.97" fx="-205.62" fy="-21.97" r="1.36" gradientTransform="translate(4367.37 -372.82) scale(21.01 -21.01)" gradientUnits="userSpaceOnUse">
      <stop offset="0" stop-color="#fff"/>
      <stop offset=".08" stop-color="#f0e0f7"/>
      <stop offset=".28" stop-color="#cf9de7"/>
      <stop offset=".46" stop-color="#b465da"/>
      <stop offset=".63" stop-color="#9f39cf"/>
      <stop offset=".78" stop-color="#901ac8"/>
      <stop offset=".91" stop-color="#8706c3"/>
      <stop offset="1" stop-color="#8400c2"/>
    </radialGradient>
  </defs>
  <path class="cls-5" d="M46.77,89.22c-3.42,0-6.2,4.42-6.2,9.85,0,1.43.2,2.79.55,4.02,1.75.7,3.65,1.1,5.65,1.1s3.9-.4,5.65-1.1c.35-1.23.55-2.59.55-4.02,0-5.43-2.78-9.85-6.2-9.85"/>
  <path class="cls-5" d="M46.77,87.77c1.98,0,3.58-1.61,3.58-3.58s-1.61-3.59-3.58-3.59-3.59,1.61-3.59,3.59,1.61,3.58,3.59,3.58"/>
  <path class="cls-4" d="M56.05,101c2.65-2.06,4.6-4.96,5.44-8.31-.03,0-.06-.01-.09-.01-2.91,0-5.28,3.72-5.35,8.33"/>
  <path class="cls-4" d="M61.4,91.36c.13,0,.25-.02.37-.04.12-.76.2-1.53.2-2.32,0-1.32-.19-2.59-.5-3.81-.02,0-.04,0-.06,0-1.7,0-3.09,1.38-3.09,3.09s1.39,3.09,3.09,3.09"/>
  <path class="cls-4" d="M32.14,92.68s-.06.01-.09.02c.84,3.35,2.79,6.26,5.44,8.31-.07-4.61-2.44-8.33-5.35-8.33"/>
  <path class="cls-4" d="M35.22,88.27c0-1.7-1.38-3.09-3.09-3.09-.02,0-.04,0-.06,0-.32,1.22-.5,2.49-.5,3.81,0,.79.08,1.56.2,2.32.12.02.24.04.37.04,1.7,0,3.09-1.38,3.09-3.09"/>
  <g class="cls-6">
    <rect class="cls-3" x="8.06" y="64.07" width="63.74" height="49.75"/>
  </g>
  <rect class="cls-1" x="80.36" y="78.71" width="1.54" height="1.5"/>
  <path class="cls-1" d="M84.99,86.93c.25-.43.38-.92.38-1.43v-6.3l-2.04.5v5.8c0,.23-.08.42-.23.59-.16.16-.34.24-.56.24h-1.22c-.22,0-.41-.08-.57-.24-.16-.16-.24-.36-.24-.59v-3.86l-2.04.5v3.36c0,.51.13.99.38,1.43.25.44.6.78,1.04,1.04.43.25.92.38,1.43.38h1.22c.51,0,.99-.13,1.42-.38.43-.25.78-.6,1.03-1.04"/>
  <rect class="cls-1" x="88.07" y="86.17" width="3.31" height="1.5"/>
  <path class="cls-1" d="M92.29,79.21l-2.03.49v2.29c0,.22-.08.41-.24.57-.16.16-.35.24-.57.24s-.42-.08-.58-.24c-.16-.16-.24-.35-.24-.57v-5.84l-2.03.5v5.33c0,.51.13.98.38,1.42.25.44.6.78,1.04,1.04.42.24.88.37,1.38.38h.05c.51,0,.99-.13,1.42-.38.43-.25.78-.6,1.03-1.03.25-.43.38-.91.38-1.42v-2.78Z"/>
  <rect class="cls-1" x="98.41" y="76.33" width="3.31" height="1.52"/>
  <polygon class="cls-1" points="110.3 76.17 108.77 75.69 108.77 76.86 107 76.86 107 78.36 110.3 78.36 110.3 76.17"/>
  <path class="cls-1" d="M114.01,84.83c.33,0,.65-.06.95-.18.3-.12.58-.28.83-.49l.04-.04.04.04c.24.21.52.37.83.49.3.12.63.18.96.18.51,0,.99-.13,1.42-.39.43-.26.78-.61,1.03-1.04.25-.43.38-.9.38-1.41s-.13-.99-.38-1.43c-.25-.44-.6-.78-1.03-1.04-.43-.25-.91-.38-1.42-.38h-2.83v2.85c0,.22-.08.41-.24.57-.16.16-.36.24-.57.24s-.41-.08-.56-.24c-.15-.16-.23-.35-.23-.57v-2.77l-2.01.49v2.32c0,.21-.08.39-.23.54-.15.15-.33.22-.55.22s-.38-.07-.53-.22c-.15-.15-.22-.33-.22-.54v-2.29h-2.03v2.29c0,.21-.07.39-.22.54-.15.15-.33.22-.54.22s-.38-.07-.53-.22c-.15-.15-.22-.33-.22-.54v-2.29h-2.01v2.24c0,.22-.08.41-.24.57-.16.16-.36.24-.59.24h-.82c-.23,0-.42-.08-.58-.24-.16-.16-.24-.35-.24-.57v-2.78l-2.01.49v2.29c0,.22-.08.41-.24.57-.16.16-.36.24-.58.24h-2.38c-.23,0-.42-.08-.58-.24-.16-.16-.24-.35-.24-.57v-2.78l-2.03.51v5.87l-1.19.8,1.12,1.68,2.1-1.41v-2.18l.1.07c.25.17.49.26.71.27h.04s2.34,0,2.34,0c.33,0,.65-.06.96-.17.3-.11.58-.27.83-.47l.04-.04.04.03c.24.2.52.36.83.47.3.11.63.17.96.17h.82c.66,0,1.25-.21,1.77-.63l.04-.03.04.03c.24.19.51.34.81.46.6.23,1.26.23,1.85.01.3-.11.57-.26.82-.45l.04-.03.04.03c.25.19.52.34.81.45s.6.16.9.16c.65,0,1.24-.21,1.75-.62l.04-.03.04.03c.24.2.51.35.81.46.29.1.59.16.9.16h.05ZM116.84,81.17h.81c.23,0,.42.08.58.24.15.16.23.35.23.58s-.08.41-.24.57c-.16.16-.35.24-.57.24s-.41-.08-.57-.24c-.16-.16-.24-.35-.24-.57v-.82Z"/>
  <path class="cls-1" d="M124.39,84.45h0c.43.25.92.38,1.43.38s.99-.13,1.42-.38c.43-.25.78-.6,1.02-1.03.25-.43.38-.91.38-1.42v-2.83h-2.82c-.51,0-1,.13-1.43.38-.44.25-.78.6-1.04,1.04-.25.44-.38.91-.38,1.42s.13.98.38,1.42c.25.44.6.78,1.04,1.04M125.25,81.41c.16-.16.36-.24.58-.24h.79v.82c0,.22-.08.41-.23.57-.15.16-.34.24-.56.24s-.42-.08-.58-.24c-.16-.16-.24-.35-.24-.57s.08-.42.24-.58"/>
  <polygon class="cls-1" points="140.53 75.51 140.19 74.91 137.75 76.29 138.09 76.9 140.53 75.51"/>
  <path class="cls-1" d="M152.82,84.22l.04-.03.04.03c.24.19.52.34.81.45.29.11.6.16.92.16.5,0,.96-.13,1.39-.37.42-.25.76-.59,1.01-1.02.25-.43.37-.9.37-1.39v-2.82l-2.03.49v2.32c0,.21-.07.39-.22.54-.15.15-.32.22-.53.22s-.39-.07-.54-.22c-.15-.15-.22-.33-.22-.54v-2.29h-2.03v2.29c0,.21-.07.39-.22.54-.15.15-.33.22-.54.22s-.38-.07-.53-.22c-.15-.15-.22-.33-.22-.54v-2.29h-2.03v2.24c0,.22-.08.41-.24.57-.16.16-.35.24-.57.24s-.41-.08-.56-.24c-.15-.16-.23-.35-.23-.57,0-.51-.13-.98-.39-1.42-.26-.43-.61-.78-1.04-1.04-.44-.25-.91-.38-1.42-.38h-4.42l2.57-1.47-1.01-1.5-5.21,2.95v2.05h8.07c.23,0,.42.08.58.23.15.15.23.35.23.58s-.08.41-.23.57c-.16.16-.35.24-.58.24h-11.12c-.23,0-.42-.08-.58-.24-.16-.16-.24-.35-.24-.57v-5.84l-2.03.5v5.33c0,.51.13.98.38,1.42.25.44.6.78,1.04,1.04.44.25.92.38,1.43.38h11.12c.66,0,1.27-.22,1.8-.64l.04-.03.04.03c.5.42,1.08.63,1.73.64h.05c.64,0,1.23-.21,1.75-.63l.04-.03.04.03c.24.19.51.34.82.46.61.23,1.26.22,1.85.01.3-.11.57-.26.81-.45"/>
  <polygon class="cls-1" points="154.5 76.17 152.97 75.69 152.97 76.86 151.2 76.86 151.2 78.36 154.5 78.36 154.5 76.17"/>
  <path class="cls-1" d="M162.29,79.71v2.29c0,.22-.08.41-.24.57-.16.16-.35.24-.57.24s-.42-.08-.58-.24c-.16-.16-.24-.35-.24-.57v-5.84l-2.03.5v5.33c0,.51.13.98.38,1.42.25.44.6.78,1.04,1.04.42.24.88.37,1.38.38h.05s0,0,0,0c.51,0,.99-.13,1.42-.38.43-.25.78-.6,1.03-1.03.25-.43.38-.91.38-1.42v-2.78l-2.03.49Z"/>
  <rect class="cls-1" x="161" y="86.17" width="1.54" height="1.5"/>
  <polygon class="cls-5" points="80 103.05 78.42 104.11 79.93 106.37 82.73 104.49 82.73 94.58 80 95.27 80 103.05"/>
  <path class="cls-5" d="M88.45,95.02c-.57-.34-1.21-.51-1.89-.51h-2.18v2.73h2.18c.3,0,.55.1.75.3s.3.45.3.75v1.05h-3.31v2.73h6.02v-3.77c0-.68-.17-1.32-.5-1.89-.33-.57-.79-1.04-1.36-1.37"/>
  <path class="cls-5" d="M108.78,95c-.57-.34-1.21-.51-1.9-.51-2.08,0-3.77,1.69-3.77,3.77v.02c0,.29-.11.53-.32.74-.21.21-.46.31-.75.31h-6.32c-.3,0-.55-.1-.76-.31-.21-.21-.31-.45-.31-.74v-7.76l-2.73.68v7.08c0,.67.17,1.31.51,1.89.34.58.8,1.04,1.38,1.38.58.34,1.22.51,1.9.51h6.32c.44,0,.87-.08,1.28-.24.41-.16.78-.38,1.1-.65l.04-.04.04.04c.33.27.7.49,1.1.65.4.16.83.24,1.27.24.68,0,1.32-.17,1.89-.52.57-.34,1.04-.81,1.37-1.38.34-.57.51-1.21.51-1.88s-.17-1.32-.51-1.9c-.34-.58-.8-1.04-1.37-1.38M107.62,99.02c-.21.21-.45.31-.74.31s-.53-.1-.74-.31c-.21-.21-.31-.45-.31-.74v-1.07h1.05c.3,0,.55.1.75.31s.3.46.3.76-.1.53-.31.74"/>
  <path class="cls-1" d="M115.81,95.02h0c-.58.34-1.04.8-1.38,1.38-.34.58-.51,1.21-.51,1.89s.17,1.31.51,1.89c.34.58.8,1.04,1.38,1.38.58.34,1.22.51,1.9.51s1.32-.17,1.89-.51c.57-.34,1.03-.8,1.36-1.37.33-.57.5-1.21.5-1.9v-3.77h-3.76c-.68,0-1.32.17-1.9.51M118.74,98.28c0,.28-.1.53-.3.74s-.45.31-.73.31-.55-.1-.76-.31c-.21-.2-.31-.45-.31-.74s.11-.55.32-.76.46-.31.75-.31h1.03v1.07Z"/>
  <path class="cls-1" d="M127.15,95.02c-.57-.34-1.21-.51-1.89-.51h-2.18v2.73h2.18c.3,0,.55.1.75.3s.3.45.3.75v1.05h-3.31v2.73h6.02v-3.77c0-.68-.17-1.32-.5-1.89-.33-.57-.79-1.04-1.36-1.37"/>
  <polygon class="cls-1" points="130.63 102.06 133.37 102.06 133.37 90.52 130.63 91.2 130.63 102.06"/>
  <path class="cls-1" d="M147.27,98.28c0,.29-.1.53-.31.74-.21.21-.45.31-.74.31h-4.03v-4.81h-3.79c-.67,0-1.31.17-1.89.51-.58.34-1.04.8-1.38,1.38-.34.58-.51,1.21-.51,1.89s.18,1.35.54,1.92c.36.58.81,1.03,1.34,1.35.53.32,1.04.48,1.51.48h.55l-3.12,2.07,1.51,2.26,5.24-3.48v-.85h4.03c.69,0,1.32-.17,1.89-.51.57-.34,1.04-.8,1.37-1.37.34-.57.51-1.21.51-1.89v-3.71l-2.73.66v3.05ZM139.46,99.33h-1.07c-.3,0-.55-.1-.75-.31-.2-.21-.3-.46-.3-.75s.1-.53.31-.74c.21-.2.45-.31.74-.31h1.07v2.11Z"/>
  <rect class="cls-1" x="147.89" y="90.78" width="2.1" height="2.02"/>
  <rect class="cls-1" x="157.83" y="90.7" width="2.1" height="2.03"/>
  <path class="cls-1" d="M162,95.02c-.58-.34-1.22-.51-1.9-.51h-3.03l-.66,2.73h3.69c.3,0,.55.1.75.31.21.2.31.45.31.74v1.05h-5.77c-.3,0-.55-.1-.76-.31-.21-.21-.31-.45-.31-.74v-7.76l-2.73.68v7.08c0,.67.17,1.31.51,1.89.34.58.8,1.04,1.38,1.38.58.34,1.22.51,1.9.51h8.5v-3.77c0-.67-.17-1.31-.51-1.89-.34-.58-.8-1.04-1.38-1.38"/>
</svg>