<?xml version="1.0" encoding="UTF-8"?>
<svg id="Layer_1" data-name="Layer 1" xmlns="http://www.w3.org/2000/svg" xmlns:xlink="http://www.w3.org/1999/xlink" viewBox="0 0 180 180">
  <defs>
    <style>
      .cls-1 {
        fill: url(#radial-gradient-16);
      }

      .cls-1, .cls-2, .cls-3, .cls-4, .cls-5, .cls-6, .cls-7, .cls-8, .cls-9, .cls-10, .cls-11, .cls-12, .cls-13, .cls-14, .cls-15, .cls-16, .cls-17, .cls-18, .cls-19, .cls-20, .cls-21, .cls-22 {
        stroke-width: 0px;
      }

      .cls-2 {
        fill: #00adee;
      }

      .cls-3 {
        fill: #eb008b;
      }

      .cls-4 {
        fill: url(#radial-gradient-8);
      }

      .cls-5 {
        fill: url(#radial-gradient-13);
      }

      .cls-6 {
        fill: url(#radial-gradient-12);
      }

      .cls-7 {
        fill: url(#radial-gradient-19);
      }

      .cls-8 {
        fill: url(#radial-gradient-20);
      }

      .cls-9 {
        fill: url(#radial-gradient-17);
      }

      .cls-10 {
        fill: url(#radial-gradient-2);
      }

      .cls-11 {
        fill: url(#radial-gradient-7);
      }

      .cls-12 {
        fill: url(#radial-gradient-5);
      }

      .cls-13 {
        fill: url(#radial-gradient);
      }

      .cls-14 {
        fill: url(#radial-gradient-14);
      }

      .cls-15 {
        fill: url(#radial-gradient-18);
      }

      .cls-16 {
        fill: url(#radial-gradient-10);
      }

      .cls-17 {
        fill: url(#radial-gradient-6);
      }

      .cls-18 {
        fill: url(#radial-gradient-15);
      }

      .cls-19 {
        fill: url(#radial-gradient-9);
      }

      .cls-20 {
        fill: url(#radial-gradient-3);
      }

      .cls-21 {
        fill: url(#radial-gradient-11);
      }

      .cls-22 {
        fill: url(#radial-gradient-4);
      }
    </style>
    <radialGradient id="radial-gradient" cx="145.22" cy="103.21" fx="145.22" fy="103.21" r="12.88" gradientUnits="userSpaceOnUse">
      <stop offset=".27" stop-color="#00adee"/>
      <stop offset=".38" stop-color="#1f83dd"/>
      <stop offset=".51" stop-color="#4255cb"/>
      <stop offset=".64" stop-color="#5e30bc"/>
      <stop offset=".77" stop-color="#7215b2"/>
      <stop offset=".87" stop-color="#7e05ac"/>
      <stop offset=".96" stop-color="#8300aa"/>
      <stop offset="1" stop-color="#7c00ac"/>
    </radialGradient>
    <radialGradient id="radial-gradient-2" cx="111.32" cy="103.39" fx="111.32" fy="103.39" r="9" gradientUnits="userSpaceOnUse">
      <stop offset="0" stop-color="#8300aa"/>
      <stop offset="1" stop-color="#7c00ac"/>
    </radialGradient>
    <radialGradient id="radial-gradient-3" cx="93.98" cy="103.95" fx="93.98" fy="103.95" r="7.59" xlink:href="#radial-gradient-2"/>
    <radialGradient id="radial-gradient-4" cx="62.32" cy="100.64" fx="62.32" fy="100.64" r="31.19" gradientUnits="userSpaceOnUse">
      <stop offset=".27" stop-color="#eb008b"/>
      <stop offset=".63" stop-color="#00adee"/>
      <stop offset=".71" stop-color="#1b87df"/>
      <stop offset=".91" stop-color="#6026ba"/>
      <stop offset="1" stop-color="#7c00ac"/>
    </radialGradient>
    <radialGradient id="radial-gradient-5" cx="99.88" cy="116.05" fx="99.88" fy="116.05" r=".4" xlink:href="#radial-gradient-2"/>
    <radialGradient id="radial-gradient-6" cx="102.38" cy="121.8" fx="102.38" fy="121.8" r=".72" xlink:href="#radial-gradient-2"/>
    <radialGradient id="radial-gradient-7" cx="112.08" cy="121.81" fx="112.08" fy="121.81" r=".4" xlink:href="#radial-gradient-2"/>
    <radialGradient id="radial-gradient-8" cx="110.13" cy="119.75" fx="110.13" fy="119.75" r="3.06" xlink:href="#radial-gradient-2"/>
    <radialGradient id="radial-gradient-9" cx="96.86" cy="117.75" fx="96.86" fy="117.75" r="6.74" xlink:href="#radial-gradient-2"/>
    <radialGradient id="radial-gradient-10" cx="91.56" cy="115.38" fx="91.56" fy="115.38" r=".99" xlink:href="#radial-gradient-2"/>
    <radialGradient id="radial-gradient-11" cx="125.03" cy="90.51" fx="125.03" fy="90.51" r="1.73" xlink:href="#radial-gradient-2"/>
    <radialGradient id="radial-gradient-12" cx="128.01" cy="89.86" fx="128.01" fy="89.86" r=".97" xlink:href="#radial-gradient-2"/>
    <radialGradient id="radial-gradient-13" cx="133.31" cy="88.05" fx="133.31" fy="88.05" r=".55" xlink:href="#radial-gradient-2"/>
    <radialGradient id="radial-gradient-14" cx="132.16" cy="89.33" fx="132.16" fy="89.33" r="2.3" xlink:href="#radial-gradient-2"/>
    <radialGradient id="radial-gradient-15" cx="136.96" cy="88.96" fx="136.96" fy="88.96" r=".29" xlink:href="#radial-gradient-2"/>
    <radialGradient id="radial-gradient-16" cx="139.78" cy="91.68" fx="139.78" fy="91.68" r=".48" xlink:href="#radial-gradient-2"/>
    <radialGradient id="radial-gradient-17" cx="139.76" cy="90.51" fx="139.76" fy="90.51" r="2.98" xlink:href="#radial-gradient-2"/>
    <radialGradient id="radial-gradient-18" cx="144.48" cy="88.06" fx="144.48" fy="88.06" r=".29" xlink:href="#radial-gradient-2"/>
    <radialGradient id="radial-gradient-19" cx="144.29" cy="90.45" fx="144.29" fy="90.45" r="1.15" xlink:href="#radial-gradient-2"/>
    <radialGradient id="radial-gradient-20" cx="147.73" cy="90.45" fx="147.73" fy="90.45" r="2.1" xlink:href="#radial-gradient-2"/>
  </defs>
  <path class="cls-13" d="M145.1,94.69h-7.28c-1.42,0-2.43,1.38-2.01,2.73h0c.27.88,1.09,1.48,2.01,1.48h0c-.76,1.25-1.21,2.7-1.26,4.25h0c0,2.65-2.13,4.81-4.77,4.86s-4.94-2.27-4.94-4.98v-7.19c0-1.65-1.81-2.66-3.21-1.79h0c-.62.38-1,1.06-1,1.79v7.12c0,4.95,3.88,9.13,8.83,9.26,2.85.07,5.42-1.18,7.13-3.19,1.6,1.91,4.01,3.13,6.69,3.13,4.9,0,8.87-4.06,8.73-9s-4.16-8.47-8.91-8.47ZM145.28,107.95c-2.49,0-4.52-2.03-4.52-4.52s2.03-4.52,4.52-4.52,4.52,2.03,4.52,4.52-2.03,4.52-4.52,4.52Z"/>
  <g>
    <path class="cls-3" d="M116.05,117.38c-.29.16-.52.38-.69.66-.15.26-.23.55-.23.85s.08.58.24.84c.16.26.36.47.61.62s.5.23.76.23h.65l-1.36.9c-.21.14-.26.42-.13.63h0c.14.21.42.26.63.13l1.63-1.08c.24-.16.38-.43.38-.72v-2.69c0-.32-.26-.58-.58-.58h-1.1c-.28,0-.57.06-.81.2ZM117.64,119.69h-.8c-.22,0-.41-.08-.57-.23s-.23-.35-.23-.57.08-.41.23-.57c.16-.16.35-.23.57-.23h.8v1.61Z"/>
    <path class="cls-2" d="M123.19,117.41c-.26.15-.47.36-.62.62-.15.26-.23.55-.23.85v1.18c0,.29.24.53.53.53h1.98v.46c0,.23-.09.42-.26.58-.15.14-.35.21-.56.21h-2.13c-.21,0-.41-.07-.56-.21-.17-.16-.25-.35-.25-.58v-1.51c0-.29-.28-.51-.56-.44h0c-.2.05-.34.23-.34.44v1.51c0,.31.08.6.23.86.15.26.36.46.62.61.26.15.54.23.86.23h2.16c.31,0,.6-.08.86-.23.26-.15.47-.36.62-.61.15-.26.23-.54.23-.86v-.95c0-.23-.19-.42-.42-.42h-2.09v-.8c0-.22.08-.4.24-.56s.35-.23.56-.23h1.25c.25,0,.45-.2.45-.45h0c0-.26-.2-.46-.45-.46h-1.25c-.31,0-.59.08-.85.23Z"/>
    <rect class="cls-2" x="127" y="115.67" width=".84" height=".77" rx=".38" ry=".38"/>
    <path class="cls-2" d="M126.93,121.26l-.35.23c-.21.14-.27.42-.13.63h0c.14.21.42.27.63.13l.46-.31c.18-.12.29-.32.29-.54v-3.52c0-.3-.28-.51-.56-.44h0c-.2.05-.34.23-.34.44v3.39Z"/>
    <path class="cls-2" d="M132.71,118.87c0,.21-.07.41-.21.56-.16.17-.35.25-.58.25h-1.44c-.23,0-.42-.09-.59-.26-.14-.15-.22-.35-.22-.56v-3.14c0-.29-.27-.5-.56-.43h0c-.2.05-.34.23-.34.43v3.15c0,.31.08.59.23.85.15.26.36.47.62.62.26.15.54.23.85.23h1.44c.31,0,.59-.08.85-.23.26-.15.47-.36.62-.62.15-.26.23-.54.23-.86v-1.03c0-.29-.27-.5-.55-.43h-.02c-.2.05-.34.23-.34.44v1.01Z"/>
    <rect class="cls-2" x="131.68" y="121.43" width=".84" height=".77" rx=".38" ry=".38"/>
    <path class="cls-2" d="M148.37,115.23l-.05-.02c-.23-.07-.47.1-.47.35v.31h-.76c-.2,0-.36.16-.36.36h0c0,.2.16.36.36.36h1.12c.23,0,.41-.18.41-.41v-.61c0-.16-.1-.3-.26-.35Z"/>
    <path class="cls-2" d="M149.72,117.45c-.2.05-.34.23-.34.43v1.16c0,.17-.06.32-.19.45s-.28.19-.46.19-.32-.06-.45-.19-.19-.28-.19-.45v-1c0-.25-.2-.45-.45-.45h0c-.25,0-.45.2-.45.45v.97c0,.19-.07.38-.21.51-.12.11-.27.17-.44.17s-.31-.06-.43-.17c-.14-.13-.21-.32-.21-.5v-.97c0-.25-.2-.45-.45-.45h0c-.25,0-.45.2-.45.45v.83c0,.21-.07.41-.22.56-.16.17-.36.26-.59.26h-.6c.13-.26.2-.52.2-.8,0-.31-.08-.59-.23-.85-.15-.26-.36-.47-.62-.62s-.55-.23-.85-.23h-3.63v.9h-.03c-.09.11-.17.23-.22.36-.05.14-.08.28-.08.43,0,.31.1.58.29.8h-2.15c-.21,0-.4-.08-.56-.24-.16-.16-.24-.35-.24-.56v-1.01c0-.3-.28-.51-.56-.44h0c-.2.05-.34.23-.34.44v3.39l-.35.23c-.21.14-.27.42-.13.63h0c.14.21.42.27.63.13l.48-.32c.17-.12.27-.31.27-.52v-1.17c.26.24.52.36.79.36h7.92c.23,0,.46-.05.66-.14.21-.09.39-.23.55-.39.13.15.31.27.51.38s.41.16.61.16c.21,0,.41-.04.6-.13.19-.09.35-.2.49-.36.14.14.31.26.51.35.2.09.39.14.59.14.28,0,.54-.07.77-.21.24-.14.42-.33.56-.56.14-.24.2-.49.2-.77v-1.16c0-.29-.27-.5-.56-.43h0ZM140.42,119.45c-.16.16-.35.23-.57.23s-.41-.08-.56-.23-.23-.35-.23-.57.08-.41.23-.56.34-.23.56-.23.41.08.57.23c.16.15.23.34.23.56s-.08.41-.23.57ZM142.67,119.45c-.16.16-.35.23-.56.23h-.83c.19-.22.28-.49.28-.8,0-.15-.03-.29-.08-.43-.05-.14-.12-.26-.21-.36h.83c.22,0,.41.08.56.23s.24.34.24.56-.08.41-.24.57Z"/>
  </g>
  <path class="cls-10" d="M111.66,94.66h-6.58c-1.16,0-2.1.94-2.1,2.1h0c0,1.16.94,2.1,2.1,2.1h6.63c2.43,0,4.53,1.87,4.65,4.29.13,2.6-1.95,4.75-4.52,4.75h-7.67c-.74,0-1.43.39-1.81,1.04h0c-.83,1.4.18,3.17,1.81,3.17h7.67c4.9,0,8.87-4.06,8.73-9s-4.16-8.47-8.91-8.47Z"/>
  <path class="cls-20" d="M96.73,103.39c0,2.49-2.03,4.52-4.52,4.52h-3.08c-.75,0-1.44.4-1.81,1.04h0c-.82,1.4.19,3.17,1.82,3.17h3.08c4.81,0,8.73-3.92,8.73-8.73v-5.51c0-1.53-1.57-2.54-2.97-1.92h0c-.76.34-1.24,1.09-1.24,1.92v5.51Z"/>
  <path class="cls-2" d="M145.84,106.14l-.72-.61c-.15-.13-.35-.17-.54-.12l-.91.24c-.48.13-.9-.35-.7-.81l.36-.87c.08-.18.06-.39-.05-.55l-.51-.79c-.27-.42.06-.96.55-.92l.94.08c.2.02.39-.07.51-.22l.6-.73c.31-.38.93-.24,1.05.24l.22.92c.05.19.18.35.37.42l.88.34c.46.18.52.81.09,1.07l-.81.49c-.17.1-.27.28-.29.48l-.05.94c-.03.49-.61.74-.99.42Z"/>
  <path class="cls-22" d="M84.64,99.22c0-1.43-.15-2.87-.35-4.3-.44-2.87-1.25-5.73-2.51-8.43-.63-1.35-1.35-2.67-2.18-3.91-.4-.64-.86-1.23-1.31-1.84-.48-.58-.94-1.18-1.46-1.73-1.01-1.12-2.11-2.16-3.29-3.11-1.17-.96-2.42-1.82-3.72-2.59-2.6-1.55-5.42-2.69-8.32-3.47-2.91-.74-5.89-1.14-8.86-1.14-5.97-.08-12.26,1.58-17.56,4.85-5.34,3.25-9.61,8-12.55,13.34-2.96,5.35-4.58,11.33-4.98,17.36-.46,5.52.17,10.52,1.16,14.66,1.48,6.2,8.81,8.86,13.92,5.05h0c3.07-2.29,4.3-6.29,3.1-9.93-1.25-3.76-1.72-6.63-1.78-9.26-.06-3.77.64-7.57,2.16-10.96,1.51-3.39,3.79-6.37,6.7-8.49,2.9-2.12,6.36-3.43,10.2-3.71,1.94-.17,3.87-.07,5.76.24,1.87.34,3.7.9,5.4,1.73,3.4,1.64,6.29,4.29,8.2,7.65.97,1.68,1.67,3.53,2.14,5.48.22.98.41,1.98.49,3,.02.24.06.54.07.74.02.21.03.44.03.67.01.46-.01.94-.04,1.42-.15,1.96-.62,3.99-1.35,5.88-.73,1.89-1.73,3.66-2.98,5.15-1.26,1.49-2.75,2.74-4.49,3.62-.87.44-1.78.83-2.75,1.09-.24.08-.49.13-.73.19-.25.06-.49.13-.75.16l-.76.13-.74.09c-1.96.19-3.92-.04-5.77-.72-1.85-.68-3.55-1.81-4.99-3.29-1.44-1.48-2.59-3.28-3.4-5.27-.81-1.99-1.25-4.15-1.36-6.35l-.02-.83.02-.83c.02-.55.07-1.05.15-1.57.16-1.03.45-2.03.89-2.97.86-1.89,2.29-3.53,4.09-4.74,1.8-1.21,3.94-1.98,6.16-2.23,2.15-.26,4.39.17,6.32,1.27.45.25.88.54,1.29.86,3.47,3.09,1.86,6.34,1.86,6.34-.27.3-.68.45-1.08.39l-1.92-.26c-1.01-.14-1.74.94-1.24,1.83l.96,1.69c.2.35.22.78.04,1.15l-.84,1.75c-.44.92.36,1.95,1.36,1.74l1.9-.39c.4-.08.81.04,1.1.32l1.4,1.34c.74.71,1.96.26,2.08-.76l.21-1.93c.04-.4.28-.76.64-.95l1.71-.92c.9-.48.85-1.79-.08-2.21l-1.77-.8c-.37-.17-.63-.5-.71-.9l-.17-.94c-.1-1.05-.32-2.09-.69-3.1-.89-2.49-2.61-4.69-4.85-6.19-2.23-1.52-5-2.3-7.74-2.18-2.68.1-5.35.81-7.75,2.16-2.39,1.34-4.49,3.35-5.87,5.84-.69,1.24-1.2,2.58-1.53,3.95-.16.68-.29,1.39-.36,2.07l-.1,1.01-.06,1.01c-.09,2.7.23,5.46,1.06,8.09.83,2.64,2.15,5.17,3.97,7.37,1.81,2.2,4.13,4.07,6.81,5.31,2.67,1.26,5.66,1.86,8.6,1.82.37-.01.74-.02,1.1-.04l1.07-.09c.36-.02.71-.09,1.07-.14.36-.06.71-.1,1.07-.18,1.43-.27,2.84-.71,4.21-1.27,2.75-1.12,5.27-2.87,7.34-4.96,2.09-2.1,3.74-4.55,4.99-7.14,1.26-2.6,2.14-5.33,2.63-8.24.11-.73.21-1.47.26-2.24.03-.38.05-.77.05-1.17.02-.42,0-.73,0-1.1Z"/>
  <path class="cls-2" d="M138.07,117.19h.45v.9h-.45c-.25,0-.45-.2-.45-.45h0c0-.25.2-.45.45-.45Z"/>
  <g>
    <rect class="cls-12" x="99.46" y="115.67" width=".84" height=".76" rx=".38" ry=".38"/>
    <path class="cls-17" d="M102.95,121.43h-1.15c-.21,0-.37.17-.37.37s.17.37.37.37h1.15c.21,0,.37-.17.37-.37s-.17-.37-.37-.37Z"/>
    <path class="cls-11" d="M112.11,121.43h-.07c-.21,0-.38.17-.38.38s.17.38.38.38h.07c.21,0,.38-.17.38-.38s-.17-.38-.38-.38Z"/>
    <path class="cls-4" d="M113.04,117.43c-.2.05-.35.23-.35.44v1c0,.21-.07.41-.21.56-.16.17-.35.25-.58.25h-1.85v-1.96c0-.31-.25-.55-.55-.55h-1.13c-.28,0-.57.06-.81.2-.29.16-.52.38-.69.66-.15.26-.23.55-.23.85s.08.58.24.84c.16.26.36.47.61.62.25.15.5.23.76.23h.65l-1.36.9c-.21.14-.26.42-.13.63.14.21.42.26.63.13,0,0,1.66-.87,1.94-1.4.04-.07.07-.26.07-.26h1.85c.31,0,.59-.08.85-.23.26-.15.47-.36.62-.62.15-.26.23-.54.23-.86v-1.01c0-.3-.28-.51-.57-.44ZM109.15,119.69h-.8c-.22,0-.41-.08-.57-.23-.16-.16-.23-.35-.23-.57s.08-.41.23-.57c.16-.16.35-.23.57-.23h.8v1.61Z"/>
    <path class="cls-19" d="M105.5,115.32c-.25,0-.46.2-.46.46v3.11c0,.22-.08.41-.23.57-.16.16-.34.23-.56.23s-.41-.08-.57-.23c-.16-.16-.23-.35-.23-.57v-.96c0-.25-.2-.45-.45-.45s-.45.2-.45.45v.96c0,.22-.08.41-.23.57-.15.16-.34.23-.56.23h-.61c-.22,0-.41-.08-.57-.23-.16-.16-.23-.35-.23-.57v-.96c0-.25-.2-.45-.45-.45s-.45.2-.45.45v.27h0v.7c0,.22-.08.41-.24.57-.16.16-.35.23-.56.23h-1.44c-.22,0-.41-.08-.56-.23-.15-.16-.23-.35-.23-.57,0-.31-.08-.59-.23-.85-.15-.26-.36-.47-.62-.62-.26-.15-.55-.23-.85-.23h-3.14l2.07-1.25h0s.36-.23.36-.23c.2-.13.25-.39.12-.59-.13-.2-.39-.25-.59-.12l-.36.23s-2.41,1.51-3.24,1.96c-.74.4-.26.93,0,.91h4.77c.22,0,.41.08.56.23.15.15.23.34.23.56s-.08.41-.23.57c-.15.16-.34.23-.56.23h-5.23c-.22,0-.4-.08-.56-.23s-.23-.35-.23-.57v-.72c0-.25-.2-.45-.45-.45s-.45.2-.45.45v.72c0,.31.08.6.23.86.15.26.36.47.62.62.26.15.54.23.85.23h5.23c.24,0,.48-.05.7-.15.22-.1.41-.24.57-.42.16.17.34.31.55.41.21.1.44.15.68.15h1.44c.25,0,.48-.05.7-.16.21-.11.4-.25.55-.43.15.18.33.33.55.43.22.11.45.16.7.16h.61c.25,0,.48-.05.69-.16.22-.11.4-.25.55-.43.16.18.34.33.56.43.21.1.43.15.67.16h0s.03,0,.03,0c.31,0,.6-.08.86-.23.26-.15.47-.36.62-.62.15-.26.23-.54.23-.86v-3.17h0c-.03-.22-.22-.4-.45-.4Z"/>
    <path class="cls-16" d="M90.74,116.15l1.87-1.18c.1-.06.13-.19.07-.29-.06-.1-.19-.13-.29-.07l-1.87,1.18c-.1.06-.13.19-.07.29s.19.13.29.07Z"/>
  </g>
  <g>
    <path class="cls-21" d="M125.45,89.6c.06-.06.15-.09.24-.09h.7c.2,0,.36-.16.36-.36s-.16-.36-.36-.36h-.71c-.19,0-.37.05-.53.14-.16.1-.29.23-.39.39-.1.16-.15.34-.15.53v.71c0,.2.16.36.36.36h1.05v.25c0,.09-.03.18-.1.24-.07.07-.15.1-.24.1h-1.31c-.09,0-.18-.03-.24-.1-.07-.07-.1-.15-.1-.24v-.95c0-.24-.22-.41-.45-.35h0c-.16.04-.28.19-.28.35v.95c0,.2.05.37.14.54.1.16.23.29.39.39.16.1.34.14.54.14h1.31c.2,0,.37-.05.54-.14.16-.1.29-.23.39-.39.1-.16.14-.34.14-.54v-.51c0-.25-.21-.46-.46-.46h-.95v-.34c0-.1.04-.18.11-.25Z"/>
    <path class="cls-6" d="M128.34,88.93c-.16-.1-.34-.14-.53-.14h-.24c-.2,0-.36.16-.36.36s.16.36.36.36h.24c.1,0,.18.04.25.11.06.06.09.15.09.24v.34h-.63c-.2,0-.36.16-.36.36h0c0,.2.16.36.36.36h.99c.2,0,.36-.16.36-.36v-.71c0-.19-.05-.37-.14-.53-.1-.16-.23-.29-.39-.39Z"/>
    <path class="cls-5" d="M132.97,88.5h.71c.14,0,.26-.12.26-.26v-.37c0-.12-.08-.23-.19-.27h-.02c-.18-.06-.36.07-.36.26v.08h-.39c-.15,0-.28.12-.28.28s.12.28.28.28Z"/>
    <path class="cls-14" d="M134.55,88.93h0c-.16.04-.28.18-.28.35v.62c0,.08-.03.15-.09.21-.06.06-.13.09-.21.09s-.16-.03-.22-.09c-.05-.06-.08-.13-.08-.21v-.51c0-.2-.16-.36-.36-.36h0c-.2,0-.36.16-.36.36v.51c0,.08-.03.15-.08.21-.06.06-.13.1-.22.1s-.16-.03-.21-.09c-.05-.06-.08-.13-.08-.21v-.51c0-.2-.16-.36-.36-.36h0c-.2,0-.36.16-.36.36v.47c0,.1-.03.18-.1.25-.07.07-.15.1-.24.1h-.89c-.1,0-.18-.03-.25-.1-.07-.07-.1-.15-.1-.25v-1.77c0-.23-.22-.41-.45-.35-.16.04-.27.18-.27.35v1.77c0,.2.05.37.14.54.1.16.23.29.39.39.16.1.34.14.54.14h.89c.13,0,.26-.02.38-.07.12-.05.22-.11.32-.19.09.08.19.14.31.19.12.05.24.08.36.08.13,0,.25-.02.36-.07.11-.04.22-.11.31-.18.09.08.19.14.31.18s.23.07.35.07c.19,0,.36-.05.51-.14.16-.09.28-.22.37-.38s.14-.33.14-.51v-.61c0-.23-.22-.41-.45-.35Z"/>
    <path class="cls-18" d="M136.95,89.25h.02c.16,0,.28-.13.28-.28s-.13-.28-.28-.28h-.02c-.16,0-.28.13-.28.28s.13.28.28.28Z"/>
    <path class="cls-1" d="M140.12,91.39h-.68c-.16,0-.28.13-.28.28s.13.28.28.28h.68c.16,0,.28-.13.28-.28s-.13-.28-.28-.28Z"/>
    <path class="cls-9" d="M143.48,89.38c-.1-.19-.23-.34-.41-.44-.18-.11-.38-.15-.59-.15h-.67c-.2,0-.36.16-.36.36v.71c0,.09-.03.18-.1.24s-.15.1-.24.1-.18-.03-.25-.1c-.07-.07-.1-.15-.1-.25v-.57c0-.24-.22-.41-.45-.35-.16.04-.28.19-.28.35v.57c0,.1-.03.18-.1.25-.07.07-.15.1-.24.1h-1.16v-.92c0-.24-.22-.41-.45-.35h0c-.16.04-.27.19-.27.35v1.89c0,.09-.03.18-.1.25-.07.07-.15.1-.24.1h-.47c-.09,0-.18-.03-.24-.1-.07-.07-.1-.15-.1-.25v-.95c0-.24-.22-.41-.45-.35-.16.04-.27.19-.27.35v.95c0,.2.05.37.14.54.1.16.23.29.39.39.16.1.34.14.54.14h.47c.2,0,.37-.05.54-.14.16-.1.29-.23.39-.39.1-.16.14-.34.14-.54v-.25h1.16c.14,0,.26-.03.38-.08.12-.05.23-.12.32-.21.09.09.2.16.32.21.12.05.25.07.38.08h0s0,0,0,0c.14,0,.26-.03.38-.08.12-.05.23-.12.32-.21.09.09.2.16.32.21.12.05.25.08.39.08.19,0,.37-.05.54-.14.17-.1.3-.23.39-.39.11-.19.16-.4.14-.62,0-.13-.05-.27-.11-.39ZM142.76,90.1c-.07.07-.15.1-.24.1s-.18-.03-.25-.1c-.07-.07-.1-.15-.1-.24v-.34h.34c.09,0,.17.03.24.1.07.07.1.15.1.25s-.03.18-.1.24Z"/>
    <path class="cls-15" d="M144.47,88.34h.03c.16,0,.28-.13.28-.28s-.13-.28-.28-.28h-.03c-.16,0-.28.13-.28.28s.13.28.28.28Z"/>
    <path class="cls-7" d="M144.36,88.93h0c-.16.04-.27.19-.27.35v1.94l-.15.1c-.17.11-.21.34-.1.5h0c.11.17.34.21.5.1l.31-.21c.1-.07.16-.18.16-.3v-2.14c0-.24-.22-.41-.45-.35Z"/>
    <path class="cls-8" d="M149.84,88.93h0c-.16.04-.28.18-.28.35v.62c0,.08-.03.15-.09.21-.06.06-.13.09-.21.09s-.16-.03-.22-.09c-.05-.06-.08-.13-.08-.21v-.51c0-.2-.16-.36-.36-.36h0c-.2,0-.36.16-.36.36v.51c0,.08-.03.15-.08.21-.06.06-.13.1-.22.1s-.16-.03-.21-.09c-.05-.06-.08-.13-.08-.21v-.51c0-.2-.16-.36-.36-.36h0c-.2,0-.36.16-.36.36v.47c0,.1-.03.18-.1.25-.07.07-.15.1-.24.1s-.17-.03-.24-.1c-.07-.07-.1-.15-.1-.24v-.58c0-.24-.22-.41-.45-.35h0c-.16.04-.27.19-.27.35v1.94l-.15.1c-.17.11-.21.34-.1.5h0c.11.17.34.21.5.1l.31-.21c.1-.07.16-.18.16-.3v-.63c.11.09.22.13.33.14h0s.01,0,.01,0c.13,0,.26-.02.38-.07.12-.05.22-.11.32-.19.09.08.19.14.31.19.12.05.24.08.36.08.13,0,.25-.02.36-.07.11-.04.22-.11.31-.18.09.08.19.14.31.18s.23.07.35.07c.19,0,.36-.05.51-.14.16-.09.28-.22.37-.38s.14-.33.14-.51v-.61c0-.23-.22-.41-.45-.35Z"/>
  </g>
</svg>