<?xml version="1.0" encoding="UTF-8"?>
<svg id="Layer_1" data-name="Layer 1" xmlns="http://www.w3.org/2000/svg" viewBox="0 0 180 180">
  <defs>
    <style>
      .cls-1 {
        fill: #d2b463;
      }

      .cls-1, .cls-2 {
        stroke-width: 0px;
      }

      .cls-2 {
        fill: #fff;
      }
    </style>
  </defs>
  <circle class="cls-1" cx="86.87" cy="101.41" r="36.76" transform="translate(-32.38 161.49) rotate(-76.16)"/>
  <path class="cls-2" d="M86.87,127.6c-14.45,0-26.2-11.75-26.2-26.2s11.75-26.2,26.2-26.2,26.2,11.75,26.2,26.2-11.75,26.2-26.2,26.2ZM86.87,76.48c-13.74,0-24.92,11.18-24.92,24.92s11.18,24.92,24.92,24.92,24.92-11.18,24.92-24.92-11.18-24.92-24.92-24.92Z"/>
  <g>
    <g>
      <path class="cls-2" d="M75.65,70.12l.66-.28,2.07,4.92-.71.3-1.61-3.83-.71,2.54-.13.05-2.33-1.26,1.61,3.83-.7.3-2.07-4.92.67-.28,2.48,1.33.77-2.7Z"/>
      <path class="cls-2" d="M73.71,76.89l-2.19-5.21.88-.37,2.38,1.27.74-2.59.87-.37,2.19,5.21-1,.42-1.49-3.55-.61,2.17-.27.11-2-1.08,1.5,3.56-1,.42ZM71.93,71.86l1.95,4.62.41-.17-1.72-4.09,2.65,1.43.81-2.89,1.72,4.1.41-.17-1.95-4.62-.44.19-.81,2.82-2.59-1.39-.45.19Z"/>
    </g>
    <g>
      <path class="cls-2" d="M80.71,68.76l.53-.09,3.29,4.86-.77.14-.98-1.43-2.24.4-.38,1.67-.77.14,1.32-5.68ZM82.36,71.62l-1.19-1.75-.45,2.04,1.63-.29Z"/>
      <path class="cls-2" d="M79.18,74.64l1.39-6.02.73-.13.06.09,3.43,5.07-1.11.2-.98-1.43-2.04.36-.38,1.67-1.11.2ZM80.84,68.9l-1.24,5.34.43-.08.38-1.67,2.45-.43.98,1.43.43-.08-3.1-4.57-.32.06ZM80.52,72.11l.58-2.64,1.53,2.26-2.11.37ZM81.25,70.27l-.32,1.45,1.16-.21-.84-1.24Z"/>
    </g>
    <g>
      <path class="cls-2" d="M85.64,73.48l.21-5.32,1.8.07c.72.03,1.29.16,1.71.39.41.23.74.57.97,1,.23.43.34.9.32,1.4-.01.36-.1.69-.25,1.01-.15.32-.36.6-.62.84-.27.24-.58.42-.93.54-.2.07-.39.12-.56.14-.17.02-.49.02-.96,0l-1.69-.07ZM87.54,68.9l-.95-.04-.15,3.96.98.04c.38.01.68,0,.89-.04.21-.04.39-.1.54-.18.14-.07.28-.17.4-.28.39-.37.6-.84.62-1.42.02-.57-.15-1.05-.53-1.42-.14-.14-.3-.26-.48-.35-.18-.09-.35-.16-.52-.19-.16-.03-.43-.06-.8-.07Z"/>
      <path class="cls-2" d="M87.9,73.72c-.16,0-.35,0-.58-.01l-1.84-.07.22-5.64,1.96.08c.75.03,1.35.17,1.78.41.44.25.79.6,1.03,1.06.25.45.36.95.34,1.48-.02.38-.1.74-.26,1.08-.16.34-.38.64-.66.89-.28.26-.62.45-.98.57-.21.07-.41.12-.59.14-.09.01-.23.02-.41.02ZM85.8,73.33l1.53.06c.46.02.78.02.94,0,.16-.02.33-.06.53-.13.33-.11.62-.28.87-.51.25-.22.44-.49.58-.78.14-.3.22-.62.23-.95.02-.47-.08-.91-.3-1.31-.22-.4-.52-.72-.91-.94-.39-.22-.94-.35-1.64-.37l-1.64-.06-.19,5ZM87.68,73.03c-.09,0-.18,0-.28,0l-1.14-.04.17-4.28,1.11.04c.38.01.65.04.82.08.18.04.37.11.56.21.19.1.37.23.52.38.4.41.59.93.57,1.54-.03.62-.25,1.14-.67,1.53-.13.12-.28.23-.44.31-.16.08-.35.15-.58.19-.17.04-.38.05-.65.05ZM86.59,72.68l.82.03c.37.01.66,0,.85-.04.2-.04.37-.1.5-.16.13-.07.25-.15.37-.26.36-.34.55-.77.57-1.31.02-.53-.14-.96-.48-1.3-.12-.13-.27-.24-.44-.32-.17-.09-.33-.15-.48-.18-.16-.03-.41-.06-.77-.07l-.8-.03-.14,3.65Z"/>
    </g>
    <g>
      <path class="cls-2" d="M94.5,69.07l.52.13,1.04,5.78-.76-.19-.31-1.7-2.21-.54-1.02,1.38-.76-.19,3.5-4.66ZM94.85,72.36l-.38-2.08-1.24,1.69,1.61.4Z"/>
      <path class="cls-2" d="M96.27,75.19l-1.1-.27-.31-1.7-2.01-.49-1.02,1.38-1.1-.27,3.71-4.94.72.18.02.1,1.09,6.02ZM95.45,74.67l.42.1-.98-5.44-.32-.08-3.3,4.39.43.1,1.02-1.38,2.41.59.31,1.7ZM95.05,72.57l-2.08-.51,1.59-2.18.48,2.69ZM93.51,71.86l1.14.28-.27-1.48-.88,1.19Z"/>
    </g>
    <g>
      <path class="cls-2" d="M97.11,75.44l2.27-4.83,1.21.57c.49.23.82.53.99.91.17.38.16.77-.03,1.18-.13.28-.32.49-.55.63-.24.14-.51.2-.82.18.11.17.19.38.26.63.07.24.13.65.19,1.21.04.35.08.62.11.81l.09.47-.82-.39-.06-.42s0-.04-.01-.08l-.05-.25-.05-.45-.05-.49c-.05-.27-.11-.48-.17-.66-.06-.17-.13-.31-.2-.4s-.22-.2-.45-.3l-.18-.08-.99,2.1-.69-.32ZM100,71.62l-.21-.1-.72,1.52.26.12c.35.16.6.25.76.25.16,0,.3-.04.43-.13.13-.09.23-.21.3-.36.07-.15.1-.31.07-.47-.02-.16-.1-.3-.22-.42-.12-.12-.35-.26-.69-.42Z"/>
      <path class="cls-2" d="M101.05,77.47l-1.19-.56-.07-.5s0-.04-.01-.07l-.05-.26-.1-.95c-.05-.24-.1-.46-.16-.62-.06-.16-.12-.28-.18-.37-.03-.04-.12-.13-.39-.25l-.04-.02-.99,2.1-.98-.46.07-.14,2.33-4.97,1.35.64c.52.24.88.58,1.07.99.19.42.18.86-.03,1.32-.14.31-.35.54-.62.7-.19.11-.41.18-.64.2.06.13.11.27.15.43.07.25.13.65.2,1.23.04.34.08.61.11.8l.16.77ZM100.16,76.7l.46.22-.03-.16c-.04-.19-.08-.47-.12-.82-.06-.55-.13-.95-.19-1.18-.06-.23-.14-.43-.24-.59l-.16-.26.31.02c.28.02.52-.03.73-.15.21-.12.37-.31.49-.56.17-.37.18-.71.03-1.05-.16-.34-.46-.62-.92-.83l-1.07-.5-2.13,4.54.4.19.99-2.1.32.15c.25.12.42.23.51.35.08.11.15.25.22.44.07.18.13.41.18.68l.15,1.19s.01.07.01.09l.05.33ZM100.11,73.58h0c-.18,0-.46-.09-.83-.26l-.41-.19.85-1.81.35.17c.36.17.6.31.74.45.15.14.24.32.26.51.03.19,0,.38-.09.56-.08.18-.2.32-.36.43-.15.1-.33.16-.51.16ZM99.29,72.97l.12.06c.42.2.6.23.7.23.12,0,.23-.03.34-.1.11-.07.19-.17.25-.3.06-.12.08-.25.06-.38-.02-.13-.08-.23-.17-.33-.11-.11-.33-.24-.65-.39l-.06-.03-.58,1.24Z"/>
    </g>
  </g>
  <path class="cls-2" d="M89.51,86.35h-1.27c0-.81-.66-1.47-1.47-1.47s-1.47.66-1.47,1.47h-1.27c0-1.51,1.23-2.75,2.75-2.75s2.75,1.23,2.75,2.75Z"/>
  <path class="cls-2" d="M92.07,117.13h-10.79c-1.8,0-3.42-1.14-4.03-2.84l-2.26-6.3,1.2-.43,2.26,6.3c.43,1.19,1.57,1.99,2.83,1.99h10.79c1.27,0,2.41-.8,2.83-1.99l2.27-6.32,1.2.43-2.27,6.32c-.61,1.7-2.23,2.84-4.03,2.84Z"/>
  <rect class="cls-2" x="91.75" y="111.71" width="3.3" height=".32" transform="translate(-35.93 179.04) rotate(-77.59)"/>
  <rect class="cls-2" x="86.91" y="109.74" width=".32" height="3.05"/>
  <rect class="cls-2" x="79.95" y="110.23" width=".32" height="3.06" transform="translate(-19.77 17.25) rotate(-10.95)"/>
  <g>
    <path class="cls-2" d="M91.11,109.92c-2.4,0-3.73-.84-4.38-1.46-.67.6-1.99,1.43-4.17,1.43-2.52,0-3.67-1.03-4.14-1.67-1.22.23-4.53.67-6.35-.77-.83-.66-1.26-1.6-1.26-2.79,0-1.8,1-3.25,2.89-4.22.08-.74.37-2.39,1.48-4.25,1.04-1.75,2.47-2.76,3.03-3.11.44-1.33,2.8-7.42,8.59-7.42h0c5.6,0,8,4.57,8.59,7.47.56.4,1.98,1.55,2.93,3.3,1.03,1.9,1.38,3.27,1.5,3.91,1.4.64,3.44,2.24,3.02,4.7-.18,1.04-.7,1.85-1.55,2.43-1.96,1.32-5.15.92-6.24.73-.54.58-1.89,1.73-3.93,1.73ZM86.82,106.28l.5.92c.03.05.87,1.45,3.8,1.45,2,0,3.13-1.47,3.18-1.53l.25-.33.4.09s3.74.81,5.64-.47c.56-.38.89-.9,1.01-1.58.39-2.31-2.44-3.39-2.56-3.44l-.38-.14-.03-.41s-.14-1.45-1.41-3.81c-1.02-1.89-2.72-2.98-2.74-2.99l-.24-.15-.05-.28c-.42-2.48-2.46-6.68-7.39-6.68-5.49,0-7.42,6.67-7.44,6.74l-.07.26-.24.13s-1.67.93-2.77,2.78c-1.29,2.17-1.33,4-1.33,4.02v.4s-.37.17-.37.17c-1.65.75-2.49,1.83-2.49,3.22,0,.79.25,1.38.77,1.79,1.44,1.14,4.62.7,5.73.44l.55-.13.2.53s.6,1.34,3.23,1.34,3.63-1.41,3.67-1.47l.59-.86Z"/>
    <path class="cls-2" d="M93.98,101.62c-1.7,0-4.75-.34-8.37-2.33-4.79-2.63-8.39-.69-8.42-.67l-.31-.56c.16-.09,3.94-2.13,9.04.67,4.17,2.29,7.53,2.32,8.78,2.23h.1s0,.63,0,.63c-.22.02-.5.03-.83.03Z"/>
    <path class="cls-2" d="M94.07,94.14c-.8,0-1.98-.43-3.53-1.29-3.59-2-6.05-1.86-6.07-1.85l-.05-.63c.11,0,2.65-.17,6.43,1.93,3.08,1.72,3.66,1.1,3.66,1.09l.59.23s-.11.3-.47.44c-.16.06-.35.09-.57.09Z"/>
    <rect class="cls-2" x="95.24" y="104.77" width="3.06" height=".32" transform="translate(-33.85 47.36) rotate(-23.53)"/>
    <polygon class="cls-2" points="91.21 105.02 89.92 103.04 90.18 102.87 91.47 104.84 91.21 105.02"/>
    <polygon class="cls-2" points="91.46 98.25 91.22 98.04 93.09 95.95 93.33 96.17 91.46 98.25"/>
    <polygon class="cls-2" points="84.88 94.62 82.18 93.26 82.33 92.97 85.02 94.34 84.88 94.62"/>
    <polygon class="cls-2" points="78.51 101.76 78.32 101.51 81.12 99.32 81.31 99.57 78.51 101.76"/>
    <polygon class="cls-2" points="83.51 105.67 81.12 104.08 81.3 103.81 83.69 105.41 83.51 105.67"/>
    <rect class="cls-2" x="75.56" y="102" width=".32" height="2.95" transform="translate(-16.52 14.41) rotate(-9.81)"/>
  </g>
  <g>
    <g>
      <path class="cls-2" d="M65.98,126c-.14-.04-.37-.17-.61-.4-.55-.53-.63-1.28-.02-1.92.59-.61,1.4-.63,2.01-.05.24.23.35.43.38.53l-.26.15c-.05-.14-.15-.3-.32-.46-.46-.44-1.05-.44-1.54.08-.46.48-.48,1.05,0,1.51.15.15.34.27.49.31l-.14.25Z"/>
      <path class="cls-2" d="M66.09,126.28l-.18-.06c-.21-.06-.47-.24-.7-.46-.33-.31-.51-.69-.52-1.08-.02-.42.16-.82.5-1.18.33-.34.74-.54,1.17-.55.42,0,.84.17,1.18.49.3.29.41.54.44.63l.06.19-.68.39-.1-.27c-.04-.12-.14-.26-.26-.37-.38-.36-.81-.34-1.2.07-.18.19-.28.4-.29.6,0,.2.09.39.28.57.12.12.28.22.4.26l.28.09-.38.67Z"/>
    </g>
    <g>
      <path class="cls-2" d="M70.29,127.72c-.55.76-1.3.82-1.86.42-.58-.42-.66-1.17-.18-1.83.51-.7,1.27-.84,1.86-.41.6.44.65,1.18.18,1.83ZM68.56,126.51c-.34.47-.39,1.07.05,1.4.45.33,1.01.1,1.37-.4.32-.44.42-1.06-.05-1.4-.47-.34-1.02-.08-1.37.4Z"/>
      <path class="cls-2" d="M69.16,128.62c-.3,0-.61-.1-.87-.29-.34-.25-.54-.6-.58-.99-.04-.39.08-.8.35-1.17.28-.39.64-.64,1.04-.72.4-.08.81,0,1.15.26.34.25.55.61.59,1.01.04.39-.09.79-.36,1.16h0c-.3.41-.67.66-1.08.74-.08.02-.17.02-.25.02ZM68.75,126.65c-.24.34-.35.81,0,1.07.12.09.26.12.4.1.22-.03.45-.2.63-.45.17-.23.25-.5.22-.72-.02-.14-.09-.26-.22-.35-.38-.27-.79.02-1.04.35h0Z"/>
    </g>
    <g>
      <path class="cls-2" d="M71.45,130.05l1.26-2.4.34.18.13,1.62c.03.38.04.7.02,1.01h0c.14-.34.29-.63.48-1.01l.53-1.01.29.15-1.26,2.4-.31-.17-.12-1.62c-.03-.36-.04-.71-.03-1.04h-.01c-.14.31-.29.6-.5,1l-.54,1.03-.29-.15Z"/>
      <path class="cls-2" d="M73.36,131.32l-.64-.34-.13-1.75s0-.06,0-.1c-.03.05-.05.1-.08.15l-.65,1.24-.72-.38,1.49-2.83.67.35.14,1.75s0,.02,0,.03c.02-.04.04-.08.06-.12l.64-1.22.71.38-1.49,2.83Z"/>
    </g>
    <g>
      <path class="cls-2" d="M76.44,129.42l1.37.51-.1.28-1.04-.38-.31.85.96.35-.1.27-.96-.35-.42,1.15-.33-.12.94-2.55Z"/>
      <polygon class="cls-2" points="75.97 132.4 75.19 132.11 76.3 129.11 78.12 129.78 77.85 130.51 76.81 130.12 76.66 130.52 77.62 130.88 77.36 131.6 76.4 131.24 75.97 132.4"/>
    </g>
    <g>
      <path class="cls-2" d="M80.76,132.22l-1.03-.24-.22.95,1.15.27-.07.29-1.49-.35.62-2.64,1.43.34-.07.29-1.09-.26-.2.84,1.03.24-.07.28Z"/>
      <polygon class="cls-2" points="80.76 133.77 78.81 133.31 79.54 130.21 81.43 130.65 81.26 131.4 80.17 131.15 80.08 131.52 81.11 131.76 80.93 132.51 79.9 132.26 79.79 132.75 80.94 133.02 80.76 133.77"/>
    </g>
    <g>
      <path class="cls-2" d="M84.73,133.98c-.14.05-.4.09-.73.05-.76-.08-1.28-.62-1.19-1.51.09-.85.72-1.36,1.56-1.27.34.04.54.13.63.19l-.11.28c-.13-.08-.31-.15-.53-.17-.63-.07-1.1.29-1.17,1-.07.66.27,1.13.92,1.2.21.02.43,0,.58-.05l.04.28Z"/>
      <path class="cls-2" d="M84.25,134.29c-.09,0-.18,0-.28-.02-.45-.05-.82-.23-1.07-.54-.27-.32-.38-.75-.33-1.23.1-.97.85-1.59,1.82-1.48.42.04.65.17.73.23l.16.11-.3.72-.24-.15c-.11-.07-.27-.12-.43-.14-.25-.03-.46.03-.62.16-.16.13-.26.35-.29.63-.03.27.02.49.14.65.12.16.31.26.57.28.17.02.36,0,.47-.04l.27-.1.12.76-.18.07c-.14.05-.34.08-.56.08Z"/>
    </g>
    <g>
      <path class="cls-2" d="M87.56,131.72l-.83.02v-.3s2-.05,2-.05v.3s-.82.02-.82.02l.06,2.42h-.35s-.06-2.41-.06-2.41Z"/>
      <polygon class="cls-2" points="87.38 134.38 87.32 131.96 86.5 131.98 86.48 131.2 88.97 131.15 88.99 131.92 88.16 131.94 88.21 134.36 87.38 134.38"/>
    </g>
    <g>
      <path class="cls-2" d="M90.89,131.17l.34,2.7-.35.04-.34-2.7.35-.04Z"/>
      <rect class="cls-2" x="90.47" y="130.94" width=".83" height="3.19" transform="translate(-15.86 12.4) rotate(-7.18)"/>
    </g>
    <g>
      <path class="cls-2" d="M95.54,131.57c.22.91-.21,1.53-.88,1.69-.7.17-1.32-.25-1.52-1.05-.21-.84.18-1.51.88-1.69.72-.18,1.32.26,1.52,1.04ZM93.5,132.12c.14.56.57.99,1.11.86.54-.13.72-.71.57-1.3-.13-.52-.54-1-1.11-.86-.56.14-.72.73-.57,1.31Z"/>
      <path class="cls-2" d="M94.35,133.54c-.28,0-.55-.08-.78-.24-.33-.22-.56-.58-.67-1.03-.12-.46-.07-.9.12-1.26.19-.36.52-.61.94-.71.41-.1.82-.03,1.15.2.32.22.55.58.66,1.02h0c.28,1.12-.33,1.8-1.06,1.98-.12.03-.24.04-.36.04ZM94.27,131.03s-.09,0-.14.02c-.19.05-.32.16-.39.34-.07.18-.08.42-.01.68h0c.07.28.22.51.41.63.12.08.26.1.41.06.15-.04.26-.12.34-.24.12-.19.14-.47.06-.77-.07-.26-.29-.71-.68-.71Z"/>
    </g>
    <g>
      <path class="cls-2" d="M98.07,132.19l-1.03-2.51.35-.14,1.33.94c.31.22.56.42.79.63h0c-.17-.33-.3-.63-.46-1.03l-.43-1.05.31-.13,1.03,2.51-.33.13-1.32-.95c-.29-.21-.58-.43-.81-.65h0c.15.32.28.62.45,1.03l.44,1.07-.31.12Z"/>
      <path class="cls-2" d="M97.94,132.5l-1.21-2.96.7-.28,1.43,1.02s.02.01.02.02c-.02-.04-.03-.08-.05-.12l-.52-1.27.75-.31,1.21,2.96-.67.27-1.43-1.03s-.05-.04-.08-.06c.02.05.04.1.07.16l.53,1.3-.75.31Z"/>
    </g>
    <g>
      <path class="cls-2" d="M102.73,128.52l-.92.52.49.85,1.02-.58.15.26-1.33.76-1.35-2.36,1.27-.73.15.26-.97.55.43.75.92-.52.14.25Z"/>
      <polygon class="cls-2" points="102.06 130.65 100.47 127.88 102.16 126.91 102.54 127.58 101.57 128.14 101.76 128.47 102.68 127.94 103.06 128.61 102.14 129.13 102.39 129.57 103.41 128.98 103.8 129.65 102.06 130.65"/>
    </g>
    <g>
      <path class="cls-2" d="M103.77,126.17c.12-.14.31-.3.51-.45.3-.22.53-.31.76-.29.18.01.35.12.48.29.21.29.18.61,0,.86h0c.21-.06.43.02.65.21.3.25.51.42.61.47l-.29.22c-.08-.03-.27-.19-.53-.41-.29-.25-.49-.28-.75-.1l-.26.2.71.94-.28.21-1.61-2.15ZM104.79,126.95l.29-.21c.3-.22.37-.53.18-.78-.21-.28-.51-.25-.8-.03-.14.1-.22.19-.26.23l.59.79Z"/>
      <path class="cls-2" d="M105.32,128.65l-1.87-2.49.13-.15c.13-.15.33-.33.54-.48.35-.26.62-.37.93-.34.25.02.48.15.65.38.17.23.23.51.17.78.15.04.3.12.45.25.2.17.47.4.56.44l.36.17-.72.54-.13-.05c-.1-.04-.26-.16-.6-.45-.25-.21-.33-.17-.46-.08l-.07.05.71.94-.66.5ZM104.51,126.18l.33.44.1-.07c.11-.08.18-.17.19-.26,0-.06,0-.12-.05-.18-.05-.07-.16-.21-.47.02-.03.02-.06.05-.08.06Z"/>
    </g>
    <g>
      <path class="cls-2" d="M108.88,125.41l-.8-.83-1.7-.53.29-.28.8.27c.22.08.39.14.58.22h0c-.07-.19-.12-.38-.19-.6l-.24-.81.29-.28.43,1.76.8.83-.26.25Z"/>
      <path class="cls-2" d="M108.87,125.75l-.92-.96-2.03-.63.68-.66.93.32s.09.03.13.05c0-.02-.01-.04-.02-.06l-.3-1.03.69-.66.51,2.1.92.96-.6.58Z"/>
    </g>
  </g>
  <path class="cls-2" d="M84.08,81.07l.52-.5s1.35,1,2,2.54c.22.51.34.91.4,1.21.1.43-.23.34-.32-.01-.17-.72-.73-2.01-2.61-3.23Z"/>
  <g>
    <path class="cls-2" d="M83.04,122.83h1.25v.45h-2.07v-.03l.2-.23c.31-.38.55-.7.73-.97s.3-.47.36-.6.08-.27.08-.4c0-.18-.05-.33-.16-.44s-.24-.17-.42-.17c-.13,0-.26.04-.39.12s-.24.19-.34.33v-.6c.25-.21.52-.31.79-.31.29,0,.52.1.71.29s.28.43.28.73c0,.13-.02.27-.07.42s-.13.32-.24.52-.32.46-.6.8l-.1.12Z"/>
    <path class="cls-2" d="M85.67,119.97c.3,0,.55.16.74.47s.29.71.29,1.2-.1.9-.29,1.21-.45.47-.76.47-.57-.15-.76-.46-.29-.71-.29-1.21.1-.9.3-1.21.46-.47.77-.47ZM85.67,120.41h-.02c-.18,0-.32.11-.43.33s-.16.52-.16.9.05.69.15.91.25.33.43.33.32-.11.43-.33.16-.52.16-.9-.05-.68-.15-.91-.24-.34-.41-.34Z"/>
    <path class="cls-2" d="M87.82,120.01h.47v3.27h-.47v-3.27Z"/>
    <path class="cls-2" d="M89.48,120.89c0-.26.1-.47.29-.65.19-.18.43-.27.71-.27s.5.09.69.27c.19.18.28.4.28.65,0,.29-.14.53-.41.72.3.17.45.43.45.77,0,.27-.1.49-.3.67-.2.18-.45.27-.74.27s-.55-.09-.75-.27c-.2-.18-.3-.4-.3-.67,0-.33.15-.59.46-.77-.14-.11-.24-.22-.3-.34-.06-.11-.09-.24-.09-.39ZM91.02,122.4v-.05c0-.15-.05-.27-.16-.37s-.25-.14-.42-.14-.3.05-.41.14-.16.22-.16.37.05.27.16.37.25.14.42.14.3-.04.4-.13.16-.2.16-.34ZM90.98,120.9c0-.14-.05-.26-.15-.35s-.22-.14-.37-.14-.28.05-.37.14-.15.21-.15.35.05.25.15.35.23.15.37.15.26-.05.36-.14.15-.21.15-.35Z"/>
  </g>
</svg>