<?xml version="1.0" encoding="UTF-8"?>
<svg id="Layer_1" data-name="Layer 1" xmlns="http://www.w3.org/2000/svg" xmlns:xlink="http://www.w3.org/1999/xlink" viewBox="0 0 180 180">
  <defs>
    <style>
      .cls-1 {
        fill: url(#linear-gradient);
      }

      .cls-1, .cls-2, .cls-3, .cls-4, .cls-5, .cls-6, .cls-7, .cls-8 {
        stroke-width: 0px;
      }

      .cls-2 {
        fill: url(#linear-gradient-6);
      }

      .cls-3 {
        fill: url(#linear-gradient-5);
      }

      .cls-4 {
        fill: url(#linear-gradient-2);
      }

      .cls-5 {
        fill: url(#linear-gradient-3);
      }

      .cls-6 {
        fill: url(#radial-gradient);
      }

      .cls-7 {
        fill: #a8a9ac;
      }

      .cls-8 {
        fill: url(#linear-gradient-4);
      }
    </style>
    <radialGradient id="radial-gradient" cx="93.56" cy="72.99" fx="93.56" fy="72.99" r="29.04" gradientUnits="userSpaceOnUse">
      <stop offset="0" stop-color="#f0e18e"/>
      <stop offset=".62" stop-color="#f0e18e"/>
      <stop offset=".99" stop-color="#c69338"/>
    </radialGradient>
    <linearGradient id="linear-gradient" x1="48.93" y1="51.99" x2="117.43" y2="51.99" gradientUnits="userSpaceOnUse">
      <stop offset="0" stop-color="#f0e18e"/>
      <stop offset=".52" stop-color="#c69338"/>
      <stop offset=".87" stop-color="#c69338"/>
    </linearGradient>
    <linearGradient id="linear-gradient-2" x1="65" y1="111.89" x2="65" y2="115.14" gradientUnits="userSpaceOnUse">
      <stop offset="0" stop-color="#d8b55d"/>
      <stop offset=".78" stop-color="#c69338"/>
    </linearGradient>
    <linearGradient id="linear-gradient-3" x1="74.6" y1="112.24" x2="74.6" y2="126.76" xlink:href="#linear-gradient-2"/>
    <linearGradient id="linear-gradient-4" x1="84.26" y1="113.88" x2="84.26" y2="125.82" gradientUnits="userSpaceOnUse">
      <stop offset="0" stop-color="#d8b55d"/>
      <stop offset="1" stop-color="#c69338"/>
    </linearGradient>
    <linearGradient id="linear-gradient-5" x1="65" y1="116.06" x2="65" y2="120.67" gradientUnits="userSpaceOnUse">
      <stop offset=".3" stop-color="#d8b55d"/>
      <stop offset="1" stop-color="#c69338"/>
    </linearGradient>
    <linearGradient id="linear-gradient-6" x1="107.83" y1="112.2" x2="107.83" y2="126.62" xlink:href="#linear-gradient-4"/>
  </defs>
  <rect class="cls-7" x="77.49" y="130.73" width="2.95" height="11.36"/>
  <polygon class="cls-7" points="63.34 130.73 60.39 130.73 60.39 133.64 59.06 133.94 59.06 136.91 60.39 136.63 60.39 142.08 63.34 142.08 63.34 136.01 65.45 135.57 65.45 132.51 63.34 132.99 63.34 130.73"/>
  <path class="cls-7" d="M89.52,131.02h-1.11l-6.39,1.43v2.97l6.39-1.34v1.87h-4.06c-1.29,0-2.33,1.04-2.33,2.33v1.51c0,1.27,1.03,2.3,2.3,2.3h7.32v-8.94c0-1.17-.95-2.12-2.12-2.12ZM85.25,139.34v-.9h3.17v.9h-3.17Z"/>
  <path class="cls-7" d="M73.92,131.02h-1.11l-6.39,1.43v2.97l6.39-1.34v1.87h-4.06c-1.29,0-2.33,1.04-2.33,2.33v1.51c0,1.27,1.03,2.3,2.3,2.3h7.32v-8.94c0-1.17-.95-2.12-2.12-2.12ZM69.64,139.34v-.9h3.17v.9h-3.17Z"/>
  <path class="cls-7" d="M120.71,130.86l-3.25.69v-.69h-2.96v11.39h2.96v-7.94l2.96-.51v8.45h2.96v-8.76c0-1.45-1.17-2.62-2.62-2.62"/>
  <path class="cls-7" d="M99.12,131.02s.11,3.53,0,4.7c-.04.37-.14,1.12-.28,1.47-.22.54-.75,1.47-1.29,2.37-.55-.9-1.08-1.83-1.29-2.37-.14-.35-.25-1.1-.28-1.47-.11-1.17,0-4.7,0-4.7h-3.23s-.07,4.62.1,6.17c.12,1.05,3,4.89,3,4.89h3.42s2.88-3.84,3-4.89c.17-1.55.1-6.17.1-6.17h-3.23Z"/>
  <g>
    <path class="cls-7" d="M110.98,131.02h-1.11l-6.39,1.43v2.97l6.39-1.34v1.87h-4.06c-1.29,0-2.33,1.04-2.33,2.33v1.51c0,1.27,1.03,2.3,2.3,2.3h7.32v-8.94c0-1.17-.95-2.12-2.12-2.12ZM106.7,139.34v-.9h3.17v.9h-3.17Z"/>
    <g>
      <path class="cls-6" d="M93.56,43.95c-16.04,0-29.04,13-29.04,29.04s13,29.04,29.04,29.04,29.04-13,29.04-29.04-13-29.04-29.04-29.04ZM93.56,89.46c-9.1,0-16.47-7.37-16.47-16.47s7.37-16.47,16.47-16.47,16.47,7.37,16.47,16.47-7.37,16.47-16.47,16.47Z"/>
      <path class="cls-1" d="M81.47,46.31c-2.09.95-3.89,2.38-5.84,3.53-3.22,1.89-7.22,2.25-11.19,2.25-5.71,0-11.03-1.66-15.5-4.52,5.19,7.63,13.95,12.64,23.87,12.64,4.28,0,8.53-.57,11.99-2.6,5.09-2.98,10.63-5.52,16.97-5.52,5.78,0,11.15,1.7,15.67,4.62-5.16-7.8-14.02-12.95-24.08-12.95-4.23,0-8.26.91-11.88,2.55Z"/>
    </g>
    <g>
      <rect class="cls-4" x="63" y="111.54" width="4" height="4"/>
      <rect class="cls-5" x="72.6" y="111.7" width="4" height="15.41"/>
      <path class="cls-8" d="M86.23,113.38h-5.63c-1.27,0-2.3,1.03-2.3,2.3v2.99c0,1.29,1.04,2.33,2.33,2.33h5.6v2.32l-7.93-1.67v3.68s7.93,1.77,7.93,1.77h1.88c1.17,0,2.12-.95,2.12-2.12v-11.6h-4ZM82.3,117.9v-1.11h3.93v1.11h-3.93Z"/>
      <path class="cls-3" d="M63,126.85l4-.69v.94h4v-11.57h-4v6.9l-4,.69v-7.59h-4v8.95c0,1.45,1.17,2.62,2.62,2.62"/>
      <path class="cls-2" d="M95.97,126.85l4-.69v.94h23.6v-2.8l.12-8.21h-.03s0-.03,0-.05l-.09-.55c-.22-1.43-1.56-2.41-2.99-2.19l-8.82,1.37v-2.98h-4v11.93h-3.78v-11.93h-4v10.74l-4,.69v-11.43h-4v12.78c0,1.45,1.17,2.62,2.62,2.62M111.76,118.73l7.89-1.23-.09,6.13h-7.8v-4.9Z"/>
    </g>
  </g>
</svg>