<?xml version="1.0" encoding="UTF-8"?>
<svg xmlns="http://www.w3.org/2000/svg" xmlns:xlink="http://www.w3.org/1999/xlink" viewBox="0 0 180 180">
  <defs>
    <style>
      .cls-1 {
        fill: url(#linear-gradient);
      }

      .cls-1, .cls-2, .cls-3, .cls-4, .cls-5, .cls-6, .cls-7, .cls-8, .cls-9 {
        stroke-width: 0px;
      }

      .cls-2 {
        fill: url(#linear-gradient-6);
      }

      .cls-3 {
        fill: url(#linear-gradient-5);
      }

      .cls-4 {
        fill: #fff;
      }

      .cls-5 {
        fill: url(#linear-gradient-2);
      }

      .cls-6 {
        fill: url(#linear-gradient-7);
      }

      .cls-7 {
        fill: url(#linear-gradient-3);
      }

      .cls-8 {
        fill: #ab811b;
      }

      .cls-9 {
        fill: url(#linear-gradient-4);
      }
    </style>
    <linearGradient id="linear-gradient" x1="45.69" y1="60.12" x2="136.3" y2="60.12" gradientUnits="userSpaceOnUse">
      <stop offset="0" stop-color="#ab811b"/>
      <stop offset="1" stop-color="#f4de7b"/>
    </linearGradient>
    <linearGradient id="linear-gradient-2" x1="15.32" y1="137.24" x2="167.39" y2="137.24" xlink:href="#linear-gradient"/>
    <linearGradient id="linear-gradient-3" x1="38.78" y1="111.08" x2="49.28" y2="111.08" xlink:href="#linear-gradient"/>
    <linearGradient id="linear-gradient-4" x1="64.54" y1="111.08" x2="71.69" y2="111.08" xlink:href="#linear-gradient"/>
    <linearGradient id="linear-gradient-5" x1="86.91" y1="111.08" x2="95.1" y2="111.08" xlink:href="#linear-gradient"/>
    <linearGradient id="linear-gradient-6" x1="111.03" y1="111.08" x2="117.28" y2="111.08" xlink:href="#linear-gradient"/>
    <linearGradient id="linear-gradient-7" x1="133.63" y1="111.08" x2="142.08" y2="111.08" xlink:href="#linear-gradient"/>
  </defs>
  <g id="Layer_1" data-name="Layer 1">
    <rect class="cls-4" x="1.55" y="1.55" width="180" height="180"/>
  </g>
  <g id="Isolation_Mode" data-name="Isolation Mode">
    <g>
      <polygon class="cls-1" points="45.69 99.35 136.3 99.35 91.17 20.89 45.69 99.35"/>
      <polygon class="cls-5" points="33.34 122.18 15.32 152.29 49.88 152.29 59.71 137.24 122.76 137.24 132.58 152.29 167.39 152.29 149.33 122.24 33.34 122.18"/>
      <g>
        <path class="cls-7" d="M49.28,116.33h-1.53l-1.25-2.94h-5l-1.18,2.94h-1.54l4.52-10.5h1.43l4.54,10.5ZM46.05,112.28l-1.85-4.47c-.06-.15-.12-.38-.18-.7h-.03c-.05.3-.12.53-.19.7l-1.83,4.47h4.09Z"/>
        <path class="cls-9" d="M64.54,115.9v-1.45c.19.15.41.28.67.4.26.12.53.22.82.3.29.08.58.14.87.19.29.04.56.07.81.07.85,0,1.48-.14,1.9-.42.42-.28.63-.68.63-1.21,0-.28-.07-.53-.21-.74-.14-.21-.33-.4-.58-.57-.25-.17-.54-.34-.88-.5-.34-.16-.7-.33-1.09-.5-.41-.19-.79-.37-1.15-.56-.36-.19-.67-.4-.93-.63-.26-.23-.47-.49-.62-.78-.15-.29-.23-.63-.23-1.02,0-.48.12-.89.35-1.25.24-.35.55-.65.93-.87.38-.23.82-.4,1.31-.51.49-.11.99-.17,1.5-.17,1.16,0,2.01.12,2.54.37v1.38c-.7-.43-1.59-.64-2.68-.64-.3,0-.6.03-.9.08-.3.06-.57.15-.81.27-.24.13-.43.29-.58.49-.15.2-.22.44-.22.73,0,.27.06.5.17.7.11.2.28.37.5.53.22.16.49.32.8.47.32.15.68.32,1.09.5.42.19.82.38,1.2.59s.71.43,1,.68c.28.25.51.52.68.83.17.3.25.65.25,1.04,0,.52-.11.96-.34,1.31-.23.36-.53.65-.92.87-.39.22-.83.39-1.34.49-.5.1-1.04.15-1.6.15-.19,0-.42-.01-.69-.04-.27-.03-.55-.07-.84-.12-.29-.05-.56-.11-.81-.19-.25-.08-.46-.16-.61-.25Z"/>
        <path class="cls-3" d="M95.1,106.94h-3.4v9.38h-1.38v-9.38h-3.4v-1.11h8.18v1.11Z"/>
        <path class="cls-2" d="M117.28,116.33h-6.25v-10.5h5.99v1.11h-4.61v3.49h4.26v1.11h-4.26v3.67h4.87v1.11Z"/>
        <path class="cls-6" d="M142.08,116.33h-1.64l-1.97-2.94c-.18-.27-.36-.51-.53-.7-.17-.19-.34-.35-.52-.47-.18-.12-.37-.21-.58-.27-.21-.06-.44-.08-.69-.08h-1.13v4.46h-1.38v-10.5h3.52c.52,0,.99.06,1.43.17.44.11.81.29,1.13.52.32.23.57.53.75.87.18.35.27.76.27,1.23,0,.37-.06.7-.19,1.01-.12.3-.3.58-.53.82-.23.24-.5.44-.82.61-.32.17-.68.3-1.08.39v.03c.2.08.37.17.51.27.15.1.28.22.42.35.13.14.26.29.39.46.13.17.27.37.43.6l2.21,3.15ZM135.01,106.94v3.81h1.88c.35,0,.66-.05.96-.14.29-.09.55-.23.76-.4.21-.17.38-.39.5-.64.12-.25.18-.53.18-.85,0-.56-.2-1-.61-1.31s-1-.47-1.77-.47h-1.89Z"/>
      </g>
      <g>
        <path class="cls-8" d="M64.27,144.67l-.84,2.66h-.41l-.62-1.94c-.03-.08-.04-.17-.05-.27h0c0,.09-.03.18-.05.27l-.62,1.95h-.41l-.88-2.66h.39l.64,2.04c.03.09.04.17.05.27h.01c0-.07.03-.15.06-.27l.66-2.04h.34l.63,2.06c.02.07.04.15.05.25h0c0-.06.02-.15.06-.26l.61-2.05h.38Z"/>
        <path class="cls-8" d="M67.45,147.38c-.42,0-.76-.12-1.02-.37-.26-.25-.38-.57-.38-.97,0-.43.13-.77.39-1.02s.61-.38,1.06-.38c.41,0,.75.12,1,.37.25.25.38.57.38.97,0,.43-.13.78-.39,1.03-.26.25-.6.38-1.04.38ZM67.48,144.91c-.31,0-.57.1-.77.3s-.29.47-.29.79.1.59.29.79c.19.2.44.3.75.3.33,0,.59-.1.78-.29.19-.19.28-.46.28-.8s-.09-.62-.28-.81c-.18-.19-.44-.29-.76-.29Z"/>
        <path class="cls-8" d="M73.72,147.33h-.35v-1.79c0-.07,0-.15,0-.24,0-.09.01-.19.02-.29h0s-.02.06-.04.1-.03.07-.05.11c-.02.03-.04.06-.05.09s-.03.05-.03.06l-.77,1.26h-.17l-.77-1.26s-.02-.04-.04-.06c-.02-.03-.03-.06-.05-.09-.02-.03-.04-.07-.05-.1-.02-.04-.03-.07-.04-.1h0c0,.05,0,.12.01.22,0,.09,0,.2,0,.32v1.78h-.34v-2.66h.44l.78,1.27c.03.06.06.11.09.16.02.05.04.09.05.13h.01s.03-.08.06-.13c.02-.05.05-.1.09-.16l.77-1.26h.43v2.66Z"/>
        <path class="cls-8" d="M77.63,147.33h-1.58v-2.66h1.52v.28h-1.17v.89h1.08v.28h-1.08v.93h1.23v.28Z"/>
        <path class="cls-8" d="M82.15,147.33h-.43l-1.54-2.12c-.04-.05-.07-.11-.1-.17h-.01c.01.06.02.18.02.37v1.92h-.35v-2.66h.45l1.5,2.09c.06.09.1.15.12.18h0c-.01-.08-.02-.21-.02-.39v-1.87h.35v2.66Z"/>
        <path class="cls-8" d="M84.46,145.82l-.19.53h-.14l.14-.53h.19Z"/>
        <path class="cls-8" d="M85.77,147.23v-.37s.1.07.17.1.14.05.21.08c.07.02.15.04.22.05s.14.02.2.02c.22,0,.38-.04.48-.11.11-.07.16-.17.16-.31,0-.07-.02-.13-.05-.19-.04-.05-.08-.1-.15-.15-.06-.04-.14-.09-.22-.13-.09-.04-.18-.08-.28-.13-.1-.05-.2-.09-.29-.14-.09-.05-.17-.1-.24-.16-.07-.06-.12-.12-.16-.2-.04-.07-.06-.16-.06-.26,0-.12.03-.23.09-.32.06-.09.14-.16.24-.22s.21-.1.33-.13c.12-.03.25-.04.38-.04.29,0,.51.03.64.09v.35c-.18-.11-.4-.16-.68-.16-.08,0-.15,0-.23.02s-.14.04-.2.07-.11.07-.15.12-.06.11-.06.19c0,.07.01.13.04.18.03.05.07.09.13.14.06.04.12.08.2.12.08.04.17.08.28.13.11.05.21.1.3.15.1.05.18.11.25.17.07.06.13.13.17.21.04.08.06.16.06.26,0,.13-.03.24-.09.33s-.14.16-.23.22c-.1.06-.21.1-.34.12s-.26.04-.4.04c-.05,0-.11,0-.18-.01-.07,0-.14-.02-.21-.03s-.14-.03-.21-.05c-.06-.02-.12-.04-.16-.06Z"/>
        <path class="cls-8" d="M94.45,147.22c-.22.1-.5.16-.83.16-.43,0-.77-.12-1.02-.37s-.38-.56-.38-.96c0-.43.14-.77.43-1.03s.65-.39,1.09-.39c.28,0,.52.04.7.11v.33c-.21-.11-.45-.16-.71-.16-.34,0-.62.1-.83.31-.21.2-.32.48-.32.82s.1.58.3.77c.2.19.46.29.78.29.3,0,.56-.06.78-.18v.3Z"/>
        <path class="cls-8" d="M98.15,147.33h-1.55v-2.66h.35v2.38h1.2v.28Z"/>
        <path class="cls-8" d="M101.2,147.38c-.42,0-.76-.12-1.02-.37-.26-.25-.38-.57-.38-.97,0-.43.13-.77.39-1.02s.61-.38,1.06-.38c.41,0,.75.12,1,.37.25.25.38.57.38.97,0,.43-.13.78-.39,1.03-.26.25-.6.38-1.04.38ZM101.23,144.91c-.31,0-.57.1-.77.3s-.29.47-.29.79.1.59.29.79c.19.2.44.3.75.3.33,0,.59-.1.78-.29.19-.19.28-.46.28-.8s-.09-.62-.28-.81c-.18-.19-.44-.29-.76-.29Z"/>
        <path class="cls-8" d="M106.33,144.95h-.86v2.38h-.35v-2.38h-.86v-.28h2.07v.28Z"/>
        <path class="cls-8" d="M110.59,147.33h-.35v-1.21h-1.55v1.21h-.35v-2.66h.35v1.17h1.55v-1.17h.35v2.66Z"/>
        <path class="cls-8" d="M113.26,147.33h-.35v-2.66h.35v2.66Z"/>
        <path class="cls-8" d="M117.99,147.33h-.43l-1.54-2.12c-.04-.05-.07-.11-.1-.17h-.01c.01.06.02.18.02.37v1.92h-.35v-2.66h.45l1.5,2.09c.06.09.1.15.12.18h0c-.01-.08-.02-.21-.02-.39v-1.87h.35v2.66Z"/>
        <path class="cls-8" d="M122.55,147.15c-.3.15-.63.23-1,.23-.43,0-.77-.12-1.04-.37-.26-.24-.4-.57-.4-.97s.15-.75.44-1.01.66-.4,1.11-.4c.33,0,.6.05.82.14v.35c-.24-.14-.53-.2-.86-.2s-.61.1-.82.31-.32.47-.32.8.1.6.3.79c.2.19.47.29.81.29.23,0,.44-.04.61-.12v-.75h-.65v-.28h1v1.21Z"/>
      </g>
    </g>
  </g>
</svg>