<?xml version="1.0" encoding="UTF-8"?>
<svg id="Layer_1" data-name="Layer 1" xmlns="http://www.w3.org/2000/svg" viewBox="0 0 180 180">
  <defs>
    <style>
      .cls-1 {
        fill: #6d6f70;
        stroke: #6e6f71;
        stroke-width: .08px;
      }

      .cls-1, .cls-2, .cls-3, .cls-4, .cls-5, .cls-6 {
        stroke-miterlimit: 10;
      }

      .cls-7 {
        fill: #3ac3f0;
      }

      .cls-7, .cls-8, .cls-9, .cls-10, .cls-11, .cls-12, .cls-13, .cls-14 {
        stroke-width: 0px;
      }

      .cls-8, .cls-4 {
        fill: #fff;
      }

      .cls-2, .cls-3 {
        stroke-width: .77px;
      }

      .cls-2, .cls-6 {
        fill: #bd1c80;
        stroke: #bd1c80;
      }

      .cls-3 {
        fill: #08afd8;
        stroke: #02aed8;
      }

      .cls-4 {
        stroke: #fff;
      }

      .cls-4, .cls-5 {
        stroke-width: .17px;
      }

      .cls-9 {
        fill: #be1b80;
      }

      .cls-5 {
        stroke: #3bc4f2;
      }

      .cls-5, .cls-12 {
        fill: #36c4f2;
      }

      .cls-10 {
        fill: #0a98bc;
      }

      .cls-11 {
        fill: #9b216a;
      }

      .cls-13 {
        fill: #d9258f;
      }

      .cls-14 {
        fill: #0599bd;
      }

      .cls-6 {
        stroke-width: .79px;
      }
    </style>
  </defs>
  <g>
    <g>
      <g>
        <path class="cls-12" d="M95.19,150.72c7.56,0,14.05-4.6,16.82-11.16l-1.47-14.62c-.41-4.03-3.8-7.1-7.85-7.1h-14.03c-4.05,0-7.45,3.07-7.85,7.1l-.88,8.75c-.89,8.84,5.82,16.75,14.69,17.02.19,0,.38,0,.57,0Z"/>
        <path class="cls-8" d="M103.03,123.79c-.51,1.88-2.27,6.34-7.29,6.34s-6.45-4.42-6.84-6.33c-.39-.14-.67-.51-.67-.94,0-.55.45-1,1-1s1,.45,1,1c0,.3-.13.56-.34.75.32,1.66,1.52,5.5,5.85,5.5s5.81-3.81,6.28-5.49c-.21-.18-.35-.45-.35-.75,0-.55.45-1,1-1s1,.45,1,1c0,.43-.27.79-.65.94Z"/>
      </g>
      <path class="cls-9" d="M99.54,99.89c-12.22,0-22.69,7.88-26.54,18.79.13-.2,1.22-2.05,1.65-2.71,3.83-6.32,10.77-10.54,18.7-10.54,12.07,0,21.86,9.79,21.86,21.86s-7.2,21.86-19.27,21.86c-12.77,0-18.84-17.44-14.16-27.3-10.71,12.43-4.68,34.59,17.76,34.14,15.49-.31,28.05-12.56,28.05-28.05s-12.56-28.05-28.05-28.05Z"/>
      <path class="cls-11" d="M93.71,102.72c-9.45,0-17.4,5.49-20.74,15.98.17-.26,1.26-2.06,1.68-2.72,3.83-6.32,10.77-10.54,18.7-10.54,12.07,0,21.86,9.79,21.86,21.86s-7.2,19.49-19.27,19.49c-13.04,0-18.16-14.11-14.16-24.93-8.77,11.18-2.16,28.48,14.16,28.87,16.45.39,24.42-9.25,24.42-22.78,0-15.49-11.15-25.23-26.65-25.23Z"/>
      <path class="cls-14" d="M71.16,122.84s0,.07,0,.11c-3.21,9.16-1.55,24.27,7.97,32.33-13.25-9.26-15.87-30.02-6.54-42.34,5.49-7.24,14.21-10.89,22.91-10.2-10.98,1.7-20.42,9.16-24.35,20.1Z"/>
      <path class="cls-12" d="M122.68,112.09c-6.8-7.23-16.89-10.94-27.18-9.35-8.7-.7-17.42,2.95-22.91,10.2-9.41,12.42-6.6,33.16,6.54,42.34,1.35,1.14,2.19,1.69,2.18,1.7,0,0-13.01-6.09-16.98-22.02-6.15-24.65,21.19-48.17,46.65-34.63,2.26,1.2,6.01,4.17,9.1,8.05-.01-.02-.03-.03-.04-.04.06.07.12.14.18.21.91,1.15,1.72,2.33,2.45,3.54Z"/>
    </g>
    <g>
      <path class="cls-9" d="M119.12,164.88l-.48-1.19h4.9c1.75,0,2.99,1.72,2.43,3.38h0c-.35,1.05-1.33,1.75-2.43,1.75h-4.9s-2.2-5.88-2.2-5.88h-1.12s-.41-1.14-.41-1.14h2.39s2.05,5.95,2.05,5.95l4.24-.09c.59-.01,1.1-.39,1.3-.94h0c.32-.91-.37-1.87-1.33-1.86l-4.43.03Z"/>
      <circle class="cls-9" cx="122.95" cy="170.15" r=".62"/>
      <circle class="cls-9" cx="119.62" cy="170.15" r=".62"/>
      <path class="cls-9" d="M67.89,161.85h12.06v6.96h-12.06c-1.92,0-3.48-1.56-3.48-3.48h0c0-1.92,1.56-3.48,3.48-3.48Z"/>
    </g>
    <g>
      <path class="cls-1" d="M69,169.83h-.4v.28h.4v.13h-.4v.47h-.15v-1.02h.54v.13Z"/>
      <path class="cls-1" d="M70.8,170.71h-.15v-1.02h.15v1.02Z"/>
      <path class="cls-1" d="M73.46,170.71h-.13l-.68-.78v.78h-.14v-1.02h.12l.69.79v-.79h.14v1.02Z"/>
      <path class="cls-1" d="M75.17,169.7h.4c.09,0,.16.01.22.04.06.02.12.06.16.1.04.05.08.09.1.14.03.05.04.1.05.16h0s0,.01,0,.02c0,0,0,0,0,0,0,0,0,0,0,0h0s0,.01,0,.02h0v.02c0,.07-.01.13-.04.19-.02.06-.06.11-.11.17-.05.05-.1.09-.17.12-.07.03-.14.04-.22.04h-.4v-1.02ZM75.32,170.58h.23c.06,0,.1,0,.15-.01.04-.01.08-.03.11-.05.03-.02.05-.05.07-.07s.04-.05.05-.08c0,0,0-.01,0-.02,0,0,0-.01,0-.02,0,0,0-.01,0-.02,0,0,0-.01,0-.02,0-.01,0-.03,0-.04,0-.01,0-.02,0-.03,0-.05,0-.1-.03-.14-.02-.04-.04-.09-.08-.12-.03-.04-.08-.07-.13-.08s-.11-.03-.18-.03h-.23s0,.75,0,.75Z"/>
      <path class="cls-1" d="M77.76,170.56s.02.01.03.02.02.02.02.03c0,.01,0,.02,0,.03,0,.01,0,.02,0,.04,0,.01-.01.02-.02.03,0,0-.02.01-.03.02-.01,0-.02,0-.03,0-.01,0-.02,0-.03,0-.01,0-.02-.01-.03-.02,0,0-.02-.02-.02-.03,0-.01,0-.02,0-.04,0-.01,0-.02,0-.03,0-.01.01-.02.02-.03,0,0,.02-.02.03-.02s.02,0,.03,0h0s.02,0,.03,0Z"/>
      <path class="cls-1" d="M81.73,169.92s-.04-.04-.06-.05c-.02-.01-.04-.02-.06-.03-.02,0-.04-.01-.06-.02-.02,0-.04,0-.05,0-.02,0-.05,0-.06,0-.02,0-.04.01-.05.03-.01.01-.03.02-.03.04,0,.01-.01.03-.01.05,0,.02,0,.04.01.05,0,.02.02.03.03.04.01.01.03.03.05.04.02.01.04.02.06.03,0,0,.01,0,.02.01,0,0,.01,0,.02.01,0,0,.01,0,.02.01,0,0,.01,0,.02.01.03.02.05.03.08.05.03.02.05.04.07.06.02.02.04.05.05.08.01.03.02.07.02.11s0,.08-.02.11-.03.06-.06.09c-.03.03-.06.05-.09.06-.03.01-.07.02-.11.02-.03,0-.05,0-.08,0-.03,0-.05,0-.07-.02-.02,0-.05-.02-.07-.03-.02-.01-.04-.03-.06-.04v-.19s.04.05.06.07.04.03.07.05c.02.01.05.02.07.03.02,0,.05,0,.07,0,.02,0,.04,0,.06,0s.03-.01.05-.02c.01-.01.03-.02.03-.03,0-.01.01-.02.02-.04,0,0,0,0,0,0s0,0,0,0h0s0,0,0,0h0s0-.05-.01-.07c0-.02-.02-.04-.04-.05-.02-.01-.03-.03-.05-.04s-.04-.03-.06-.04c0,0,0,0-.01,0,0,0,0,0-.01,0,0,0,0,0,0,0,0,0,0,0,0,0,0,0,0,0,0,0,0,0,0,0,0,0-.03-.02-.05-.03-.08-.05-.03-.02-.05-.04-.07-.06-.02-.02-.04-.05-.05-.07-.01-.03-.02-.06-.02-.09,0-.04,0-.08.02-.11s.03-.06.06-.09c.03-.02.06-.04.1-.06.04-.01.08-.02.13-.02,0,0,.02,0,.03,0,0,0,.02,0,.03,0,0,0,.02,0,.03,0s.02,0,.03,0c.02,0,.04.01.06.02.02,0,.04.02.05.03h0s0,.16,0,.16Z"/>
      <path class="cls-1" d="M84.29,170.71h-.15v-.44h-.57v.44h-.15v-1.02h.15v.44h.57v-.44h.15v1.02Z"/>
      <path class="cls-1" d="M86,170.01c.02-.06.06-.12.11-.17.05-.05.11-.09.17-.12.07-.03.14-.04.22-.04s.16.01.23.04.12.06.17.12c.05.05.09.11.11.17s.04.13.04.2-.01.13-.04.19c-.02.06-.06.12-.11.17-.05.05-.11.09-.17.12s-.14.04-.23.04-.16-.01-.22-.04-.12-.06-.17-.12c-.05-.05-.09-.11-.11-.17s-.04-.13-.04-.19h0c0-.07.01-.14.04-.2ZM86.14,170.36s.05.09.08.12c.04.04.08.06.13.08s.1.03.16.03.11,0,.16-.03c.05-.02.09-.05.13-.08.04-.04.07-.08.09-.12.02-.05.03-.1.03-.15s0-.11-.03-.15c-.02-.05-.05-.09-.09-.12-.04-.04-.08-.06-.13-.08-.05-.02-.1-.03-.16-.03s-.11,0-.16.03-.09.05-.13.08c-.04.04-.06.08-.08.12s-.03.1-.03.15h0c0,.05,0,.11.03.15Z"/>
      <path class="cls-1" d="M89.04,169.7c.06,0,.1.01.14.02.04.01.07.04.1.06.03.03.05.06.06.09.01.03.02.07.02.11s0,.08-.02.11c-.01.03-.03.06-.06.09s-.06.05-.11.06-.09.02-.15.02h-.15s0,.44,0,.44h-.15v-1.02h.32ZM88.87,170.14h.17s.05,0,.07,0c.02,0,.04-.02.06-.03.02-.01.03-.03.04-.05,0-.02.01-.04.01-.07h0s0-.05-.01-.06c0-.02-.02-.03-.03-.05s-.03-.03-.05-.03-.05-.01-.08-.01h-.17s0,.31,0,.31Z"/>
      <path class="cls-1" d="M90.84,170.56s.02.01.03.02.02.02.02.03c0,.01,0,.02,0,.03,0,.01,0,.02,0,.04,0,.01-.01.02-.02.03,0,0-.02.01-.03.02-.01,0-.02,0-.03,0-.01,0-.02,0-.03,0-.01,0-.02-.01-.03-.02,0,0-.02-.02-.02-.03,0-.01,0-.02,0-.04,0-.01,0-.02,0-.03,0-.01.01-.02.02-.03,0,0,.02-.02.03-.02s.02,0,.03,0h0s.02,0,.03,0Z"/>
      <path class="cls-1" d="M94.82,169.92s-.04-.04-.06-.05c-.02-.01-.04-.02-.06-.03-.02,0-.04-.01-.06-.02-.02,0-.04,0-.05,0-.02,0-.05,0-.06,0-.02,0-.04.01-.05.03-.01.01-.03.02-.03.04,0,.01-.01.03-.01.05,0,.02,0,.04.01.05,0,.02.02.03.03.04.01.01.03.03.05.04.02.01.04.02.06.03,0,0,.01,0,.02.01,0,0,.01,0,.02.01,0,0,.01,0,.02.01,0,0,.01,0,.02.01.03.02.05.03.08.05.03.02.05.04.07.06.02.02.04.05.05.08.01.03.02.07.02.11s0,.08-.02.11-.03.06-.06.09c-.03.03-.06.05-.09.06-.03.01-.07.02-.11.02-.03,0-.05,0-.08,0-.03,0-.05,0-.07-.02-.02,0-.05-.02-.07-.03-.02-.01-.04-.03-.06-.04v-.19s.04.05.06.07.04.03.07.05c.02.01.05.02.07.03.02,0,.05,0,.07,0,.02,0,.04,0,.06,0s.03-.01.05-.02c.01-.01.03-.02.03-.03,0-.01.01-.02.02-.04,0,0,0,0,0,0s0,0,0,0h0s0,0,0,0h0s0-.05-.01-.07c0-.02-.02-.04-.04-.05-.02-.01-.03-.03-.05-.04s-.04-.03-.06-.04c0,0,0,0-.01,0,0,0,0,0-.01,0,0,0,0,0,0,0,0,0,0,0,0,0,0,0,0,0,0,0,0,0,0,0,0,0-.03-.02-.05-.03-.08-.05-.03-.02-.05-.04-.07-.06-.02-.02-.04-.05-.05-.07-.01-.03-.02-.06-.02-.09,0-.04,0-.08.02-.11s.03-.06.06-.09c.03-.02.06-.04.1-.06.04-.01.08-.02.13-.02,0,0,.02,0,.03,0,0,0,.02,0,.03,0,0,0,.02,0,.03,0s.02,0,.03,0c.02,0,.04.01.06.02.02,0,.04.02.05.03h0s0,.16,0,.16Z"/>
      <path class="cls-1" d="M97.39,170.71h-.15l-.14-.3h-.43l-.13.3h-.15l.44-1.02h.1l.46,1.02ZM96.73,170.28h.32l-.16-.37-.15.37Z"/>
      <path class="cls-1" d="M99.24,170.72h-.03l-.44-1.03h.15l.31.71.3-.71h.14l-.43,1.03Z"/>
      <path class="cls-1" d="M101.85,169.83h-.43v.31h.42v.13h-.42v.32h.44v.13h-.59v-1.02h.58v.13Z"/>
      <path class="cls-1" d="M103.6,170.56s.02.01.03.02.02.02.02.03c0,.01,0,.02,0,.03,0,.01,0,.02,0,.04,0,.01-.01.02-.02.03,0,0-.02.01-.03.02-.01,0-.02,0-.03,0-.01,0-.02,0-.03,0-.01,0-.02-.01-.03-.02,0,0-.02-.02-.02-.03,0-.01,0-.02,0-.04,0-.01,0-.02,0-.03,0-.01.01-.02.02-.03,0,0,.02-.02.03-.02s.02,0,.03,0h0s.02,0,.03,0Z"/>
      <path class="cls-1" d="M107.67,169.83h-.43v.31h.42v.13h-.42v.32h.44v.13h-.59v-1.02h.58v.13Z"/>
      <path class="cls-1" d="M110.21,170.71h-.15l-.14-.3h-.43l-.13.3h-.15l.44-1.02h.1l.46,1.02ZM109.55,170.28h.32l-.16-.37-.15.37Z"/>
      <path class="cls-1" d="M112.3,169.92s-.04-.04-.06-.05c-.02-.01-.04-.02-.06-.03-.02,0-.04-.01-.06-.02-.02,0-.04,0-.05,0-.02,0-.05,0-.06,0-.02,0-.04.01-.05.03-.01.01-.03.02-.03.04,0,.01-.01.03-.01.05,0,.02,0,.04.01.05,0,.02.02.03.03.04.01.01.03.03.05.04.02.01.04.02.06.03,0,0,.01,0,.02.01,0,0,.01,0,.02.01,0,0,.01,0,.02.01,0,0,.01,0,.02.01.03.02.05.03.08.05.03.02.05.04.07.06.02.02.04.05.05.08.01.03.02.07.02.11s0,.08-.02.11-.03.06-.06.09c-.03.03-.06.05-.09.06-.03.01-.07.02-.11.02-.03,0-.05,0-.08,0-.03,0-.05,0-.07-.02-.02,0-.05-.02-.07-.03-.02-.01-.04-.03-.06-.04v-.19s.04.05.06.07.04.03.07.05c.02.01.05.02.07.03.02,0,.05,0,.07,0,.02,0,.04,0,.06,0s.03-.01.05-.02c.01-.01.03-.02.03-.03,0-.01.01-.02.02-.04,0,0,0,0,0,0s0,0,0,0h0s0,0,0,0h0s0-.05-.01-.07c0-.02-.02-.04-.04-.05-.02-.01-.03-.03-.05-.04s-.04-.03-.06-.04c0,0,0,0-.01,0,0,0,0,0-.01,0,0,0,0,0,0,0,0,0,0,0,0,0,0,0,0,0,0,0,0,0,0,0,0,0-.03-.02-.05-.03-.08-.05-.03-.02-.05-.04-.07-.06-.02-.02-.04-.05-.05-.07-.01-.03-.02-.06-.02-.09,0-.04,0-.08.02-.11s.03-.06.06-.09c.03-.02.06-.04.1-.06.04-.01.08-.02.13-.02,0,0,.02,0,.03,0,0,0,.02,0,.03,0,0,0,.02,0,.03,0s.02,0,.03,0c.02,0,.04.01.06.02.02,0,.04.02.05.03h0s0,.16,0,.16Z"/>
      <path class="cls-1" d="M114.61,169.7h.18l-.38.48v.54h-.15v-.54l-.38-.48h.18l.27.35.28-.35Z"/>
      <path class="cls-1" d="M116.51,170.56s.02.01.03.02c0,0,.02.02.02.03s0,.02,0,.03c0,.01,0,.02,0,.04s-.01.02-.02.03c0,0-.02.01-.03.02-.01,0-.02,0-.03,0-.01,0-.02,0-.04,0-.01,0-.02-.01-.03-.02,0,0-.02-.02-.02-.03s0-.02,0-.04c0-.01,0-.02,0-.03s.01-.02.02-.03.02-.02.03-.02.02,0,.04,0h0s.02,0,.03,0ZM116.4,169.81s0-.05.02-.07c0-.02.02-.03.03-.04.01,0,.02-.01.04-.01s.03,0,.04.01c.01,0,.02.02.03.04,0,.02.01.04.02.07,0,.03,0,.06,0,.1,0,.02,0,.03,0,.05,0,.01,0,.03,0,.04,0,.01,0,.03,0,.04s0,.02,0,.03l-.04.25s0,.03,0,.04c0,.01,0,.02,0,.03,0,0,0,.01,0,.02,0,0,0,0-.01,0s0,0-.01,0c0,0,0,0,0-.02,0,0,0-.02,0-.03,0-.01,0-.03,0-.04l-.04-.26s0-.02,0-.03c0-.01,0-.02,0-.04,0-.01,0-.03,0-.04v-.05h0s0-.07,0-.1Z"/>
    </g>
    <g>
      <path class="cls-4" d="M67.85,162.22h1.79c.33.01.61.06.85.14.24.08.43.2.58.36.15.16.27.32.34.49.08.17.12.35.13.55v.05c0,.16-.02.31-.06.44-.04.13-.1.25-.18.36-.08.11-.18.21-.29.29-.12.08-.26.16-.41.23.23.05.43.12.62.22.18.1.34.22.47.36.13.14.23.3.3.48.07.17.1.36.1.57v.07s0,.02,0,.04v.04s0,.05,0,.07c0,.02,0,.05-.01.07-.04.17-.1.33-.2.49-.1.16-.23.3-.39.44-.16.14-.37.24-.62.31-.25.07-.54.1-.88.1h-2.12v-6.17ZM68.74,164.87h.59c.22.01.41,0,.57-.05.16-.04.3-.1.41-.18.11-.08.19-.19.24-.31.05-.12.08-.27.08-.43,0-.11-.02-.22-.06-.32-.04-.1-.1-.19-.18-.28-.08-.08-.19-.15-.33-.19-.14-.05-.31-.07-.52-.07l-.81-.02v1.85ZM68.74,167.6h1.11c.24.01.43,0,.6-.05.16-.04.29-.11.39-.2.1-.08.17-.17.23-.27.05-.1.09-.2.1-.31v-.02s0-.01,0-.02v-.1c0-.14-.03-.27-.09-.38-.06-.11-.14-.22-.25-.31-.11-.09-.26-.16-.43-.2-.17-.05-.37-.07-.6-.07l-1.07-.02v1.94Z"/>
      <path class="cls-4" d="M78.94,168.4h-.91l-.82-1.82h-2.63l-.78,1.82h-.91l2.65-6.21h.62l2.76,6.21ZM74.93,165.78h1.92l-1-2.24-.92,2.24Z"/>
      <path class="cls-5" d="M87.03,168.7h-.97v-5.28h-.02l-2.09,2.62h-.16l-2.09-2.62h-.02v5.28h-.97v-6.78h.91l2.25,2.78,2.26-2.78h.9v6.78Z"/>
      <path class="cls-5" d="M94.87,168.7h-.99l-.9-2h-2.88l-.85,2h-.99l2.91-6.82h.69l3.03,6.82ZM90.47,165.83h2.11l-1.09-2.45-1.01,2.45Z"/>
      <path class="cls-5" d="M96.12,161.92h2.63c.57.01,1.07.1,1.5.25.43.15.78.38,1.07.69.29.3.52.62.69.96.17.33.28.69.32,1.06v.06s0,.04,0,.05c0,.02,0,.04,0,.06,0,.02,0,.04,0,.06v.06s0,.04,0,.05v.12c0,.44-.08.85-.24,1.24-.16.39-.4.76-.72,1.11-.32.34-.7.6-1.14.77-.44.17-.94.25-1.5.25h-2.64v-6.78ZM97.1,167.83h1.55c.37.01.7-.02.97-.09.28-.08.51-.19.71-.35.19-.15.36-.31.49-.49.14-.17.24-.35.32-.54.02-.05.04-.09.05-.14.02-.05.03-.09.04-.14.01-.04.03-.08.04-.13.01-.05.02-.09.03-.14.01-.09.02-.18.03-.26,0-.08.01-.15.01-.22,0-.34-.06-.66-.17-.95-.11-.3-.28-.57-.51-.81-.23-.25-.51-.44-.86-.56-.35-.12-.76-.18-1.23-.18l-1.5-.02v5.03Z"/>
      <path class="cls-5" d="M109.4,168.7h-.99l-.9-2h-2.88l-.85,2h-.99l2.91-6.82h.69l3.03,6.82ZM105,165.83h2.11l-1.09-2.45-1.01,2.45Z"/>
      <path class="cls-5" d="M112.37,161.92c.34.01.65.06.92.14.27.08.51.21.71.38.2.17.35.37.45.6.1.24.15.5.15.79,0,.2-.02.38-.07.55-.05.17-.12.32-.22.46-.1.15-.22.27-.36.38-.14.11-.3.2-.48.27.09.07.18.14.27.21.09.07.17.15.25.24.08.09.16.18.23.27.08.1.15.2.22.31.04.07.08.13.12.2.04.07.09.14.13.21.05.07.09.14.14.21.05.08.09.15.14.22.01.02.02.04.03.05,0,.02.02.03.03.04,0,.01.01.03.02.04,0,.02.02.03.02.04.02.03.04.05.06.08.02.03.04.06.06.08h0s0,.02,0,.02c0,0,0,.01,0,.01,0,0,0,0,0,.01,0,0,.01.01.02.02,0,0,.01.01.02.02.04.06.08.12.13.18.05.06.09.13.14.2.05.07.11.14.17.22.06.08.13.17.2.26h-1.16l-.89-1.39c-.19-.28-.36-.53-.51-.72-.16-.2-.29-.34-.4-.44-.12-.1-.23-.18-.34-.24-.11-.06-.21-.1-.31-.11h-.02s-.02,0-.03,0h-.08s-.02,0-.02,0h-.06l-.41-.02v2.94h-.97v-6.78h1.71ZM111.64,164.88h.63c.26.01.48,0,.65-.06.18-.06.31-.14.4-.24.09-.11.16-.23.21-.36.05-.13.07-.26.07-.4h0v-.02c0-.16-.04-.3-.09-.43-.05-.13-.13-.23-.23-.32-.11-.09-.24-.16-.41-.21-.17-.05-.37-.07-.6-.07l-.63-.02v2.13Z"/>
    </g>
  </g>
  <g>
    <g>
      <path class="cls-2" d="M164.84,39.73h0c-2.74,0-4.96,2.22-4.96,4.96v9.64c0,1.57-.5,2.88-1.48,3.94-.99,1.05-2.2,1.61-3.64,1.68h-4.36c-.73,0-1.42-.15-2.06-.45-.64-.3-1.2-.7-1.68-1.2-.48-.5-.86-1.09-1.15-1.78-.29-.68-.43-1.41-.43-2.18v-31.64c0-2.74-2.22-4.96-4.96-4.96h0c-2.74,0-4.96,2.22-4.96,4.96v32.04c.03,2.17.46,4.2,1.29,6.09.83,1.89,1.93,3.53,3.3,4.94,1.37,1.4,2.97,2.51,4.79,3.31,1.54.68,3.16,1.07,4.88,1.17v.03h5.36c2.04-.03,3.97-.46,5.77-1.28,1.8-.82,3.38-1.93,4.72-3.33,1.34-1.4,2.41-3.04,3.21-4.91.8-1.87,1.23-3.88,1.29-6.02v-10.04c0-2.74-2.22-4.96-4.96-4.96Z"/>
      <path class="cls-6" d="M156.04,74.18c-.44-.5-.96-.89-1.55-1.16-.59-.28-1.23-.41-1.92-.41s-1.34.14-1.95.41c-.61.28-1.15.66-1.63,1.16-.48.5-.85,1.07-1.11,1.7-.26.64-.39,1.32-.39,2.04s.13,1.4.39,2.04c.26.64.63,1.2,1.11,1.68.48.48,1.02.86,1.63,1.14.61.28,1.26.41,1.95.41s1.33-.14,1.92-.41c.59-.28,1.11-.65,1.55-1.14.44-.48.8-1.04,1.06-1.68.26-.64.39-1.32.39-2.04s-.13-1.4-.39-2.04c-.26-.64-.62-1.21-1.06-1.7Z"/>
    </g>
    <g>
      <g>
        <path class="cls-3" d="M44.26,37.79h5.06v-10.33h-5.06c-2.85,0-5.16,2.31-5.16,5.16h0c0,2.85,2.31,5.16,5.16,5.16Z"/>
        <path class="cls-3" d="M49.32,59.94h-5.06c-2.85,0-5.16,2.31-5.16,5.16h0c0,2.85,2.31,5.16,5.16,5.16h5.06v-10.33Z"/>
        <path class="cls-3" d="M73.6,40.54c-1.07-2.61-2.53-4.88-4.38-6.82-1.85-1.94-4.01-3.47-6.49-4.59-2.47-1.12-5.12-1.68-7.92-1.68h-7.53v10.33h7.53c1.44,0,2.8.29,4.09.88,1.29.59,2.43,1.38,3.4,2.38.97,1,1.74,2.18,2.3,3.53.56,1.35.84,2.8.84,4.34s-.28,2.92-.84,4.26c-.56,1.34-1.33,2.51-2.3,3.51-.97,1-2.11,1.8-3.4,2.38-1.29.59-2.66.88-4.09.88h-7.53v10.33h7.53c2.81,0,5.45-.56,7.92-1.68,2.47-1.12,4.64-2.65,6.49-4.59,1.85-1.94,3.31-4.2,4.38-6.79,1.07-2.59,1.6-5.36,1.6-8.3s-.53-5.76-1.6-8.37Z"/>
      </g>
      <g>
        <path class="cls-3" d="M35.79,43.35v-10.93c0-2.74-2.22-4.96-4.96-4.96s-4.96,2.22-4.96,4.96v10.93h9.91Z"/>
        <path class="cls-3" d="M25.88,42.02v12.31c0,.77-.14,1.5-.43,2.18-.29.69-.67,1.28-1.15,1.78-.48.5-1.04.9-1.68,1.2-.59.28-1.23.43-1.9.45h-7.35c-2.85,0-5.16,2.31-5.16,5.16h0c0,2.85,2.31,5.16,5.16,5.16h7.19s.05,0,.08,0h1.01v-.04c1.67-.12,3.25-.5,4.75-1.16,1.82-.8,3.42-1.9,4.79-3.31,1.37-1.4,2.47-3.05,3.3-4.94.83-1.89,1.26-3.92,1.29-6.09v-12.71h-9.91Z"/>
      </g>
    </g>
    <path class="cls-3" d="M99.57,59.33c-.68.37-6.52.46-7.16.16-.64-.3-1.2-.7-1.68-1.2s-.86-1.09-1.15-1.78c-.29-.68-.43-1.41-.43-2.18v-31.64c0-2.74-2.22-4.96-4.96-4.96s-4.96,2.22-4.96,4.96v32.04c.03,2.17.46,4.2,1.29,6.09.83,1.89,1.93,3.53,3.3,4.94,1.37,1.4,2.97,2.51,4.79,3.31,1.54.68,3.16,1.07,4.88,1.17,0,0,10.58.11,11.31.11l-6.48-7.11,1.23-3.91Z"/>
    <g>
      <g>
        <path class="cls-7" d="M113.41,67.52c4.05,0,7.53-2.46,9.01-5.98l-.79-7.83c-.22-2.16-2.04-3.8-4.21-3.8h-7.52c-2.17,0-3.99,1.64-4.21,3.8l-.47,4.68c-.48,4.73,3.12,8.97,7.87,9.12.1,0,.2,0,.31,0Z"/>
        <path class="cls-8" d="M117.61,53.09c-.28,1.01-1.21,3.39-3.9,3.39s-3.46-2.37-3.67-3.39c-.21-.07-.36-.27-.36-.51,0-.3.24-.54.54-.54s.54.24.54.54c0,.16-.07.3-.18.4.17.89.81,2.95,3.13,2.95s3.11-2.04,3.37-2.94c-.11-.1-.19-.24-.19-.4,0-.3.24-.54.54-.54s.54.24.54.54c0,.23-.15.43-.35.5Z"/>
      </g>
      <path class="cls-13" d="M115.39,71.37c-5.54,0-9.86-2.5-11.86-6.87-1.98-4.31-.36-8.93,2.78-12.58h0c-1.28,2.7-.03,7.36,1.82,10.29.81,1.29,2.63,3.45,5.68,3.45,5.48,0,9.31-4.4,9.31-10.69,0-5.89-4.8-10.69-10.69-10.69-3.77,0-7.4,1.9-9.36,5.13l-.23.18c-.13.2-.3.43-.5.76-.2.33-.23.43-.27.49l-1.51-.82c2.27-6.43,8.37-10.75,15.18-10.75,8.85,0,16.05,7.2,16.05,16.05,0,4.27-1.67,8.28-4.7,11.29-3.01,2.98-7.03,4.67-11.32,4.76-.13,0-.25,0-.38,0Z"/>
      <path class="cls-13" d="M115.74,40.29c-6.55,0-12.16,4.22-14.22,10.07.07-.11.66-1.1.88-1.45,2.05-3.38,5.77-5.65,10.02-5.65,6.47,0,11.71,5.24,11.71,11.71s-3.86,11.71-10.33,11.71c-6.84,0-10.09-9.34-7.58-14.62-5.74,6.66-2.51,18.53,9.52,18.29,8.3-.17,15.03-6.73,15.03-15.03s-6.73-15.03-15.03-15.03Z"/>
      <path class="cls-11" d="M114.33,68.55c-.18,0-.36,0-.54,0-4.33-.1-7.94-2.35-9.66-6-1.72-3.65-.34-7.41,2.18-10.63h0c-1.13,3.07.11,7.12,1.81,9.57.92,1.32,2.66,2.9,5.69,2.9,5.83,0,9.31-3.52,9.31-9.42s-4.8-10.69-10.69-10.69c-3.77,0-7.83,1.56-9.79,4.79l.26.35c-.13.21-.39.46-.59.79-.14.23-.09.63-.12.69l-1.64-.85c1.85-5.8,6.37-9.27,12.08-9.27,4.39,0,8.17,1.35,10.94,3.92,2.85,2.63,4.35,6.31,4.35,10.62,0,3.89-1.17,7.17-3.39,9.48-2.36,2.46-5.89,3.75-10.19,3.75h0Z"/>
      <path class="cls-11" d="M112.62,41.8c-5.06,0-9.32,2.94-11.11,8.56.09-.14.67-1.1.9-1.46,2.05-3.38,5.77-5.65,10.02-5.65,6.66,0,12.02,5.56,11.7,12.29-.25,5.25-4.47,9.53-9.71,9.85-7.43.45-10.39-7.38-8.18-13.34-4.7,5.99-1.16,15.26,7.58,15.47,8.81.21,13.08-4.96,13.08-12.2,0-8.3-5.97-13.51-14.27-13.51Z"/>
      <path class="cls-10" d="M105.82,70.78c-3.51-2.45-7.54-6.51-8.28-11.17-.75-4.76.32-9.48,2.95-12.95,2.81-3.7,7.28-5.91,11.96-5.91.4,0,.81.02,1.21.05l-.08,1.02c-5.55.86-10.04,5.65-12.01,10.91v.04s-.07.21-.07.21c-1.67,4.76-.24,13.92,4.36,17.81h-.04Z"/>
      <path class="cls-10" d="M100.54,52.58s0,.04,0,.06c-1.72,4.91-.83,13,4.27,17.32-7.1-4.96-8.5-16.08-3.5-22.68,2.94-3.88,7.61-5.84,12.27-5.46-5.88.91-10.94,4.91-13.04,10.77Z"/>
      <path class="cls-7" d="M129.67,47.35c-3.64-3.87-10.58-6.39-16.09-5.53-4.66-.37-9.33,1.58-12.27,5.46-5.04,6.65-3.54,17.76,3.5,22.68.72.61.86.7,1.03.83,0,0-5.95-1.88-9.4-9.96-5.92-13.86,8.21-27.81,23.49-22.72,7.5,2.5,9.25,8.36,9.75,9.25Z"/>
    </g>
  </g>
</svg>