<?xml version="1.0" encoding="UTF-8"?>
<svg id="Isolation_Mode" data-name="Isolation Mode" xmlns="http://www.w3.org/2000/svg" xmlns:xlink="http://www.w3.org/1999/xlink" viewBox="0 0 180 180">
  <defs>
    <style>
      .cls-1 {
        fill: url(#linear-gradient);
      }

      .cls-1, .cls-2, .cls-3, .cls-4, .cls-5, .cls-6, .cls-7, .cls-8, .cls-9 {
        stroke-width: 0px;
      }

      .cls-2 {
        fill: url(#linear-gradient-6);
      }

      .cls-3 {
        fill: url(#linear-gradient-5);
      }

      .cls-4 {
        fill: url(#linear-gradient-2);
      }

      .cls-5 {
        fill: #00a551;
      }

      .cls-6 {
        fill: url(#linear-gradient-3);
      }

      .cls-7 {
        fill: #6d6e70;
      }

      .cls-8 {
        fill: url(#linear-gradient-4);
      }

      .cls-9 {
        fill: #8ec63e;
      }
    </style>
    <linearGradient id="linear-gradient" x1="43.41" y1="70.06" x2="94.56" y2="70.06" gradientUnits="userSpaceOnUse">
      <stop offset="0" stop-color="#009148"/>
      <stop offset=".26" stop-color="#31a342"/>
      <stop offset=".77" stop-color="#8dc438"/>
      <stop offset="1" stop-color="#b2d235"/>
    </linearGradient>
    <linearGradient id="linear-gradient-2" x1="75.05" y1="77.62" x2="111.79" y2="77.62" xlink:href="#linear-gradient"/>
    <linearGradient id="linear-gradient-3" x1="9254.41" y1="-362.57" x2="9286.41" y2="-395.07" gradientTransform="translate(9092.92 -2104.9) rotate(163.92) scale(1 -1)" xlink:href="#linear-gradient"/>
    <linearGradient id="linear-gradient-4" x1="7791.37" y1="1493.84" x2="7803.78" y2="1475.07" gradientTransform="translate(7350.45 3155.7) rotate(-167.64)" gradientUnits="userSpaceOnUse">
      <stop offset="0" stop-color="#f05623"/>
      <stop offset="1" stop-color="#faa819"/>
    </linearGradient>
    <linearGradient id="linear-gradient-5" x1="86.05" y1="65.95" x2="93.16" y2="55.21" gradientTransform="matrix(1,0,0,1,0,0)" xlink:href="#linear-gradient-4"/>
    <linearGradient id="linear-gradient-6" x1="126.55" y1="-28.57" x2="153.38" y2="-55.82" gradientTransform="translate(-31.73 102.13) rotate(-1.48)" xlink:href="#linear-gradient"/>
  </defs>
  <path class="cls-1" d="M57.01,66.73c.32-10.73-.96-12.86-2.45-12.08-2.16,1.13-3,3.14-3.34,5.38-.59,3.94.45,7.68,1.68,11.36,1.24,3.71,7.51,15.94,5.17,16.37-3.22.52-10.06-8.33-12.61-14.85-1.84-4.7-3.82-13.7.67-21.4,2.31-4.09,7.14-7.28,11.53-8.58,15.64-4.61,26.09,10.56,31.12,12.11,7.15,2.2,6.58,7.32,3.99,7.84-8.77,1.75-22.49-13.92-25.67-10.46-1.36,2.07-.63,4.05.53,5.81,1.24,1.89,6.09,5.24,7.52,7.01,1.1,1.36,2.01,2.81,2,4.64,0,1.96-2.76,3.23-4.45,2.22-1.17-.69-6.04-7.58-6.82-8.83-.44-.7-1.02-1.3-1.98-1.27-.86.03-1.46.53-1.36,1.39,1.49,12.33,16.48,19.35,19.37,27.55,2.24,6.37-1.7,7.87-3.12,6.79-1.18-.9-22.19-17.33-21.78-31Z"/>
  <path class="cls-4" d="M88.24,80.03c.17-4.17-3.94-1.72-6.42-.55-5.14,2.66-9.67-1.33-4.45-6.14,3.29-2.56,5.99-4.14,10.17-4.62,5.18-.59,8.96-3.37,11.64-7.78,1.59-2.62,3.22-5.23,4.93-7.78.88-1.31,2.04-2.39,3.71-2.65,1.12-.17,2.22.03,3.07.75.45.38.76,1.09.85,1.69.21,1.47-.41,2.81-1.01,4.11-1.3,2.78-3.07,5.25-4.97,7.64-2.05,2.58-4.29,4.97-6.85,7.05-2.94,2.4-3.29,6.14-.96,9.2,1.23,1.62,2.82,2.76,4.6,3.7,2.4,1.26,7.2,4.36,7.41,7.23.15,2.01-1.45,3.83-3.22,3.58-.62-.09-1.27-.43-1.76-.83-1.19-1.01-5.36-3.42-6.51-4.48-.5-.46-1.03-.91-1.6-1.3-1.18-.79-2.39-.5-2.93.81-.54,1.32-.86,11.55-1.59,13.36-.38.93-4.17,3.83-6.41-.92-1.05-4.33,2.82-16.07,2.29-22.1Z"/>
  <g>
    <path class="cls-7" d="M73.73,133.81c-.11-2.11-.25-4.65-.22-6.54h-.07c-.52,1.77-1.15,3.66-1.91,5.75l-2.67,7.34h-1.48l-2.45-7.21c-.72-2.13-1.33-4.09-1.75-5.88h-.04c-.04,1.89-.16,4.42-.29,6.69l-.4,6.49h-1.86l1.06-15.14h2.49l2.58,7.32c.63,1.86,1.15,3.53,1.53,5.1h.07c.38-1.53.92-3.19,1.59-5.1l2.7-7.32h2.49l.94,15.14h-1.91l-.38-6.65Z"/>
    <path class="cls-7" d="M79.91,135.69l-1.57,4.76h-2.02l5.14-15.14h2.36l5.17,15.14h-2.09l-1.62-4.76h-5.37ZM84.88,134.17l-1.48-4.36c-.34-.99-.56-1.89-.79-2.76h-.05c-.22.9-.47,1.82-.76,2.74l-1.48,4.38h4.56Z"/>
    <path class="cls-7" d="M89.87,125.52c1.19-.18,2.61-.31,4.16-.31,2.81,0,4.81.65,6.13,1.89,1.35,1.24,2.13,2.99,2.13,5.44s-.76,4.49-2.18,5.88c-1.42,1.42-3.75,2.18-6.69,2.18-1.39,0-2.56-.07-3.55-.18v-14.89ZM91.82,138.9c.49.09,1.21.11,1.98.11,4.18,0,6.45-2.34,6.45-6.42.02-3.57-2-5.84-6.13-5.84-1.01,0-1.77.09-2.29.2v11.95Z"/>
    <path class="cls-7" d="M105.61,135.69l-1.57,4.76h-2.02l5.14-15.14h2.36l5.17,15.14h-2.09l-1.62-4.76h-5.37ZM110.58,134.17l-1.48-4.36c-.34-.99-.56-1.89-.79-2.76h-.05c-.22.9-.47,1.82-.76,2.74l-1.48,4.38h4.56Z"/>
    <path class="cls-7" d="M115.57,125.52c.99-.2,2.4-.31,3.75-.31,2.09,0,3.44.38,4.38,1.24.76.67,1.19,1.71,1.19,2.88,0,2-1.26,3.32-2.85,3.86v.07c1.17.4,1.86,1.48,2.22,3.05.49,2.11.85,3.57,1.17,4.16h-2.02c-.25-.43-.58-1.73-1.01-3.62-.45-2.09-1.26-2.88-3.03-2.94h-1.84v6.56h-1.95v-14.94ZM117.52,132.41h2c2.09,0,3.41-1.15,3.41-2.88,0-1.95-1.42-2.81-3.48-2.83-.94,0-1.62.09-1.93.18v5.53Z"/>
    <path class="cls-7" d="M61.71,147.15h4.62v.93h-3.51v2.85h3.25v.92h-3.25v3.88h-1.11v-8.58Z"/>
    <path class="cls-7" d="M74.48,151.35c0,2.95-1.8,4.52-3.99,4.52s-3.86-1.76-3.86-4.35c0-2.72,1.69-4.51,3.99-4.51s3.86,1.8,3.86,4.34ZM67.82,151.49c0,1.83.99,3.48,2.74,3.48s2.75-1.62,2.75-3.56c0-1.71-.89-3.49-2.74-3.49s-2.75,1.69-2.75,3.58Z"/>
    <path class="cls-7" d="M82.49,151.35c0,2.95-1.8,4.52-3.99,4.52s-3.86-1.76-3.86-4.35c0-2.72,1.69-4.51,3.99-4.51s3.86,1.8,3.86,4.34ZM75.83,151.49c0,1.83.99,3.48,2.74,3.48s2.75-1.62,2.75-3.56c0-1.71-.89-3.49-2.74-3.49s-2.75,1.69-2.75,3.58Z"/>
    <path class="cls-7" d="M83.16,147.26c.67-.1,1.48-.18,2.36-.18,1.59,0,2.73.37,3.48,1.07.76.7,1.21,1.69,1.21,3.08s-.43,2.55-1.24,3.34c-.8.8-2.13,1.24-3.79,1.24-.79,0-1.45-.04-2.01-.1v-8.44ZM84.27,154.85c.28.05.69.06,1.12.06,2.37,0,3.65-1.32,3.65-3.64.01-2.02-1.13-3.31-3.48-3.31-.57,0-1.01.05-1.3.11v6.77Z"/>
    <path class="cls-7" d="M98.55,155.45c-.41.2-1.22.41-2.27.41-2.42,0-4.24-1.53-4.24-4.34s1.82-4.51,4.48-4.51c1.07,0,1.74.23,2.04.38l-.27.9c-.42-.2-1.02-.36-1.73-.36-2.01,0-3.35,1.29-3.35,3.54,0,2.1,1.21,3.45,3.3,3.45.68,0,1.36-.14,1.81-.36l.23.88Z"/>
    <path class="cls-7" d="M106.24,151.35c0,2.95-1.8,4.52-3.99,4.52s-3.86-1.76-3.86-4.35c0-2.72,1.69-4.51,3.99-4.51s3.86,1.8,3.86,4.34ZM99.58,151.49c0,1.83.99,3.48,2.74,3.48s2.75-1.62,2.75-3.56c0-1.71-.89-3.49-2.74-3.49s-2.75,1.69-2.75,3.58Z"/>
    <path class="cls-7" d="M108.02,147.15v5.08c0,1.92.85,2.74,2,2.74,1.27,0,2.09-.84,2.09-2.74v-5.08h1.12v5c0,2.64-1.39,3.72-3.25,3.72-1.76,0-3.08-1.01-3.08-3.67v-5.05h1.12Z"/>
    <path class="cls-7" d="M114.39,147.26c.56-.11,1.36-.18,2.13-.18,1.18,0,1.95.22,2.48.7.43.38.68.97.68,1.63,0,1.13-.71,1.88-1.62,2.19v.04c.66.23,1.06.84,1.26,1.73.28,1.2.48,2.02.66,2.36h-1.15c-.14-.24-.33-.98-.57-2.05-.25-1.18-.71-1.63-1.72-1.67h-1.04v3.72h-1.11v-8.47ZM115.49,151.17h1.13c1.18,0,1.94-.65,1.94-1.63,0-1.11-.8-1.59-1.97-1.6-.53,0-.92.05-1.1.1v3.13Z"/>
    <path class="cls-7" d="M122.21,148.09h-2.61v-.94h6.35v.94h-2.62v7.64h-1.12v-7.64Z"/>
  </g>
  <path class="cls-9" d="M112.91,85.62c.22,1.19-.56,2.33-1.75,2.55-1.19.22-2.33-.56-2.55-1.75-.22-1.18.56-2.33,1.75-2.54,1.19-.22,2.33.56,2.55,1.75Z"/>
  <path class="cls-5" d="M84.46,41.24c.2,1.1-.52,2.16-1.63,2.37-1.1.21-2.16-.52-2.37-1.63-.21-1.1.52-2.16,1.63-2.37,1.1-.2,2.16.52,2.37,1.63Z"/>
  <path class="cls-5" d="M81.52,102.13c.1.55-.26,1.08-.81,1.18-.55.1-1.08-.26-1.18-.81-.1-.55.26-1.08.81-1.18.55-.1,1.08.26,1.18.81Z"/>
  <path class="cls-6" d="M64.09,86.7c-.34.29-.37.8-.08,1.13l6.44,7.47c.29.34.25.84-.08,1.14s-.84.25-1.13-.09l-6.44-7.47c-.29-.34-.8-.37-1.13-.08h0c-.34.29-.37.8-.08,1.14l6.44,7.47c.29.34.25.85-.08,1.13-.34.29-.85.25-1.14-.08l-6.44-7.47c-.29-.34-.8-.37-1.13-.09h0c-.34.29-.37.8-.08,1.14l6.44,7.47c.29.34.25.84-.08,1.13-.34.29-.85.25-1.14-.08l-6.44-7.47c-.29-.34-.8-.37-1.13-.09-.32.27-.35.75-.08,1.07l6.95,8.06c2.12,2.46,4.1,3.09,5.87,2.65,1.43-.35,2.35.1,3.33,1.2,5.23,5.89,9.87,9.43,15.23,9.65,8.41.34,15.15-5.98,16.25-15.34.52-4.4-4.81-6.15-6.05-.14-2.56,12.36-17.87,8.97-23.3,4.73-1.21-.94-1.6-2.55-1.06-3.98.63-1.67.26-3.67-1.81-6.08l-6.95-8.06c-.27-.32-.75-.35-1.07-.08h0ZM64.09,86.7"/>
  <path class="cls-8" d="M45.51,36.75c-1.57,1.26-1.62,3.14-1.62,3.14.49-.42,1.18-.65,1.9-.78-3.59,2.24-1.83,11.01-1.83,11.01.72-1.24,1.75-7.02,5.5-7.5-.34.67-.41,1.26-.41,1.26,1.77-1.58,3.93-1.55,3.93-1.55,3.99-.15,7.02-3.49,6.75-7.47-.26-3.98-3.71-7.09-7.7-6.94-3.99.15-7.02,3.49-6.75,7.47.03.47.11.92.23,1.36Z"/>
  <path class="cls-3" d="M94.21,58.3c.88-1.09.63-2.38.63-2.38-.27.36-.71.62-1.18.81.71-1.73-.16-4.07-.16-4.07-.31.95-1.52,1.7-2.86,2.23.13-.51.09-.92.09-.92-.97,1.34-2.45,1.64-2.45,1.64-2.7.7-4.26,3.43-3.48,6.1.77,2.67,3.59,4.27,6.28,3.58,2.7-.7,4.26-3.43,3.48-6.1-.09-.31-.21-.61-.36-.89Z"/>
  <path class="cls-2" d="M119.3,63.03c3.26-6.12,4.48-11.09,3.38-15.86-2.35-10.21-13.26-11.69-22.55-8.59-4.09,1.36-9.49,3.71-12.79,7.43-2.57,2.9,1.02,5.6,3.61,4.12,23.56-13.52,27.99-.2,26.83,8.93-.02.08-.04.15-.06.23-1.32,5.75-3.05,5.43-4.05,5.51-2,.17-4.01.97-5.81,4.06-2.73,4.69-3.27,12.59-.99,13.92,2.4,1.4,8.88-3.06,11.6-7.75,1.8-3.09,1.48-5.23.64-7.06-.65-1.42-.54-2.74.19-4.94Z"/>
</svg>