<?xml version="1.0" encoding="UTF-8"?>
<svg id="Isolation_Mode" data-name="Isolation Mode" xmlns="http://www.w3.org/2000/svg" viewBox="0 0 180 180">
  <defs>
    <style>
      .cls-1 {
        fill: #606060;
      }

      .cls-1, .cls-2 {
        stroke-width: 0px;
      }

      .cls-2 {
        fill: #00d3dd;
      }
    </style>
  </defs>
  <polygon class="cls-2" points="26.36 78.18 26.36 101.24 38.48 113.36 38.48 89.59 45.89 78.18 26.36 78.18"/>
  <polygon class="cls-2" points="42.5 93.83 42.5 113.35 65.55 113.35 77.67 101.24 53.9 101.24 42.5 93.83"/>
  <polygon class="cls-2" points="61.51 81.55 61.51 62.02 14.24 62.02 26.36 74.14 50.1 74.14 61.51 81.55"/>
  <polygon class="cls-2" points="65.55 62.02 65.55 85.79 58.15 97.2 77.67 97.2 77.67 74.14 65.55 62.02"/>
  <rect class="cls-1" x="132.48" y="89.02" width="1.83" height="1.75"/>
  <rect class="cls-1" x="161.97" y="87.88" width="2.25" height="10.91"/>
  <path class="cls-1" d="M103.19,80.15c.29-.51.44-1.06.44-1.66s-.15-1.14-.44-1.65c-.3-.51-.7-.91-1.21-1.2-.51-.3-1.06-.45-1.65-.45h-2.79l-1.91,2.02v-2.02h-2.26v7.37c0,.29-.11.54-.31.75-.21.21-.45.31-.74.31h-1.46c-.3,0-.55-.11-.76-.31s-.31-.46-.31-.75v-4.37l-2.25.55v3.81c0,.6.15,1.16.44,1.67.3.51.7.91,1.21,1.2.51.29,1.06.44,1.66.44h1.46c.59,0,1.14-.15,1.65-.44.51-.29.91-.69,1.21-1.2.3-.51.45-1.06.45-1.67v-.76h4.7c.6,0,1.16-.15,1.67-.44.51-.3.91-.7,1.2-1.21M101.08,79.24c-.2.21-.45.31-.75.31h-4.21l2.03-2.12h2.17c.28,0,.53.1.74.31.21.2.31.45.31.75s-.1.54-.31.75"/>
  <rect class="cls-1" x="97.85" y="71.96" width="1.83" height="1.74"/>
  <rect class="cls-1" x="114.08" y="71.93" width="3.85" height="1.74"/>
  <path class="cls-1" d="M112.99,75.63c-.51.3-.91.7-1.21,1.21-.3.51-.45,1.06-.45,1.65,0,.27.05.51.14.71.09.2.14.32.15.35h-3.17c-.28,0-.53-.1-.74-.31-.21-.21-.31-.46-.31-.75v-3.3h-2.26v7.53l-1.39.93,1.24,1.87,2.41-1.61v-2.54c.36.28.71.42,1.05.42h9.5v-6.61h-3.31c-.59,0-1.14.15-1.65.44M115.7,79.55h-1.07c-.29,0-.54-.1-.75-.31-.21-.2-.31-.46-.31-.76s.1-.54.31-.75c.21-.2.46-.31.75-.31h1.07v2.12Z"/>
  <path class="cls-1" d="M122.46,85.42c.51.29,1.06.44,1.66.44h4.07c.6,0,1.15-.15,1.66-.44.5-.29.9-.69,1.2-1.2.3-.51.44-1.06.44-1.66v-7.37h-3.3c-.6,0-1.16.15-1.67.44-.51.3-.91.7-1.21,1.21-.3.51-.45,1.06-.45,1.65v3.31h4.39v.76c0,.29-.1.54-.31.75-.2.21-.46.31-.76.31h-4.07c-.3,0-.55-.1-.76-.31-.2-.21-.31-.46-.31-.75v-4.37l-2.25.56v3.81c0,.6.15,1.16.45,1.66.3.51.7.91,1.2,1.2M127.14,79.55v-1.06c0-.29.1-.54.31-.75.2-.2.46-.31.76-.31h1.07v2.12h-2.13Z"/>
  <rect class="cls-1" x="127.66" y="71.92" width="3.84" height="1.74"/>
  <path class="cls-1" d="M134.17,81.37c.47.29.93.43,1.38.43h1.34v.92l-1.39.94,1.24,1.87,2.41-1.61v-8.73h-3.31c-.59,0-1.15.15-1.66.45-.51.3-.91.71-1.21,1.21-.3.51-.45,1.06-.45,1.65s.16,1.17.47,1.68c.31.51.7.9,1.18,1.19M135.08,77.73c.2-.21.46-.31.76-.31h1.05v2.13h-1.05c-.3,0-.55-.1-.76-.31-.2-.21-.31-.46-.31-.75s.1-.54.31-.75"/>
  <rect class="cls-1" x="150.19" y="72.03" width="1.83" height="1.75"/>
  <path class="cls-1" d="M163.77,80.14c.3-.51.45-1.06.45-1.66s-.15-1.14-.44-1.65c-.3-.51-.7-.91-1.21-1.2-.51-.3-1.06-.45-1.66-.45h-2.77l-1.93,2.01v-2.01h-2.26v4.37h-.82c-.3,0-.55-.1-.76-.31-.2-.2-.31-.46-.31-.76v-3.3h-2.25v3.3c0,.3-.11.55-.31.76-.21.2-.46.31-.75.31h-3.06v-1.06c0-.59-.15-1.14-.45-1.65-.3-.51-.7-.91-1.2-1.2-.51-.3-1.06-.45-1.65-.45h-1.86v2.25h1.86c.29,0,.54.1.75.31.21.2.31.45.31.75v1.06h-3.07v2.25h8.36c.42,0,.82-.08,1.19-.23.37-.15.71-.37,1-.64.28.27.61.49.99.64.38.16.78.23,1.2.23h7.78c.59,0,1.14-.15,1.65-.44.51-.3.91-.7,1.21-1.21M161.66,79.25c-.21.2-.46.31-.75.31h-4.21l2.04-2.12h2.16c.29,0,.54.1.75.31.21.2.31.45.31.75s-.11.55-.31.76"/>
  <polygon class="cls-2" points="88.34 99.98 86.55 101.19 88.15 103.61 91.27 101.53 91.27 90.33 88.34 91.07 88.34 99.98"/>
  <path class="cls-2" d="M97.66,90.8c-.66-.38-1.37-.58-2.14-.58h-2.4v2.91h2.4c.38,0,.7.13.97.4.27.27.41.59.41.96v1.38h-3.97v2.91h6.86v-4.29c0-.77-.19-1.48-.58-2.14-.38-.66-.91-1.18-1.56-1.56"/>
  <path class="cls-2" d="M115.79,90.78c-.66-.38-1.38-.58-2.15-.58h-4.29v4.29c0,.38-.14.7-.41.97-.27.27-.58.4-.95.41,0,0-.02,0-.02,0h-2.1c-.38,0-.71-.14-.98-.4-.27-.27-.41-.59-.41-.98v-6.62h-2.89v6.62c0,.78.19,1.5.58,2.16.38.66.91,1.18,1.56,1.56.64.38,1.33.57,2.09.58h2.15c.54,0,1.06-.1,1.54-.3.48-.2.92-.48,1.3-.85.36.35.79.63,1.29.84.49.21,1.01.31,1.55.31.77,0,1.48-.19,2.15-.58.66-.38,1.19-.91,1.57-1.57.38-.66.58-1.38.58-2.15s-.19-1.48-.58-2.15c-.38-.66-.91-1.19-1.57-1.57M114.61,95.47c-.27.27-.59.41-.96.41s-.72-.14-.98-.41c-.27-.27-.4-.59-.4-.97v-1.38h1.38c.38,0,.7.13.96.4.27.27.4.59.4.98s-.13.7-.4.97"/>
  <path class="cls-1" d="M158.28,95.47c0,.3-.1.55-.31.76-.2.2-.45.31-.75.31h-.74v-1.07c0-.59-.15-1.14-.45-1.65-.3-.51-.7-.91-1.21-1.2-.38-.22-.79-.36-1.23-.42-.15-.02-.3-.03-.45-.03h0s-2.65,0-2.65,0l-.54,2.25h3.2c.07,0,.14,0,.21.02.21.04.39.13.54.29.2.2.31.45.31.75v1.07h-5.21c-.29,0-.54-.1-.75-.31-.21-.2-.31-.46-.31-.76v-3.3h-2.23v3.45c0,.25-.09.47-.28.65-.19.18-.4.27-.66.27s-.47-.09-.65-.27c-.18-.18-.27-.4-.27-.65v-3.45h-2.25v3.45c0,.25-.09.47-.27.65-.18.18-.4.27-.65.27s-.47-.09-.66-.27c-.19-.18-.28-.4-.28-.65v-3.45h-2.23v3.3c0,.3-.1.55-.31.76-.21.2-.47.31-.77.31h-1.02c-.3,0-.55-.1-.76-.31s-.31-.46-.31-.76v-3.3h-2.25v3.3c0,.3-.11.55-.31.76-.2.2-.45.3-.73.31,0,0-.02,0-.02,0,0,0-2.1,0-2.11,0-.28,0-.52-.11-.72-.31-.21-.2-.31-.46-.31-.76v-3.3h-3.3c-.59,0-1.15.15-1.66.45-.51.3-.91.7-1.21,1.2s-.44,1.06-.44,1.65.15,1.15.44,1.66.7.91,1.21,1.21c.51.3,1.06.44,1.66.44.42,0,.82-.08,1.2-.23.38-.15.72-.36,1.02-.64.28.27.61.48.98.64.35.14.72.22,1.11.22h2.12-2.09s2.11,0,2.11,0h0c.42,0,.81-.08,1.19-.23.37-.15.71-.37,1-.64.28.27.61.49.99.64.38.16.78.23,1.2.23h1.02c.82,0,1.54-.27,2.16-.82.27.23.59.43.97.58.37.16.75.23,1.12.23s.74-.07,1.09-.2c.35-.14.67-.33.95-.57.29.23.61.42.96.56.35.14.71.21,1.08.21.81,0,1.51-.27,2.12-.82.28.25.6.45.96.6.36.15.74.22,1.15.22h8.23c.59,0,1.14-.15,1.65-.44.51-.3.91-.7,1.21-1.21.3-.51.44-1.06.44-1.66v-7.59h-2.26v7.59ZM125.63,95.47c0,.3-.1.55-.31.76-.2.2-.45.31-.75.31s-.56-.1-.76-.31c-.2-.2-.31-.46-.31-.76s.1-.54.31-.75c.2-.21.46-.31.76-.31h1.05v1.07Z"/>
</svg>