<?xml version="1.0" encoding="UTF-8"?>
<svg id="Isolation_Mode" data-name="Isolation Mode" xmlns="http://www.w3.org/2000/svg" viewBox="0 0 180 180">
  <defs>
    <style>
      .cls-1 {
        fill: #231f20;
        stroke-width: 0px;
      }
    </style>
  </defs>
  <polygon class="cls-1" points="19.22 70.37 15.14 70.37 15.14 122.07 41.25 122.06 41.25 120.53 19.22 120.53 19.22 70.37"/>
  <path class="cls-1" d="M64.36,109.31c0,5.67-3.63,11.72-10.26,11.72-5.67,0-10.26-2.78-10.26-10.26v-40.41h-4.08v39.13c0,8.86,5.4,13.06,14.09,13.06,7.22,0,12.04-6.22,12.04-13.06v-39.13h-1.53v38.95Z"/>
  <polygon class="cls-1" points="96.61 118.48 76.1 70.37 71.26 70.37 71.26 122.06 72.79 122.06 72.79 72.16 94.06 122.07 98.14 122.07 98.14 122.06 98.14 122.06 98.14 70.37 96.61 70.37 96.61 118.48"/>
  <path class="cls-1" d="M116.62,70.37l-12.96,51.7h1.78l3.37-13.64h16.2l2.99,13.64h4.33l-11.57-51.7h-4.15ZM109.19,106.9l8.2-33.19,7.28,33.19h-15.48Z"/>
  <path class="cls-1" d="M151.61,98.23c.61-.87,1.31-1.64,2.06-2.33-.48.19-.95.41-1.42.67-6.62,3.6-9.06,11.89-5.46,18.5,3.11,5.71,9.71,8.31,15.72,6.59-2.57-.21-5.12-1.09-7.38-2.69-6.7-4.76-8.27-14.04-3.52-20.74Z"/>
  <path class="cls-1" d="M152.03,95.52c5.34-2.41,10.83-5.82,10.83-13.68s-6.49-11.47-15.12-11.47h-9.22v51.7h4.08s0,0,0-.02h0v-11.07c0-2.83.63-5.63,1.9-8.16,1.52-3.01,3.89-5.66,7.53-7.3ZM142.6,100.04v-28.15h5.14c8.08,0,10.26,5.03,10.4,10.16.27,10.04-12.74,10.5-15.54,17.99Z"/>
</svg>