<?xml version="1.0" encoding="UTF-8"?>
<svg id="Layer_1" data-name="Layer 1" xmlns="http://www.w3.org/2000/svg" xmlns:xlink="http://www.w3.org/1999/xlink" viewBox="0 0 180 180">
  <defs>
    <style>
      .cls-1 {
        fill: url(#linear-gradient);
      }

      .cls-1, .cls-2, .cls-3, .cls-4, .cls-5, .cls-6, .cls-7, .cls-8, .cls-9 {
        stroke-width: 0px;
      }

      .cls-2 {
        fill: url(#linear-gradient-6);
      }

      .cls-3 {
        fill: url(#linear-gradient-5);
      }

      .cls-4 {
        fill: url(#linear-gradient-2);
      }

      .cls-5 {
        fill: url(#linear-gradient-7);
      }

      .cls-6 {
        fill: url(#linear-gradient-3);
      }

      .cls-7 {
        fill: #dc8827;
      }

      .cls-8 {
        fill: #808184;
      }

      .cls-9 {
        fill: url(#linear-gradient-4);
      }
    </style>
    <linearGradient id="linear-gradient" x1="61.51" y1="86.56" x2="71.22" y2="86.56" gradientUnits="userSpaceOnUse">
      <stop offset="0" stop-color="#601973"/>
      <stop offset=".06" stop-color="#661d7a"/>
      <stop offset=".21" stop-color="#702586"/>
      <stop offset=".42" stop-color="#76298d"/>
      <stop offset=".99" stop-color="#782b8f"/>
    </linearGradient>
    <linearGradient id="linear-gradient-2" x1="74.48" y1="83.7" x2="91.98" y2="83.7" xlink:href="#linear-gradient"/>
    <linearGradient id="linear-gradient-3" x1="95.53" y1="81.86" x2="132.66" y2="81.86" xlink:href="#linear-gradient"/>
    <linearGradient id="linear-gradient-4" x1="38.63" y1="94.28" x2="55.91" y2="94.28" xlink:href="#linear-gradient"/>
    <linearGradient id="linear-gradient-5" x1="74.48" y1="83.7" x2="91.98" y2="83.7" xlink:href="#linear-gradient"/>
    <linearGradient id="linear-gradient-6" x1="95.53" y1="81.86" x2="132.66" y2="81.86" xlink:href="#linear-gradient"/>
    <linearGradient id="linear-gradient-7" x1="38.63" y1="94.28" x2="55.91" y2="94.28" xlink:href="#linear-gradient"/>
  </defs>
  <g>
    <g>
      <g>
        <g>
          <path class="cls-7" d="M91.76,107.52c0,1.72-.68,2.58-2.04,2.58h-2.54c.33-.88.49-1.85.49-2.89v-6.24h-4.01v6.55c0,1.72-.67,2.58-2.02,2.58h-2.12l.06-1.14v-8.01h-4.02v7.64c0,1.91-.45,3.44-1.35,4.61-.91,1.17-2.13,1.76-3.66,1.76s-2.78-.6-3.7-1.8c-.88-1.16-1.33-2.68-1.33-4.56v-7.64h-4.01v8.01c0,2.74.87,5.04,2.62,6.91,1.75,1.86,3.89,2.79,6.41,2.79,3.35,0,5.96-1.58,7.83-4.73h11.5c1.67,0,3.07-.63,4.2-1.9,1.14-1.29,1.72-2.91,1.72-4.84v-6.21h-4.03v6.55Z"/>
          <rect class="cls-7" x="118.13" y="116.17" width="3.03" height="2.83"/>
          <rect class="cls-7" x="120.42" y="120.04" width="3.03" height="2.83"/>
          <path class="cls-7" d="M127.36,100.97v6.32c0,1.87-.67,2.81-2.02,2.81h-12.15c.31-.87.46-1.83.46-2.89v-11.7h-3.98v11.84c0,.76-.06,1.26-.17,1.48-.32.85-.94,1.27-1.86,1.27h-.38l-3.52-12.67h-4.23l3.6,12.67h-4.29v3.82h27.35c1.69,0,3.01-.58,3.95-1.74.82-.99,1.23-2.24,1.23-3.77v-7.44h-4.01Z"/>
          <rect class="cls-7" x="122.73" y="116.17" width="3" height="2.83"/>
        </g>
        <g>
          <path class="cls-1" d="M66.32,88.8c0,3.06-1.6,4.59-4.81,4.59v3.93c3.36,0,5.79-.67,7.27-2.01,1.62-1.42,2.43-3.72,2.43-6.92v-12.57h-4.89v12.98Z"/>
          <path class="cls-4" d="M84.78,76.48c-1.26-.44-3.43-.66-6.51-.66v4.08c5.89,0,8.84,2.34,8.84,7.03h-12.62v4.66h17.5v-4.69c0-5.24-2.4-8.72-7.2-10.42Z"/>
          <path class="cls-6" d="M130.45,80.93c-1.48-1.44-3.47-2.16-5.96-2.16s-4.42.74-5.81,2.21c-1.37,1.45-2.06,3.43-2.06,5.95h-12.05c-1.68,0-2.82-.31-3.43-.93-.49-.5-.73-1.39-.73-2.68v-14.17h-4.88v16.7c0,3.83,1.96,5.74,5.88,5.74h16.64c1.43,1.99,3.63,2.99,6.61,2.99,2.41,0,4.36-.74,5.83-2.23,1.45-1.45,2.17-3.35,2.17-5.71s-.74-4.29-2.21-5.71ZM124.66,90.61c-2.19,0-3.28-1.34-3.28-4.01s1-3.92,2.99-3.92h.36c2.06,0,3.09,1.38,3.09,4.13,0,2.54-1.05,3.81-3.16,3.81Z"/>
        </g>
      </g>
      <g>
        <path class="cls-8" d="M78.87,119.54h-.31l.51-.77h-.67l-.81,1.29h1.02c.21,0,.39.07.55.22.15.15.24.33.27.55h-2.98v.54h3.6v-.21c0-1-.39-1.54-1.17-1.62Z"/>
        <rect class="cls-8" x="84.35" y="118.11" width=".5" height=".47"/>
        <path class="cls-8" d="M85.48,120.47c0,.24-.1.36-.29.36h-.36c.05-.12.07-.26.07-.41v-.88h-.57v.92c0,.24-.1.36-.29.36h-.36c.05-.12.07-.26.07-.41v-.88h-.57v.9c0,.26-.1.39-.29.39h-1.3c-.19,0-.33-.04-.4-.11-.06-.06-.08-.16-.08-.31v-1.64h-.57v1.94c0,.44.23.67.68.67h2.16s0,0,0,0h1.82c.24,0,.43-.09.59-.27.16-.18.24-.41.24-.68v-.88h-.57v.92Z"/>
        <rect class="cls-8" x="83.98" y="118.78" width=".5" height=".47"/>
        <rect class="cls-8" x="84.74" y="118.78" width=".5" height=".47"/>
        <rect class="cls-8" x="88.92" y="121.69" width=".43" height=".4"/>
        <rect class="cls-8" x="89.57" y="121.69" width=".42" height=".4"/>
        <rect class="cls-8" x="89.24" y="122.24" width=".43" height=".4"/>
        <path class="cls-8" d="M89.43,120.44c0,.26-.1.4-.29.4h-.77v-.37c0-.27-.08-.49-.25-.66-.17-.17-.38-.26-.64-.26s-.49.08-.66.25c-.17.17-.26.39-.26.66s.09.49.26.66c.17.17.39.26.66.26.19,0,.3,0,.35-.02-.04.16-.18.24-.39.24h-.05v.45h.06c.55,0,.85-.22.92-.66h.9c.24,0,.43-.08.56-.25.12-.14.17-.32.17-.53v-1.05h-.57v.89ZM87.81,120.84h-.33c-.23,0-.35-.13-.35-.4,0-.25.11-.38.33-.38.23,0,.35.13.35.39v.39Z"/>
        <polygon class="cls-8" points="91.62 121.38 92.14 121.38 93.26 118.77 92.73 118.77 91.62 121.38"/>
        <rect class="cls-8" x="98.85" y="118.78" width=".5" height=".47"/>
        <path class="cls-8" d="M98.83,120.44c0,.26-.1.4-.29.4h-1.33c-.27,0-.41-.14-.41-.41v-1.27c-.72,0-1.08,0-1.08,0-.26,0-.47.09-.62.27-.15.18-.22.42-.22.72,0,.28.07.52.22.7.15.19.34.28.58.28.28,0,.47-.08.57-.24.13.33.36.5.68.5h1.74c.24,0,.42-.08.55-.25.12-.14.18-.32.18-.53v-1.05h-.56v.89ZM96.21,120.1c0,.37-.13.55-.38.55-.11,0-.2-.05-.28-.15-.07-.1-.11-.22-.11-.36,0-.16.04-.29.11-.4.08-.11.17-.17.29-.17h.37v.53Z"/>
        <rect class="cls-8" x="102.21" y="118.78" width=".5" height=".47"/>
        <path class="cls-8" d="M102.48,119.5c-.39,0-.73.14-1,.43l.28.38c.19-.19.42-.29.68-.29.23,0,.43.08.59.23.16.15.24.35.25.58h-2.33c-.19,0-.33-.04-.4-.11-.06-.06-.08-.16-.08-.31v-1.64h-.57v1.94c0,.44.23.67.68.67h3.3v-.19c0-.53-.12-.95-.35-1.24-.24-.3-.59-.45-1.05-.45Z"/>
        <path class="cls-8" d="M108.02,119.91h.24v-.55h-.24c-.37,0-.67.13-.89.38-.22.25-.34.58-.34.99h1.05c0,.12-.03.22-.07.31-.14.32-.41.48-.82.48s-.68-.16-.82-.48c-.05-.12-.07-.26-.07-.42v-.43h-.57v.49c0,.39.14.72.42.98.28.26.62.39,1.03.39h.02c.4,0,.75-.13,1.03-.39.28-.26.42-.59.42-.98v-.47h-.94c.13-.19.31-.29.54-.29Z"/>
        <path class="cls-8" d="M110.41,120.43c0,.27-.1.41-.29.41l-.5-1.79h-.6l.51,1.79h-.6v.54h1.34c.2,0,.36-.06.5-.18.13-.12.2-.28.2-.48v-1.94h-.56v1.65Z"/>
        <path class="cls-8" d="M115.04,119.54h-.31l.51-.77h-.67l-.81,1.29h1.02c.21,0,.39.07.55.22.15.15.24.33.27.55h-3.07c-.19,0-.33-.04-.4-.11-.06-.06-.08-.16-.08-.31v-1.64h-.57v1.94c0,.44.23.67.68.67h4.05v-.21c0-1-.39-1.54-1.17-1.62Z"/>
      </g>
    </g>
    <rect class="cls-7" x="21.79" y="85.79" width="17.29" height="16.99" transform="translate(-63.85 124.72) rotate(-90)"/>
    <rect class="cls-7" x="138.11" y="85.79" width="17.29" height="16.99" transform="translate(52.47 241.04) rotate(-90)"/>
    <rect class="cls-9" x="38.63" y="68.95" width="17.29" height="50.66"/>
  </g>
  <g>
    <g>
      <g>
        <g>
          <path class="cls-7" d="M91.76,107.52c0,1.72-.68,2.58-2.04,2.58h-2.54c.33-.88.49-1.85.49-2.89v-6.24h-4.01v6.55c0,1.72-.67,2.58-2.02,2.58h-2.12l.06-1.14v-8.01h-4.02v7.64c0,1.91-.45,3.44-1.35,4.61-.91,1.17-2.13,1.76-3.66,1.76s-2.78-.6-3.7-1.8c-.88-1.16-1.33-2.68-1.33-4.56v-7.64h-4.01v8.01c0,2.74.87,5.04,2.62,6.91,1.75,1.86,3.89,2.79,6.41,2.79,3.35,0,5.96-1.58,7.83-4.73h11.5c1.67,0,3.07-.63,4.2-1.9,1.14-1.29,1.72-2.91,1.72-4.84v-6.21h-4.03v6.55Z"/>
          <rect class="cls-7" x="118.13" y="116.17" width="3.03" height="2.83"/>
          <rect class="cls-7" x="120.42" y="120.04" width="3.03" height="2.83"/>
          <path class="cls-7" d="M127.36,100.97v6.32c0,1.87-.67,2.81-2.02,2.81h-12.15c.31-.87.46-1.83.46-2.89v-11.7h-3.98v11.84c0,.76-.06,1.26-.17,1.48-.32.85-.94,1.27-1.86,1.27h-.38l-3.52-12.67h-4.23l3.6,12.67h-4.29v3.82h27.35c1.69,0,3.01-.58,3.95-1.74.82-.99,1.23-2.24,1.23-3.77v-7.44h-4.01Z"/>
          <rect class="cls-7" x="122.73" y="116.17" width="3" height="2.83"/>
        </g>
        <g>
          <path class="cls-1" d="M66.32,88.8c0,3.06-1.6,4.59-4.81,4.59v3.93c3.36,0,5.79-.67,7.27-2.01,1.62-1.42,2.43-3.72,2.43-6.92v-12.57h-4.89v12.98Z"/>
          <path class="cls-3" d="M84.78,76.48c-1.26-.44-3.43-.66-6.51-.66v4.08c5.89,0,8.84,2.34,8.84,7.03h-12.62v4.66h17.5v-4.69c0-5.24-2.4-8.72-7.2-10.42Z"/>
          <path class="cls-2" d="M130.45,80.93c-1.48-1.44-3.47-2.16-5.96-2.16s-4.42.74-5.81,2.21c-1.37,1.45-2.06,3.43-2.06,5.95h-12.05c-1.68,0-2.82-.31-3.43-.93-.49-.5-.73-1.39-.73-2.68v-14.17h-4.88v16.7c0,3.83,1.96,5.74,5.88,5.74h16.64c1.43,1.99,3.63,2.99,6.61,2.99,2.41,0,4.36-.74,5.83-2.23,1.45-1.45,2.17-3.35,2.17-5.71s-.74-4.29-2.21-5.71ZM124.66,90.61c-2.19,0-3.28-1.34-3.28-4.01s1-3.92,2.99-3.92h.36c2.06,0,3.09,1.38,3.09,4.13,0,2.54-1.05,3.81-3.16,3.81Z"/>
        </g>
      </g>
      <g>
        <path class="cls-8" d="M78.87,119.54h-.31l.51-.77h-.67l-.81,1.29h1.02c.21,0,.39.07.55.22.15.15.24.33.27.55h-2.98v.54h3.6v-.21c0-1-.39-1.54-1.17-1.62Z"/>
        <rect class="cls-8" x="84.35" y="118.11" width=".5" height=".47"/>
        <path class="cls-8" d="M85.48,120.47c0,.24-.1.36-.29.36h-.36c.05-.12.07-.26.07-.41v-.88h-.57v.92c0,.24-.1.36-.29.36h-.36c.05-.12.07-.26.07-.41v-.88h-.57v.9c0,.26-.1.39-.29.39h-1.3c-.19,0-.33-.04-.4-.11-.06-.06-.08-.16-.08-.31v-1.64h-.57v1.94c0,.44.23.67.68.67h2.16s0,0,0,0h1.82c.24,0,.43-.09.59-.27.16-.18.24-.41.24-.68v-.88h-.57v.92Z"/>
        <rect class="cls-8" x="83.98" y="118.78" width=".5" height=".47"/>
        <rect class="cls-8" x="84.74" y="118.78" width=".5" height=".47"/>
        <rect class="cls-8" x="88.92" y="121.69" width=".43" height=".4"/>
        <rect class="cls-8" x="89.57" y="121.69" width=".42" height=".4"/>
        <rect class="cls-8" x="89.24" y="122.24" width=".43" height=".4"/>
        <path class="cls-8" d="M89.43,120.44c0,.26-.1.4-.29.4h-.77v-.37c0-.27-.08-.49-.25-.66-.17-.17-.38-.26-.64-.26s-.49.08-.66.25c-.17.17-.26.39-.26.66s.09.49.26.66c.17.17.39.26.66.26.19,0,.3,0,.35-.02-.04.16-.18.24-.39.24h-.05v.45h.06c.55,0,.85-.22.92-.66h.9c.24,0,.43-.08.56-.25.12-.14.17-.32.17-.53v-1.05h-.57v.89ZM87.81,120.84h-.33c-.23,0-.35-.13-.35-.4,0-.25.11-.38.33-.38.23,0,.35.13.35.39v.39Z"/>
        <polygon class="cls-8" points="91.62 121.38 92.14 121.38 93.26 118.77 92.73 118.77 91.62 121.38"/>
        <rect class="cls-8" x="98.85" y="118.78" width=".5" height=".47"/>
        <path class="cls-8" d="M98.83,120.44c0,.26-.1.4-.29.4h-1.33c-.27,0-.41-.14-.41-.41v-1.27c-.72,0-1.08,0-1.08,0-.26,0-.47.09-.62.27-.15.18-.22.42-.22.72,0,.28.07.52.22.7.15.19.34.28.58.28.28,0,.47-.08.57-.24.13.33.36.5.68.5h1.74c.24,0,.42-.08.55-.25.12-.14.18-.32.18-.53v-1.05h-.56v.89ZM96.21,120.1c0,.37-.13.55-.38.55-.11,0-.2-.05-.28-.15-.07-.1-.11-.22-.11-.36,0-.16.04-.29.11-.4.08-.11.17-.17.29-.17h.37v.53Z"/>
        <rect class="cls-8" x="102.21" y="118.78" width=".5" height=".47"/>
        <path class="cls-8" d="M102.48,119.5c-.39,0-.73.14-1,.43l.28.38c.19-.19.42-.29.68-.29.23,0,.43.08.59.23.16.15.24.35.25.58h-2.33c-.19,0-.33-.04-.4-.11-.06-.06-.08-.16-.08-.31v-1.64h-.57v1.94c0,.44.23.67.68.67h3.3v-.19c0-.53-.12-.95-.35-1.24-.24-.3-.59-.45-1.05-.45Z"/>
        <path class="cls-8" d="M108.02,119.91h.24v-.55h-.24c-.37,0-.67.13-.89.38-.22.25-.34.58-.34.99h1.05c0,.12-.03.22-.07.31-.14.32-.41.48-.82.48s-.68-.16-.82-.48c-.05-.12-.07-.26-.07-.42v-.43h-.57v.49c0,.39.14.72.42.98.28.26.62.39,1.03.39h.02c.4,0,.75-.13,1.03-.39.28-.26.42-.59.42-.98v-.47h-.94c.13-.19.31-.29.54-.29Z"/>
        <path class="cls-8" d="M110.41,120.43c0,.27-.1.41-.29.41l-.5-1.79h-.6l.51,1.79h-.6v.54h1.34c.2,0,.36-.06.5-.18.13-.12.2-.28.2-.48v-1.94h-.56v1.65Z"/>
        <path class="cls-8" d="M115.04,119.54h-.31l.51-.77h-.67l-.81,1.29h1.02c.21,0,.39.07.55.22.15.15.24.33.27.55h-3.07c-.19,0-.33-.04-.4-.11-.06-.06-.08-.16-.08-.31v-1.64h-.57v1.94c0,.44.23.67.68.67h4.05v-.21c0-1-.39-1.54-1.17-1.62Z"/>
      </g>
    </g>
    <rect class="cls-7" x="21.79" y="85.79" width="17.29" height="16.99" transform="translate(-63.85 124.72) rotate(-90)"/>
    <rect class="cls-7" x="138.11" y="85.79" width="17.29" height="16.99" transform="translate(52.47 241.04) rotate(-90)"/>
    <rect class="cls-5" x="38.63" y="68.95" width="17.29" height="50.66"/>
  </g>
</svg>