<?xml version="1.0" encoding="UTF-8"?>
<svg id="Layer_1" data-name="Layer 1" xmlns="http://www.w3.org/2000/svg" xmlns:xlink="http://www.w3.org/1999/xlink" viewBox="0 0 180 180">
  <defs>
    <style>
      .cls-1 {
        fill: url(#linear-gradient);
      }

      .cls-1, .cls-2, .cls-3, .cls-4, .cls-5, .cls-6, .cls-7 {
        stroke-width: 0px;
      }

      .cls-2 {
        fill: url(#linear-gradient-6);
      }

      .cls-3 {
        fill: url(#linear-gradient-5);
      }

      .cls-4 {
        fill: url(#linear-gradient-2);
      }

      .cls-5 {
        fill: url(#linear-gradient-3);
      }

      .cls-6 {
        fill: #414042;
      }

      .cls-7 {
        fill: url(#linear-gradient-4);
      }
    </style>
    <linearGradient id="linear-gradient" x1="6.84" y1="87.26" x2="66.51" y2="87.26" gradientUnits="userSpaceOnUse">
      <stop offset="0" stop-color="#f720e5"/>
      <stop offset="1" stop-color="#5e147d"/>
    </linearGradient>
    <linearGradient id="linear-gradient-2" x1="47.23" y1="100.98" x2="75.39" y2="100.98" xlink:href="#linear-gradient"/>
    <linearGradient id="linear-gradient-3" x1="57.11" y1="132.58" x2="35.21" y2="91.07" gradientUnits="userSpaceOnUse">
      <stop offset="0" stop-color="#5e147d"/>
      <stop offset="1" stop-color="#f720e5"/>
    </linearGradient>
    <linearGradient id="linear-gradient-4" x1="32.94" y1="26" x2="85.05" y2="26" xlink:href="#linear-gradient"/>
    <linearGradient id="linear-gradient-5" x1="68.21" y1="37.99" x2="92.81" y2="37.99" xlink:href="#linear-gradient"/>
    <linearGradient id="linear-gradient-6" x1="76.84" y1="65.58" x2="57.71" y2="29.33" xlink:href="#linear-gradient-3"/>
  </defs>
  <g>
    <g>
      <path class="cls-1" d="M27.28,83.13c-5.44,1-13.34,1.89-20.44-1.51.99,1.23,2.88,3.3,5.73,5.18,4.06,2.67,10.97,5.49,20.79,3.77,5.34-.94,7.92.17,10.43,1.24,1.56.66,3.03,1.29,5.12,1.39,1.6.05,3.21-.65,4.92-1.4,1.69-.73,3.49-1.52,5.37-1.52,2.03,0,4.15.91,6.32,3.77.39.51.71,1.11.98,1.77-.02-.1-.04-.21-.06-.31-.07-.32-.15-.64-.24-.95-.03-.1-.06-.2-.09-.3-.07-.22-.13-.43-.2-.64-.02-.06-.04-.11-.06-.17-.09-.25-.18-.51-.28-.76,0-.02-.01-.03-.02-.05-.12-.29-.24-.57-.38-.86,0,0,0-.02-.01-.02-.14-.29-.28-.58-.43-.86,0-.01-.01-.02-.02-.04-2.03-3.78-5.36-7-9.26-9.18,0,0,0,0,0,0-.3-.17-.6-.33-.91-.48-.02-.01-.04-.02-.06-.03-.29-.14-.58-.28-.87-.42-.03-.01-.07-.03-.1-.04-.28-.13-.56-.25-.85-.36-.06-.02-.12-.04-.18-.07-.26-.1-.52-.21-.79-.3-.07-.02-.14-.05-.21-.07-.26-.09-.51-.18-.77-.25-.09-.03-.18-.05-.27-.08-.24-.07-.48-.14-.72-.2-.11-.03-.22-.05-.33-.08-.22-.05-.45-.11-.67-.16-.12-.03-.24-.04-.36-.07-.22-.04-.43-.09-.65-.12-.13-.02-.26-.04-.39-.06-.21-.03-.41-.06-.62-.09-.14-.02-.29-.03-.43-.04-.19-.02-.39-.04-.58-.05-.15-.01-.31-.01-.46-.02-.18,0-.37-.02-.55-.02-.16,0-.32,0-.49,0-.18,0-.35,0-.53,0-.16,0-.32.02-.49.03-.17.01-.35.02-.52.03-.16.01-.33.04-.49.06-.17.02-.34.03-.51.06-1.79.49-3.51,1.07-5.33,1.69-2.86.97-5.83,1.98-9.04,2.57Z"/>
      <path class="cls-4" d="M50.48,122.67c9.71-5.51,15.95-13.09,17.18-20.9.34-2.18.28-4.33-.17-6.39-1.1-4.98-4.5-9.74-9.32-13.05-3.4-2.34-7.15-3.76-10.93-4.18,2.69-.06,5.64.26,8.16.93,11.74,3.15,19.6,13.62,19.99,25.19.21,6.36-2.58,12.52-7.74,16.26-3.85,2.79-9.46,4.62-17.17,2.15Z"/>
      <path class="cls-5" d="M57.99,124.65c-2.79,0-5.4-.59-7.54-1.29-.31-.1-.6-.2-.89-.31-8.11-2.98-14.84-9.36-17.06-13.84-3.65-7.41.33-12.92,3.69-14.65,1.33-.68,2.61-.87,3.7-.84-.82-.25-1.78-.43-2.85-.43-.19,0-.38,0-.58.02-7.19.45-11.64,6.24-12.87,11.78-2.41,10.91,5.98,18.56,6.07,18.64.13.13,11.05,11.09,26.04,6.78,9.5-2.73,14.46-9.01,16.95-13.84-4.34,6.17-9.78,7.98-14.69,7.98Z"/>
    </g>
    <g>
      <path class="cls-6" d="M73.13,137.82h-10.46l1.36,4.36h1.37c-.79,1.29-1.25,2.79-1.3,4.4h0c0,2.77-2.26,5.03-5.03,5.03s-5.03-2.26-5.03-5.03v-11.49l-4.36,2.69v8.79c0,5.18,4.21,9.39,9.39,9.39,2.86,0,5.42-1.28,7.14-3.3,1.66,1.98,4.15,3.24,6.93,3.24,4.99,0,9.04-4.06,9.04-9.04s-4.06-9.04-9.04-9.04ZM73.13,151.55c-2.58,0-4.68-2.1-4.68-4.68s2.1-4.68,4.68-4.68,4.68,2.1,4.68,4.68-2.1,4.68-4.68,4.68Z"/>
      <path class="cls-6" d="M38.5,137.79h-9.18v4.36h9.18c2.58,0,4.68,2.1,4.68,4.68s-2.1,4.68-4.68,4.68h-9.18s-2.57,4.36-2.57,4.36h11.76c4.99,0,9.04-4.06,9.04-9.04s-4.06-9.04-9.04-9.04Z"/>
      <path class="cls-6" d="M22.84,146.83c0,2.58-2.1,4.68-4.68,4.68h-4.44s-2.56,4.36-2.56,4.36h6.99c4.99,0,9.04-4.06,9.04-9.04v-9.07l-4.36,1.96v7.11Z"/>
    </g>
    <g>
      <path class="cls-6" d="M19.69,165.01v-1.59l.77-.19v1.78c0,.37.31.68.68.68h1.83c.38,0,.68-.31.68-.68v-.39h-2.13v-1.45c0-.8.65-1.45,1.45-1.45h1.45v.78h-1.45c-.37,0-.68.3-.68.68v.68h2.13v1.16c0,.8-.65,1.44-1.45,1.44h-1.83c-.8,0-1.45-.64-1.45-1.44Z"/>
      <path class="cls-6" d="M24.81,165.59l.62-.41v-3.18l.77-.2v1.36c0,.38.31.68.68.68l.14.38-.14.38c-.24,0-.48-.12-.68-.31v1.28l-.96.65-.43-.65Z"/>
      <path class="cls-6" d="M26.74,164.23l.14-.38h1.22l.13.39-.13.38h-1.22l-.14-.38Z"/>
      <path class="cls-6" d="M27.97,164.23l.14-.38h1.22l.13.39-.13.38h-1.22l-.14-.38Z"/>
      <path class="cls-6" d="M29.19,164.23l.14-.38h4.42c.37,0,.68-.31.68-.68s-.31-.68-.68-.68h-4.07v-.78l2.77-1.67.41.6-1.77,1.07h2.67c.8,0,1.45.65,1.45,1.44,0,.38.3.68.68.68l.14.38-.14.38c-.42,0-.8-.19-1.05-.48-.26.29-.65.48-1.07.48h-4.42l-.14-.38ZM32.02,159.4l.16.28-1.44.87-.16-.28,1.44-.87Z"/>
      <path class="cls-6" d="M35.86,164.62l-.12-.38.13-.38h0c.37,0,.68-.31.68-.68v-1.09h.77v1.23c0,.3.24.55.54.55s.55-.25.55-.55v-1.23h.77v1.23c0,.3.25.55.55.55s.55-.25.55-.55v-1.28l.76-.19v1.47c0,.73-.58,1.32-1.31,1.32-.36,0-.71-.2-.93-.41-.23.25-.56.41-.93.41s-.75-.23-.96-.46c-.26.28-.63.46-1.03.46h-.01ZM38.02,160.61h.95v-.68l.66.21v1.1h-1.61v-.62Z"/>
      <path class="cls-6" d="M41.61,163.85h1.57v-.68c0-.38-.31-.68-.69-.68h-.73v-.77h.73c.81,0,1.45.65,1.45,1.44v1.45h-2.33v-.77Z"/>
      <path class="cls-6" d="M44.16,165.59l.62-.41v-3.18l.77-.2v1.36c0,.38.31.68.68.68l.14.38-.14.38c-.24,0-.48-.12-.68-.31v1.28l-.96.65-.43-.65Z"/>
      <path class="cls-6" d="M46.09,164.23l.14-.38h4.42c.37,0,.68-.31.68-.68s-.31-.68-.68-.68h-4.07v-.78l2.77-1.67.41.6-1.77,1.07h2.67c.8,0,1.45.65,1.45,1.44s-.65,1.45-1.45,1.45h-4.42l-.14-.38ZM48.92,159.4l.16.28-1.44.87-.16-.28,1.44-.87Z"/>
      <path class="cls-6" d="M53.5,165.27c0-.69.52-1.26,1.22-1.37l-.52-1.22v-.96h1.94c.34,0,.66.18.82.48.17.31.16.68-.04.96l-.54.68h.98l.14.38-.14.38h-2.42c-.38,0-.69.31-.69.68s.31.69.68.69h2l-.2.76h-1.81c-.84,0-1.44-.68-1.44-1.47ZM55.52,163.83l.77-1c.12-.15.01-.39-.19-.39h-1.12v.14l.55,1.25Z"/>
      <path class="cls-6" d="M57.24,164.23l.14-.38h1.22l.13.39-.13.38h-1.22l-.14-.38Z"/>
      <path class="cls-6" d="M58.46,164.23l.14-.38h1.22l.13.39-.13.38h-1.22l-.14-.38Z"/>
      <path class="cls-6" d="M59.81,164.62l-.12-.38.13-.38h0c.37,0,.68-.31.68-.68v-1.45h1.44c.8,0,1.46.65,1.46,1.45,0,.38.3.68.68.68l.12.38-.13.38c-.41,0-.79-.19-1.04-.48-.26.29-.65.48-1.08.48s-.81-.21-1.06-.5c-.25.3-.63.5-1.07.5h-.01ZM61.95,163.85c.38,0,.68-.31.68-.68s-.3-.68-.68-.68h-.68v.68c0,.38.31.68.68.68Z"/>
      <path class="cls-6" d="M64.06,164.62l-.13-.38.13-.38h0c.37,0,.68-.31.68-.68v-1.17l.76-.19v1.36c0,.38.31.68.68.68l.14.38-.14.38c-.43,0-.82-.2-1.07-.5-.25.31-.63.5-1.06.5h0ZM64,160.45h1.61v.63h-1.61v-.63Z"/>
      <path class="cls-6" d="M66.06,164.23l.14-.38h2.59v-.68c0-.38-.31-.68-.68-.68h-1.36l.18-.77h1.17c.8,0,1.45.65,1.45,1.44v.68h.42l.13.38-.13.38h-3.78l-.14-.38ZM67.56,165.31h.71v.65h-.71v-.65Z"/>
      <path class="cls-6" d="M69.96,164.62l-.12-.38.13-.38h0c.37,0,.68-.31.68-.68v-1.45h1.44c.8,0,1.46.65,1.46,1.45s-.65,1.45-1.46,1.45c-.43,0-.81-.21-1.06-.5-.25.3-.63.5-1.07.5h-.01ZM72.1,163.85c.38,0,.68-.31.68-.68s-.3-.68-.68-.68h-.68v.68c0,.38.31.68.68.68Z"/>
    </g>
  </g>
  <g>
    <g>
      <path class="cls-7" d="M50.78,22.39c-4.75.88-11.65,1.65-17.85-1.32.86,1.08,2.51,2.88,5.01,4.52,3.55,2.33,9.58,4.8,18.16,3.3,4.66-.82,6.92.15,9.11,1.08,1.36.58,2.65,1.13,4.47,1.21,1.39.04,2.81-.57,4.3-1.22,1.48-.64,3.05-1.32,4.69-1.32,1.77,0,3.62.8,5.52,3.3.34.45.62.97.85,1.55-.02-.09-.03-.18-.05-.27-.06-.28-.13-.56-.21-.83-.02-.09-.05-.17-.08-.26-.06-.19-.11-.38-.18-.56-.02-.05-.04-.1-.05-.15-.08-.22-.16-.44-.25-.66,0-.01-.01-.03-.02-.04-.1-.25-.21-.5-.33-.75,0,0,0-.01-.01-.02-.12-.25-.25-.51-.38-.75,0-.01-.01-.02-.02-.03-1.78-3.31-4.68-6.12-8.09-8.02,0,0,0,0,0,0-.26-.15-.53-.29-.79-.42-.02,0-.04-.02-.05-.03-.25-.13-.5-.25-.76-.36-.03-.01-.06-.02-.09-.04-.25-.11-.49-.22-.74-.32-.05-.02-.1-.04-.15-.06-.23-.09-.46-.18-.69-.26-.06-.02-.12-.04-.18-.06-.22-.08-.45-.15-.67-.22-.08-.02-.16-.04-.23-.07-.21-.06-.42-.12-.63-.18-.1-.02-.19-.04-.29-.07-.19-.05-.39-.1-.58-.14-.1-.02-.21-.04-.31-.06-.19-.04-.38-.08-.57-.11-.11-.02-.23-.03-.34-.05-.18-.03-.36-.05-.54-.08-.12-.01-.25-.02-.37-.03-.17-.02-.34-.04-.51-.05-.13,0-.27-.01-.4-.02-.16,0-.32-.02-.48-.02-.14,0-.28,0-.42,0-.15,0-.31,0-.46,0-.14,0-.28.02-.43.03-.15,0-.31.01-.46.03-.14.01-.29.03-.43.05-.15.02-.3.03-.44.05-1.56.43-3.06.94-4.66,1.48-2.5.85-5.09,1.73-7.89,2.25Z"/>
      <path class="cls-3" d="M71.05,56.93c8.48-4.81,13.93-11.44,15-18.25.3-1.91.25-3.78-.15-5.58-.96-4.35-3.93-8.5-8.14-11.4-2.97-2.04-6.24-3.28-9.54-3.65,2.35-.05,4.92.22,7.13.81,10.25,2.75,17.12,11.9,17.46,22,.19,5.56-2.25,10.94-6.76,14.2-3.36,2.44-8.26,4.04-15,1.88Z"/>
      <path class="cls-2" d="M77.61,58.66c-2.44,0-4.72-.51-6.58-1.13-.27-.09-.52-.18-.77-.27-7.09-2.6-12.97-8.17-14.9-12.09-3.19-6.47.29-11.28,3.23-12.8,1.16-.6,2.28-.76,3.23-.73-.72-.21-1.56-.37-2.49-.37-.17,0-.33,0-.5.02-6.28.39-10.17,5.45-11.24,10.29-2.11,9.53,5.23,16.21,5.3,16.28.11.11,9.65,9.69,22.75,5.92,8.3-2.39,12.63-7.87,14.8-12.08-3.79,5.39-8.55,6.97-12.83,6.97Z"/>
    </g>
    <g>
      <path class="cls-6" d="M155.08,34.44h-10.46l1.36,4.36h1.37c-.79,1.29-1.25,2.79-1.3,4.4h0c0,2.77-2.26,5.03-5.03,5.03s-5.03-2.26-5.03-5.03v-11.49l-4.36,2.69v8.79c0,5.18,4.21,9.39,9.39,9.39,2.86,0,5.42-1.28,7.14-3.3,1.66,1.98,4.15,3.24,6.93,3.24,4.99,0,9.04-4.06,9.04-9.04s-4.06-9.04-9.04-9.04ZM155.08,48.17c-2.58,0-4.68-2.1-4.68-4.68s2.1-4.68,4.68-4.68,4.68,2.1,4.68,4.68-2.1,4.68-4.68,4.68Z"/>
      <path class="cls-6" d="M120.45,34.41h-9.18v4.36h9.18c2.58,0,4.68,2.1,4.68,4.68s-2.1,4.68-4.68,4.68h-9.18s-2.57,4.36-2.57,4.36h11.76c4.99,0,9.04-4.06,9.04-9.04s-4.06-9.04-9.04-9.04Z"/>
      <path class="cls-6" d="M104.79,43.45c0,2.58-2.1,4.68-4.68,4.68h-4.44s-2.56,4.36-2.56,4.36h6.99c4.99,0,9.04-4.06,9.04-9.04v-9.07l-4.36,1.96v7.11Z"/>
    </g>
    <g>
      <path class="cls-6" d="M101.64,61.63v-1.59l.77-.19v1.78c0,.37.31.68.68.68h1.83c.38,0,.68-.31.68-.68v-.39h-2.13v-1.45c0-.8.65-1.45,1.45-1.45h1.45v.78h-1.45c-.37,0-.68.3-.68.68v.68h2.13v1.16c0,.8-.65,1.44-1.45,1.44h-1.83c-.8,0-1.45-.64-1.45-1.44Z"/>
      <path class="cls-6" d="M106.76,62.21l.62-.41v-3.18l.77-.2v1.36c0,.38.31.68.68.68l.14.38-.14.38c-.24,0-.48-.12-.68-.31v1.28l-.96.65-.43-.65Z"/>
      <path class="cls-6" d="M108.69,60.85l.14-.38h1.22l.13.39-.13.38h-1.22l-.14-.38Z"/>
      <path class="cls-6" d="M109.91,60.85l.14-.38h1.22l.13.39-.13.38h-1.22l-.14-.38Z"/>
      <path class="cls-6" d="M111.14,60.85l.14-.38h4.42c.37,0,.68-.31.68-.68s-.31-.68-.68-.68h-4.07v-.78l2.77-1.67.41.6-1.77,1.07h2.67c.8,0,1.45.65,1.45,1.44,0,.38.3.68.68.68l.14.38-.14.38c-.42,0-.8-.19-1.05-.48-.26.29-.65.48-1.07.48h-4.42l-.14-.38ZM113.97,56.02l.16.28-1.44.87-.16-.28,1.44-.87Z"/>
      <path class="cls-6" d="M117.81,61.23l-.12-.38.13-.38h0c.37,0,.68-.31.68-.68v-1.09h.77v1.23c0,.3.24.55.54.55s.55-.25.55-.55v-1.23h.77v1.23c0,.3.25.55.55.55s.55-.25.55-.55v-1.28l.76-.19v1.47c0,.73-.58,1.32-1.31,1.32-.36,0-.71-.2-.93-.41-.23.25-.56.41-.93.41s-.75-.23-.96-.46c-.26.28-.63.46-1.03.46h-.01ZM119.97,57.22h.95v-.68l.66.21v1.1h-1.61v-.62Z"/>
      <path class="cls-6" d="M123.56,60.47h1.57v-.68c0-.38-.31-.68-.69-.68h-.73v-.77h.73c.81,0,1.45.65,1.45,1.44v1.45h-2.33v-.77Z"/>
      <path class="cls-6" d="M126.11,62.21l.62-.41v-3.18l.77-.2v1.36c0,.38.31.68.68.68l.14.38-.14.38c-.24,0-.48-.12-.68-.31v1.28l-.96.65-.43-.65Z"/>
      <path class="cls-6" d="M128.04,60.85l.14-.38h4.42c.37,0,.68-.31.68-.68s-.31-.68-.68-.68h-4.07v-.78l2.77-1.67.41.6-1.77,1.07h2.67c.8,0,1.45.65,1.45,1.44s-.65,1.45-1.45,1.45h-4.42l-.14-.38ZM130.87,56.02l.16.28-1.44.87-.16-.28,1.44-.87Z"/>
      <path class="cls-6" d="M135.45,61.89c0-.69.52-1.26,1.22-1.37l-.52-1.22v-.96h1.94c.34,0,.66.18.82.48.17.31.16.68-.04.96l-.54.68h.98l.14.38-.14.38h-2.42c-.38,0-.69.31-.69.68s.31.69.68.69h2l-.2.76h-1.81c-.84,0-1.44-.68-1.44-1.47ZM137.47,60.45l.77-1c.12-.15.01-.39-.19-.39h-1.12v.14l.55,1.25Z"/>
      <path class="cls-6" d="M139.19,60.85l.14-.38h1.22l.13.39-.13.38h-1.22l-.14-.38Z"/>
      <path class="cls-6" d="M140.41,60.85l.14-.38h1.22l.13.39-.13.38h-1.22l-.14-.38Z"/>
      <path class="cls-6" d="M141.76,61.23l-.12-.38.13-.38h0c.37,0,.68-.31.68-.68v-1.45h1.44c.8,0,1.46.65,1.46,1.45,0,.38.3.68.68.68l.12.38-.13.38c-.41,0-.79-.19-1.04-.48-.26.29-.65.48-1.08.48s-.81-.21-1.06-.5c-.25.3-.63.5-1.07.5h-.01ZM143.9,60.47c.38,0,.68-.31.68-.68s-.3-.68-.68-.68h-.68v.68c0,.38.31.68.68.68Z"/>
      <path class="cls-6" d="M146.01,61.23l-.13-.38.13-.38h0c.37,0,.68-.31.68-.68v-1.17l.76-.19v1.36c0,.38.31.68.68.68l.14.38-.14.38c-.43,0-.82-.2-1.07-.5-.25.31-.63.5-1.06.5h0ZM145.95,57.07h1.61v.63h-1.61v-.63Z"/>
      <path class="cls-6" d="M148.01,60.85l.14-.38h2.59v-.68c0-.38-.31-.68-.68-.68h-1.36l.18-.77h1.17c.8,0,1.45.65,1.45,1.44v.68h.42l.13.38-.13.38h-3.78l-.14-.38ZM149.51,61.92h.71v.65h-.71v-.65Z"/>
      <path class="cls-6" d="M151.91,61.23l-.12-.38.13-.38h0c.37,0,.68-.31.68-.68v-1.45h1.44c.8,0,1.46.65,1.46,1.45s-.65,1.45-1.46,1.45c-.43,0-.81-.21-1.06-.5-.25.3-.63.5-1.07.5h-.01ZM154.05,60.47c.38,0,.68-.31.68-.68s-.3-.68-.68-.68h-.68v.68c0,.38.31.68.68.68Z"/>
    </g>
  </g>
</svg>