<?xml version="1.0" encoding="UTF-8"?>
<svg id="Isolation_Mode" data-name="Isolation Mode" xmlns="http://www.w3.org/2000/svg" viewBox="0 0 180 180">
  <defs>
    <style>
      .cls-1 {
        fill: #414042;
      }

      .cls-1, .cls-2 {
        stroke-width: 0px;
      }

      .cls-2 {
        fill: #39b54a;
      }
    </style>
  </defs>
  <path class="cls-2" d="M80.13,122.46h-43.38c-4,0-7.24-3.24-7.24-7.24v-15.22l10.07-7.79v17.58c0,1.43,1.16,2.6,2.6,2.6h32.52c1.43,0,2.6-1.16,2.6-2.6v-21.56c0-.8-.37-1.56-1.01-2.06l-16.25-12.55c-.94-.72-2.24-.72-3.18,0l-37.45,29.01v-12.77l34.61-26.78c2.6-2.02,6.24-2.02,8.85,0l21.69,16.75c1.77,1.37,2.81,3.49,2.81,5.73v29.66c0,4-3.24,7.24-7.24,7.24"/>
  <path class="cls-2" d="M157.8,116.77c0,.47-.38.86-.86.86h-10.76c-.48,0-.86-.39-.86-.86v-7.1c0-.28.13-.54.35-.71l5.37-4.16c.31-.24.74-.24,1.05,0l5.38,4.15c.21.16.33.41.33.68v7.14Z"/>
  <path class="cls-1" d="M97.13,98.89l-.17-6.46c0-.05.07-.07.09-.02l3.45,8.98s.04.05.08.05h2.21s-4.82-12.83-4.82-12.83c-.1-.27-.36-.45-.66-.45h-2.08c-.39,0-.7.31-.7.7v13.07h2.61v-3.05Z"/>
  <path class="cls-1" d="M97.13,98.89l-.17-6.46c0-.05.07-.07.09-.02l3.45,8.98s.04.05.08.05h2.21s-4.82-12.83-4.82-12.83c-.1-.27-.36-.45-.66-.45h-2.08c-.39,0-.7.31-.7.7v13.07h2.61v-3.05Z"/>
  <path class="cls-1" d="M156.44,89.25h0c-.89-.72-2.12-1.09-3.67-1.09h-4.4c-.39,0-.7.31-.7.7v13.07h2.63v-11.66h2.44c.79,0,1.41.2,1.83.59.42.4.63.93.63,1.64s-.2,1.19-.6,1.59c-.4.39-.95.59-1.67.59h-2.24v2.14h2.34c1.51,0,2.92-.64,3.86-1.75l.04-.05c.07-.08.13-.16.18-.25.46-.67.69-1.5.69-2.45,0-1.3-.46-2.33-1.35-3.06"/>
  <path class="cls-1" d="M156.44,89.25h0c-.89-.72-2.12-1.09-3.67-1.09h-4.4c-.39,0-.7.31-.7.7v13.07h2.63v-11.66h2.44c.79,0,1.41.2,1.83.59.42.4.63.93.63,1.64s-.2,1.19-.6,1.59c-.4.39-.95.59-1.67.59h-2.24v2.14h2.34c1.51,0,2.92-.64,3.86-1.75l.04-.05c.07-.08.13-.16.18-.25.46-.67.69-1.5.69-2.45,0-1.3-.46-2.33-1.35-3.06"/>
  <polygon class="cls-1" points="152.38 97.27 154.91 101.94 157.8 101.94 155.11 97.27 152.38 97.27"/>
  <polygon class="cls-1" points="152.38 97.27 154.91 101.94 157.8 101.94 155.11 97.27 152.38 97.27"/>
  <path class="cls-1" d="M130.45,88.89c-.94-.48-1.93-.73-2.97-.73h-3.57c-.39,0-.7.31-.7.7v10.49h2.61v-9.08h1.68c1.23.04,2.11.45,2.67,1.26.57.82.86,1.83.86,3.01v1c0,.97-.17,1.78-.51,2.42-.33.63-.77,1.09-1.3,1.39-.53.3-1.1.45-1.69.45h-4.31v2.13h4.35c1.16,0,2.22-.28,3.14-.82.92-.54,1.65-1.31,2.17-2.28.52-.97.78-2.08.78-3.3v-.94c0-1.37-.3-2.55-.89-3.51-.59-.97-1.37-1.7-2.3-2.19"/>
  <path class="cls-1" d="M130.45,88.89c-.94-.48-1.93-.73-2.97-.73h-3.57c-.39,0-.7.31-.7.7v10.49h2.61v-9.08h1.68c1.23.04,2.11.45,2.67,1.26.57.82.86,1.83.86,3.01v1c0,.97-.17,1.78-.51,2.42-.33.63-.77,1.09-1.3,1.39-.53.3-1.1.45-1.69.45h-4.31v2.13h4.35c1.16,0,2.22-.28,3.14-.82.92-.54,1.65-1.31,2.17-2.28.52-.97.78-2.08.78-3.3v-.94c0-1.37-.3-2.55-.89-3.51-.59-.97-1.37-1.7-2.3-2.19"/>
  <path class="cls-1" d="M106.01,101.94h2.62v-13.21c0-.31-.25-.57-.57-.57h-2.23c-.29,0-.56.18-.66.46l-3.34,9.04,1.11,2.98,3.13-8.22s.09-.03.09.02l-.16,6.5v3Z"/>
  <path class="cls-1" d="M106.01,101.94h2.62v-13.21c0-.31-.25-.57-.57-.57h-2.23c-.29,0-.56.18-.66.46l-3.34,9.04,1.11,2.98,3.13-8.22s.09-.03.09.02l-.16,6.5v3Z"/>
  <path class="cls-1" d="M118.31,98.64l1.11,3.3h2.83l-4.97-13.31c-.11-.28-.38-.46-.68-.46l-1.55.04c-.29,0-.54.19-.64.46l-4.79,13.26h2.8l1.22-3.64s.03-.02.04-.03h4.03l-.72-2.13h-2.56s-.05-.03-.04-.06l1.53-4.55,2.4,7.11Z"/>
  <path class="cls-1" d="M118.31,98.64l1.11,3.3h2.83l-4.97-13.31c-.11-.28-.38-.46-.68-.46l-1.55.04c-.29,0-.54.19-.64.46l-4.79,13.26h2.8l1.22-3.64s.03-.02.04-.03h4.03l-.72-2.13h-2.56s-.05-.03-.04-.06l1.53-4.55,2.4,7.11Z"/>
  <path class="cls-1" d="M134.69,105.12v11.62c0,.39.31.7.7.7h8v-2.02h-6.23v-9h6.25v-2h-8.01c-.39,0-.7.31-.7.7"/>
  <path class="cls-1" d="M134.69,105.12v11.62c0,.39.31.7.7.7h8v-2.02h-6.23v-9h6.25v-2h-8.01c-.39,0-.7.31-.7.7"/>
  <rect class="cls-1" x="137.57" y="109.76" width="4.95" height="1.98"/>
  <rect class="cls-1" x="137.57" y="109.76" width="4.95" height="1.98"/>
  <path class="cls-1" d="M114.89,104.99c-.82-.51-1.78-.77-2.85-.77s-2.09.27-2.92.8c-.82.53-1.46,1.27-1.89,2.21-.43.93-.64,2-.64,3.19v1.11c0,1.18.23,2.24.68,3.16.31.63.72,1.18,1.23,1.63l.07.07,1.57-1.57-.07-.07c-.07-.07-.13-.15-.19-.23-.53-.72-.8-1.76-.8-3.08v-1.25c0-1.25.27-2.22.79-2.89.52-.66,1.23-.99,2.16-.99s1.65.34,2.16,1.05c.52.71.79,1.74.79,3.06v1.04c0,1.31-.27,2.34-.79,3.07-.52.71-1.22,1.06-2.16,1.06-.61,0-1.13-.16-1.57-.48l-1.56,1.56.05.03s.05.04.08.06c.05.04.1.08.16.11.82.51,1.78.77,2.84.77s2.04-.26,2.85-.77c.82-.51,1.46-1.24,1.91-2.18.45-.93.68-2.02.68-3.25v-1.05c0-1.2-.23-2.28-.68-3.2-.45-.93-1.1-1.66-1.91-2.17"/>
  <path class="cls-1" d="M114.89,104.99c-.82-.51-1.78-.77-2.85-.77s-2.09.27-2.92.8c-.82.53-1.46,1.27-1.89,2.21-.43.93-.64,2-.64,3.19v1.11c0,1.18.23,2.24.68,3.16.31.63.72,1.18,1.23,1.63l.07.07,1.57-1.57-.07-.07c-.07-.07-.13-.15-.19-.23-.53-.72-.8-1.76-.8-3.08v-1.25c0-1.25.27-2.22.79-2.89.52-.66,1.23-.99,2.16-.99s1.65.34,2.16,1.05c.52.71.79,1.74.79,3.06v1.04c0,1.31-.27,2.34-.79,3.07-.52.71-1.22,1.06-2.16,1.06-.61,0-1.13-.16-1.57-.48l-1.56,1.56.05.03s.05.04.08.06c.05.04.1.08.16.11.82.51,1.78.77,2.84.77s2.04-.26,2.85-.77c.82-.51,1.46-1.24,1.91-2.18.45-.93.68-2.02.68-3.25v-1.05c0-1.2-.23-2.28-.68-3.2-.45-.93-1.1-1.66-1.91-2.17"/>
  <path class="cls-1" d="M142.8,98.64l1.11,3.3h2.83l-4.97-13.31c-.11-.28-.38-.46-.68-.46l-1.55.04c-.29,0-.54.19-.64.46l-4.79,13.26h2.8l1.22-3.64s.03-.02.04-.03h4.03l-.72-2.13h-2.56s-.05-.03-.04-.06l1.53-4.55,2.4,7.11Z"/>
  <path class="cls-1" d="M142.8,98.64l1.11,3.3h2.83l-4.97-13.31c-.11-.28-.38-.46-.68-.46l-1.55.04c-.29,0-.54.19-.64.46l-4.79,13.26h2.8l1.22-3.64s.03-.02.04-.03h4.03l-.72-2.13h-2.56s-.05-.03-.04-.06l1.53-4.55,2.4,7.11Z"/>
  <path class="cls-1" d="M121.65,114.55l-.16-6.11s.07-.06.08-.02l3.26,8.48s.04.05.07.05h2.09s-4.55-12.09-4.55-12.09c-.1-.27-.36-.45-.66-.45h-1.9c-.39,0-.7.31-.7.7v12.31h2.46v-2.88Z"/>
  <path class="cls-1" d="M121.65,114.55l-.16-6.11s.07-.06.08-.02l3.26,8.48s.04.05.07.05h2.09s-4.55-12.09-4.55-12.09c-.1-.27-.36-.45-.66-.45h-1.9c-.39,0-.7.31-.7.7v12.31h2.46v-2.88Z"/>
  <path class="cls-1" d="M130.05,117.43h2.48v-12.5c0-.29-.23-.52-.52-.52h-2.1c-.29,0-.56.18-.66.46l-3.15,8.51,1.05,2.81,2.96-7.76s.09-.03.08.02l-.15,6.14v2.84Z"/>
  <path class="cls-1" d="M130.05,117.43h2.48v-12.5c0-.29-.23-.52-.52-.52h-2.1c-.29,0-.56.18-.66.46l-3.15,8.51,1.05,2.81,2.96-7.76s.09-.03.08.02l-.15,6.14v2.84Z"/>
  <path class="cls-1" d="M96.98,109.71l-.02-4.6c0-.39-.32-.7-.7-.7h-1.04c-.39,0-.7.31-.7.7v12.32h2.46v-5.62s.02-.04.04-.04h5v-2.02h-5s-.03-.03-.04-.04"/>
  <path class="cls-1" d="M96.98,109.71l-.02-4.6c0-.39-.32-.7-.7-.7h-1.04c-.39,0-.7.31-.7.7v12.32h2.46v-5.62s.02-.04.04-.04h5v-2.02h-5s-.03-.03-.04-.04"/>
  <path class="cls-1" d="M103.15,104.41c-.39,0-.7.31-.7.7v12.32h2.44v-12.32c0-.39-.31-.7-.7-.7h-1.04Z"/>
  <path class="cls-1" d="M103.15,104.41c-.39,0-.7.31-.7.7v12.32h2.44v-12.32c0-.39-.31-.7-.7-.7h-1.04Z"/>
</svg>