<?xml version="1.0" encoding="UTF-8"?>
<svg id="Isolation_Mode" data-name="Isolation Mode" xmlns="http://www.w3.org/2000/svg" viewBox="0 0 180 180">
  <defs>
    <style>
      .cls-1 {
        fill: #606060;
      }

      .cls-1, .cls-2, .cls-3 {
        stroke-width: 0px;
      }

      .cls-2 {
        fill: #f7941d;
      }

      .cls-3 {
        fill: #7700c4;
      }
    </style>
  </defs>
  <polygon class="cls-3" points="79.56 103.06 56.98 80.47 79.56 80.47 79.56 103.06"/>
  <polygon class="cls-3" points="124.72 57.89 102.14 57.89 102.14 35.31 124.72 57.89"/>
  <rect class="cls-3" x="102.14" y="57.89" width="22.58" height="22.58"/>
  <rect class="cls-3" x="102.14" y="80.47" width="22.58" height="22.58"/>
  <rect class="cls-3" x="56.98" y="57.89" width="22.58" height="22.58"/>
  <rect class="cls-3" x="79.56" y="80.47" width="22.58" height="22.58"/>
  <rect class="cls-3" x="79.56" y="35.31" width="22.58" height="22.58"/>
  <rect class="cls-2" x="34.4" y="35.31" width="22.58" height="22.58"/>
  <path class="cls-1" d="M68.57,123.07c-.73-.43-1.54-.65-2.41-.65h-6.25v-5.85l-3.57.89v10.99h-.03l-2.95,3.57h12.83c.87,0,1.68-.22,2.41-.65.73-.43,1.31-1.01,1.73-1.75.42-.73.64-1.54.64-2.41s-.22-1.68-.65-2.41c-.43-.73-1.01-1.32-1.75-1.75M67.05,128.1c-.24.24-.53.36-.87.36h-6.27v-2.46h6.25c.35,0,.65.12.89.36.24.24.36.53.36.87s-.12.63-.36.87"/>
  <rect class="cls-1" x="102.88" y="117.65" width="7.1" height="3.4"/>
  <path class="cls-1" d="M102.76,123.07c-.74.43-1.33,1.02-1.76,1.76s-.65,1.54-.65,2.4c0,.25.04.5.11.74.07.24.12.4.13.49h-1.29c-.32,0-.61-.12-.85-.36-.24-.24-.36-.53-.36-.87v-4.72l-3.57.87v3.93c0,.32-.11.59-.33.82-.22.22-.49.33-.8.33s-.59-.11-.82-.33c-.22-.22-.33-.49-.33-.82v-3.89h-3.57v3.89c0,.32-.11.59-.33.82-.22.22-.49.33-.82.33s-.57-.11-.8-.33c-.22-.22-.33-.49-.33-.82v-3.89h-3.57v3.81c0,.33-.12.62-.36.87-.24.24-.53.36-.87.36h-3.95c-.35,0-.65-.12-.89-.36-.24-.24-.36-.53-.36-.87v-9.81l-3.57.89v8.92c0,.86.22,1.66.65,2.4.43.74,1.02,1.33,1.76,1.76.74.43,1.55.65,2.42.65h3.95c1.1,0,2.1-.36,2.99-1.07.4.32.86.58,1.38.78.52.2,1.04.29,1.56.29s1.06-.09,1.57-.27c.51-.18.97-.43,1.37-.76.42.32.87.57,1.37.76.5.18,1.02.27,1.55.27s1.06-.09,1.56-.27c.51-.18.97-.44,1.38-.78.4.34.86.59,1.37.78.51.18,1.04.27,1.59.27h10.67v-9.6h-4.82c-.86,0-1.66.22-2.4.65M106.39,128.46h-1.23c-.34,0-.63-.12-.87-.36-.24-.24-.36-.53-.36-.87s.12-.63.36-.87c.24-.24.53-.36.87-.36h1.23v2.46Z"/>
  <polygon class="cls-1" points="111.82 132.03 115.41 132.03 115.41 117.42 111.82 118.31 111.82 132.03"/>
  <rect class="cls-1" x="119.33" y="117.62" width="3.52" height="3.44"/>
  <path class="cls-1" d="M146.87,124.83c-.44-.74-1.02-1.33-1.77-1.76-.74-.43-1.54-.65-2.4-.65h-6.92l4.01-2.3-1.8-2.66-8.78,4.96v3.57h13.48c.35,0,.64.12.88.35.24.24.35.53.35.88s-.12.63-.35.87c-.24.24-.53.36-.88.36h-18.4c-.35,0-.64-.12-.89-.36-.24-.24-.36-.53-.36-.87v-4.74l-3.57.91v9.75l-2.02,1.35-.05,4.99,5.64-4.45v-3.01s.85,0,1.23,0h0s3.95,0,3.95,0h14.47c.86,0,1.66-.21,2.4-.64.74-.43,1.33-1.02,1.77-1.76.44-.74.66-1.54.66-2.4s-.22-1.66-.66-2.4"/>
  <path class="cls-1" d="M164.47,124.81c-.43-.74-1.01-1.33-1.75-1.76-.73-.43-1.54-.65-2.41-.65h-4.8v4.82c0,.34-.12.63-.37.87-.25.24-.54.36-.87.36-.34,0-.64-.12-.88-.36-.18-.18-.27-.38-.31-.61v-5h-.05s0,0,0,0l-3.57.91v9.75l-2.02,1.35.05.08-.05,4.92,5.64-4.45v-3.44c.39.27.77.41,1.12.43h0s.06,0,.06,0c0,0,0,0,.01,0,0,0,0,0,0,0h0c.56,0,1.09-.1,1.6-.3.52-.2.99-.48,1.4-.83.42.35.88.63,1.4.83.52.2,1.06.3,1.62.3.87,0,1.68-.22,2.41-.66.73-.44,1.32-1.02,1.75-1.76.43-.73.65-1.53.65-2.39s-.22-1.68-.65-2.42M161.18,128.1c-.24.24-.53.36-.87.36s-.63-.12-.87-.36c-.24-.24-.36-.53-.36-.87v-1.25h1.23c.35,0,.64.12.88.36.23.24.35.54.35.89s-.12.63-.36.87"/>
  <path class="cls-2" d="M47.85,121.34h-3.56l-3.56,3.56v3.56h-1.31s-2.81,0-2.81,0c-.35,0-.64-.12-.89-.36-.24-.24-.36-.53-.36-.87v-9.8l-3.57.89v8.92c0,.86.21,1.66.64,2.4s1.02,1.33,1.76,1.76c.74.43,1.55.64,2.42.64h11.24l3.56-3.56v-7.13h-3.56ZM47.85,128.47h-3.56v-3.56h3.56v3.56Z"/>
  <path class="cls-2" d="M27.56,123.07c-.73-.43-1.54-.65-2.41-.65h-2.81v3.57h2.81c.35,0,.64.12.88.35.24.24.35.53.35.88v1.23h-4.14v3.57h7.69v-4.8c0-.87-.21-1.68-.64-2.41-.42-.73-1-1.32-1.73-1.75"/>
  <polygon class="cls-2" points="16.9 133.14 14.89 134.49 14.84 139.48 20.47 135.03 20.47 122.49 16.9 123.4 16.9 133.14"/>
</svg>