<?xml version="1.0" encoding="UTF-8"?>
<svg id="Layer_1" data-name="Layer 1" xmlns="http://www.w3.org/2000/svg" viewBox="0 0 180 180">
  <defs>
    <style>
      .cls-1 {
        fill: #f6aa3a;
      }

      .cls-1, .cls-2 {
        stroke-width: 0px;
      }
    </style>
  </defs>
  <g>
    <g>
      <path class="cls-2" d="M127.09,135.97h3.73v5.08h13.67v-4.98h9.09v8.63h-3.65v-4.93h-1.77v4.96h-25.63v3.64h-12.43v-12.38h3.61v8.72h5.16v-8.73h3.66v5.07h4.58v-5.09Z"/>
      <path class="cls-2" d="M61.82,144.74h-3.81v-4.91h-1.63v4.91h-13.73v-12.45h3.73v8.66h6.21v-4.89h9.24v8.68Z"/>
      <path class="cls-2" d="M64.33,135.97h3.64v8.74h5.14v-8.72h3.63v12.38h-12.41v-12.39Z"/>
      <path class="cls-2" d="M92.06,141.08h15.46v3.62h-19.08v-12.34h3.63v8.72Z"/>
      <path class="cls-2" d="M41.22,136.08v8.66h-9.12v-3.63h5.34v-1.26h-5.33v-3.76h9.11Z"/>
      <path class="cls-2" d="M127,134.77v-3.57h14.05v3.57h-14.05Z"/>
      <path class="cls-2" d="M26.98,135.88h3.72v12.55h-3.72v-12.55Z"/>
      <path class="cls-2" d="M81.87,144.71h-3.62v-12.34h3.62v12.34Z"/>
      <path class="cls-2" d="M83.38,137.34h3.6v11.04h-3.6v-11.04Z"/>
      <path class="cls-2" d="M68.72,139.57v-3.58h3.61v3.58h-3.61Z"/>
      <path class="cls-2" d="M114.49,135.98h3.58v3.61h-3.58v-3.61Z"/>
      <path class="cls-2" d="M86.98,132.36v3.58h-3.61v-3.58h3.61Z"/>
    </g>
    <path class="cls-2" d="M31.13,156.01h-.92v-2.42c-.43.48-.77.87-1.15,1.29-.37-.42-.71-.8-1.12-1.26v2.38h-.95v-3.84c.44-.08.84-.13,1.16.34.25.37.58.68.91,1.06.29-.33.59-.62.82-.95.31-.46.71-.6,1.26-.45v3.84Z"/>
    <path class="cls-2" d="M90.52,152.16h.98v3.84c-.47.11-.84.07-1.17-.36-.53-.69-1.12-1.32-1.77-2.06v2.44h-.97v-3.84c.48-.08.89-.09,1.25.38.49.66,1.07,1.25,1.67,1.94v-2.33Z"/>
    <path class="cls-2" d="M150.64,153.53v2.48h-.93v-3.83c.47-.09.88-.12,1.24.36.5.66,1.09,1.26,1.7,1.97v-2.35h.9v3.83c-.45.11-.79.04-1.1-.36-.54-.69-1.14-1.34-1.81-2.11Z"/>
    <path class="cls-2" d="M81.74,156.09c-1.49,0-2.52-1.2-2.16-2.5.26-.93,1.16-1.54,2.24-1.51,1.09.03,1.93.68,2.13,1.65.26,1.26-.78,2.37-2.21,2.36ZM81.76,155.28c.73,0,1.23-.48,1.23-1.19,0-.71-.49-1.19-1.22-1.2-.75,0-1.26.49-1.25,1.21,0,.7.51,1.17,1.25,1.17Z"/>
    <path class="cls-2" d="M143.85,156.08c-.9-.02-1.63-.35-2.04-1.2-.34-.72-.22-1.4.27-2.01.85-1.06,2.72-1.06,3.57-.01.48.59.61,1.26.3,1.97-.34.77-.97,1.14-1.78,1.25-.1.01-.21,0-.31,0ZM143.87,155.28c.73,0,1.23-.49,1.23-1.19,0-.7-.5-1.19-1.23-1.19-.75,0-1.26.49-1.25,1.21.01.7.51,1.17,1.25,1.17Z"/>
    <path class="cls-2" d="M42.25,152.1c.82.04,1.6,0,2.36.14.97.16,1.51.92,1.5,1.9-.01.97-.54,1.67-1.52,1.82-.76.12-1.54.08-2.34.12v-3.97ZM43.23,155.32c.65,0,1.3.12,1.69-.52.28-.47.29-.98-.01-1.44-.41-.61-1.04-.51-1.68-.48v2.45Z"/>
    <path class="cls-2" d="M57.71,154.5v1.5h-.96v-3.84c.69,0,1.37-.04,2.05.01.48.04.81.37.92.86.13.53-.14.88-.51,1.12.32.62.63,1.21.97,1.88-.35,0-.63.03-.91-.01-.11-.02-.24-.14-.31-.26-.17-.3-.3-.62-.45-.92-.16-.32-.41-.46-.8-.34ZM57.72,153.85c.38-.14.69-.22.97-.37.06-.03.04-.4-.03-.43-.29-.12-.6-.18-.95-.27v1.07Z"/>
    <path class="cls-2" d="M109.55,154.51v1.5h-.94v-3.8c.72,0,1.44-.05,2.16.02.45.04.73.4.81.85.09.47-.06.74-.52,1.09.31.59.61,1.18.91,1.77-.75.27-1.02.16-1.32-.49-.09-.2-.2-.4-.3-.6-.17-.32-.42-.46-.81-.33ZM109.56,153.85c.38-.14.7-.22.98-.37.06-.03.04-.4-.03-.43-.29-.12-.6-.18-.95-.27v1.07Z"/>
    <path class="cls-2" d="M118.06,152.15h.89c0,.95,0,1.88,0,2.81,0,.03-.01.06-.02.09-.26.74-1.01,1.11-2.13,1.04-.89-.06-1.54-.51-1.61-1.28-.08-.86-.02-1.73-.02-2.63h.92c0,.69,0,1.37,0,2.05,0,.7.35,1.06.99,1.05.62,0,.97-.37.97-1.03,0-.69,0-1.37,0-2.1Z"/>
    <path class="cls-2" d="M34.47,156.04c.52-1.29,1-2.51,1.51-3.72.04-.09.19-.17.3-.18.22-.03.45-.03.67,0,.11.01.26.1.3.19.55,1.21,1.08,2.42,1.66,3.71-.28,0-.5-.01-.71,0-.24.02-.41-.06-.46-.31-.08-.4-.33-.52-.71-.47-.18.03-.36.02-.54,0-.45-.05-.82.01-.92.56-.02.09-.21.19-.33.2-.23.03-.47,0-.76,0ZM36.63,153.08c-.2.53-.37.99-.55,1.47h1.17c-.21-.5-.39-.95-.61-1.47Z"/>
    <path class="cls-2" d="M53.4,156.04c-.32,0-.59.03-.85-.01-.12-.02-.28-.17-.31-.3-.11-.39-.34-.52-.73-.46-.18.03-.36.02-.54,0-.46-.05-.82.01-.92.56-.01.08-.18.19-.28.2-.25.03-.5,0-.81,0,.52-1.28,1.01-2.51,1.51-3.74,0-.01.01-.03.02-.04.15-.22,1.14-.19,1.25.04.55,1.22,1.09,2.45,1.66,3.73ZM50.57,154.54h1.16c-.21-.5-.39-.94-.61-1.46-.2.54-.37.99-.54,1.46Z"/>
    <path class="cls-2" d="M76.01,154.91c.1.83.06.9-.71,1.09-.62.16-1.25.15-1.85-.1-.74-.31-1.17-.88-1.22-1.69-.05-.75.28-1.34.91-1.74.82-.51,1.7-.51,2.59-.18.3.11.29.13.23.91-.35-.1-.7-.23-1.05-.28-.61-.09-1.18.03-1.53.61-.24.39-.22.81.05,1.18.39.54.96.64,1.56.52.35-.07.67-.22,1.01-.33Z"/>
    <path class="cls-2" d="M126.34,154.92c.12.78.08.91-.63,1.04-.5.1-1.05.12-1.55.03-.94-.17-1.55-.91-1.59-1.8-.04-.87.51-1.69,1.42-1.95.46-.13.98-.15,1.46-.11.88.08.93.19.86,1.07-.37-.1-.73-.24-1.1-.29-.58-.08-1.11.05-1.46.57-.27.4-.25.83.02,1.22.36.51.9.63,1.47.54.36-.06.71-.21,1.1-.33Z"/>
    <path class="cls-2" d="M95.21,154.93c.18.09.36.22.55.27.31.08.64.14.96.14.12,0,.29-.17.33-.29.03-.08-.11-.27-.22-.34-.2-.12-.44-.18-.66-.28-.23-.11-.47-.2-.67-.35-.65-.5-.55-1.46.19-1.81.68-.32,1.39-.24,2.04.08.16.08.16.47.25.79-.41-.12-.71-.23-1.01-.3-.18-.04-.39-.04-.57,0-.12.03-.26.16-.29.28-.02.07.11.24.22.29.28.14.59.22.86.37.25.14.53.31.7.53.41.54.16,1.32-.49,1.61-.71.31-1.43.25-2.06-.15-.18-.11-.18-.51-.26-.77.04-.02.09-.05.13-.07Z"/>
    <path class="cls-2" d="M105.1,152.16v.69h-1.38v3.16h-.97v-3.16h-1.4v-.69h3.75Z"/>
    <path class="cls-2" d="M131.18,152.85h-1.4v-.69h3.74v.67h-1.36v3.17h-.98v-3.15Z"/>
    <path class="cls-2" d="M137.99,156.02h-.91v-3.86h.91v3.86Z"/>
  </g>
  <polygon class="cls-2" points="126.06 116.07 126.06 84.57 93.08 84.57 93.08 102.85 70.06 102.85 70.06 34.58 56.84 34.58 56.84 116.07 106.3 116.07 106.3 97.78 112.84 97.78 112.84 116.07 126.06 116.07"/>
  <polygon class="cls-2" points="93.08 61.02 93.08 47.8 126.06 47.8 126.06 79.61 93.08 79.61 93.08 66.39 112.84 66.39 112.84 61.02 93.08 61.02"/>
  <polygon class="cls-2" points="74.89 97.93 88.12 97.93 88.11 47.8 74.89 47.8 74.89 97.93"/>
  <polygon class="cls-1" points="126.06 60.92 140.78 75.63 131.43 84.98 126.06 79.61 126.06 60.92"/>
  <polygon class="cls-1" points="91.48 46.41 51.53 84.98 42.19 75.63 91.48 26.34 112.94 47.8 93.08 47.8 91.48 46.41"/>
</svg>