<?xml version="1.0" encoding="UTF-8"?>
<svg xmlns="http://www.w3.org/2000/svg" xmlns:xlink="http://www.w3.org/1999/xlink" viewBox="0 0 180 180">
  <defs>
    <style>
      .cls-1, .cls-2, .cls-3, .cls-4, .cls-5, .cls-6, .cls-7, .cls-8, .cls-9, .cls-10, .cls-11, .cls-12, .cls-13, .cls-14, .cls-15, .cls-16, .cls-17, .cls-18, .cls-19, .cls-20, .cls-21, .cls-22, .cls-23, .cls-24, .cls-25, .cls-26, .cls-27, .cls-28, .cls-29, .cls-30, .cls-31, .cls-32, .cls-33, .cls-34, .cls-35, .cls-36, .cls-37 {
        stroke-width: 0px;
      }

      .cls-1, .cls-38 {
        fill: url(#linear-gradient-12);
      }

      .cls-39 {
        clip-path: url(#clippath-11);
      }

      .cls-40 {
        clip-path: url(#clippath-16);
      }

      .cls-41 {
        fill: url(#linear-gradient-17);
      }

      .cls-2 {
        fill: url(#linear-gradient-19);
      }

      .cls-3, .cls-42 {
        fill: url(#linear-gradient);
      }

      .cls-4 {
        fill: url(#New_Gradient_Swatch-2);
      }

      .cls-43 {
        fill: url(#New_Gradient_Swatch-18);
      }

      .cls-5 {
        fill: url(#linear-gradient-21);
      }

      .cls-44 {
        font-family: Morabba-SemiBold, Morabba;
        font-size: 14.68px;
        font-weight: 600;
      }

      .cls-44, .cls-26 {
        fill: #414042;
      }

      .cls-45 {
        fill: url(#New_Gradient_Swatch-6);
      }

      .cls-6 {
        fill: url(#New_Gradient_Swatch-13);
      }

      .cls-46 {
        fill: url(#linear-gradient-14);
      }

      .cls-47, .cls-27 {
        fill: url(#New_Gradient_Swatch);
      }

      .cls-48 {
        fill: url(#linear-gradient-20);
      }

      .cls-49 {
        fill: url(#linear-gradient-6);
      }

      .cls-50 {
        clip-path: url(#clippath-2);
      }

      .cls-51 {
        clip-path: url(#clippath-13);
      }

      .cls-52 {
        clip-path: url(#clippath-15);
      }

      .cls-7 {
        fill: url(#linear-gradient-15);
      }

      .cls-53 {
        clip-path: url(#clippath-6);
      }

      .cls-8 {
        fill: url(#linear-gradient-11);
      }

      .cls-9 {
        fill: url(#linear-gradient-5);
      }

      .cls-10 {
        fill: url(#New_Gradient_Swatch-23);
      }

      .cls-54 {
        clip-path: url(#clippath-7);
      }

      .cls-55 {
        clip-path: url(#clippath-1);
      }

      .cls-11 {
        fill: url(#New_Gradient_Swatch-14);
      }

      .cls-56 {
        clip-path: url(#clippath-4);
      }

      .cls-12 {
        fill: url(#linear-gradient-13);
      }

      .cls-13 {
        fill: url(#linear-gradient-25);
      }

      .cls-14 {
        fill: url(#New_Gradient_Swatch-19);
      }

      .cls-15 {
        fill: url(#New_Gradient_Swatch-4);
      }

      .cls-16 {
        fill: url(#linear-gradient-16);
      }

      .cls-17 {
        fill: url(#linear-gradient-22);
      }

      .cls-18 {
        fill: url(#New_Gradient_Swatch-20);
      }

      .cls-57 {
        clip-path: url(#clippath-12);
      }

      .cls-58 {
        fill: url(#New_Gradient_Swatch-21);
      }

      .cls-19 {
        fill: url(#New_Gradient_Swatch-8);
      }

      .cls-20 {
        fill: url(#linear-gradient-2);
      }

      .cls-21 {
        fill: url(#New_Gradient_Swatch-25);
      }

      .cls-22 {
        fill: url(#New_Gradient_Swatch-7);
      }

      .cls-59 {
        fill: url(#New_Gradient_Swatch-3);
      }

      .cls-23 {
        fill: url(#linear-gradient-7);
      }

      .cls-60 {
        clip-path: url(#clippath-9);
      }

      .cls-61 {
        clip-path: url(#clippath);
      }

      .cls-24 {
        fill: url(#New_Gradient_Swatch-16);
      }

      .cls-25 {
        fill: url(#New_Gradient_Swatch-11);
      }

      .cls-62 {
        clip-path: url(#clippath-3);
      }

      .cls-28 {
        fill: url(#linear-gradient-8);
      }

      .cls-63 {
        clip-path: url(#clippath-8);
      }

      .cls-29 {
        fill: url(#linear-gradient-24);
      }

      .cls-30 {
        fill: url(#New_Gradient_Swatch-26);
      }

      .cls-31 {
        fill: url(#linear-gradient-18);
      }

      .cls-64 {
        fill: url(#New_Gradient_Swatch-24);
      }

      .cls-65 {
        fill: url(#linear-gradient-9);
      }

      .cls-66 {
        clip-path: url(#clippath-14);
      }

      .cls-67 {
        fill: url(#linear-gradient-3);
      }

      .cls-68 {
        clip-path: url(#clippath-17);
      }

      .cls-69 {
        clip-path: url(#clippath-5);
      }

      .cls-32 {
        fill: url(#New_Gradient_Swatch-10);
      }

      .cls-70 {
        fill: url(#New_Gradient_Swatch-12);
      }

      .cls-33 {
        fill: url(#linear-gradient-10);
      }

      .cls-71 {
        fill: url(#New_Gradient_Swatch-9);
      }

      .cls-72 {
        clip-path: url(#clippath-10);
      }

      .cls-34 {
        fill: url(#New_Gradient_Swatch-5);
      }

      .cls-73 {
        fill: url(#New_Gradient_Swatch-15);
      }

      .cls-35 {
        fill: url(#linear-gradient-4);
      }

      .cls-74 {
        fill: url(#linear-gradient-23);
      }

      .cls-36 {
        fill: url(#New_Gradient_Swatch-22);
      }

      .cls-75 {
        fill: #59595c;
        stroke: #59595c;
        stroke-miterlimit: 10;
        stroke-width: .36px;
      }

      .cls-37 {
        fill: url(#New_Gradient_Swatch-17);
      }
    </style>
    <linearGradient id="linear-gradient" x1="50.82" y1="131.14" x2="60.61" y2="131.14" gradientUnits="userSpaceOnUse">
      <stop offset="0" stop-color="#ea3f92"/>
      <stop offset="1" stop-color="#701851"/>
      <stop offset="1" stop-color="#701851"/>
    </linearGradient>
    <clipPath id="clippath">
      <path id="SVGID-2" data-name="SVGID" class="cls-3" d="M57.7,125.36c-3.6.15-6.13,3.47-6.74,6.86-.3,1.66-.06,3.24.54,4.7-.28-1.11-.3-2.27-.13-3.49.31-2.3,2-6.53,6.74-6.86.98-.07,2.04.39,2.51,1.07.03-1.08-1.31-2.29-2.82-2.29-.03,0-.06,0-.1,0"/>
    </clipPath>
    <linearGradient id="linear-gradient-2" x1="50.65" x2="60.63" xlink:href="#linear-gradient"/>
    <linearGradient id="linear-gradient-3" x1="53.11" y1="134.27" x2="73.82" y2="134.27" xlink:href="#linear-gradient"/>
    <linearGradient id="linear-gradient-4" x1="53.11" y1="134.27" x2="73.82" y2="134.27" xlink:href="#linear-gradient"/>
    <clipPath id="clippath-1">
      <path id="SVGID-4" data-name="SVGID" class="cls-35" d="M53.37,131.57c.06-.15.1-.28.13-.43,0,0-.06.15-.13.43M66.95,140.67c-3.87,1.73-11.59-.29-13.42-6.18-.41-1.31-.28-2.37-.15-2.92-.11.33-.26.77-.26,1.8,0,7.36,8.69,11.3,13.85,8.91,6.04-2.81,8-6.83,6.24-13.74-.12-.47-.27-.94-.46-1.4,0,.03-.24-.38-.49-.79-.23-.37-.45-.74-.48-.78,2.56,4.41,1.56,12.24-4.83,15.1M71.78,125.56h0s0,0,0,0"/>
    </clipPath>
    <linearGradient id="linear-gradient-5" x1="53.11" y1="135.12" x2="74.96" y2="135.12" xlink:href="#linear-gradient"/>
    <linearGradient id="linear-gradient-6" x1="41.51" y1="129.02" x2="73.07" y2="129.02" xlink:href="#linear-gradient"/>
    <linearGradient id="linear-gradient-7" x1="41.51" y1="129.02" x2="73.07" y2="129.02" xlink:href="#linear-gradient"/>
    <clipPath id="clippath-2">
      <path id="SVGID-6" data-name="SVGID" class="cls-23" d="M52.26,118.62c-4.21,1.55-8.29,4.76-9.8,9.06-1.42,4.04-1.19,8.78.3,12.84-1.12-3.77-1.18-7.98.1-11.62,1.51-4.3,5.56-7.46,9.76-9.01,9.59-3.53,17.94,2,20.45,8.37-1.49-5.46-7.36-10.74-14.86-10.74-1.89,0-3.89.34-5.95,1.09"/>
    </clipPath>
    <linearGradient id="linear-gradient-8" x1="41.04" y1="128.44" x2="73.07" y2="128.44" xlink:href="#linear-gradient"/>
    <linearGradient id="linear-gradient-9" x1="42.39" y1="137.99" x2="85.18" y2="137.99" xlink:href="#linear-gradient"/>
    <linearGradient id="linear-gradient-10" x1="42.39" y1="137.99" x2="85.18" y2="137.99" xlink:href="#linear-gradient"/>
    <clipPath id="clippath-3">
      <path id="SVGID-8" data-name="SVGID" class="cls-33" d="M84.21,123.81c3.91,23.34-13.57,27.91-16.34,28.78-4.57,1.42-9.59.36-13.96-1.27-4.76-1.76-8.47-5.63-10.72-10.16-.3-.6-.56-1.23-.8-1.87.32,1.07.72,2.11,1.2,3.08,2.25,4.53,5.96,8.39,10.72,10.16,4.38,1.62,9.39,2.69,13.96,1.26,2.77-.87,20.25-5.43,16.34-28.77-.21-1.24-.43-2.33-.87-3.53.24.81.33,1.49.47,2.31"/>
    </clipPath>
    <linearGradient id="linear-gradient-11" x1="42.39" y1="138.37" x2="88.52" y2="138.37" xlink:href="#linear-gradient"/>
    <linearGradient id="linear-gradient-12" x1="10.71" y1="127.44" x2="95.12" y2="127.44" gradientUnits="userSpaceOnUse">
      <stop offset="0" stop-color="#701851"/>
      <stop offset="0" stop-color="#701851"/>
      <stop offset="1" stop-color="#ea3f92"/>
    </linearGradient>
    <clipPath id="clippath-4">
      <path id="SVGID-10" data-name="SVGID" class="cls-1" d="M10.71,112.11c1.49,3.93,7.99,9.75,7.99,9.75,12.18-9.21,13.84-12.94,29.82-17.81,15.98-4.88,33.75,6.99,36.09,20.99,3.91,23.34-13.53,27.85-16.31,28.72-4.56,1.43-9.58.36-13.95-1.26-4.76-1.77-8.47-5.63-10.72-10.16-2.19-4.41-2.75-10.02-1.1-14.7,1.51-4.3,5.55-7.46,9.76-9.01,10.29-3.79,19.09,2.98,20.85,9.88,1.76,6.91-.2,10.93-6.24,13.74-6.68,3.1-15.11-4.23-13.61-10.31l.21-.79,1,1.04c2.06,2.09,6.05,4.08,6.05,4.08,0,0,3.48-2.35,5.18-3.92,4.44-4.28-.88-8.81-5.13-4.69-1.8-1.96-4.01-1.96-5.49-1,0,0-2.75,1.38-3.76,6.75-.74,3.9,1.58,7.41,4.48,9.81,1.33,1.1,3.14,1.97,4.83,2.34,7.31,1.61,13.79-2.87,15.9-8.91,1.36-3.89,1.03-8.45-.36-12.28-1.8-4.97-5.72-8.51-10.53-10.61-15.44-6.77-28.25,7.56-29.93,16.25-1.84,9.52.81,23.97,18.68,30.06,10.04,3.42,19.51.39,26.59-4.44,13.59-9.27,16.25-26.59,12.58-37.42-3.63-10.71-11.62-17.65-20.08-21.38-5.77-2.45-11.57-3.44-17.2-3.44-23.04,0-43.13,16.68-45.63,18.74"/>
    </clipPath>
    <linearGradient id="linear-gradient-13" y1="128.42" x2="97.29" y2="128.42" xlink:href="#linear-gradient-12"/>
    <linearGradient id="linear-gradient-14" x1="18.7" y1="112.38" x2="83.91" y2="112.38" xlink:href="#linear-gradient-12"/>
    <linearGradient id="linear-gradient-15" x1="18.7" y1="112.38" x2="83.91" y2="112.38" xlink:href="#linear-gradient-12"/>
    <clipPath id="clippath-5">
      <path id="SVGID-12" data-name="SVGID" class="cls-7" d="M48.52,103.23c-11.54,2.53-21.71,11.9-29.82,18.63l4.53.36s9.82-12.04,25.93-17.71c14.36-5.06,30.25,5.35,34.76,17.65-3.32-11.1-15.78-19.61-28.99-19.61-2.13,0-4.27.22-6.4.69"/>
    </clipPath>
    <linearGradient id="linear-gradient-16" x1="18.43" y1="110.83" x2="84.18" y2="110.83" gradientTransform="translate(161.53 58.23) rotate(89.33)" xlink:href="#linear-gradient-12"/>
    <linearGradient id="linear-gradient-17" x1="69.74" y1="167.58" x2="81.04" y2="167.58" xlink:href="#linear-gradient-12"/>
    <linearGradient id="linear-gradient-18" x1="69.74" y1="167.58" x2="81.04" y2="167.58" xlink:href="#linear-gradient-12"/>
    <clipPath id="clippath-6">
      <path id="SVGID-14" data-name="SVGID" class="cls-31" d="M70.11,165.56c-1.11,2.91.35,6.18,3.27,7.29,2.92,1.11,6.18-.35,7.29-3.26,1.11-2.92-.35-6.18-3.26-7.29-.66-.25-1.34-.37-2.01-.37-2.28,0-4.42,1.39-5.28,3.64"/>
    </clipPath>
    <linearGradient id="linear-gradient-19" x1="64.99" y1="167.95" x2="85.79" y2="167.95" gradientTransform="translate(205.45 37.66) rotate(69.13)" xlink:href="#linear-gradient-12"/>
    <linearGradient id="linear-gradient-20" x1="58.95" y1="167.58" x2="67.22" y2="167.58" xlink:href="#linear-gradient-12"/>
    <linearGradient id="linear-gradient-21" x1="58.95" y1="167.58" x2="67.22" y2="167.58" xlink:href="#linear-gradient-12"/>
    <clipPath id="clippath-7">
      <path id="SVGID-16" data-name="SVGID" class="cls-5" d="M59.23,166.1c-.81,2.13.26,4.52,2.39,5.33,2.13.81,4.52-.26,5.33-2.39.81-2.13-.26-4.52-2.39-5.33-.48-.18-.98-.27-1.47-.27-1.66,0-3.23,1.01-3.86,2.66"/>
    </clipPath>
    <linearGradient id="linear-gradient-22" x1="55.48" y1="167.85" x2="70.69" y2="167.85" gradientTransform="translate(197.45 49.11) rotate(69.13)" xlink:href="#linear-gradient-12"/>
    <linearGradient id="linear-gradient-23" x1="60.3" y1="126.59" x2="66.5" y2="126.59" xlink:href="#linear-gradient"/>
    <linearGradient id="linear-gradient-24" x1="60.3" y1="126.59" x2="66.5" y2="126.59" xlink:href="#linear-gradient"/>
    <clipPath id="clippath-8">
      <path id="SVGID-18" data-name="SVGID" class="cls-29" d="M61.27,126.08c-.66.4-.96.9-.96.9l.3.66s2.87-3.04,5.89-.74c0,0-.75-1.07-2.32-1.3-.3-.04-.59-.07-.86-.07-.84,0-1.5.21-2.05.54"/>
    </clipPath>
    <linearGradient id="linear-gradient-25" x1="60.3" y1="126.12" x2="66.5" y2="126.12" xlink:href="#linear-gradient"/>
    <linearGradient id="New_Gradient_Swatch" data-name="New Gradient Swatch" x1="42.99" y1="42.12" x2="52.78" y2="42.12" gradientUnits="userSpaceOnUse">
      <stop offset="0" stop-color="#f720e5"/>
      <stop offset="1" stop-color="#5e147d"/>
    </linearGradient>
    <clipPath id="clippath-9">
      <path id="SVGID-20" data-name="SVGID" class="cls-27" d="M49.87,36.34c-3.6.15-6.13,3.47-6.74,6.86-.3,1.66-.06,3.24.54,4.7-.28-1.11-.3-2.27-.13-3.49.31-2.3,2-6.53,6.74-6.86.98-.07,2.04.39,2.51,1.07.03-1.08-1.31-2.29-2.82-2.29-.03,0-.06,0-.1,0"/>
    </clipPath>
    <linearGradient id="New_Gradient_Swatch-2" data-name="New Gradient Swatch" x1="42.82" x2="52.81" xlink:href="#New_Gradient_Swatch"/>
    <linearGradient id="New_Gradient_Swatch-3" data-name="New Gradient Swatch" x1="45.28" y1="45.25" x2="65.99" y2="45.25" xlink:href="#New_Gradient_Swatch"/>
    <linearGradient id="New_Gradient_Swatch-4" data-name="New Gradient Swatch" x1="45.28" y1="45.25" x2="65.99" y2="45.25" xlink:href="#New_Gradient_Swatch"/>
    <clipPath id="clippath-10">
      <path id="SVGID-22" data-name="SVGID" class="cls-15" d="M45.55,42.55c.06-.15.1-.28.13-.43,0,0-.06.15-.13.43M59.12,51.65c-3.87,1.73-11.59-.29-13.42-6.18-.41-1.31-.28-2.37-.15-2.92-.11.33-.26.77-.26,1.8,0,7.36,8.69,11.3,13.85,8.91,6.04-2.81,8-6.83,6.24-13.74-.12-.47-.27-.94-.46-1.4,0,.03-.24-.38-.49-.79-.23-.37-.45-.74-.48-.78,2.56,4.41,1.56,12.24-4.83,15.1M63.95,36.55h0s0,0,0,0"/>
    </clipPath>
    <linearGradient id="New_Gradient_Swatch-5" data-name="New Gradient Swatch" x1="45.28" y1="46.1" x2="67.13" y2="46.1" xlink:href="#New_Gradient_Swatch"/>
    <linearGradient id="New_Gradient_Swatch-6" data-name="New Gradient Swatch" x1="33.68" y1="40" x2="65.24" y2="40" xlink:href="#New_Gradient_Swatch"/>
    <linearGradient id="New_Gradient_Swatch-7" data-name="New Gradient Swatch" x1="33.68" y1="40" x2="65.24" y2="40" xlink:href="#New_Gradient_Swatch"/>
    <clipPath id="clippath-11">
      <path id="SVGID-24" data-name="SVGID" class="cls-22" d="M44.43,29.6c-4.21,1.55-8.29,4.76-9.8,9.06-1.42,4.04-1.19,8.78.3,12.84-1.12-3.77-1.18-7.98.1-11.62,1.51-4.3,5.56-7.46,9.76-9.01,9.59-3.53,17.94,2,20.45,8.37-1.49-5.46-7.36-10.74-14.86-10.74-1.89,0-3.89.34-5.95,1.09"/>
    </clipPath>
    <linearGradient id="New_Gradient_Swatch-8" data-name="New Gradient Swatch" x1="33.21" y1="39.42" x2="65.24" y2="39.42" xlink:href="#New_Gradient_Swatch"/>
    <linearGradient id="New_Gradient_Swatch-9" data-name="New Gradient Swatch" x1="34.56" y1="48.97" x2="77.35" y2="48.97" xlink:href="#New_Gradient_Swatch"/>
    <linearGradient id="New_Gradient_Swatch-10" data-name="New Gradient Swatch" x1="34.56" y1="48.97" x2="77.35" y2="48.97" xlink:href="#New_Gradient_Swatch"/>
    <clipPath id="clippath-12">
      <path id="SVGID-26" data-name="SVGID" class="cls-32" d="M76.38,34.8c3.91,23.34-13.57,27.91-16.34,28.78-4.57,1.42-9.59.36-13.96-1.27-4.76-1.76-8.47-5.63-10.72-10.16-.3-.6-.56-1.23-.8-1.87.32,1.07.72,2.11,1.2,3.08,2.25,4.53,5.96,8.39,10.72,10.16,4.38,1.62,9.39,2.69,13.96,1.26,2.77-.87,20.25-5.43,16.34-28.77-.21-1.24-.43-2.33-.87-3.53.24.81.33,1.49.47,2.31"/>
    </clipPath>
    <linearGradient id="New_Gradient_Swatch-11" data-name="New Gradient Swatch" x1="34.56" y1="49.35" x2="80.69" y2="49.35" xlink:href="#New_Gradient_Swatch"/>
    <linearGradient id="New_Gradient_Swatch-12" data-name="New Gradient Swatch" x1="2.88" y1="38.42" x2="87.3" y2="38.42" xlink:href="#New_Gradient_Swatch"/>
    <linearGradient id="New_Gradient_Swatch-13" data-name="New Gradient Swatch" x1="2.88" y1="38.42" x2="87.3" y2="38.42" xlink:href="#New_Gradient_Swatch"/>
    <clipPath id="clippath-13">
      <path id="SVGID-28" data-name="SVGID" class="cls-6" d="M2.88,23.09c1.49,3.93,7.99,9.75,7.99,9.75,12.18-9.21,13.84-12.94,29.82-17.81,15.98-4.88,33.75,6.99,36.09,20.99,3.91,23.34-13.53,27.85-16.31,28.72-4.56,1.43-9.58.36-13.95-1.26-4.76-1.77-8.47-5.63-10.72-10.16-2.19-4.41-2.75-10.02-1.1-14.7,1.51-4.3,5.55-7.46,9.76-9.01,10.29-3.79,19.09,2.98,20.85,9.88,1.76,6.91-.2,10.93-6.24,13.74-6.68,3.1-15.11-4.23-13.61-10.31l.21-.79,1,1.04c2.06,2.09,6.05,4.08,6.05,4.08,0,0,3.48-2.35,5.18-3.92,4.44-4.28-.88-8.81-5.13-4.69-1.8-1.96-4.01-1.96-5.49-1,0,0-2.75,1.38-3.76,6.75-.74,3.9,1.58,7.41,4.48,9.81,1.33,1.1,3.14,1.97,4.83,2.34,7.31,1.61,13.79-2.87,15.9-8.91,1.36-3.89,1.03-8.45-.36-12.28-1.8-4.97-5.72-8.51-10.53-10.61-15.44-6.77-28.25,7.56-29.93,16.25-1.84,9.52.81,23.97,18.68,30.06,10.04,3.42,19.51.39,26.59-4.44,13.59-9.27,16.25-26.59,12.58-37.42-3.63-10.71-11.62-17.65-20.08-21.38-5.77-2.45-11.57-3.44-17.2-3.44C25.47,4.35,5.39,21.03,2.88,23.09"/>
    </clipPath>
    <linearGradient id="New_Gradient_Swatch-14" data-name="New Gradient Swatch" x1="2.88" y1="39.4" x2="89.47" y2="39.4" xlink:href="#New_Gradient_Swatch"/>
    <linearGradient id="New_Gradient_Swatch-15" data-name="New Gradient Swatch" x1="10.87" y1="23.37" x2="76.08" y2="23.37" xlink:href="#New_Gradient_Swatch"/>
    <linearGradient id="New_Gradient_Swatch-16" data-name="New Gradient Swatch" x1="10.87" y1="23.37" x2="76.08" y2="23.37" xlink:href="#New_Gradient_Swatch"/>
    <clipPath id="clippath-14">
      <path id="SVGID-30" data-name="SVGID" class="cls-24" d="M40.69,14.22c-11.54,2.53-21.71,11.9-29.82,18.63l4.53.36s9.82-12.04,25.93-17.71c14.36-5.06,30.25,5.35,34.76,17.65-3.32-11.1-15.78-19.61-28.99-19.61-2.13,0-4.27.22-6.4.69"/>
    </clipPath>
    <linearGradient id="New_Gradient_Swatch-17" data-name="New Gradient Swatch" x1="10.6" y1="21.82" x2="76.35" y2="21.82" gradientTransform="translate(64.78 -21.91) rotate(89.33)" xlink:href="#New_Gradient_Swatch"/>
    <linearGradient id="New_Gradient_Swatch-18" data-name="New Gradient Swatch" x1="61.91" y1="78.56" x2="73.21" y2="78.56" xlink:href="#New_Gradient_Swatch"/>
    <linearGradient id="New_Gradient_Swatch-19" data-name="New Gradient Swatch" x1="61.91" y1="78.56" x2="73.21" y2="78.56" xlink:href="#New_Gradient_Swatch"/>
    <clipPath id="clippath-15">
      <path id="SVGID-32" data-name="SVGID" class="cls-14" d="M62.28,76.55c-1.11,2.91.35,6.18,3.27,7.29,2.92,1.11,6.18-.35,7.29-3.26,1.11-2.92-.35-6.18-3.26-7.29-.66-.25-1.34-.37-2.01-.37-2.28,0-4.42,1.39-5.28,3.64"/>
    </clipPath>
    <linearGradient id="New_Gradient_Swatch-20" data-name="New Gradient Swatch" x1="57.16" y1="78.93" x2="77.96" y2="78.93" gradientTransform="translate(117.24 -12.32) rotate(69.13)" xlink:href="#New_Gradient_Swatch"/>
    <linearGradient id="New_Gradient_Swatch-21" data-name="New Gradient Swatch" x1="51.13" y1="78.56" x2="59.39" y2="78.56" xlink:href="#New_Gradient_Swatch"/>
    <linearGradient id="New_Gradient_Swatch-22" data-name="New Gradient Swatch" x1="51.13" y1="78.56" x2="59.39" y2="78.56" xlink:href="#New_Gradient_Swatch"/>
    <clipPath id="clippath-16">
      <path id="SVGID-34" data-name="SVGID" class="cls-36" d="M51.4,77.09c-.81,2.13.26,4.52,2.39,5.33,2.13.81,4.52-.26,5.33-2.39.81-2.13-.26-4.52-2.39-5.33-.48-.18-.98-.27-1.47-.27-1.66,0-3.23,1.01-3.86,2.66"/>
    </clipPath>
    <linearGradient id="New_Gradient_Swatch-23" data-name="New Gradient Swatch" x1="47.65" y1="78.83" x2="62.86" y2="78.83" gradientTransform="translate(109.23 -.88) rotate(69.13)" xlink:href="#New_Gradient_Swatch"/>
    <linearGradient id="New_Gradient_Swatch-24" data-name="New Gradient Swatch" x1="52.48" y1="37.57" x2="58.67" y2="37.57" xlink:href="#New_Gradient_Swatch"/>
    <linearGradient id="New_Gradient_Swatch-25" data-name="New Gradient Swatch" x1="52.48" y1="37.57" x2="58.67" y2="37.57" xlink:href="#New_Gradient_Swatch"/>
    <clipPath id="clippath-17">
      <path id="SVGID-36" data-name="SVGID" class="cls-21" d="M53.44,37.07c-.66.4-.96.9-.96.9l.3.66s2.87-3.04,5.89-.74c0,0-.75-1.07-2.32-1.3-.3-.04-.59-.07-.86-.07-.84,0-1.5.21-2.05.54"/>
    </clipPath>
    <linearGradient id="New_Gradient_Swatch-26" data-name="New Gradient Swatch" x1="52.48" y1="37.11" x2="58.67" y2="37.11" xlink:href="#New_Gradient_Swatch"/>
  </defs>
  <g id="Layer_1" data-name="Layer 1">
    <g>
      <g>
        <path id="SVGID" class="cls-42" d="M57.7,125.36c-3.6.15-6.13,3.47-6.74,6.86-.3,1.66-.06,3.24.54,4.7-.28-1.11-.3-2.27-.13-3.49.31-2.3,2-6.53,6.74-6.86.98-.07,2.04.39,2.51,1.07.03-1.08-1.31-2.29-2.82-2.29-.03,0-.06,0-.1,0"/>
        <g class="cls-61">
          <rect class="cls-20" x="50.65" y="125.36" width="9.98" height="11.57"/>
        </g>
      </g>
      <g>
        <path id="SVGID-3" data-name="SVGID" class="cls-67" d="M53.37,131.57c.06-.15.1-.28.13-.43,0,0-.06.15-.13.43M66.95,140.67c-3.87,1.73-11.59-.29-13.42-6.18-.41-1.31-.28-2.37-.15-2.92-.11.33-.26.77-.26,1.8,0,7.36,8.69,11.3,13.85,8.91,6.04-2.81,8-6.83,6.24-13.74-.12-.47-.27-.94-.46-1.4,0,.03-.24-.38-.49-.79-.23-.37-.45-.74-.48-.78,2.56,4.41,1.56,12.24-4.83,15.1M71.78,125.56h0s0,0,0,0"/>
        <g class="cls-55">
          <rect class="cls-9" x="53.11" y="125.56" width="21.85" height="19.11"/>
        </g>
      </g>
      <g>
        <path id="SVGID-5" data-name="SVGID" class="cls-49" d="M52.26,118.62c-4.21,1.55-8.29,4.76-9.8,9.06-1.42,4.04-1.19,8.78.3,12.84-1.12-3.77-1.18-7.98.1-11.62,1.51-4.3,5.56-7.46,9.76-9.01,9.59-3.53,17.94,2,20.45,8.37-1.49-5.46-7.36-10.74-14.86-10.74-1.89,0-3.89.34-5.95,1.09"/>
        <g class="cls-50">
          <rect class="cls-28" x="41.04" y="116.35" width="32.03" height="24.17"/>
        </g>
      </g>
      <g>
        <g>
          <path id="SVGID-7" data-name="SVGID" class="cls-65" d="M84.21,123.81c3.91,23.34-13.57,27.91-16.34,28.78-4.57,1.42-9.59.36-13.96-1.27-4.76-1.76-8.47-5.63-10.72-10.16-.3-.6-.56-1.23-.8-1.87.32,1.07.72,2.11,1.2,3.08,2.25,4.53,5.96,8.39,10.72,10.16,4.38,1.62,9.39,2.69,13.96,1.26,2.77-.87,20.25-5.43,16.34-28.77-.21-1.24-.43-2.33-.87-3.53.24.81.33,1.49.47,2.31"/>
          <g class="cls-62">
            <rect class="cls-8" x="42.39" y="121.5" width="46.13" height="33.73"/>
          </g>
        </g>
        <g>
          <g>
            <path id="SVGID-9" data-name="SVGID" class="cls-38" d="M10.71,112.11c1.49,3.93,7.99,9.75,7.99,9.75,12.18-9.21,13.84-12.94,29.82-17.81,15.98-4.88,33.75,6.99,36.09,20.99,3.91,23.34-13.53,27.85-16.31,28.72-4.56,1.43-9.58.36-13.95-1.26-4.76-1.77-8.47-5.63-10.72-10.16-2.19-4.41-2.75-10.02-1.1-14.7,1.51-4.3,5.55-7.46,9.76-9.01,10.29-3.79,19.09,2.98,20.85,9.88,1.76,6.91-.2,10.93-6.24,13.74-6.68,3.1-15.11-4.23-13.61-10.31l.21-.79,1,1.04c2.06,2.09,6.05,4.08,6.05,4.08,0,0,3.48-2.35,5.18-3.92,4.44-4.28-.88-8.81-5.13-4.69-1.8-1.96-4.01-1.96-5.49-1,0,0-2.75,1.38-3.76,6.75-.74,3.9,1.58,7.41,4.48,9.81,1.33,1.1,3.14,1.97,4.83,2.34,7.31,1.61,13.79-2.87,15.9-8.91,1.36-3.89,1.03-8.45-.36-12.28-1.8-4.97-5.72-8.51-10.53-10.61-15.44-6.77-28.25,7.56-29.93,16.25-1.84,9.52.81,23.97,18.68,30.06,10.04,3.42,19.51.39,26.59-4.44,13.59-9.27,16.25-26.59,12.58-37.42-3.63-10.71-11.62-17.65-20.08-21.38-5.77-2.45-11.57-3.44-17.2-3.44-23.04,0-43.13,16.68-45.63,18.74"/>
            <g class="cls-56">
              <rect class="cls-12" x="10.71" y="93.37" width="86.59" height="70.1"/>
            </g>
          </g>
          <g>
            <path id="SVGID-11" data-name="SVGID" class="cls-46" d="M48.52,103.23c-11.54,2.53-21.71,11.9-29.82,18.63l4.53.36s9.82-12.04,25.93-17.71c14.36-5.06,30.25,5.35,34.76,17.65-3.32-11.1-15.78-19.61-28.99-19.61-2.13,0-4.27.22-6.4.69"/>
            <g class="cls-69">
              <rect class="cls-16" x="39.54" y="78.09" width="23.54" height="65.48" transform="translate(-60.12 160.84) rotate(-89.33)"/>
            </g>
          </g>
          <g>
            <path id="SVGID-13" data-name="SVGID" class="cls-41" d="M70.11,165.56c-1.11,2.91.35,6.18,3.27,7.29,2.92,1.11,6.18-.35,7.29-3.26,1.11-2.92-.35-6.18-3.26-7.29-.66-.25-1.34-.37-2.01-.37-2.28,0-4.42,1.39-5.28,3.64"/>
            <g class="cls-53">
              <rect class="cls-2" x="67.49" y="159.83" width="15.81" height="16.23" transform="translate(-108.4 178.55) rotate(-69.13)"/>
            </g>
          </g>
          <g>
            <path id="SVGID-15" data-name="SVGID" class="cls-48" d="M59.23,166.1c-.81,2.13.26,4.52,2.39,5.33,2.13.81,4.52-.26,5.33-2.39.81-2.13-.26-4.52-2.39-5.33-.48-.18-.98-.27-1.47-.27-1.66,0-3.23,1.01-3.86,2.66"/>
            <g class="cls-54">
              <rect class="cls-17" x="57.31" y="161.91" width="11.55" height="11.87" transform="translate(-116.22 167) rotate(-69.13)"/>
            </g>
          </g>
        </g>
      </g>
      <g>
        <path id="SVGID-17" data-name="SVGID" class="cls-74" d="M61.27,126.08c-.66.4-.96.9-.96.9l.3.66s2.87-3.04,5.89-.74c0,0-.75-1.07-2.32-1.3-.3-.04-.59-.07-.86-.07-.84,0-1.5.21-2.05.54"/>
        <g class="cls-63">
          <rect class="cls-13" x="60.3" y="124.6" width="6.19" height="3.04"/>
        </g>
      </g>
    </g>
    <g>
      <path class="cls-75" d="M111.02,113.54h1.15v8.57h-1.23v-6.67l-2.64,3.31h-.23l-2.67-3.31v6.67h-1.23v-8.57h1.16l2.85,3.52,2.83-3.52Z"/>
      <path class="cls-75" d="M119.27,113.49h.86l3.84,8.62h-1.26l-1.14-2.54h-3.66l-1.07,2.54h-1.26l3.68-8.62ZM121.07,118.48l-1.38-3.1-1.28,3.1h2.67Z"/>
      <path class="cls-75" d="M127.44,122.1v-8.56h2.89c1.17,0,2.09.17,2.77.52.68.35,1.22.86,1.62,1.54s.6,1.42.6,2.22c0,.57-.11,1.12-.33,1.64-.22.52-.54.98-.94,1.38-.42.41-.9.72-1.45.93-.32.13-.62.21-.89.25s-.79.06-1.55.06h-2.71ZM130.2,114.63h-1.53v6.37h1.57c.61,0,1.09-.04,1.43-.13.34-.08.62-.19.85-.32.23-.13.43-.29.62-.48.61-.61.91-1.39.91-2.33s-.31-1.67-.93-2.25c-.23-.22-.49-.39-.79-.53-.3-.14-.58-.23-.84-.28s-.69-.07-1.28-.07Z"/>
      <path class="cls-75" d="M141.4,113.49h.86l3.84,8.62h-1.26l-1.14-2.54h-3.66l-1.07,2.54h-1.26l3.68-8.62ZM143.21,118.48l-1.38-3.1-1.28,3.1h2.67Z"/>
      <path class="cls-75" d="M149.6,122.11v-8.57h2.15c.87,0,1.56.21,2.06.64s.76,1.01.76,1.74c0,.5-.12.93-.37,1.29s-.61.64-1.07.82c.27.18.54.43.8.74.26.31.63.85,1.1,1.63.3.49.54.85.72,1.1l.45.61h-1.46l-.37-.56s-.04-.06-.07-.1l-.24-.34-.38-.63-.41-.67c-.25-.35-.49-.63-.7-.84-.21-.21-.4-.36-.57-.45-.17-.09-.46-.14-.86-.14h-.32v3.73h-1.23ZM151.19,114.58h-.37v2.71h.47c.62,0,1.05-.05,1.28-.16.23-.11.41-.27.54-.48.13-.21.19-.46.19-.73s-.07-.51-.21-.73c-.14-.22-.34-.37-.6-.46-.26-.09-.69-.13-1.29-.13Z"/>
      <path class="cls-75" d="M110.25,128.62h1.23v8.57h-1.23v-3.73h-4.82v3.73h-1.23v-8.57h1.23v3.71h4.82v-3.71Z"/>
      <path class="cls-75" d="M121.03,128.62h1.49l-3.17,4.04v4.53h-1.26v-4.53l-3.17-4.04h1.48l2.29,2.95,2.32-2.95Z"/>
      <path class="cls-75" d="M125.91,137.19v-8.58h2.72c.82,0,1.47.22,1.96.66s.73,1.03.73,1.78c0,.5-.13.94-.37,1.33-.25.38-.59.66-1.02.84-.43.17-1.06.26-1.87.26h-.91v3.72h-1.23ZM128.42,129.7h-1.27v2.68h1.34c.5,0,.88-.12,1.15-.35.27-.24.41-.57.41-1.01,0-.88-.54-1.32-1.63-1.32Z"/>
      <path class="cls-75" d="M134.9,128.62h4.86v1.09h-3.63v2.61h3.51v1.1h-3.51v2.66h3.75v1.09h-4.98v-8.56Z"/>
      <path class="cls-75" d="M143.73,137.19v-8.57h2.15c.87,0,1.56.21,2.06.64s.76,1.01.76,1.74c0,.5-.12.93-.37,1.29s-.61.64-1.07.82c.27.18.54.43.8.74.26.31.63.85,1.1,1.63.3.49.54.85.72,1.1l.45.61h-1.46l-.37-.56s-.04-.06-.07-.1l-.24-.34-.38-.63-.41-.67c-.25-.35-.49-.63-.7-.84-.21-.21-.4-.36-.57-.45-.17-.09-.46-.14-.86-.14h-.32v3.73h-1.23ZM145.33,129.66h-.37v2.71h.47c.62,0,1.05-.05,1.28-.16.23-.11.41-.27.54-.48.13-.21.19-.46.19-.73s-.07-.51-.21-.73c-.14-.22-.34-.37-.6-.46-.26-.09-.69-.13-1.29-.13Z"/>
      <path class="cls-75" d="M111.02,143.69h1.15v8.57h-1.23v-6.67l-2.64,3.31h-.23l-2.67-3.31v6.67h-1.23v-8.57h1.16l2.85,3.52,2.83-3.52Z"/>
      <path class="cls-75" d="M119.27,143.64h.86l3.84,8.62h-1.26l-1.14-2.54h-3.66l-1.07,2.54h-1.26l3.68-8.62ZM121.07,148.63l-1.38-3.1-1.28,3.1h2.67Z"/>
      <path class="cls-75" d="M127.46,152.26v-8.57h2.15c.87,0,1.56.21,2.06.64s.76,1.01.76,1.74c0,.5-.12.93-.37,1.29s-.61.64-1.07.82c.27.18.54.43.8.74.26.31.63.85,1.1,1.63.3.49.54.85.72,1.1l.45.61h-1.46l-.37-.56s-.04-.06-.07-.1l-.24-.34-.38-.63-.41-.67c-.25-.35-.49-.63-.7-.84-.21-.21-.4-.36-.57-.45-.17-.09-.46-.14-.86-.14h-.32v3.73h-1.23ZM129.06,144.74h-.37v2.71h.47c.62,0,1.05-.05,1.28-.16.23-.11.41-.27.54-.48.13-.21.19-.46.19-.73s-.07-.51-.21-.73c-.14-.22-.34-.37-.6-.46-.26-.09-.69-.13-1.29-.13Z"/>
      <path class="cls-75" d="M142.37,143.69h1.53l-3.72,4.07,4.63,4.5h-1.67l-4.38-4.23v4.23h-1.23v-8.57h1.23v3.92l3.61-3.92Z"/>
      <path class="cls-75" d="M148.28,143.69h4.86v1.09h-3.63v2.61h3.51v1.1h-3.51v2.66h3.75v1.09h-4.98v-8.56Z"/>
      <path class="cls-75" d="M156.34,143.68h7.16v1.09h-2.99v7.49h-1.23v-7.49h-2.94v-1.09Z"/>
    </g>
  </g>
  <g id="Isolation_Mode" data-name="Isolation Mode">
    <g>
      <g>
        <path id="SVGID-19" data-name="SVGID" class="cls-47" d="M49.87,36.34c-3.6.15-6.13,3.47-6.74,6.86-.3,1.66-.06,3.24.54,4.7-.28-1.11-.3-2.27-.13-3.49.31-2.3,2-6.53,6.74-6.86.98-.07,2.04.39,2.51,1.07.03-1.08-1.31-2.29-2.82-2.29-.03,0-.06,0-.1,0"/>
        <g class="cls-60">
          <rect class="cls-4" x="42.82" y="36.34" width="9.98" height="11.57"/>
        </g>
      </g>
      <g>
        <path id="SVGID-21" data-name="SVGID" class="cls-59" d="M45.55,42.55c.06-.15.1-.28.13-.43,0,0-.06.15-.13.43M59.12,51.65c-3.87,1.73-11.59-.29-13.42-6.18-.41-1.31-.28-2.37-.15-2.92-.11.33-.26.77-.26,1.8,0,7.36,8.69,11.3,13.85,8.91,6.04-2.81,8-6.83,6.24-13.74-.12-.47-.27-.94-.46-1.4,0,.03-.24-.38-.49-.79-.23-.37-.45-.74-.48-.78,2.56,4.41,1.56,12.24-4.83,15.1M63.95,36.55h0s0,0,0,0"/>
        <g class="cls-72">
          <rect class="cls-34" x="45.28" y="36.54" width="21.85" height="19.11"/>
        </g>
      </g>
      <g>
        <path id="SVGID-23" data-name="SVGID" class="cls-45" d="M44.43,29.6c-4.21,1.55-8.29,4.76-9.8,9.06-1.42,4.04-1.19,8.78.3,12.84-1.12-3.77-1.18-7.98.1-11.62,1.51-4.3,5.56-7.46,9.76-9.01,9.59-3.53,17.94,2,20.45,8.37-1.49-5.46-7.36-10.74-14.86-10.74-1.89,0-3.89.34-5.95,1.09"/>
        <g class="cls-39">
          <rect class="cls-19" x="33.21" y="27.34" width="32.03" height="24.17"/>
        </g>
      </g>
      <g>
        <g>
          <path id="SVGID-25" data-name="SVGID" class="cls-71" d="M76.38,34.8c3.91,23.34-13.57,27.91-16.34,28.78-4.57,1.42-9.59.36-13.96-1.27-4.76-1.76-8.47-5.63-10.72-10.16-.3-.6-.56-1.23-.8-1.87.32,1.07.72,2.11,1.2,3.08,2.25,4.53,5.96,8.39,10.72,10.16,4.38,1.62,9.39,2.69,13.96,1.26,2.77-.87,20.25-5.43,16.34-28.77-.21-1.24-.43-2.33-.87-3.53.24.81.33,1.49.47,2.31"/>
          <g class="cls-57">
            <rect class="cls-25" x="34.56" y="32.49" width="46.13" height="33.73"/>
          </g>
        </g>
        <g>
          <g>
            <path id="SVGID-27" data-name="SVGID" class="cls-70" d="M2.88,23.09c1.49,3.93,7.99,9.75,7.99,9.75,12.18-9.21,13.84-12.94,29.82-17.81,15.98-4.88,33.75,6.99,36.09,20.99,3.91,23.34-13.53,27.85-16.31,28.72-4.56,1.43-9.58.36-13.95-1.26-4.76-1.77-8.47-5.63-10.72-10.16-2.19-4.41-2.75-10.02-1.1-14.7,1.51-4.3,5.55-7.46,9.76-9.01,10.29-3.79,19.09,2.98,20.85,9.88,1.76,6.91-.2,10.93-6.24,13.74-6.68,3.1-15.11-4.23-13.61-10.31l.21-.79,1,1.04c2.06,2.09,6.05,4.08,6.05,4.08,0,0,3.48-2.35,5.18-3.92,4.44-4.28-.88-8.81-5.13-4.69-1.8-1.96-4.01-1.96-5.49-1,0,0-2.75,1.38-3.76,6.75-.74,3.9,1.58,7.41,4.48,9.81,1.33,1.1,3.14,1.97,4.83,2.34,7.31,1.61,13.79-2.87,15.9-8.91,1.36-3.89,1.03-8.45-.36-12.28-1.8-4.97-5.72-8.51-10.53-10.61-15.44-6.77-28.25,7.56-29.93,16.25-1.84,9.52.81,23.97,18.68,30.06,10.04,3.42,19.51.39,26.59-4.44,13.59-9.27,16.25-26.59,12.58-37.42-3.63-10.71-11.62-17.65-20.08-21.38-5.77-2.45-11.57-3.44-17.2-3.44C25.47,4.35,5.39,21.03,2.88,23.09"/>
            <g class="cls-51">
              <rect class="cls-11" x="2.88" y="4.35" width="86.59" height="70.1"/>
            </g>
          </g>
          <g>
            <path id="SVGID-29" data-name="SVGID" class="cls-73" d="M40.69,14.22c-11.54,2.53-21.71,11.9-29.82,18.63l4.53.36s9.82-12.04,25.93-17.71c14.36-5.06,30.25,5.35,34.76,17.65-3.32-11.1-15.78-19.61-28.99-19.61-2.13,0-4.27.22-6.4.69"/>
            <g class="cls-66">
              <rect class="cls-37" x="31.71" y="-10.92" width="23.54" height="65.48" transform="translate(21.15 65.04) rotate(-89.33)"/>
            </g>
          </g>
          <g>
            <path id="SVGID-31" data-name="SVGID" class="cls-43" d="M62.28,76.55c-1.11,2.91.35,6.18,3.27,7.29,2.92,1.11,6.18-.35,7.29-3.26,1.11-2.92-.35-6.18-3.26-7.29-.66-.25-1.34-.37-2.01-.37-2.28,0-4.42,1.39-5.28,3.64"/>
            <g class="cls-52">
              <rect class="cls-18" x="59.66" y="70.81" width="15.81" height="16.23" transform="translate(-30.26 113.94) rotate(-69.13)"/>
            </g>
          </g>
          <g>
            <path id="SVGID-33" data-name="SVGID" class="cls-58" d="M51.4,77.09c-.81,2.13.26,4.52,2.39,5.33,2.13.81,4.52-.26,5.33-2.39.81-2.13-.26-4.52-2.39-5.33-.48-.18-.98-.27-1.47-.27-1.66,0-3.23,1.01-3.86,2.66"/>
            <g class="cls-40">
              <rect class="cls-10" x="49.48" y="72.9" width="11.55" height="11.87" transform="translate(-38.09 102.38) rotate(-69.13)"/>
            </g>
          </g>
        </g>
      </g>
      <g>
        <path id="SVGID-35" data-name="SVGID" class="cls-64" d="M53.44,37.07c-.66.4-.96.9-.96.9l.3.66s2.87-3.04,5.89-.74c0,0-.75-1.07-2.32-1.3-.3-.04-.59-.07-.86-.07-.84,0-1.5.21-2.05.54"/>
        <g class="cls-68">
          <rect class="cls-30" x="52.48" y="35.58" width="6.19" height="3.04"/>
        </g>
      </g>
    </g>
    <text class="cls-44" transform="translate(89.31 59.48)"><tspan x="0" y="0">تکرام رپیاه</tspan><tspan x="76.36" y="0"> </tspan></text>
    <g>
      <path class="cls-26" d="M155.63,25.36h-11.02l1.43,4.59h1.44c-.83,1.36-1.32,2.94-1.37,4.64h0c0,2.92-2.38,5.3-5.3,5.3s-5.3-2.38-5.3-5.3v-12.1l-4.59,2.84v9.26c0,5.45,4.44,9.89,9.89,9.89,3.01,0,5.71-1.35,7.52-3.48,1.75,2.09,4.37,3.42,7.3,3.42,5.25,0,9.53-4.27,9.53-9.53s-4.27-9.53-9.53-9.53ZM155.63,39.82c-2.72,0-4.94-2.21-4.94-4.94s2.21-4.94,4.94-4.94,4.94,2.21,4.94,4.94-2.21,4.94-4.94,4.94Z"/>
      <path class="cls-26" d="M119.14,25.33h-9.68v4.59h9.68c2.72,0,4.94,2.21,4.94,4.94s-2.21,4.94-4.94,4.94h-9.68s-2.71,4.59-2.71,4.59h12.39c5.25,0,9.53-4.28,9.53-9.53s-4.27-9.53-9.53-9.53Z"/>
      <path class="cls-26" d="M102.65,34.85c0,2.72-2.21,4.94-4.94,4.94h-4.67s-2.69,4.59-2.69,4.59h7.37c5.25,0,9.53-4.28,9.53-9.53v-9.56l-4.59,2.07v7.5Z"/>
    </g>
  </g>
</svg>