<?xml version="1.0" encoding="UTF-8"?>
<svg id="Isolation_Mode" data-name="Isolation Mode" xmlns="http://www.w3.org/2000/svg" xmlns:xlink="http://www.w3.org/1999/xlink" viewBox="0 0 180 180">
  <defs>
    <style>
      .cls-1, .cls-2 {
        stroke-width: 0px;
      }

      .cls-1, .cls-3, .cls-4 {
        fill: #0e3b28;
      }

      .cls-2 {
        fill: none;
      }

      .cls-5 {
        clip-path: url(#clippath);
      }

      .cls-3 {
        font-family: BookmanOldStyle-Bold, 'Bookman Old Style';
        font-size: 42.37px;
        font-weight: 700;
      }

      .cls-4 {
        font-family: BookmanOldStyle, 'Bookman Old Style';
        font-size: 20.7px;
      }
    </style>
    <clipPath id="clippath">
      <rect class="cls-2" x="-95.39" y="31.58" width="268.82" height="45.19"/>
    </clipPath>
  </defs>
  <g class="cls-5">
    <path class="cls-1" d="M35.82,56.02c1.79,0,3.24-1.45,3.24-3.24s-1.45-3.24-3.24-3.24-3.24,1.45-3.24,3.24,1.45,3.24,3.24,3.24"/>
    <path class="cls-1" d="M135.45,55.76s0,0,0-.01c0-.02,0-.04,0-.06,0-.09,0-.17,0-.24,0-.02,0-.04,0-.06h0s0-.04,0-.05c0-.02,0-.04,0-.06,0-.03,0-.07,0-.1l-.04-.53h-.04c-.14-.83-.42-1.54-.86-2.12-.61-.8-1.37-1.43-2.25-1.86-.86-.42-1.78-.69-2.73-.81-.91-.12-1.72-.18-2.4-.18h-16.88c-.68,0-1.49.06-2.4.18-.95.12-1.86.4-2.73.81-.88.43-1.64,1.06-2.25,1.86-.44.57-.72,1.28-.86,2.12h-.04l-.04.53s0,.07,0,.1c0,.02,0,.04,0,.06,0,.01,0,.02,0,.04h0s0,.05,0,.07c0,.07,0,.15,0,.24,0,.02,0,.04,0,.06,0,0,0,0,0,.01,0,0,0,0,0,.01,0,.02,0,.04,0,.06,0,.05,0,.1,0,.13,0,.01,0,.03,0,.04h0c0,.11,0,.21.02.31v.05c.01.08.02.17.03.26.13,1.02.46,1.84,1.03,2.51.04.05.08.1.12.14h-9.72v-12.59h-8.12v1.91h1.35c1.38,0,1.63.55,1.71.73.29.63.43,1.5.43,2.58v9.88h1.85s37.54,0,37.54,0h.02c.42-.03.88-.08,1.35-.14.95-.12,1.86-.4,2.73-.81.82-.4,1.44-.9,2.13-1.71.56-.67.9-1.49,1.03-2.51.01-.09.02-.18.02-.26v-.06c.01-.1.02-.2.02-.31h0s0-.03,0-.04c0-.03,0-.08,0-.13,0-.02,0-.04,0-.06,0,0,0,0,0-.01M126.97,51.9c.38,0,.81.08,1.3.22.49.15.96.38,1.4.7.43.3.8.72,1.1,1.22.27.47.42,1.04.43,1.72-.01.66-.15.96-.43,1.44h0c-.3.51-.67.92-1.1,1.22-.27.19-.57.36-.88.5-.2.09-.37.15-.52.2-.35.11-.68.18-.98.21h-6.28v-7.42h5.95ZM110.38,51.9h.1s5.91,0,5.91,0v7.42h-1.13v-.04h-5.47c-.22-.04-.46-.09-.71-.17-.16-.05-.32-.11-.52-.2-.31-.14-.61-.31-.88-.5-.43-.3-.8-.72-1.1-1.22-.28-.48-.42-.78-.43-1.44.01-.67.15-1.25.43-1.72.3-.51.67-.92,1.1-1.22.44-.31.92-.55,1.4-.7.49-.15.93-.22,1.3-.22"/>
    <path class="cls-1" d="M82.42,49.68h-1.24s-24.71,0-24.71,0c-.68,0-1.49.06-2.4.18-.95.12-1.86.4-2.73.81-.88.43-1.64,1.06-2.25,1.86-.44.57-.72,1.28-.86,2.12h-.04l-.04.53s0,.07,0,.1c0,.02,0,.04,0,.06,0,.01,0,.02,0,.04h0s0,.05,0,.07c0,.07,0,.15,0,.24,0,.02,0,.04,0,.06,0,0,0,0,0,.01,0,0,0,0,0,.01,0,.02,0,.04,0,.06,0,.05,0,.1,0,.13,0,.01,0,.03,0,.04h0c0,.11,0,.21.02.31v.05c.01.08.02.17.03.26.13,1.02.46,1.84,1.03,2.51.69.82,1.31,1.31,2.13,1.71.86.42,1.78.69,2.73.81.47.06.93.11,1.35.13h.02s21.57,0,21.57,0v-2.48h-20.72c-.3-.03-.63-.1-.98-.21-.16-.05-.32-.11-.52-.2-.31-.14-.61-.31-.88-.5-.43-.3-.8-.72-1.1-1.22-.28-.48-.42-.78-.43-1.44.01-.67.16-1.25.43-1.72.3-.51.67-.92,1.1-1.22.44-.31.92-.55,1.4-.7.49-.15.93-.22,1.3-.22h.11s22.36,0,22.36,0v8.55c0,1.08-.15,1.94-.43,2.58-.08.18-.33.73-1.71.73h-1.35v2.48h8.12v-16.57h-1.29Z"/>
    <path class="cls-1" d="M41.34,56.02c0,1.08-.15,1.94-.43,2.58-.08.17-.31.68-1.52.73h-18.8c-.3-.03-.63-.1-.98-.21-.16-.05-.32-.11-.52-.2-.31-.14-.61-.31-.88-.5-.43-.3-.8-.72-1.1-1.22-.28-.48-.42-.78-.43-1.44.01-.67.16-1.25.43-1.72.3-.51.67-.92,1.1-1.22.44-.31.92-.55,1.4-.7.49-.15.93-.22,1.3-.22h1.84v-2.23h-1.99c-.68,0-1.49.06-2.4.18-.95.12-1.86.4-2.73.81-.88.43-1.64,1.06-2.25,1.86-.44.57-.72,1.28-.86,2.12h-.04l-.04.53s0,.07,0,.1c0,.02,0,.04,0,.06,0,.01,0,.02,0,.04h0s0,.05,0,.07c0,.07,0,.15,0,.24,0,.02,0,.04,0,.06,0,0,0,0,0,.01,0,0,0,0,0,.01,0,.02,0,.04,0,.06,0,.05,0,.1,0,.13,0,.01,0,.03,0,.04h0c0,.11,0,.21.02.31v.05c.01.08.02.17.03.26.13,1.02.46,1.84,1.03,2.51.69.82,1.31,1.31,2.13,1.71.86.42,1.78.69,2.73.81.47.06.93.11,1.35.13h.02s26.24,0,26.24,0v-12.15h-4.63v6.36Z"/>
    <path class="cls-1" d="M158.45,51.27l-.57,2.19c-1.24.19-2.78.31-4.45.31l1.69-2.84c-.49-.02-1.01-.03-1.53-.03-4.17,0-7.55.7-7.55,1.57s3.38,1.57,7.55,1.57,7.55-.7,7.55-1.57c0-.48-1.05-.91-2.7-1.2"/>
    <path class="cls-1" d="M153.59,40.39c-8.14,0-14.73,6.6-14.73,14.73,0,4.54,2.05,8.59,5.27,11.3.05-.44.12-.91.17-1.4.32-2.8,1.39-7.43,1.47-8.82.08-1.39-1.72-2.79-1.9-3.22-.13-.29-.13-.55.11-.91.09-.13.34-.31.54-.43,2.32-1.38,6.96-1.43,9.09-1.43.51,0,1.18,0,1.94.02l1.87-3.13s-.32-2.48-.11-2.88c.21-.4.43-1.04,1.81-.69,1.39.35,2.21,1.04,2.45,1.52.24.48-.03.99-.83,1.65-.8.67-1.41,1.2-1.41,1.2l-.66,2.55c1.71.22,3.39.64,4.39,1.43,0,0,.67.57.15,1.24-.28.37-1.86,1.68-1.78,3.06.08,1.39,1.15,6.02,1.47,8.82.06.49.12.95.17,1.38,3.21-2.7,5.26-6.75,5.26-11.28,0-8.14-6.6-14.73-14.73-14.73"/>
  </g>
  <text class="cls-4" transform="translate(9.06 147.06)"><tspan x="0" y="0">IRANIAN FOOD</tspan></text>
  <text class="cls-3" transform="translate(9.9 127.29)"><tspan x="0" y="0">HAVAN</tspan></text>
</svg>