<?xml version="1.0" encoding="UTF-8"?>
<svg id="Isolation_Mode" data-name="Isolation Mode" xmlns="http://www.w3.org/2000/svg" xmlns:xlink="http://www.w3.org/1999/xlink" viewBox="0 0 180 180">
  <defs>
    <style>
      .cls-1 {
        fill: #606262;
      }

      .cls-1, .cls-2, .cls-3, .cls-4, .cls-5, .cls-6, .cls-7, .cls-8, .cls-9, .cls-10, .cls-11, .cls-12 {
        stroke-width: 0px;
      }

      .cls-2 {
        fill: url(#linear-gradient);
      }

      .cls-3 {
        fill: url(#linear-gradient-6);
      }

      .cls-5 {
        fill: url(#linear-gradient-5);
      }

      .cls-6 {
        fill: #fff;
      }

      .cls-7 {
        fill: url(#linear-gradient-2);
      }

      .cls-8 {
        fill: url(#linear-gradient-7);
      }

      .cls-9 {
        fill: url(#linear-gradient-3);
      }

      .cls-10 {
        fill: url(#linear-gradient-9);
      }

      .cls-11 {
        fill: url(#linear-gradient-8);
      }

      .cls-12 {
        fill: url(#linear-gradient-4);
      }
    </style>
    <linearGradient id="linear-gradient" x1="113.04" y1="149.15" x2="133.54" y2="149.15" gradientUnits="userSpaceOnUse">
      <stop offset="0" stop-color="#f6ed9b"/>
      <stop offset=".02" stop-color="#f1e390"/>
      <stop offset=".09" stop-color="#e4cb76"/>
      <stop offset=".17" stop-color="#d9b660"/>
      <stop offset=".27" stop-color="#d1a64f"/>
      <stop offset=".38" stop-color="#cb9c43"/>
      <stop offset=".55" stop-color="#c7953c"/>
      <stop offset="1" stop-color="#c7943b"/>
    </linearGradient>
    <linearGradient id="linear-gradient-2" x1="-9.62" y1="115.44" x2="51.55" y2="115.44" gradientUnits="userSpaceOnUse">
      <stop offset="0" stop-color="#f6ed9b"/>
      <stop offset=".18" stop-color="#f1e391"/>
      <stop offset=".48" stop-color="#e3ca76"/>
      <stop offset=".87" stop-color="#cea24a"/>
      <stop offset="1" stop-color="#c7943b"/>
    </linearGradient>
    <linearGradient id="linear-gradient-3" x1="52.58" y1="116.56" x2="81.55" y2="116.56" xlink:href="#linear-gradient"/>
    <linearGradient id="linear-gradient-4" x1="67.33" y1="145.38" x2="82.21" y2="145.38" xlink:href="#linear-gradient"/>
    <linearGradient id="linear-gradient-5" x1="34.11" y1="158.61" x2="69.72" y2="158.61" gradientUnits="userSpaceOnUse">
      <stop offset="0" stop-color="#f6ed9b"/>
      <stop offset="0" stop-color="#f4ea97"/>
      <stop offset=".1" stop-color="#e6cf7b"/>
      <stop offset=".2" stop-color="#dab963"/>
      <stop offset=".31" stop-color="#d1a851"/>
      <stop offset=".44" stop-color="#cb9c44"/>
      <stop offset=".62" stop-color="#c8953d"/>
      <stop offset="1" stop-color="#c7943b"/>
    </linearGradient>
    <linearGradient id="linear-gradient-6" x1="11.1" y1="151.98" x2="36.28" y2="151.98" gradientUnits="userSpaceOnUse">
      <stop offset="0" stop-color="#f6ed9b"/>
      <stop offset=".18" stop-color="#f3e896"/>
      <stop offset=".4" stop-color="#ecdb87"/>
      <stop offset=".63" stop-color="#e0c56f"/>
      <stop offset=".88" stop-color="#d0a64e"/>
      <stop offset="1" stop-color="#c7943b"/>
    </linearGradient>
    <linearGradient id="linear-gradient-7" x1="107.18" y1="33.21" x2="121.96" y2="33.21" xlink:href="#linear-gradient"/>
    <linearGradient id="linear-gradient-8" x1="92.34" y1="33.21" x2="107.12" y2="33.21" xlink:href="#linear-gradient"/>
    <linearGradient id="linear-gradient-9" x1="126.89" y1="78.81" x2="134.29" y2="78.81" xlink:href="#linear-gradient"/>
  </defs>
  <path class="cls-2" d="M123.51,139.52l2.98,6.04c.04.07.1.12.18.13l6.66.97c.2.03.28.28.14.42l-4.82,4.7c-.06.06-.08.14-.07.22l1.14,6.63c.03.2-.18.35-.35.26l-5.96-3.13c-.07-.04-.16-.04-.23,0l-5.96,3.13c-.18.09-.39-.06-.35-.26l1.14-6.63c.01-.08-.01-.16-.07-.22l-4.82-4.7c-.15-.14-.07-.39.14-.42l6.66-.97c.08-.01.15-.06.18-.13l2.98-6.04c.09-.18.35-.18.44,0Z"/>
  <g>
    <path class="cls-7" d="M42.52,124.72l8.99-18.22c.15-.31-.14-.66-.47-.56l-60.38,18.22c-.44.13-.34.78.11.78h51.39c.15,0,.29-.09.36-.22Z"/>
    <path class="cls-9" d="M61.33,124.14c.06.12.17.2.3.22l19.46,2.83c.41.06.63-.47.29-.71l-28.17-20.46c-.34-.24-.77.13-.59.5l8.7,17.64Z"/>
    <path class="cls-12" d="M81.53,128.54l-14.08,13.73c-.09.09-.14.22-.11.35l3.32,19.38c.07.41.64.45.77.06l10.76-33.11c.13-.39-.36-.7-.65-.41Z"/>
    <path class="cls-5" d="M69.51,162.84l-17.41-9.15c-.12-.06-.25-.06-.37,0l-17.41,9.15c-.37.19-.23.75.18.75h34.82c.41,0,.55-.56.18-.75Z"/>
    <path class="cls-3" d="M35.88,141.61l-24.38.17c-.36,0-.53.44-.27.69l21.12,19.78c.23.22.61.09.66-.23l3.26-19.95c.04-.24-.15-.46-.39-.46Z"/>
  </g>
  <g>
    <path class="cls-1" d="M101.74,126.35l-5.23-6.46c-.05-.06-.12-.09-.19-.09h-1.88c-.14,0-.24.11-.24.24v16.04c0,.14.11.24.24.24h1.88c.14,0,.24-.11.24-.24v-11.93c0-.23.29-.33.44-.15l4.63,5.76c.05.06.12.09.19.09h.2c.07,0,.15-.03.19-.09l4.57-5.75c.14-.18.44-.08.44.15v11.92c0,.14.11.24.24.24h1.89c.14,0,.24-.11.24-.24v-16.04c0-.14-.11-.24-.24-.24h-1.85c-.07,0-.14.03-.19.09l-5.2,6.46c-.1.12-.28.12-.38,0Z"/>
    <path class="cls-1" d="M116,131.43h6.73c.1,0,.18.06.22.14l2.07,4.61c.04.09.13.14.22.14h1.89c.18,0,.3-.18.22-.34l-7.2-16.14c-.04-.09-.13-.15-.22-.15h-1.34c-.1,0-.19.06-.22.15l-6.89,16.14c-.07.16.05.34.22.34h1.9c.1,0,.19-.06.23-.15l1.94-4.6c.04-.09.13-.15.23-.15ZM119.49,123.85l2.28,5.12c.07.16-.05.34-.22.34h-4.4c-.17,0-.29-.18-.23-.34l2.12-5.12c.08-.2.36-.2.45,0Z"/>
    <path class="cls-1" d="M137.57,136.18c.52-.08,1.09-.25,1.72-.49,1.07-.4,2-1,2.81-1.79.79-.77,1.4-1.65,1.82-2.66.43-1.01.64-2.07.64-3.17,0-1.55-.39-2.97-1.16-4.28-.77-1.31-1.81-2.3-3.12-2.98-1.31-.67-3.09-1.01-5.34-1.01h-5.33c-.14,0-.24.11-.24.24v16.02c0,.14.11.24.24.24h4.99c1.47,0,2.46-.04,2.98-.12ZM131.72,122.15c0-.14.11-.24.24-.24h2.71c1.14,0,1.96.04,2.47.13.51.09,1.06.26,1.63.53.57.27,1.08.61,1.52,1.03,1.2,1.12,1.8,2.57,1.8,4.34s-.58,3.3-1.75,4.49c-.36.36-.76.67-1.2.92-.44.25-.98.45-1.64.62-.66.16-1.57.24-2.76.24h-2.79c-.14,0-.24-.11-.24-.24v-11.81Z"/>
    <path class="cls-1" d="M151.39,119.85l-6.89,16.14c-.07.16.05.34.22.34h1.9c.1,0,.19-.06.23-.15l1.94-4.6c.04-.09.13-.15.23-.15h6.73c.1,0,.18.06.22.14l2.07,4.61c.04.09.13.14.22.14h1.89c.18,0,.3-.18.22-.34l-7.2-16.14c-.04-.09-.13-.15-.22-.15h-1.34c-.1,0-.19.06-.22.15ZM149.93,128.98l2.12-5.12c.08-.2.36-.2.45,0l2.28,5.12c.07.16-.05.34-.22.34h-4.4c-.17,0-.29-.18-.23-.34Z"/>
    <path class="cls-1" d="M164.78,129.38c0-.14.11-.24.24-.24h.37c.77,0,1.33.09,1.65.27.33.18.7.47,1.1.87s.85.94,1.34,1.61c0,0,0,.01.01.02l.79,1.28.73,1.2s0,0,0,.01l.46.64c.07.09.12.16.14.2l.65.98c.05.07.12.11.2.11h2.2c.2,0,.32-.23.2-.39l-.59-.79c-.35-.47-.81-1.18-1.38-2.12-.92-1.49-1.63-2.54-2.13-3.14-.4-.47-.8-.86-1.21-1.18-.14-.11-.12-.33.04-.41.71-.34,1.28-.81,1.69-1.41.48-.7.72-1.53.72-2.5,0-1.41-.49-2.53-1.47-3.36-.98-.83-2.31-1.24-3.98-1.24h-3.9c-.14,0-.24.11-.24.24v16.04c0,.14.11.24.24.24h1.88c.14,0,.24-.11.24-.24v-6.71ZM164.78,122.05c0-.14.11-.24.24-.24h.47c1.16,0,1.99.09,2.49.26.5.17.89.47,1.17.89.28.42.41.89.41,1.41s-.12,1-.37,1.41c-.25.41-.6.72-1.04.93-.45.21-1.27.31-2.47.31h-.65c-.14,0-.24-.11-.24-.24v-4.73Z"/>
    <path class="cls-1" d="M106.24,149h-9.27c-.14,0-.24-.11-.24-.24v-7.02c0-.14-.11-.24-.24-.24h-2c-.14,0-.24.11-.24.24v16.87c0,.14.11.24.24.24h2c.14,0,.24-.11.24-.24v-7.07c0-.14.11-.24.24-.24h9.27c.14,0,.24.11.24.24v7.07c0,.14.11.24.24.24h2c.14,0,.24-.11.24-.24v-16.87c0-.14-.11-.24-.24-.24h-2c-.14,0-.24.11-.24.24v7.02c0,.14-.11.24-.24.24Z"/>
    <path class="cls-1" d="M133.87,143.68h5.46c.14,0,.24.11.24.24v14.69c0,.14.11.24.24.24h2.01c.14,0,.24-.11.24-.24v-14.69c0-.14.11-.24.24-.24h5.56c.14,0,.24-.11.24-.24v-1.72c0-.14-.11-.24-.24-.24h-14.02c-.14,0-.24.11-.24.24v1.72c0,.14.11.24.24.24Z"/>
    <path class="cls-1" d="M161.83,143.46v-1.72c0-.14-.11-.24-.24-.24h-9.35c-.14,0-.24.11-.24.24v16.85c0,.14.11.24.24.24h9.59c.14,0,.24-.11.24-.24v-1.72c0-.14-.11-.24-.24-.24h-7.11c-.14,0-.24-.11-.24-.24v-4.91c0-.14.11-.24.24-.24h6.62c.14,0,.24-.11.24-.24v-1.74c0-.14-.11-.24-.24-.24h-6.62c-.14,0-.24-.11-.24-.24v-4.81c0-.14.11-.24.24-.24h6.87c.14,0,.24-.11.24-.24Z"/>
    <path class="cls-1" d="M168.46,141.49h-2c-.14,0-.24.11-.24.24v16.87c0,.14.11.24.24.24h9.81c.14,0,.24-.11.24-.24v-1.77c0-.14-.11-.24-.24-.24h-7.33c-.14,0-.24-.11-.24-.24v-14.61c0-.14-.11-.24-.24-.24Z"/>
  </g>
  <g>
    <rect class="cls-4" x="11.61" y="13.21" width="164.21" height="78.06"/>
    <path class="cls-6" d="M159.3,48.56c-1.15-1.94-2.72-3.51-4.66-4.66-1.95-1.15-4.11-1.74-6.42-1.74h-28.88v7.36h1.55c-.28.47-.52.97-.72,1.5-.47,1.24-.71,2.57-.71,3.96,0,2.03.48,3.85,1.43,5.46h-3.46c-1.51,0-2.77-.53-3.85-1.61-1.08-1.08-1.61-2.34-1.61-3.85v-12.2l-7.36,1.82v10.38c0,1.51-.53,2.77-1.61,3.85s-2.34,1.61-3.85,1.61h-16.8c-1.51,0-2.77-.53-3.85-1.61-1.08-1.08-1.61-2.34-1.61-3.85v-27.84l-7.42,1.81v41.18c0,1.51-.52,2.77-1.58,3.86-1.06,1.08-2.33,1.6-3.87,1.6h-6.05c-1.51,0-2.77-.53-3.85-1.61s-1.61-2.34-1.61-3.85v-15.13l-7.42,1.81v13.31c0,2.35.59,4.52,1.74,6.48,1.15,1.95,2.73,3.51,4.7,4.63,1.97,1.13,4.13,1.7,6.43,1.7h6.05c2.34,0,4.52-.57,6.47-1.7h0c1.95-1.13,3.52-2.69,4.67-4.63,1.15-1.95,1.74-4.13,1.74-6.48v-3.61c1.71.84,3.53,1.27,5.46,1.27h16.8c2,0,3.9-.46,5.64-1.38,1.31-.69,2.47-1.58,3.46-2.64.97,1.07,2.14,1.96,3.49,2.65,1.77.91,3.69,1.37,5.69,1.37h30.8c2.3,0,4.46-.59,6.42-1.74,1.94-1.15,3.51-2.71,4.66-4.66,1.15-1.95,1.74-4.11,1.74-6.42s-.59-4.46-1.74-6.42ZM145.09,54.98c0-1.35-.25-2.67-.75-3.91h0c-.21-.54-.46-1.05-.75-1.54h4.63c1.51,0,2.77.52,3.86,1.58,1.08,1.06,1.6,2.33,1.6,3.87s-.53,2.77-1.61,3.85-2.34,1.61-3.85,1.61h-4.59c.97-1.64,1.46-3.47,1.46-5.46ZM137.73,54.98c0,1.51-.53,2.77-1.61,3.85s-2.34,1.61-3.85,1.61-2.77-.53-3.85-1.61-1.61-2.34-1.61-3.85.52-2.81,1.6-3.87c1.08-1.07,2.34-1.58,3.86-1.58s2.77.52,3.86,1.58c1.08,1.06,1.6,2.33,1.6,3.87Z"/>
    <path class="cls-8" d="M121.8,31.42l-4.8-.7c-.06,0-.11-.04-.13-.1l-2.15-4.35c-.06-.13-.25-.13-.32,0l-2.15,4.35c-.03.05-.08.09-.13.1l-4.8.7c-.14.02-.2.2-.1.3l3.47,3.39s.06.1.05.16l-.82,4.78c-.02.14.13.25.26.19l4.29-2.26c.05-.03.11-.03.16,0l4.29,2.26c.13.07.28-.04.26-.19l-.82-4.78c0-.06,0-.12.05-.16l3.47-3.39c.1-.1.05-.28-.1-.3Z"/>
    <path class="cls-11" d="M106.97,31.42l-4.8-.7c-.06,0-.11-.04-.13-.1l-2.15-4.35c-.06-.13-.25-.13-.32,0l-2.15,4.35c-.03.05-.08.09-.13.1l-4.8.7c-.14.02-.2.2-.1.3l3.47,3.39s.06.1.05.16l-.82,4.78c-.02.14.13.25.26.19l4.29-2.26c.05-.03.11-.03.16,0l4.29,2.26c.13.07.28-.04.26-.19l-.82-4.78c0-.06,0-.12.05-.16l3.47-3.39c.1-.1.05-.28-.1-.3Z"/>
    <g>
      <polygon class="cls-6" points="25.42 39.36 25.42 48.77 23.08 50.29 28.27 53.39 28.26 38.63 25.42 39.36"/>
      <path class="cls-6" d="M35.73,39.05c-.76-.44-1.61-.66-2.52-.66h-3.05v2.82h3.05c.62,0,1.13.21,1.56.63.43.42.64.93.64,1.54v2.18h-5.85v2.82h8.64v-4.99c0-.91-.22-1.76-.66-2.52-.44-.76-1.05-1.37-1.81-1.81Z"/>
      <path class="cls-6" d="M62.08,40.85c-.45-.76-1.06-1.37-1.82-1.82h0c-.76-.45-1.61-.68-2.52-.68h-4.99v5.02c0,.6-.21,1.1-.64,1.53s-.93.64-1.53.64h-6.14c-.6,0-1.1-.21-1.53-.64-.43-.43-.64-.93-.64-1.53v-9.34l-2.82.7v8.65c0,.9.23,1.74.68,2.5.45.76,1.06,1.37,1.82,1.82.76.45,1.6.68,2.5.68h6.14c.78,0,1.52-.18,2.21-.54.53-.27.99-.63,1.39-1.06.38.43.84.78,1.37,1.06.68.36,1.43.54,2.21.54.91,0,1.76-.23,2.52-.68.76-.45,1.37-1.06,1.82-1.82.45-.76.68-1.6.68-2.5s-.23-1.76-.68-2.52ZM59.92,43.38c0,.6-.21,1.1-.63,1.54-.42.43-.93.64-1.54.64s-1.1-.21-1.52-.64c-.42-.43-.63-.93-.63-1.54v-2.18h2.15c.62,0,1.12.21,1.55.63.42.42.63.93.63,1.55Z"/>
    </g>
    <g>
      <path class="cls-10" d="M134.22,77.91l-2.41-.35s-.05-.02-.07-.05l-1.08-2.18c-.03-.07-.13-.07-.16,0l-1.08,2.18s-.04.04-.07.05l-2.41.35c-.07.01-.1.1-.05.15l1.74,1.7s.03.05.03.08l-.41,2.4c-.01.07.06.13.13.09l2.15-1.13s.06-.01.08,0l2.15,1.13c.06.03.14-.02.13-.09l-.41-2.4s0-.06.03-.08l1.74-1.7c.05-.05.02-.14-.05-.15Z"/>
      <path class="cls-6" d="M89.82,76.3h-.67s-.09.02-.12.06l-1.88,2.34s-.01,0-.02,0-.01,0-.02,0l-1.89-2.34s-.07-.06-.12-.06h-.68c-.09,0-.16.07-.16.16v5.8c0,.09.07.16.16.16h.68c.09,0,.16-.07.16-.16v-4.31s0-.02.01-.02c0,0,.02,0,.02,0l1.67,2.08s.07.06.12.06h.07s.09-.02.12-.06l1.65-2.08s.02,0,.02,0c0,0,.01,0,.01.02v4.31c0,.09.07.16.16.16h.68c.09,0,.16-.07.16-.16v-5.8c0-.09-.07-.16-.16-.16Z"/>
      <path class="cls-6" d="M93.79,76.36c-.02-.06-.08-.09-.14-.09h-.49c-.06,0-.12.04-.14.09l-2.49,5.83s-.02.1.01.15.08.07.13.07h.69c.06,0,.12-.04.14-.1l.7-1.66s.01-.01.02-.01h2.43s.02,0,.02.01l.75,1.67c.03.06.08.09.14.09h.68c.05,0,.1-.03.13-.07.03-.04.03-.1.01-.15l-2.6-5.83ZM94.24,79.73s0,0-.02,0h-1.59s-.02,0-.02,0c0,0,0-.01,0-.02l.76-1.85s.01-.01.02-.01c0,0,.01,0,.02.01l.82,1.85s0,.02,0,.02Z"/>
      <path class="cls-6" d="M102.17,77.77c-.28-.48-.67-.85-1.16-1.1-.48-.25-1.14-.37-1.96-.37h-1.93c-.09,0-.16.07-.16.16v5.79c0,.09.07.16.16.16h1.8c.54,0,.89-.01,1.09-.05.19-.03.41-.09.63-.18.39-.15.74-.37,1.04-.66.29-.28.52-.61.67-.98.16-.37.24-.77.24-1.17,0-.57-.14-1.1-.43-1.58ZM100.97,80.88c-.13.13-.27.23-.42.32-.15.09-.35.16-.58.22-.23.06-.56.09-.98.09h-1.01s-.02,0-.02-.02v-4.27s0-.02.02-.02h.98c.4,0,.7.02.88.05.18.03.37.09.57.19.2.09.38.21.53.36.42.39.63.9.63,1.52s-.21,1.16-.61,1.57Z"/>
      <path class="cls-6" d="M105.71,76.36c-.02-.06-.08-.09-.14-.09h-.49c-.06,0-.12.04-.14.09l-2.49,5.83s-.02.1.01.15.08.07.13.07h.69c.06,0,.12-.04.14-.1l.7-1.66s.01-.01.02-.01h2.43s.02,0,.02.01l.75,1.67c.03.06.08.09.14.09h.68c.05,0,.1-.03.13-.07s.03-.1.01-.15l-2.6-5.83ZM106.17,79.73s0,0-.02,0h-1.59s-.02,0-.02,0c0,0,0-.01,0-.02l.76-1.85s.01-.01.02-.01c0,0,.01,0,.02.01l.82,1.85s0,.02,0,.02Z"/>
      <path class="cls-6" d="M113.33,81.87c-.12-.17-.29-.43-.5-.76-.33-.54-.59-.92-.78-1.14-.15-.17-.3-.32-.45-.44,0,0,0-.01,0-.02,0,0,0-.01.01-.02.27-.13.48-.31.64-.53.18-.26.27-.58.27-.94,0-.53-.19-.95-.56-1.27-.37-.31-.86-.46-1.48-.46h-1.41c-.09,0-.16.07-.16.16v5.8c0,.09.07.16.16.16h.68c.09,0,.16-.07.16-.16v-2.42s0-.02.02-.02h.13c.27,0,.46.03.57.09.11.06.24.16.38.3.14.14.3.33.48.58l.55.9.17.24s.04.05.05.07l.23.35s.08.07.13.07h.79c.06,0,.11-.03.14-.09.03-.05.02-.12-.01-.16l-.21-.29ZM111.38,78.5c-.08.14-.2.24-.35.31-.15.07-.44.11-.86.11h-.24s-.02,0-.02-.02v-1.71s0-.02.02-.02h.17c.41,0,.7.03.88.09.17.06.29.16.39.3.09.14.14.3.14.47s-.04.34-.13.48Z"/>
      <path class="cls-6" d="M125.33,75.98h-.72c-.09,0-.16.07-.16.16v2.54s0,.02-.02.02h-3.35s-.02,0-.02-.02v-2.54c0-.09-.07-.16-.16-.16h-.72c-.09,0-.16.07-.16.16v6.1c0,.09.07.16.16.16h.72c.09,0,.16-.07.16-.16v-2.55s0-.02.02-.02h3.35s.02,0,.02.02v2.55c0,.09.07.16.16.16h.72c.09,0,.16-.07.16-.16v-6.1c0-.09-.07-.16-.16-.16Z"/>
      <path class="cls-6" d="M139.48,75.97h-5.06c-.09,0-.16.07-.16.16v.62c0,.09.07.16.16.16h1.97s.02,0,.02.02v5.31c0,.09.07.16.16.16h.73c.09,0,.16-.07.16-.16v-5.31s0-.02.02-.02h2.01c.09,0,.16-.07.16-.16v-.62c0-.09-.07-.16-.16-.16Z"/>
      <path class="cls-6" d="M144.51,81.44h-2.57s-.02,0-.02-.02v-1.77s0-.02.02-.02h2.39c.09,0,.16-.07.16-.16v-.63c0-.09-.07-.16-.16-.16h-2.39s-.02,0-.02-.02v-1.74s0-.02.02-.02h2.48c.09,0,.16-.07.16-.16v-.62c0-.09-.07-.16-.16-.16h-3.38c-.09,0-.16.07-.16.16v6.09c0,.09.07.16.16.16h3.47c.09,0,.16-.07.16-.16v-.62c0-.09-.07-.16-.16-.16Z"/>
      <path class="cls-6" d="M149.73,81.43h-2.65s-.02,0-.02-.02v-5.28c0-.09-.07-.16-.16-.16h-.72c-.09,0-.16.07-.16.16v6.1c0,.09.07.16.16.16h3.55c.09,0,.16-.07.16-.16v-.64c0-.09-.07-.16-.16-.16Z"/>
    </g>
  </g>
</svg>