<?xml version="1.0" encoding="UTF-8"?>
<svg id="Isolation_Mode" data-name="Isolation Mode" xmlns="http://www.w3.org/2000/svg" viewBox="0 0 180 180">
  <defs>
    <style>
      .cls-1, .cls-2, .cls-3 {
        stroke-width: 0px;
      }

      .cls-2 {
        fill: #b0dcc9;
      }

      .cls-3 {
        fill: #c6a375;
      }
    </style>
  </defs>
  <circle class="cls-2" cx="158.08" cy="103.08" r="2.28"/>
  <path class="cls-2" d="M146.6,106.77c-3.45,0-6.24,2.79-6.24,6.24s2.79,6.24,6.24,6.24,6.24-2.79,6.24-6.24-2.79-6.24-6.24-6.24ZM146.6,116.9c-2.15,0-3.89-1.74-3.89-3.89s1.74-3.89,3.89-3.89,3.89,1.74,3.89,3.89-1.74,3.89-3.89,3.89Z"/>
  <path class="cls-1" d="M15.16,121.03h-2.82v-16.46h10.3c2.93,0,5.32,2.39,5.32,5.32s-2.39,5.32-5.32,5.32h-6.28v-2.82h6.28c1.38,0,2.5-1.12,2.5-2.5s-1.12-2.5-2.5-2.5h-7.47v13.64Z"/>
  <rect class="cls-1" x="29.04" y="105.04" width="2.82" height="15.88"/>
  <path class="cls-1" d="M46.33,121.26h-11.48v-1.41c0-2.21.86-4.29,2.42-5.85l6.48-6.48h-9.39v-2.82h11.88c.73,0,1.38.43,1.66,1.11.28.67.13,1.44-.39,1.95l-8.24,8.24c-.69.69-1.17,1.53-1.41,2.44h8.48v2.82Z"/>
  <path class="cls-1" d="M61.25,121.26h-11.48v-1.41c0-2.21.86-4.29,2.42-5.85l6.48-6.48h-9.39v-2.82h11.88c.73,0,1.38.43,1.66,1.11.28.67.13,1.44-.39,1.95l-8.24,8.24c-.69.69-1.17,1.53-1.41,2.44h8.48v2.82Z"/>
  <path class="cls-1" d="M68.68,120.56h-2.82v-10.72c0-3.42,2.79-6.21,6.21-6.21s6.21,2.79,6.21,6.21v10.6h-2.82v-10.6c0-1.87-1.52-3.39-3.39-3.39s-3.39,1.52-3.39,3.39v10.72Z"/>
  <path class="cls-1" d="M104.07,122.12c-3.69,0-7.53-3.42-7.99-3.84l1.91-2.08c1.04.95,4.24,3.37,6.45,3.07.68-.09,1.2-.45,1.64-1.13.22-.37.27-.81.16-1.22-.12-.42-.39-.77-.78-.97l-6.73-3.6c-2.17-1.16-3.07-3.82-2.05-6.06l.04-.08.04-.07c.84-1.37,2.06-2.22,3.54-2.46,3.67-.6,7.75,2.7,8.2,3.08l-1.81,2.17c-.96-.8-3.9-2.8-5.94-2.46-.64.11-1.13.45-1.53,1.07-.35.87,0,1.88.84,2.32l6.73,3.6c1.07.57,1.84,1.53,2.17,2.71.33,1.17.16,2.39-.46,3.44l-.02.03c-.88,1.4-2.15,2.24-3.67,2.44-.25.03-.49.05-.74.05Z"/>
  <path class="cls-1" d="M119.62,121.38c-4.7,0-8.52-3.82-8.52-8.52s3.82-8.52,8.52-8.52,8.52,3.82,8.52,8.52-3.82,8.52-8.52,8.52ZM119.62,107.16c-3.14,0-5.7,2.56-5.7,5.7s2.56,5.7,5.7,5.7,5.7-2.56,5.7-5.7-2.56-5.7-5.7-5.7Z"/>
  <circle class="cls-3" cx="119.51" cy="112.62" r="2.49"/>
  <path class="cls-2" d="M76.26,116.86c-1.98,0-5.4-.33-10.07-2.01-6.67-2.39-9.34-1.94-9.37-1.94.02,0,.03,0,.03,0l-.62-2.76c.33-.07,3.42-.65,10.91,2.04,6.77,2.43,10.52,1.76,10.55,1.75l.51-.04.05,2.81c-.07.01-.75.15-1.99.15Z"/>
  <path class="cls-1" d="M89.25,122.12c-3.69,0-7.53-3.42-7.99-3.84l1.91-2.08c1.04.95,4.24,3.37,6.45,3.07.68-.09,1.2-.45,1.64-1.13.22-.37.27-.81.16-1.22-.12-.42-.39-.77-.78-.97l-6.73-3.6c-2.17-1.16-3.07-3.82-2.05-6.06l.04-.08.04-.07c.84-1.37,2.06-2.22,3.54-2.46,3.67-.6,7.75,2.7,8.2,3.08l-1.81,2.17c-.96-.8-3.9-2.8-5.94-2.46-.64.11-1.13.45-1.53,1.07-.35.87,0,1.88.84,2.32l6.73,3.6c1.07.57,1.84,1.53,2.17,2.71.33,1.17.16,2.39-.46,3.44l-.02.03c-.88,1.4-2.15,2.24-3.67,2.44-.25.03-.49.05-.74.05Z"/>
  <path class="cls-1" d="M89.25,122.12c-3.69,0-7.53-3.42-7.99-3.84l1.91-2.08c1.04.95,4.24,3.37,6.45,3.07.68-.09,1.2-.45,1.64-1.13.22-.37.27-.81.16-1.22-.12-.42-.39-.77-.78-.97l-6.73-3.6c-2.17-1.16-3.07-3.82-2.05-6.06l.04-.08.04-.07c.84-1.37,2.06-2.22,3.54-2.46,3.67-.6,7.75,2.7,8.2,3.08l-1.81,2.17c-.96-.8-3.9-2.8-5.94-2.46-.64.11-1.13.45-1.53,1.07-.35.87,0,1.88.84,2.32l6.73,3.6c1.07.57,1.84,1.53,2.17,2.71.33,1.17.16,2.39-.46,3.44l-.02.03c-.88,1.4-2.15,2.24-3.67,2.44-.25.03-.49.05-.74.05Z"/>
  <g>
    <path class="cls-2" d="M141.52,102.18l-2.45,1.4,4.22,7.4c.51-.83,1.32-1.45,2.28-1.71l-4.04-7.08Z"/>
    <path class="cls-2" d="M165.95,92.41c3.45,1.21,5.57,2.57,5.59,2.59l1.54-2.36c-.09-.06-2.36-1.53-6.11-2.86-3.45-1.22-8.87-2.54-15.14-1.93-11.92,1.16-17.2,5.01-17.42,5.17l-1.05.79,4.89,7.62,1.14-.59c.06-.03,6.53-3.32,13.64-3.94,6.54-.57,11.97,2.02,14.2,3.29l-13.64,23.16-4.3-7.54c-.68.66-1.61,1.07-2.63,1.09l6.89,12.08,17.46-29.65-1.05-.75c-.3-.22-7.54-5.33-17.19-4.49-5.9.52-11.24,2.66-13.52,3.69l-2.03-3.17c2.02-1.08,6.82-3.17,14.88-3.95,5.71-.55,10.68.65,13.84,1.75Z"/>
  </g>
</svg>