<?xml version="1.0" encoding="UTF-8"?>
<svg id="Isolation_Mode" data-name="Isolation Mode" xmlns="http://www.w3.org/2000/svg" xmlns:xlink="http://www.w3.org/1999/xlink" viewBox="0 0 180 180">
  <defs>
    <style>
      .cls-1 {
        fill: url(#linear-gradient-12);
      }

      .cls-1, .cls-2, .cls-3, .cls-4, .cls-5, .cls-6, .cls-7, .cls-8, .cls-9, .cls-10, .cls-11, .cls-12 {
        stroke-width: 0px;
      }

      .cls-2 {
        fill: url(#linear-gradient);
      }

      .cls-3 {
        fill: url(#linear-gradient-6);
      }

      .cls-4 {
        fill: url(#linear-gradient-11);
      }

      .cls-5 {
        fill: url(#linear-gradient-5);
      }

      .cls-6 {
        fill: url(#linear-gradient-2);
      }

      .cls-7 {
        fill: url(#linear-gradient-7);
      }

      .cls-8 {
        fill: url(#linear-gradient-3);
      }

      .cls-9 {
        fill: url(#linear-gradient-9);
      }

      .cls-10 {
        fill: url(#linear-gradient-8);
      }

      .cls-11 {
        fill: url(#linear-gradient-10);
      }

      .cls-12 {
        fill: url(#linear-gradient-4);
      }
    </style>
    <linearGradient id="linear-gradient" x1="99.37" y1="85.6" x2="113.4" y2="85.6" gradientUnits="userSpaceOnUse">
      <stop offset="0" stop-color="#7c5200"/>
      <stop offset="1" stop-color="#7c5200"/>
    </linearGradient>
    <linearGradient id="linear-gradient-2" x1="115.07" y1="85.61" x2="128.68" y2="85.61" xlink:href="#linear-gradient"/>
    <linearGradient id="linear-gradient-3" x1="129.78" y1="85.61" x2="142.16" y2="85.61" xlink:href="#linear-gradient"/>
    <linearGradient id="linear-gradient-4" x1="143.38" y1="85.55" x2="157.55" y2="85.55" xlink:href="#linear-gradient"/>
    <linearGradient id="linear-gradient-5" x1="99.77" y1="108.8" y2="108.8" xlink:href="#linear-gradient"/>
    <linearGradient id="linear-gradient-6" x1="114.51" y1="108.87" x2="128.68" y2="108.87" xlink:href="#linear-gradient"/>
    <linearGradient id="linear-gradient-7" x1="132.21" y1="108.9" x2="139.87" y2="108.9" xlink:href="#linear-gradient"/>
    <linearGradient id="linear-gradient-8" x1="143.65" y1="108.93" x2="157.27" y2="108.93" xlink:href="#linear-gradient"/>
    <linearGradient id="linear-gradient-9" x1="18.56" y1="101.52" x2="41.16" y2="101.52" gradientUnits="userSpaceOnUse">
      <stop offset="0" stop-color="#f6ed9b"/>
      <stop offset=".07" stop-color="#f4e58f"/>
      <stop offset=".52" stop-color="#e7b642"/>
      <stop offset=".84" stop-color="#df9912"/>
      <stop offset="1" stop-color="#dc8e00"/>
    </linearGradient>
    <linearGradient id="linear-gradient-10" x1="31.19" y1="103.09" x2="95.68" y2="103.09" gradientUnits="userSpaceOnUse">
      <stop offset="0" stop-color="#f6ed9b"/>
      <stop offset=".1" stop-color="#f0d879"/>
      <stop offset=".22" stop-color="#eac154"/>
      <stop offset=".35" stop-color="#e5af35"/>
      <stop offset=".49" stop-color="#e1a01e"/>
      <stop offset=".64" stop-color="#de960d"/>
      <stop offset=".8" stop-color="#dc8f03"/>
      <stop offset="1" stop-color="#dc8e00"/>
    </linearGradient>
    <linearGradient id="linear-gradient-11" x1="41.58" y1="73.71" x2="59.94" y2="73.71" xlink:href="#linear-gradient-10"/>
    <linearGradient id="linear-gradient-12" x1="66.92" y1="73.71" x2="85.28" y2="73.71" xlink:href="#linear-gradient-10"/>
  </defs>
  <g>
    <path class="cls-2" d="M112.81,79.05c-.21-.58-.47-1.12-.8-1.6-.33-.48-.73-.9-1.19-1.26-.46-.35-1-.63-1.61-.82-.61-.2-1.3-.29-2.08-.29-.7,0-1.35.11-1.95.31-.6.21-1.15.5-1.64.87-.5.37-.94.81-1.34,1.31-.4.51-.75,1.05-1.06,1.64-.31.59-.57,1.2-.8,1.85-.22.65-.41,1.3-.55,1.96-.14.66-.25,1.31-.31,1.95-.07.64-.1,1.25-.1,1.82,0,.72.05,1.46.16,2.2.1.74.27,1.46.49,2.15.22.69.52,1.34.87,1.95.36.61.79,1.14,1.3,1.59.51.45,1.1.81,1.77,1.07.67.26,1.43.39,2.28.39s1.66-.12,2.44-.37c.78-.25,1.48-.61,2.11-1.09.63-.47,1.16-1.05,1.59-1.73.43-.68.72-1.44.87-2.31,0-.04.01-.07.01-.1v-.1c0-.22-.04-.44-.13-.63-.09-.2-.2-.37-.35-.52-.14-.14-.32-.26-.52-.35-.2-.09-.41-.13-.63-.13-.24,0-.45.03-.62.1-.18.07-.33.17-.45.29s-.23.27-.31.44c-.09.17-.16.36-.23.57-.28.9-.75,1.57-1.39,2.01-.65.43-1.44.65-2.38.65-.5,0-.93-.1-1.31-.29-.37-.2-.69-.45-.96-.78-.27-.32-.49-.69-.67-1.12-.18-.42-.32-.86-.42-1.31-.1-.45-.17-.9-.21-1.35-.04-.45-.06-.86-.06-1.25,0-.43.03-.94.1-1.52.06-.58.17-1.19.32-1.81.15-.63.34-1.24.57-1.86.23-.61.52-1.16.85-1.64.34-.48.73-.87,1.17-1.17.44-.3.95-.44,1.51-.44.47,0,.87.07,1.2.22.33.14.61.34.83.59.22.25.39.53.52.86.13.33.22.67.29,1.04.07.37.1.74.12,1.12.01.38.02.75.02,1.11,0,.22.04.43.12.63.08.2.19.38.33.53.14.15.31.27.5.36.2.09.4.14.63.14.31,0,.57-.05.79-.16s.39-.25.52-.44c.13-.18.23-.4.29-.65.06-.25.09-.51.09-.78,0-.68-.05-1.35-.14-2-.09-.65-.24-1.27-.45-1.85Z"/>
    <path class="cls-6" d="M128.45,83.2c-.09-.67-.21-1.33-.37-2-.16-.66-.36-1.29-.6-1.89-.25-.6-.54-1.16-.9-1.67-.35-.51-.76-.96-1.23-1.34-.47-.38-1.01-.68-1.61-.89-.6-.21-1.29-.32-2.06-.32-.6,0-1.16.08-1.69.25-.52.17-1,.4-1.44.69-.43.3-.82.65-1.17,1.06-.34.41-.63.86-.87,1.34-.24.48-.42,1-.54,1.54-.12.54-.18,1.1-.18,1.66,0,.27.03.53.08.78.05.25.14.48.27.67.13.2.3.35.51.47.21.12.48.17.79.17s.58-.06.79-.17c.21-.12.37-.27.49-.47.12-.2.2-.42.26-.67.05-.25.08-.51.08-.78,0-.39.05-.78.15-1.17.1-.39.26-.74.47-1.06.21-.31.48-.57.82-.77.34-.2.74-.3,1.2-.3.53,0,.98.11,1.36.32.38.21.7.5.97.85.26.35.48.75.63,1.2.16.45.28.92.37,1.39.09.47.16.94.2,1.4.04.46.08.88.11,1.25-.22-.1-.47-.19-.75-.27-.28-.08-.56-.15-.84-.21-.29-.06-.57-.1-.86-.13-.29-.03-.56-.04-.81-.04-.59,0-1.18.07-1.76.21-.58.14-1.13.33-1.64.59-.52.26-1,.57-1.44.94-.44.37-.82.79-1.14,1.26-.32.47-.57.98-.75,1.54-.18.56-.27,1.15-.27,1.78,0,.78.14,1.51.42,2.18.28.67.66,1.26,1.16,1.75.49.5,1.07.88,1.74,1.17.67.28,1.39.42,2.18.42s1.49-.13,2.2-.37c.71-.25,1.37-.59,2-1.01.01.22.07.42.15.61.09.19.2.36.35.5.14.14.31.25.51.34.2.08.4.12.62.12s.42-.03.59-.1c.17-.07.32-.16.44-.28.13-.12.24-.26.33-.42.09-.16.17-.34.24-.54.09-.25.16-.58.23-.98.07-.4.13-.84.18-1.32.05-.48.09-.98.13-1.5.04-.52.07-1.03.09-1.52.02-.49.04-.95.05-1.38.01-.43.02-.78.02-1.07,0-.58-.02-1.19-.05-1.84-.03-.65-.09-1.31-.18-1.98ZM125.36,89.24c-.25.4-.55.8-.9,1.22-.34.41-.72.78-1.13,1.12-.41.33-.85.6-1.31.81-.47.21-.96.31-1.47.31-.33,0-.64-.06-.91-.17-.28-.12-.51-.28-.71-.48-.2-.21-.35-.45-.45-.73-.1-.28-.16-.58-.16-.92,0-.51.13-.95.38-1.32.25-.37.57-.68.96-.93.39-.25.82-.43,1.29-.55.47-.12.92-.18,1.36-.18.36,0,.68.03.97.08.28.05.54.14.78.26.23.12.46.27.67.47.21.19.43.43.65.7v.31Z"/>
    <path class="cls-8" d="M141.82,79.69c-.13-.6-.31-1.18-.54-1.74-.23-.55-.52-1.04-.88-1.47-.36-.43-.8-.77-1.3-1.02-.51-.25-1.11-.38-1.8-.38s-1.33.14-1.87.43c-.54.29-1.01.68-1.41,1.17-.4.49-.73,1.07-1.01,1.72-.27.66-.5,1.36-.67,2.1-.17.74-.31,1.5-.4,2.28-.09.78-.16,1.54-.2,2.28-.04.74-.05,1.44-.05,2.09s0,1.23.02,1.72h-.09c-.26,0-.5.04-.72.11-.22.07-.41.18-.58.31s-.3.31-.39.52c-.09.21-.14.45-.14.72,0,.31.06.57.17.77s.27.37.47.49.42.21.67.26c.25.05.51.08.78.08.02.22.03.48.04.76,0,.28.02.57.05.87.03.3.07.58.14.86.06.28.16.53.29.75.13.22.3.4.52.53.21.13.48.2.81.2.22,0,.44-.04.63-.13.2-.09.37-.2.52-.35.15-.15.27-.32.35-.52.09-.2.13-.41.13-.63,0-.41-.03-.8-.08-1.2-.05-.39-.1-.79-.12-1.19.38,0,.76-.01,1.13-.01s.75,0,1.13-.02c.22,0,.43-.05.63-.14.2-.09.37-.21.51-.36.14-.15.26-.33.34-.52.08-.2.12-.4.12-.63s-.05-.43-.14-.63c-.09-.2-.21-.37-.36-.51-.15-.14-.33-.26-.53-.34-.2-.08-.41-.12-.62-.12-.4,0-.8,0-1.19.01-.4,0-.8.01-1.19.02,0-.25-.01-.5-.02-.75,0-.25,0-.5,0-.75,0-.2,0-.48.01-.84,0-.37.02-.78.05-1.24.03-.46.06-.95.11-1.46.05-.52.11-1.03.19-1.55s.18-1.01.29-1.48.25-.89.41-1.25c.16-.36.35-.65.56-.86.21-.21.45-.32.72-.32.24,0,.44.09.62.27.17.18.32.41.45.69.12.28.22.6.29.95.07.35.13.7.17,1.04.04.34.07.66.08.95.01.29.02.53.02.7,0,.25-.01.49-.03.73-.02.24-.03.48-.03.73,0,.22.04.43.13.63.09.2.2.37.35.51.14.14.32.26.52.34.2.08.41.13.62.13.41,0,.72-.09.95-.26.23-.17.4-.4.5-.67.11-.27.18-.57.2-.9.03-.33.04-.65.04-.96,0-.53-.02-1.1-.07-1.7-.05-.61-.14-1.21-.27-1.82Z"/>
    <path class="cls-12" d="M156.56,87.59c.2-.09.37-.2.52-.35.15-.15.26-.32.35-.52.08-.2.12-.41.12-.63,0-.85-.03-1.71-.09-2.58-.06-.88-.18-1.72-.36-2.53s-.43-1.58-.76-2.29c-.33-.72-.76-1.34-1.3-1.87-.54-.53-1.2-.95-1.97-1.26-.77-.31-1.7-.46-2.77-.46-.65,0-1.25.1-1.8.31-.55.21-1.04.49-1.49.85-.45.36-.85.78-1.2,1.27-.35.49-.67,1.01-.93,1.58-.27.56-.5,1.16-.68,1.77-.19.62-.34,1.24-.47,1.86-.12.62-.21,1.22-.27,1.82-.05.59-.08,1.15-.08,1.67,0,.73.05,1.48.15,2.25.1.77.26,1.51.49,2.24.22.73.52,1.41.87,2.06.36.64.79,1.21,1.31,1.69.51.48,1.11.86,1.8,1.14.69.28,1.47.42,2.34.42s1.65-.1,2.4-.3,1.42-.5,2.02-.92,1.11-.93,1.54-1.56c.43-.63.75-1.37.95-2.24.03-.11.04-.23.04-.36,0-.22-.04-.43-.13-.63-.09-.2-.2-.37-.35-.52-.15-.15-.32-.26-.52-.35s-.41-.13-.63-.13c-.32,0-.57.05-.76.16-.19.11-.34.25-.46.42-.12.17-.21.37-.29.6-.08.22-.17.45-.27.68-.1.23-.23.46-.39.68-.16.22-.37.42-.64.6-.27.17-.62.31-1.04.42-.42.11-.94.16-1.57.16-.41,0-.78-.08-1.1-.23-.32-.16-.61-.36-.86-.62-.25-.26-.46-.56-.65-.9-.18-.34-.33-.69-.46-1.06-.12-.37-.22-.74-.3-1.11s-.13-.72-.17-1.05l9.21-.05c.22,0,.43-.04.63-.13ZM146.73,84.52c.04-.3.09-.67.17-1.09.08-.42.19-.86.32-1.32.13-.46.29-.91.48-1.36.19-.45.41-.85.66-1.2.25-.35.54-.64.86-.86.32-.22.68-.33,1.08-.33.22,0,.44.01.66.03.22.02.44.06.65.12.21.06.42.14.61.24.19.1.37.23.54.39.2.18.37.4.51.67.14.26.27.55.38.86.11.31.2.64.27.98.07.34.13.68.17,1.01.05.34.08.66.11.97.03.31.05.59.06.85l-7.53.04Z"/>
    <path class="cls-5" d="M112.91,98.79c-.15-.15-.32-.27-.52-.35-.2-.09-.41-.13-.63-.13h-10.34c-.22,0-.44.04-.63.13-.2.09-.37.2-.53.35-.15.15-.27.32-.36.52s-.13.41-.13.63.04.44.13.63.21.37.36.52c.15.15.33.27.53.35.2.09.41.13.63.13h3.53v16.06c0,.22.04.44.13.63.09.2.2.37.35.52.15.15.32.27.52.35.2.09.41.13.63.13s.44-.04.63-.13c.2-.09.37-.2.53-.35.15-.15.27-.32.36-.52.09-.2.13-.41.13-.63v-16.06h3.53c.23,0,.45-.04.65-.13.2-.09.37-.2.52-.35s.26-.32.35-.52c.09-.2.13-.42.13-.64s-.04-.44-.13-.63c-.09-.2-.2-.37-.35-.52Z"/>
    <path class="cls-3" d="M128.23,104.3c-.18-.81-.43-1.58-.76-2.29-.33-.72-.76-1.34-1.3-1.87-.54-.53-1.2-.95-1.97-1.26-.77-.31-1.7-.46-2.77-.46-.65,0-1.25.1-1.8.31-.55.21-1.04.49-1.49.85-.45.36-.85.78-1.2,1.27s-.67,1.01-.93,1.58c-.27.56-.5,1.16-.68,1.77-.19.62-.34,1.24-.47,1.86-.12.62-.21,1.22-.27,1.82-.05.59-.08,1.15-.08,1.67,0,.73.05,1.48.15,2.25.1.77.26,1.51.49,2.24.22.73.52,1.41.87,2.06.36.64.79,1.21,1.31,1.69.51.48,1.11.86,1.8,1.14.69.28,1.47.42,2.34.42s1.65-.1,2.4-.3,1.42-.5,2.02-.92c.6-.41,1.11-.93,1.54-1.56.43-.63.75-1.37.95-2.24.03-.11.04-.23.04-.36,0-.22-.04-.43-.13-.63-.09-.2-.2-.37-.35-.52-.15-.15-.32-.26-.52-.35s-.41-.13-.63-.13c-.32,0-.57.05-.76.16-.19.11-.34.25-.46.42-.12.17-.21.37-.29.6-.08.22-.17.45-.27.68-.1.23-.23.46-.39.68-.16.22-.37.42-.64.6-.27.17-.62.31-1.04.42-.42.11-.94.16-1.57.16-.41,0-.78-.08-1.1-.23-.32-.16-.61-.36-.86-.62-.25-.26-.46-.56-.65-.9-.18-.34-.33-.69-.46-1.06-.12-.37-.22-.74-.3-1.11-.08-.37-.13-.72-.17-1.05l9.21-.05c.22,0,.43-.04.63-.13.2-.09.37-.2.52-.35.15-.15.26-.32.35-.52.08-.2.12-.41.12-.63,0-.85-.03-1.71-.09-2.58-.06-.88-.18-1.72-.36-2.53ZM117.87,107.84c.04-.3.09-.67.17-1.09.08-.42.19-.86.32-1.32.13-.46.29-.91.48-1.36.19-.45.41-.85.66-1.2.25-.35.54-.64.86-.86.32-.22.68-.33,1.08-.33.22,0,.44.01.66.03.22.02.44.06.65.12.21.06.42.14.61.24.19.1.37.23.54.39.2.18.37.4.51.67.14.26.27.55.38.86.11.31.2.64.27.98.07.34.13.68.17,1.01.05.34.08.66.11.97.03.31.04.59.06.85l-7.53.04Z"/>
    <path class="cls-7" d="M139.39,116.66c-.15-.15-.32-.27-.52-.36-.2-.09-.41-.13-.63-.13h-2.74v-16.19c0-.23-.04-.45-.12-.65s-.2-.38-.35-.53c-.15-.15-.32-.27-.52-.36-.2-.09-.41-.13-.65-.13-.26,0-.49.05-.7.15-.21.1-.38.23-.52.4-.14.17-.24.37-.31.59-.07.22-.11.45-.11.7v17.65c0,.43.1.77.3,1,.2.23.45.4.74.49s.62.15.98.16c.35.01.69.02,1,.02.22,0,.45,0,.71.01.25,0,1.67,0,1.93-.01.26-.01.51-.05.75-.1.24-.05.45-.14.64-.26.19-.12.34-.29.45-.49.11-.21.17-.47.17-.8,0-.22-.04-.44-.13-.63-.09-.2-.2-.37-.35-.53Z"/>
    <path class="cls-10" d="M157.04,106.52c-.09-.67-.21-1.33-.37-2-.16-.66-.36-1.29-.6-1.89-.25-.6-.54-1.16-.9-1.67-.35-.51-.76-.96-1.23-1.34-.47-.38-1.01-.68-1.61-.89-.6-.21-1.29-.32-2.06-.32-.6,0-1.16.08-1.69.25-.52.17-1,.4-1.44.69-.43.3-.82.65-1.17,1.06-.34.41-.63.86-.87,1.34-.24.48-.42,1-.54,1.54s-.18,1.1-.18,1.66c0,.27.03.53.08.78.05.25.14.48.27.67.13.2.3.35.51.47.21.12.48.17.79.17s.58-.06.79-.17c.21-.12.37-.27.49-.47.12-.2.2-.42.26-.67.05-.25.08-.51.08-.78,0-.39.05-.78.15-1.17.1-.39.26-.74.47-1.06.21-.31.48-.57.82-.77.34-.2.74-.3,1.2-.3.53,0,.98.11,1.36.32s.7.5.97.85c.26.35.48.75.63,1.2.16.45.28.92.37,1.39.09.47.16.94.2,1.4.04.46.08.88.11,1.25-.22-.1-.47-.19-.75-.27-.28-.08-.56-.15-.84-.21-.29-.06-.57-.1-.86-.13-.29-.03-.56-.04-.81-.04-.59,0-1.18.07-1.76.21-.58.14-1.13.33-1.64.59-.52.26-1,.57-1.44.94s-.82.79-1.14,1.26c-.32.47-.57.98-.75,1.54-.18.56-.27,1.15-.27,1.78,0,.78.14,1.51.42,2.18.28.67.66,1.26,1.16,1.75.49.5,1.07.88,1.74,1.17.67.28,1.39.42,2.18.42s1.49-.13,2.2-.37c.71-.25,1.37-.59,2-1.01.01.22.07.42.15.61.09.19.2.36.35.5.14.14.31.25.51.34.2.08.4.12.62.12s.42-.03.59-.1c.17-.07.32-.16.44-.28.13-.12.24-.26.33-.42.09-.16.17-.34.24-.54.09-.25.16-.58.23-.98.07-.4.13-.84.18-1.32.05-.48.09-.98.13-1.5.04-.52.07-1.03.09-1.52.02-.49.04-.95.05-1.38.01-.43.02-.78.02-1.07,0-.58-.02-1.19-.05-1.84-.03-.65-.09-1.31-.18-1.98ZM153.95,112.56c-.25.4-.55.8-.9,1.22-.34.41-.72.78-1.13,1.12-.41.33-.85.6-1.31.81-.47.21-.96.31-1.47.31-.33,0-.64-.06-.91-.17-.28-.12-.51-.28-.71-.48-.2-.21-.35-.45-.45-.73-.1-.28-.16-.58-.16-.92,0-.51.13-.95.38-1.32.25-.37.57-.68.96-.93.39-.25.82-.43,1.29-.55.47-.12.92-.18,1.36-.18.36,0,.68.03.97.08.28.05.54.14.78.26.23.12.46.27.67.47.21.19.43.43.65.7v.31Z"/>
  </g>
  <g>
    <path class="cls-9" d="M36.65,109.48c-2.4.58-4.86.29-6.93-.81-2.08-1.11-3.52-2.9-4.04-5.05-1.03-4.26,1.88-8.67,6.54-10.06l-.02-.02.44-.11c0-.1,0-.19,0-.29,0-1.88.16-3.77.47-5.63-.57.07-1.13.17-1.68.31-5.37,1.29-9.63,5.22-11.13,10.25-.03.09-.05.18-.07.27l-.06.22c-.02.06-.03.11-.05.17-.21.87-.34,1.77-.37,2.67v.04c0,.21,0,.4,0,.58v.14c0,.15.01.3.02.45v.13s0,.08.01.12c0,.1.02.2.03.3l.02.21c0,.06.01.13.02.19,0,.08.02.15.03.23l.04.23c.01.08.02.16.04.24.02.13.05.25.08.38l.04.18s.02.08.03.13c1.81,7.51,9.83,12.04,17.89,10.1.67-.16,1.33-.37,1.98-.62-1.23-1.55-2.32-3.22-3.26-4.98-.02,0-.04.01-.06.02Z"/>
    <path class="cls-11" d="M91.65,86.65h0c-.53-2.66-2.91-4.58-5.66-4.58-1.72,0-3.33.76-4.42,2.08-1.12,1.36-1.57,3.15-1.23,4.91.26,1.34.39,2.72.39,4.1,0,10.7-7.76,19.41-17.29,19.41s-16.5-7.85-17.23-17.8l-.08.05v-1.7c0-1.36.14-2.72.39-4.04.34-1.76-.11-3.55-1.23-4.91-1.09-1.32-2.7-2.08-4.42-2.08-2.74,0-5.12,1.93-5.66,4.58,0,0,0,0,0,.01-.05.25-.09.51-.13.77-.33,1.89-.51,3.8-.51,5.71,0,0,0,0,0,0,0,.26,0,.51.01.77.12,5.07,1.38,9.93,3.6,14.23.12.23.24.46.37.68.91,1.67,1.97,3.24,3.16,4.7.16.2.33.4.49.59,2.14,2.49,4.67,4.63,7.54,6.3.16.1.33.18.49.27l.41.23c.1.06.21.12.31.17,1.64.85,3.37,1.53,5.16,2.03l.13.04c.37.1.74.19,1.11.28.05.01.11.03.16.04.04.01.09.02.13.03.29.06.58.12.88.17l.29.06c.08.02.17.03.25.05.2.03.41.06.61.08l.45.06c.13.02.25.04.38.05.16.02.31.03.47.04l.49.04c.16.01.33.03.5.04.27.01.54.02.81.02h.16c.08,0,.15,0,.23,0,.07,0,.14,0,.22,0h.08c15.9-.01,28.83-13.9,28.83-30.97,0-2.18-.22-4.36-.65-6.5Z"/>
    <path class="cls-4" d="M50.76,81.93c4.53,0,8.22-3.69,8.22-8.22s-3.69-8.22-8.22-8.22-8.22,3.69-8.22,8.22,3.69,8.22,8.22,8.22Z"/>
    <path class="cls-1" d="M76.1,81.93c4.53,0,8.22-3.69,8.22-8.22s-3.69-8.22-8.22-8.22-8.22,3.69-8.22,8.22,3.69,8.22,8.22,8.22Z"/>
  </g>
</svg>