<?xml version="1.0" encoding="UTF-8"?>
<svg id="Layer_1" data-name="Layer 1" xmlns="http://www.w3.org/2000/svg" xmlns:xlink="http://www.w3.org/1999/xlink" viewBox="0 0 180 180">
  <defs>
    <style>
      .cls-1 {
        fill: url(#linear-gradient);
      }

      .cls-1, .cls-2, .cls-3, .cls-4, .cls-5 {
        stroke-width: 0px;
      }

      .cls-2 {
        fill: #808285;
      }

      .cls-3 {
        fill: url(#linear-gradient-2);
      }

      .cls-4 {
        fill: url(#linear-gradient-3);
      }

      .cls-5 {
        fill: url(#linear-gradient-4);
      }
    </style>
    <linearGradient id="linear-gradient" x1="54.71" y1="60.8" x2="173.27" y2="60.8" gradientTransform="translate(-12.79 12.32)" gradientUnits="userSpaceOnUse">
      <stop offset="0" stop-color="#6e402b"/>
      <stop offset="1" stop-color="#c49a6c"/>
    </linearGradient>
    <linearGradient id="linear-gradient-2" x1="56.85" y1="68.53" x2="175.38" y2="68.53" xlink:href="#linear-gradient"/>
    <linearGradient id="linear-gradient-3" x1="-1463.84" y1="623.29" x2="-1345.28" y2="623.29" gradientTransform="translate(-1330.47 715.46) rotate(-180)" xlink:href="#linear-gradient"/>
    <linearGradient id="linear-gradient-4" x1="-1461.7" y1="631.03" x2="-1343.18" y2="631.03" gradientTransform="translate(-1330.47 715.46) rotate(-180)" xlink:href="#linear-gradient"/>
  </defs>
  <g>
    <polygon class="cls-2" points="68.05 134.36 66.08 116.54 66.06 116.34 64.27 116.34 57.74 130.41 50.77 116.34 49 116.34 47.17 134.36 49.16 134.36 50.28 121.61 56.67 134.36 58.04 134.36 63.91 121.63 65.28 134.36 68.05 134.36"/>
    <path class="cls-2" d="M78.52,116.16l-.07-.19-2.34.68-7.08,17.71h2.21l2.35-6.31,6.42-.08,2.18,6.39h2.92l-6.59-18.2ZM79.49,126.39h-5.32l2.72-7.3,2.6,7.3Z"/>
    <path class="cls-2" d="M99.64,118.36c-.79-.7-1.76-1.23-2.87-1.57-1.1-.34-2.34-.51-3.69-.51-.51,0-1.04,0-1.59.03-.55.02-1.09.04-1.62.07-.53.03-1.04.06-1.53.1-.49.04-.93.08-1.3.13l-.19.02v17.58l.19.02c.75.08,1.63.15,2.64.21,1,.06,2.02.09,3.03.09,1.54,0,2.92-.24,4.09-.72,1.17-.48,2.17-1.16,2.96-2.02.79-.86,1.39-1.91,1.79-3.11.39-1.19.59-2.52.59-3.93s-.22-2.66-.65-3.71c-.43-1.06-1.05-1.95-1.85-2.66ZM99.23,125c0,1.07-.07,2.01-.19,2.78-.13.77-.29,1.42-.49,1.96-.2.52-.42.95-.67,1.26-.25.32-.51.57-.77.75-.53.38-1.23.66-2.07.84-.86.18-1.84.27-2.92.26-.55,0-1.04-.02-1.47-.06-.36-.03-.69-.07-.99-.11v-14.54c.14-.02.28-.03.4-.05.17-.02.36-.04.56-.06.2-.02.44-.03.7-.04.26-.01.59-.02.99-.02.9,0,1.78.12,2.62.36.83.24,1.57.63,2.2,1.18.63.54,1.15,1.27,1.53,2.16.38.9.58,2.02.58,3.33Z"/>
    <path class="cls-2" d="M112.2,115.97l-2.34.68-7.08,17.71h2.21l2.35-6.31,6.42-.08,2.18,6.39h2.92l-6.59-18.2-.07-.19ZM113.24,126.39h-5.32l2.72-7.3,2.6,7.3Z"/>
    <path class="cls-2" d="M123.41,126.99h2.11l.91,1.66c.64,1.18,1.19,2.17,1.64,2.92.45.76.87,1.36,1.26,1.8.4.45.82.76,1.25.93.42.16.94.24,1.53.24.41,0,.81-.03,1.21-.09.41-.06.73-.14,1-.23l.14-.05v-1.14h-.39c-.53,0-1.01-.17-1.48-.5-.48-.35-.97-.83-1.44-1.43-.48-.61-.97-1.32-1.44-2.13-.44-.75-.91-1.53-1.38-2.35.42-.18.83-.4,1.21-.66.47-.31.88-.68,1.22-1.12.34-.44.62-.95.83-1.54.21-.58.31-1.26.31-2.01s-.13-1.48-.37-2.09c-.25-.62-.64-1.15-1.15-1.59-.51-.43-1.16-.76-1.94-.98-.77-.22-1.68-.33-2.7-.33-.83,0-1.69.02-2.55.05-.86.03-1.66.08-2.38.14l-.2.02v17.85h2.8v-7.37ZM124.93,117.94c.64,0,1.21.07,1.71.2.48.13.9.33,1.24.61.33.27.59.63.77,1.07.18.44.27.99.27,1.63,0,.52-.02.98-.07,1.34-.05.36-.12.67-.21.93-.09.24-.19.44-.31.59-.12.15-.25.27-.39.36-.33.21-.81.38-1.45.5-.65.12-1.51.18-2.56.18h-.52v-7.33c.27-.02.49-.04.69-.06.23-.02.51-.02.84-.02Z"/>
    <path class="cls-2" d="M52.04,148.82c-.24.05-.5.1-.75.14-.26.04-.51.06-.77.08-.26.02-.51.03-.75.03-.8,0-1.37-.31-1.72-.95-.38-.67-.57-1.67-.57-2.99,0-.87.05-1.61.16-2.19.1-.54.27-.9.5-1.09.2-.16.42-.26.65-.31.25-.05.55-.08.9-.08.16,0,.36.01.59.04.24.03.49.06.74.1.25.04.48.08.7.13.21.05.38.09.5.13l.21.06.47-1.56-.23-.05c-.12-.03-.28-.05-.48-.07-.2-.02-.4-.04-.63-.06-.22-.02-.45-.03-.69-.05-.24-.01-.45-.02-.65-.02-.54,0-1.08.09-1.61.25-.54.17-1.04.46-1.48.86-.44.4-.79.92-1.06,1.56-.27.64-.4,1.43-.4,2.35,0,.75.07,1.44.21,2.05.14.62.37,1.17.68,1.61.32.45.73.81,1.24,1.06.5.25,1.12.37,1.83.37.26,0,.54-.02.83-.05.28-.03.57-.08.85-.14.28-.06.56-.13.82-.22.27-.09.53-.19.76-.3l.12-.06v-.92l-.28.09c-.21.07-.45.13-.69.19Z"/>
    <path class="cls-2" d="M57.91,140.35l-3.9,9.75h1.41l1.27-3.41,3.33-.04,1.18,3.46h1.79l-3.68-10.16-1.4.41ZM59.67,145.59h-2.59l1.32-3.56,1.27,3.56Z"/>
    <polygon class="cls-2" points="64.64 150.1 66.35 150.1 66.35 145.9 69.68 145.82 69.83 144.8 66.35 144.76 66.35 141.37 69.89 141.33 70.03 140.22 64.64 140.22 64.64 150.1"/>
    <polygon class="cls-2" points="74.01 145.44 77.15 145.36 77.31 144.34 74.01 144.3 74.01 141.38 77.45 141.34 77.6 140.22 72.29 140.22 72.29 150.1 77.74 150.1 77.89 149.01 74.01 148.94 74.01 145.44"/>
    <path class="cls-2" d="M89.83,145.6c-.2-.23-.46-.44-.76-.61-.14-.08-.28-.14-.44-.2.04-.02.07-.04.11-.05.24-.12.45-.29.64-.48.19-.2.34-.43.45-.7.11-.27.17-.58.17-.93,0-.43-.08-.8-.25-1.12-.17-.32-.41-.58-.73-.78-.3-.19-.67-.33-1.09-.43-.74-.16-1.71-.15-2.65-.11-.42.02-.82.05-1.19.09l-.19.02v9.73l.2.02c.2.02.42.04.66.06.24.02.49.03.74.05.25.01.5.02.74.03.24,0,.46,0,.66,0,.61,0,1.14-.06,1.58-.19.45-.13.83-.32,1.12-.57.29-.25.51-.56.65-.92.13-.35.2-.75.2-1.19,0-.32-.05-.64-.15-.93-.1-.29-.25-.56-.46-.8ZM87.85,148.94c-.11.03-.23.05-.36.07-.13.02-.27.04-.41.04-.43.03-.81.01-1.13-.02l-.34-.03v-3.58h.94c.29,0,.58.03.84.1.25.07.48.17.66.32.18.14.33.34.44.57.11.23.17.53.17.87,0,.28-.02.52-.06.71-.04.18-.09.34-.15.46-.06.11-.11.2-.17.25-.07.06-.13.11-.2.15-.06.03-.13.06-.23.09ZM88.18,143.36c-.04.16-.08.29-.13.39-.05.1-.1.17-.16.23-.06.06-.11.1-.16.13-.12.06-.28.12-.47.16-.19.04-.41.06-.64.06h-1.01v-3.02l.2-.02c.07,0,.16-.01.25-.01.1,0,.21,0,.35,0,.29,0,.56.03.79.09.22.06.41.15.56.26.15.12.26.26.34.45.08.19.12.42.12.7,0,.23-.02.42-.05.58Z"/>
    <path class="cls-2" d="M95.44,140.35l-3.9,9.75h1.41l1.27-3.41,3.33-.04,1.18,3.46h1.79l-3.68-10.16-1.4.41ZM97.21,145.59h-2.59l1.32-3.56,1.27,3.56Z"/>
    <path class="cls-2" d="M109.34,148.99c-.25-.14-.5-.33-.74-.57-.25-.24-.51-.54-.76-.88-.26-.34-.51-.71-.76-1.1-.25-.39-.5-.8-.75-1.23-.22-.38-.44-.76-.66-1.14l.36-.4c.16-.18.32-.35.47-.52l.45-.48c.14-.15.27-.29.4-.41.42-.42.8-.72,1.12-.9.31-.17.62-.25.93-.25h.35v-.77l-.14-.05c-.06-.02-.14-.04-.25-.06-.09-.01-.21-.02-.33-.02-.26,0-.5.02-.71.05-.21.04-.42.1-.62.19-.2.09-.4.22-.59.37-.19.15-.4.35-.64.58-.12.12-.26.27-.42.45-.16.18-.33.37-.51.57-.18.2-.36.42-.56.64l-.56.65c-.18.21-.35.41-.51.61-.01.01-.02.03-.03.04v-4.14h-1.71v9.87h1.71v-4.14s.06-.07.1-.11c.07-.08.15-.17.24-.26.08-.09.16-.17.23-.25.18.3.36.61.53.92.23.4.45.79.68,1.16.23.37.46.73.7,1.06.24.33.49.63.74.88.26.26.53.46.81.61.29.15.6.23.93.23.29,0,.54-.01.73-.04.19-.03.4-.07.61-.13l.16-.04v-.8h-.33c-.23,0-.46-.07-.69-.19Z"/>
    <polygon class="cls-2" points="113.71 145.44 116.85 145.36 117 144.34 113.71 144.3 113.71 141.38 117.15 141.34 117.3 140.22 111.99 140.22 111.99 150.1 117.44 150.1 117.59 149.01 113.71 148.94 113.71 145.44"/>
    <path class="cls-2" d="M126.43,148.93c-.25-.18-.51-.44-.76-.76-.26-.33-.52-.71-.77-1.14-.22-.37-.45-.77-.69-1.17.2-.09.39-.2.57-.32.26-.17.49-.38.68-.63.19-.24.35-.53.46-.86.11-.33.17-.7.17-1.12s-.07-.82-.21-1.17c-.14-.35-.36-.65-.65-.9-.29-.24-.65-.42-1.08-.55-.76-.22-1.81-.2-2.87-.16-.47.02-.9.04-1.29.07l-.2.02v9.84h1.71v-3.98h.98l.46.85c.35.64.65,1.18.89,1.58.25.42.48.75.69.99.23.26.47.43.72.53.24.09.53.14.86.14.22,0,.45-.02.67-.05.23-.03.41-.08.56-.13l.14-.05v-.78h-.31c-.26,0-.5-.08-.74-.25ZM122.22,141.22c.34,0,.64.03.9.1.25.07.46.17.63.31.17.14.3.32.39.54.09.23.14.51.14.84,0,.28-.01.52-.04.71-.03.19-.06.35-.11.48-.04.12-.1.22-.15.29-.06.07-.12.13-.19.17-.17.11-.42.19-.75.25-.34.06-.8.1-1.37.1h-.18v-3.77c.1,0,.2-.02.28-.02.12,0,.27-.01.45-.01Z"/>
    <polygon class="cls-2" points="134.26 140.22 131.91 144.99 129.4 140.22 127.47 140.22 130.86 146.31 130.86 150.1 132.54 150.1 132.54 146.31 135.64 140.22 134.26 140.22"/>
  </g>
  <path class="cls-1" d="M135.39,80.26c.02-1.79-.55-3.54-1.55-5.04-6.46-9.72-24.34-16.73-45.33-16.73s-38.37,6.81-45.06,16.31c-2.57,3.66-1.85,8.8,1.85,11.31.94.64,2.03,1.09,3.23,1.3,7.11,1.23,20.81-1.27,42.68-7.95,42.71-13.05,43.92,2.05,43.94,2.54.16-.58.22-1.18.23-1.75Z"/>
  <path class="cls-3" d="M158.92,76.35c-.29-.06-.59-.06-.89-.02-1.15.16-15.08.9-19.26,1.15l-1.46.08s-.01-.03-.02-.04c.18.75.29,1.51.31,2.28.02.75-.06,1.5-.2,2.24l20.11,3.29c.2.05.41.08.61.08,2.38-.05,4.34-1.92,4.48-4.32.13-2.3-1.47-4.3-3.67-4.74Z"/>
  <path class="cls-4" d="M39.91,85.01c-.02,1.79.55,3.54,1.55,5.04,6.46,9.72,24.34,16.73,45.33,16.73s38.37-6.81,45.06-16.31c2.57-3.66,1.85-8.8-1.85-11.31-.94-.64-2.03-1.09-3.23-1.3-7.11-1.23-20.81,1.27-42.68,7.95-42.71,13.05-43.92-2.05-43.94-2.54-.16.58-.22,1.18-.23,1.75Z"/>
  <path class="cls-5" d="M16.38,88.93c.29.06.59.06.89.02,1.15-.16,15.08-.9,19.26-1.15l1.46-.08s.01.03.02.04c-.18-.75-.29-1.51-.31-2.28-.02-.75.06-1.5.2-2.24l-20.11-3.29c-.2-.05-.41-.08-.61-.08-2.38.05-4.34,1.92-4.48,4.32-.13,2.3,1.47,4.3,3.67,4.74Z"/>
</svg>