<?xml version="1.0" encoding="UTF-8"?>
<svg id="Layer_1" data-name="Layer 1" xmlns="http://www.w3.org/2000/svg" xmlns:xlink="http://www.w3.org/1999/xlink" viewBox="0 0 180 180">
  <defs>
    <style>
      .cls-1 {
        fill: url(#linear-gradient);
      }

      .cls-1, .cls-2, .cls-3 {
        stroke-width: 0px;
      }

      .cls-4 {
        filter: url(#drop-shadow-1);
      }

      .cls-2 {
        fill: url(#linear-gradient-2);
      }

      .cls-3 {
        fill: #231f20;
      }
    </style>
    <filter id="drop-shadow-1" filterUnits="userSpaceOnUse">
      <feOffset dx="3.14" dy="3.14"/>
      <feGaussianBlur result="blur" stdDeviation="3.76"/>
      <feFlood flood-color="#231f20" flood-opacity=".75"/>
      <feComposite in2="blur" operator="in"/>
      <feComposite in="SourceGraphic"/>
    </filter>
    <linearGradient id="linear-gradient" x1="4.18" y1="96.51" x2="99.57" y2="96.51" gradientUnits="userSpaceOnUse">
      <stop offset="0" stop-color="#fff"/>
      <stop offset=".09" stop-color="#def3fc"/>
      <stop offset=".21" stop-color="#bbe7f9"/>
      <stop offset=".33" stop-color="#9fddf7"/>
      <stop offset=".46" stop-color="#88d5f5"/>
      <stop offset=".61" stop-color="#79d0f4"/>
      <stop offset=".77" stop-color="#6fcdf3"/>
      <stop offset="1" stop-color="#6dccf3"/>
    </linearGradient>
    <linearGradient id="linear-gradient-2" x1="4.18" y1="95.37" x2="90.69" y2="95.37" gradientUnits="userSpaceOnUse">
      <stop offset="0" stop-color="#6dccf3"/>
      <stop offset=".23" stop-color="#6fcdf3"/>
      <stop offset=".39" stop-color="#79d0f4"/>
      <stop offset=".54" stop-color="#88d5f5"/>
      <stop offset=".67" stop-color="#9fddf7"/>
      <stop offset=".79" stop-color="#bbe7f9"/>
      <stop offset=".91" stop-color="#def3fc"/>
      <stop offset="1" stop-color="#fff"/>
    </linearGradient>
  </defs>
  <g class="cls-4">
    <g>
      <path class="cls-3" d="M116.4,75.72h1.32v9.88h-1.42v-7.68l-3.04,3.82h-.26l-3.07-3.82v7.68h-1.41v-9.88h1.34l3.28,4.06,3.26-4.06Z"/>
      <path class="cls-3" d="M125.9,75.67h.99l4.43,9.93h-1.45l-1.32-2.93h-4.21l-1.23,2.93h-1.45l4.24-9.93ZM127.98,81.41l-1.59-3.58-1.48,3.58h3.07Z"/>
      <path class="cls-3" d="M135.32,85.59v-9.86h3.33c1.34,0,2.41.2,3.19.6.78.4,1.4,1,1.87,1.78.46.78.69,1.64.69,2.56,0,.66-.13,1.29-.38,1.89-.25.6-.62,1.13-1.09,1.59-.48.47-1.04.83-1.68,1.07-.37.15-.71.24-1.03.29s-.91.07-1.78.07h-3.13ZM138.5,76.98h-1.77v7.35h1.81c.71,0,1.26-.05,1.65-.15.39-.1.72-.22.98-.37.26-.15.5-.33.72-.55.7-.71,1.05-1.6,1.05-2.68s-.36-1.93-1.07-2.6c-.26-.25-.57-.45-.91-.62-.34-.16-.67-.27-.97-.32s-.8-.08-1.48-.08Z"/>
      <path class="cls-3" d="M151.41,75.67h.99l4.43,9.93h-1.45l-1.32-2.93h-4.21l-1.23,2.93h-1.45l4.24-9.93ZM153.49,81.41l-1.59-3.58-1.48,3.58h3.07Z"/>
      <path class="cls-3" d="M160.86,85.6v-9.88h2.47c1,0,1.79.25,2.38.74.59.49.88,1.16.88,2.01,0,.57-.14,1.07-.43,1.49-.29.42-.7.73-1.24.94.32.21.62.49.93.85.3.36.73.98,1.27,1.87.34.56.62.98.83,1.27l.52.71h-1.68l-.43-.65s-.04-.06-.08-.12l-.28-.39-.44-.72-.47-.77c-.29-.41-.56-.73-.8-.97-.24-.24-.46-.41-.66-.52-.2-.11-.53-.16-.99-.16h-.37v4.3h-1.41ZM162.69,76.92h-.42v3.12h.54c.72,0,1.21-.06,1.47-.18.27-.12.47-.31.62-.55.15-.25.22-.53.22-.85s-.08-.59-.25-.84c-.17-.25-.4-.43-.7-.53-.3-.1-.8-.16-1.49-.16Z"/>
      <path class="cls-3" d="M110.99,98.84l-1.07-.65c-.67-.41-1.15-.82-1.44-1.22s-.43-.86-.43-1.38c0-.78.27-1.41.81-1.89.54-.48,1.24-.73,2.1-.73s1.58.23,2.27.69v1.6c-.71-.68-1.48-1.03-2.3-1.03-.46,0-.84.11-1.14.32s-.45.49-.45.82c0,.3.11.57.33.83.22.26.57.53,1.06.81l1.08.64c1.2.72,1.81,1.64,1.81,2.75,0,.79-.26,1.44-.8,1.93s-1.22.74-2.07.74c-.98,0-1.86-.3-2.67-.9v-1.8c.76.97,1.65,1.45,2.65,1.45.44,0,.81-.12,1.11-.37.29-.25.44-.56.44-.93,0-.6-.43-1.17-1.3-1.71Z"/>
      <path class="cls-3" d="M118,102.98v-9.89h3.13c.94,0,1.69.25,2.26.76.56.51.84,1.19.84,2.05,0,.57-.14,1.08-.43,1.53-.29.44-.68.76-1.18.97-.5.2-1.22.3-2.15.3h-1.05v4.28h-1.42ZM120.88,94.34h-1.46v3.09h1.55c.57,0,1.02-.13,1.33-.41s.47-.66.47-1.16c0-1.01-.63-1.52-1.88-1.52Z"/>
      <path class="cls-3" d="M133.2,92.96c1.53,0,2.8.48,3.81,1.45,1.01.97,1.52,2.18,1.52,3.63s-.51,2.66-1.54,3.62c-1.02.95-2.32,1.43-3.88,1.43s-2.73-.48-3.72-1.43c-.99-.95-1.49-2.15-1.49-3.59s.5-2.7,1.5-3.66c1-.97,2.26-1.45,3.79-1.45ZM133.25,94.3c-1.13,0-2.06.35-2.79,1.06-.73.71-1.09,1.61-1.09,2.71s.36,1.95,1.09,2.66c.73.71,1.64,1.06,2.74,1.06s2.02-.36,2.76-1.08c.74-.72,1.11-1.62,1.11-2.69s-.37-1.93-1.11-2.64c-.74-.71-1.64-1.07-2.72-1.07Z"/>
      <path class="cls-3" d="M143.21,102.98v-9.88h2.47c1,0,1.79.25,2.38.74.59.49.88,1.16.88,2.01,0,.57-.14,1.07-.43,1.49-.29.42-.7.73-1.24.94.32.21.62.49.93.85.3.36.73.98,1.27,1.87.34.56.62.98.83,1.27l.52.71h-1.68l-.43-.65s-.04-.06-.08-.12l-.28-.39-.44-.72-.47-.77c-.29-.41-.56-.73-.8-.97-.24-.24-.46-.41-.66-.52-.2-.11-.53-.16-.99-.16h-.37v4.3h-1.41ZM145.05,94.3h-.42v3.12h.54c.72,0,1.21-.06,1.47-.18.27-.12.47-.31.62-.55.15-.25.22-.53.22-.85s-.08-.59-.25-.84c-.17-.25-.4-.43-.7-.53-.3-.1-.8-.16-1.49-.16Z"/>
      <path class="cls-3" d="M152.67,93.08h8.25v1.26h-3.44v8.63h-1.42v-8.63h-3.39v-1.26Z"/>
      <path class="cls-3" d="M117.06,118.06v1.56c-1.04.57-2.23.85-3.59.85-1.1,0-2.04-.22-2.81-.66-.77-.44-1.38-1.05-1.82-1.83-.45-.78-.67-1.62-.67-2.52,0-1.44.51-2.65,1.54-3.63,1.03-.98,2.29-1.47,3.79-1.47,1.04,0,2.19.27,3.46.81v1.52c-1.15-.66-2.28-.99-3.39-.99s-2.07.36-2.82,1.07c-.75.71-1.12,1.61-1.12,2.68s.37,1.98,1.1,2.67c.74.7,1.68,1.05,2.82,1.05s2.37-.37,3.51-1.1Z"/>
      <path class="cls-3" d="M121.7,110.47h1.41v8.59h4.45v1.29h-5.86v-9.88Z"/>
      <path class="cls-3" d="M138.56,110.47h1.42v5.61c0,.76-.06,1.33-.17,1.72s-.25.71-.41.97-.36.49-.6.69c-.78.67-1.81,1.01-3.07,1.01s-2.32-.33-3.1-1c-.24-.21-.43-.44-.6-.7-.16-.26-.3-.57-.4-.94s-.16-.96-.16-1.75v-5.59h1.42v5.61c0,.93.11,1.57.32,1.94s.54.65.97.87c.43.22.95.33,1.53.33.84,0,1.52-.22,2.05-.66.28-.24.48-.51.6-.83.12-.32.18-.87.18-1.65v-5.61Z"/>
      <path class="cls-3" d="M148.18,120.35h-3.34v-9.88h2.59c.82,0,1.45.11,1.91.33.46.22.81.52,1.05.91.24.38.36.83.36,1.33,0,.97-.5,1.67-1.51,2.09.72.14,1.29.43,1.72.89s.64,1,.64,1.64c0,.5-.13.95-.39,1.35-.26.4-.64.72-1.14.97s-1.13.37-1.88.37ZM147.47,111.73h-1.22v2.97h.94c.75,0,1.29-.14,1.61-.43s.48-.66.48-1.12c0-.95-.6-1.42-1.81-1.42ZM147.57,115.96h-1.32v3.13h1.39c.77,0,1.3-.06,1.57-.18.28-.12.5-.31.66-.56.17-.25.25-.53.25-.82s-.09-.58-.26-.83c-.18-.25-.43-.44-.75-.56-.33-.12-.84-.18-1.54-.18Z"/>
    </g>
    <path class="cls-1" d="M64.05,61.83c-7.88.27-15.9,3.16-15.9,3.16,0,0-6.23,2.07-10.44,3.28s-13.86,2.64-20.83,1.76c-8.65-1.1-12.7-3.92-12.7-3.92,0,0,8.89,14.32,30.73,13.94,6.93-.12,10.15-1.28,14.73-2.06,8.77-1.48,16.91-2.3,25.09,4.14,3.99,3.14,5.9,7.87,6.78,11.69,1.96,8.5-2.11,16.42-6.16,19.69-5.29,4.25-10.37,5.22-16.88,3.45-6.51-1.77-10.78-6.86-10.98-13.15-.1-3.21.92-6.01,2.52-8.03,1.3-1.66,3.04-2.75,4.56-3.25,4.02-1.33,6.61-.33,8.56.81,2.51,1.48,4.23,4.74,3.15,8.67-.17.62-.52,1.27-.9,1.87-1.52,2.39-4.49,2.95-6.75,2.1-1.41-.53-2.67-1.55-3.11-3.3-.92-3.65,1.88-5.62,3.56-5.68,0,0,.79-.07,1.6.12,1.11.26,2.38,1.2,2.72,2.66.83,3.61-2.58,5.42-4.73,4.62,0,0,1.8,1.47,4.5.08,0,0,1.61-.73,2.33-2.9.64-1.94.09-3.65.09-3.65,0,0-.48-2.01-2.27-3.44-1.78-1.43-3.98-1.66-3.98-1.66,0,0-2.7-.4-5.25,1.01-2.37,1.3-4.42,3.64-4.82,7.4s.88,8.18,5.58,11.28c4.7,3.1,14.03,3.06,18.81-4.29,4.78-7.35,3.01-15.76-1.17-21.02-4.21-5.29-16.15-10.9-28.29-2.38-2.58,1.81-4.56,4.52-5.97,7.05-5.26,9.38-3.31,21.4,3.8,29.07,5.68,6.13,13.55,10.15,22.84,10.29h.04c19.15-.02,34.66-15.55,34.66-34.7s-15.54-34.7-34.7-34.7l-.81.02Z"/>
    <path class="cls-2" d="M58.65,104.39c1.23.45,2.49.58,3.82-.24,2.24-1.39,2.81-5.23-.08-7.67-4.72-3.97-12.11.96-9.48,8.23,1.52,4.18,5.45,5.74,8.51,5.74,5.36,0,7.99-3.32,9.14-5.19,4.57-7.48.27-19.11-12.8-19.21-6.17-.05-11.7,4.18-14.34,9.49-2.84,5.72-2.53,14.4,2.81,21.17,4.42,5.6,12.77,7.94,18.63,7.93,4.93,0,9.66-1.08,13.99-4.04s7.52-5.89,10.13-12.7c4.76-12.41-.29-30.16-16.71-35.44-19.84-6.38-27.99,3.86-48.99,2.47-11.56-.76-19.1-8.82-19.1-8.82l.08.12c.91,1.37,9.98,14.15,30.66,13.79,6.93-.12,10.15-1.28,14.73-2.06,8.77-1.48,16.91-2.3,25.09,4.14,3.99,3.14,5.9,7.87,6.78,11.69,1.96,8.5-2.11,16.42-6.16,19.69-5.29,4.25-10.37,5.22-16.88,3.45s-10.78-6.86-10.98-13.15c-.1-3.21.92-6.01,2.52-8.03,1.3-1.66,3.04-2.75,4.56-3.25,4.02-1.33,6.61-.33,8.56.81,2.51,1.48,4.23,4.74,3.15,8.67-.17.62-.52,1.27-.9,1.87-1.52,2.39-4.49,2.95-6.75,2.1-1.41-.53-2.67-1.55-3.11-3.3-.92-3.65,1.88-5.6,3.56-5.66,0,0,.74-.08,1.55.11,1.11.26,2.43,1.18,2.76,2.64.83,3.6-2.57,5.41-4.73,4.62v.03Z"/>
  </g>
</svg>